<?xml version="1.0" encoding="UTF-8" standalone="no"?>
<!-- Created with Inkscape (http://www.inkscape.org/) -->

<svg
   width="210mm"
   height="297mm"
   viewBox="0 0 210 297"
   version="1.1"
   id="svg1"
   sodipodi:docname="ObjectPascal.svg"
   inkscape:version="1.3 (0e150ed, 2023-07-21)"
   xmlns:inkscape="http://www.inkscape.org/namespaces/inkscape"
   xmlns:sodipodi="http://sodipodi.sourceforge.net/DTD/sodipodi-0.dtd"
   xmlns="http://www.w3.org/2000/svg"
   xmlns:svg="http://www.w3.org/2000/svg">
  <sodipodi:namedview
     id="namedview1"
     pagecolor="#ffffff"
     bordercolor="#666666"
     borderopacity="1.0"
     inkscape:showpageshadow="2"
     inkscape:pageopacity="0.0"
     inkscape:pagecheckerboard="0"
     inkscape:deskcolor="#d1d1d1"
     inkscape:document-units="mm"
     inkscape:zoom="1"
     inkscape:cx="335.49999"
     inkscape:cy="88.999998"
     inkscape:window-width="1920"
     inkscape:window-height="1018"
     inkscape:window-x="0"
     inkscape:window-y="28"
     inkscape:window-maximized="1"
     inkscape:current-layer="layer1"
     showgrid="false" />
  <defs
     id="defs1">
    <rect
       x="140.36768"
       y="87.255139"
       width="108.39887"
       height="29.658726"
       id="rect2" />
    <rect
       x="154.83665"
       y="357.48901"
       width="184.20995"
       height="191.24143"
       id="rect1" />
    <rect
       x="154.83665"
       y="357.48901"
       width="186.47722"
       height="49.115569"
       id="rect3" />
    <rect
       x="154.83665"
       y="357.48901"
       width="186.47722"
       height="49.115569"
       id="rect17" />
    <rect
       x="154.83665"
       y="357.48901"
       width="186.47722"
       height="49.115569"
       id="rect22" />
  </defs>
  <g
     inkscape:label="Layer 1"
     inkscape:groupmode="layer"
     id="layer1">
    <path
       id="path26"
       style="fill:#008000;fill-opacity:1;stroke:none;stroke-width:4.29304;stroke-linecap:round;stroke-linejoin:round;stroke-opacity:1"
       d="m 41.772821,24.308726 a 13.616714,13.616714 0 0 0 -13.616739,13.61674 13.616714,13.616714 0 0 0 4.368208,9.959599 v -17.4625 h 10.903211 c 2.905353,0 5.139112,0.671798 6.700883,2.01538 1.573254,1.332099 2.360062,3.220829 2.360062,5.666838 0,1.561771 -0.356168,2.957045 -1.068151,4.185791 -0.711984,1.228746 -1.733864,2.182241 -3.065963,2.859774 -1.320615,0.666049 -2.894231,0.998905 -4.720125,0.998905 h -6.028573 v 4.718058 a 13.616714,13.616714 0 0 0 4.167187,0.674895 13.616714,13.616714 0 0 0 13.61674,-13.61674 13.616714,13.616714 0 0 0 -13.61674,-13.61674 z M 37.605634,50.867311 A 13.616714,13.616714 0 0 1 32.52429,47.885065 v 6.807853 h 5.081344 z m 0,-16.500284 v 7.871871 h 5.391402 c 1.401001,0 2.480644,-0.344512 3.238562,-1.033529 0.757918,-0.7005 1.136882,-1.705155 1.136882,-3.014286 0,-2.549362 -1.504714,-3.824056 -4.51342,-3.824056 z" />
    <rect
       style="fill:#999999;fill-opacity:1;stroke:none;stroke-width:3.24477;stroke-linecap:round;stroke-linejoin:round;stroke-opacity:1"
       id="rect25"
       width="34.000076"
       height="34.000076"
       x="75.984695"
       y="22.463358"
       ry="5.3053355"
       rx="5.3053355"
       inkscape:export-filename="OP2.png"
       inkscape:export-xdpi="191.24661"
       inkscape:export-ydpi="191.24661" />
    <rect
       style="fill:#ff0000;fill-opacity:1;stroke:none;stroke-width:2.81822;stroke-linecap:round;stroke-linejoin:round;stroke-opacity:1"
       id="rect18"
       width="33.269314"
       height="33.269314"
       x="137.51288"
       y="22.447088"
       inkscape:export-filename="rect18.png"
       inkscape:export-xdpi="195.44734"
       inkscape:export-ydpi="195.44734" />
    <g
       id="g26"
       transform="translate(22.586978,-4.723505)">
      <rect
         style="fill:#e6e6e6;fill-opacity:1;stroke:none;stroke-width:3.13364;stroke-linecap:round;stroke-linejoin:round;stroke-opacity:1"
         id="rect16"
         width="7.4391327"
         height="26.3801"
         x="117.69526"
         y="30.6152" />
      <circle
         style="fill:#80b3ff;fill-opacity:1;stroke:none;stroke-width:3;stroke-linecap:round;stroke-linejoin:round;stroke-opacity:1"
         id="path15"
         cx="128.22711"
         cy="41.147034"
         r="10.531835" />
      <circle
         style="fill:#e6e6e6;fill-opacity:1;stroke:none;stroke-width:1.52785;stroke-linecap:round;stroke-linejoin:round;stroke-opacity:1"
         id="circle15"
         cx="128.22711"
         cy="41.147034"
         r="5.3636999" />
      <text
         xml:space="preserve"
         transform="matrix(0.26458333,0,0,0.26458333,70.627944,-45.23887)"
         id="text16"
         style="font-style:normal;font-variant:normal;font-weight:bold;font-stretch:normal;font-size:29.3333px;line-height:1.4;font-family:'Liberation Sans';-inkscape-font-specification:'Liberation Sans, Bold';font-variant-ligatures:normal;font-variant-position:normal;font-variant-caps:normal;font-variant-numeric:normal;font-variant-alternates:normal;font-variant-east-asian:normal;text-indent:0;text-align:center;text-decoration-line:none;text-decoration-style:solid;text-decoration-color:#000000;letter-spacing:0px;word-spacing:0px;text-transform:none;writing-mode:lr-tb;direction:ltr;text-orientation:mixed;dominant-baseline:auto;baseline-shift:baseline;white-space:pre;shape-inside:url(#rect17);shape-padding:0;shape-margin:0;display:inline;opacity:1;vector-effect:none;fill:#e6e6e6;fill-opacity:1;stroke:none;stroke-width:3.77953;stroke-linecap:square;stroke-linejoin:round;stroke-miterlimit:4;stroke-dasharray:none;stroke-dashoffset:0;stroke-opacity:1;-inkscape-stroke:none;stop-color:#000000;stop-opacity:1"><tspan
           x="211.37276"
           y="386.11038"
           id="tspan1">ascal</tspan></text>
    </g>
    <g
       id="g25"
       transform="translate(-13.340294,-43.640571)">
      <path
         id="rect21"
         style="fill:#ffffff;fill-opacity:1;stroke:none;stroke-width:3.10746;stroke-linecap:round;stroke-linejoin:round;stroke-opacity:1"
         d="m 96.628727,69.914079 v 26.379785 h 7.315313 V 85.579272 a 5.3636999,5.3636999 0 0 1 -3.81837,-5.133536 5.3636999,5.3636999 0 0 1 3.81837,-5.133537 v -5.39812 z" />
      <path
         id="path24"
         style="fill:#ffffff;fill-opacity:1;stroke-width:3;stroke-linecap:round;stroke-linejoin:round"
         d="m 105.48917,69.914079 v 5.16816 c 2.96233,-1.71e-4 5.3639,2.401165 5.36401,5.363497 1.7e-4,2.962533 -2.40148,5.364184 -5.36401,5.364013 v 5.16816 c 5.81683,1.85e-4 10.53236,-4.715338 10.53217,-10.532173 -10e-5,-5.816633 -4.71554,-10.531842 -10.53217,-10.531657 z"
         sodipodi:nodetypes="ccccccc" />
    </g>
  </g>
</svg>
