<?xml version="1.0" encoding="UTF-8" standalone="no"?>
<!-- Created with Inkscape (http://www.inkscape.org/) -->

<svg
   width="27.233471mm"
   height="30.384192mm"
   viewBox="0 0 27.233471 30.384192"
   version="1.1"
   id="svg1"
   inkscape:version="1.3.2 (091e20ef0f, 2023-11-25)"
   sodipodi:docname="ObjectPascal1.svg"
   xmlns:inkscape="http://www.inkscape.org/namespaces/inkscape"
   xmlns:sodipodi="http://sodipodi.sourceforge.net/DTD/sodipodi-0.dtd"
   xmlns="http://www.w3.org/2000/svg"
   xmlns:svg="http://www.w3.org/2000/svg">
  <sodipodi:namedview
     id="namedview1"
     pagecolor="#ffffff"
     bordercolor="#000000"
     borderopacity="0.25"
     inkscape:showpageshadow="2"
     inkscape:pageopacity="0.0"
     inkscape:pagecheckerboard="0"
     inkscape:deskcolor="#d1d1d1"
     inkscape:document-units="mm"
     inkscape:zoom="4.1776837"
     inkscape:cx="2.2739874"
     inkscape:cy="59.72209"
     inkscape:window-width="1874"
     inkscape:window-height="1011"
     inkscape:window-x="0"
     inkscape:window-y="0"
     inkscape:window-maximized="1"
     inkscape:current-layer="layer1" />
  <defs
     id="defs1" />
  <g
     inkscape:label="Strat 1"
     inkscape:groupmode="layer"
     id="layer1"
     transform="translate(-116.41667,-53.975)">
    <path
       id="path26"
       style="fill:#008000;fill-opacity:1;stroke:none;stroke-width:4.29304;stroke-linecap:round;stroke-linejoin:round;stroke-opacity:1"
       d="m 130.0334,53.975 a 13.616714,13.616714 0 0 0 -13.61673,13.61674 13.616714,13.616714 0 0 0 4.3682,9.959599 v -17.4625 h 10.90321 c 2.90536,0 5.13912,0.671798 6.70089,2.01538 1.57325,1.332099 2.36006,3.220829 2.36006,5.666838 0,1.561771 -0.35617,2.957045 -1.06815,4.185791 -0.71199,1.228746 -1.73387,2.182241 -3.06596,2.859774 -1.32062,0.666049 -2.89424,0.998905 -4.72013,0.998905 h -6.02857 v 4.718058 A 13.616714,13.616714 0 0 0 130.0334,81.20848 13.616714,13.616714 0 0 0 143.65014,67.59174 13.616714,13.616714 0 0 0 130.0334,53.975 Z m -4.16718,26.558585 a 13.616714,13.616714 0 0 1 -5.08135,-2.982246 v 6.807853 h 5.08135 z m 0,-16.500284 v 7.871871 h 5.3914 c 1.401,0 2.48064,-0.344512 3.23856,-1.033529 0.75792,-0.7005 1.13688,-1.705155 1.13688,-3.014286 0,-2.549362 -1.50471,-3.824056 -4.51342,-3.824056 z" />
  </g>
</svg>
