<svg xmlns="http://www.w3.org/2000/svg" width="150" height="66" fill="none"><g clip-path="url(#a)"><mask id="b" width="27" height="27" x="9" y="28" maskUnits="userSpaceOnUse" style="mask-type:alpha"><path fill="#004373" d="M9.289 28.75h26.25V55H9.289z"/></mask><g mask="url(#b)"><path stroke="#fff" stroke-width="2.625" d="M34.227 62.875c0 9.175-2.72 17.428-7.052 23.356-4.332 5.928-10.208 9.457-16.573 9.457-6.366 0-12.242-3.529-16.574-9.457-4.332-5.928-7.051-14.181-7.051-23.356 0-9.175 2.719-17.428 7.05-23.356 4.333-5.928 10.209-9.456 16.575-9.456 6.365 0 12.24 3.528 16.573 9.456 4.332 5.928 7.052 14.181 7.052 23.356Z"/></g><mask id="c" width="27" height="27" x="9" y="23" maskUnits="userSpaceOnUse" style="mask-type:alpha"><path fill="#004373" d="M9.289 23.5h26.25v26.25H9.289z"/></mask><g mask="url(#c)"><path stroke="#fff" stroke-width="2.625" d="M34.227 57.625c0 9.175-2.72 17.428-7.052 23.356-4.332 5.928-10.208 9.457-16.573 9.457-6.366 0-12.242-3.529-16.574-9.457-4.332-5.928-7.051-14.181-7.051-23.356 0-9.175 2.719-17.428 7.05-23.356 4.333-5.928 10.209-9.456 16.575-9.456 6.365 0 12.24 3.528 16.573 9.456 4.332 5.928 7.052 14.181 7.052 23.356Z"/></g><mask id="d" width="27" height="27" x="9" y="18" maskUnits="userSpaceOnUse" style="mask-type:alpha"><path fill="#004373" d="M9.289 18.25h26.25V44.5H9.289z"/></mask><g mask="url(#d)"><path stroke="#fff" stroke-width="2.625" d="M34.227 52.375c0 9.175-2.72 17.428-7.052 23.356-4.332 5.928-10.208 9.457-16.573 9.457-6.366 0-12.242-3.529-16.574-9.457-4.332-5.928-7.051-14.181-7.051-23.356 0-9.175 2.719-17.428 7.05-23.356 4.333-5.928 10.209-9.456 16.575-9.456 6.365 0 12.24 3.528 16.573 9.456 4.332 5.928 7.052 14.181 7.052 23.356Z"/></g><mask id="e" width="27" height="27" x="9" y="13" maskUnits="userSpaceOnUse" style="mask-type:alpha"><path fill="#004373" d="M9.289 13h26.25v26.25H9.289z"/></mask><g mask="url(#e)"><path stroke="#fff" stroke-width="2.625" d="M34.227 47.125c0 9.175-2.72 17.428-7.052 23.356-4.332 5.928-10.208 9.457-16.573 9.457-6.366 0-12.242-3.529-16.574-9.457-4.332-5.928-7.051-14.181-7.051-23.356 0-9.175 2.719-17.428 7.05-23.356 4.333-5.928 10.209-9.456 16.575-9.456 6.365 0 12.24 3.528 16.573 9.456 4.332 5.928 7.052 14.181 7.052 23.356Z"/></g><mask id="f" width="27" height="27" x="30" y="11" maskUnits="userSpaceOnUse" style="mask-type:alpha"><path fill="#004373" d="M56.703 37.25h-26.25V11h26.25z"/></mask><g mask="url(#f)"><path stroke="#fff" stroke-width="2.625" d="M31.766 3.125c0-9.175 2.719-17.428 7.05-23.356 4.333-5.928 10.209-9.456 16.575-9.456 6.365 0 12.24 3.528 16.573 9.456 4.332 5.928 7.052 14.181 7.052 23.356 0 9.175-2.72 17.428-7.052 23.356-4.332 5.928-10.208 9.456-16.573 9.456-6.366 0-12.242-3.528-16.574-9.456-4.332-5.928-7.051-14.181-7.051-23.356Z"/></g><mask id="g" width="27" height="27" x="30" y="16" maskUnits="userSpaceOnUse" style="mask-type:alpha"><path fill="#004373" d="M56.703 42.5h-26.25V16.25h26.25z"/></mask><g mask="url(#g)"><path stroke="#fff" stroke-width="2.625" d="M31.766 8.375c0-9.175 2.719-17.428 7.05-23.356 4.333-5.928 10.209-9.457 16.575-9.457 6.365 0 12.24 3.529 16.573 9.457C76.296-9.053 79.016-.8 79.016 8.375c0 9.175-2.72 17.428-7.052 23.356-4.332 5.928-10.208 9.456-16.573 9.456-6.366 0-12.242-3.528-16.574-9.456-4.332-5.928-7.051-14.181-7.051-23.356Z"/></g><mask id="h" width="27" height="27" x="30" y="21" maskUnits="userSpaceOnUse" style="mask-type:alpha"><path fill="#004373" d="M56.703 47.75h-26.25V21.5h26.25z"/></mask><g mask="url(#h)"><path stroke="#fff" stroke-width="2.625" d="M31.766 13.625c0-9.175 2.719-17.428 7.05-23.356 4.333-5.928 10.209-9.457 16.575-9.457 6.365 0 12.24 3.529 16.573 9.457 4.332 5.928 7.052 14.181 7.052 23.356 0 9.175-2.72 17.428-7.052 23.356-4.332 5.928-10.208 9.456-16.573 9.456-6.366 0-12.242-3.528-16.574-9.456-4.332-5.928-7.051-14.181-7.051-23.356Z"/></g><mask id="i" width="27" height="27" x="30" y="26" maskUnits="userSpaceOnUse" style="mask-type:alpha"><path fill="#004373" d="M56.703 53h-26.25V26.75h26.25z"/></mask><g mask="url(#i)"><path stroke="#fff" stroke-width="2.625" d="M31.766 18.875c0-9.175 2.719-17.428 7.05-23.356 4.333-5.928 10.209-9.457 16.575-9.457 6.365 0 12.24 3.529 16.573 9.457 4.332 5.928 7.052 14.181 7.052 23.356 0 9.175-2.72 17.428-7.052 23.356-4.332 5.928-10.208 9.456-16.573 9.456-6.366 0-12.242-3.528-16.574-9.456-4.332-5.928-7.051-14.181-7.051-23.356Z"/></g><path fill="#fff" d="M31 12h2v17h-2zM33 37h2v17h-2z"/></g><path fill="#fff" d="M63.019 26v-9.639c0-.592.1-1.085.297-1.479.199-.396.505-.697.919-.9.417-.205.953-.307 1.609-.307.143 0 .31.004.5.013.19.006.366.014.53.026a.08.08 0 0 1 .026.004h.03v1.565a1.5 1.5 0 0 0-.112-.004c-.037 0-.076-.001-.116-.004h-.298a9.465 9.465 0 0 0-.28-.005c-.265 0-.48.044-.647.13a.804.804 0 0 0-.367.37 1.464 1.464 0 0 0-.116.626V26h-1.975ZM61.6 18.669v-1.57l2.406.004 2.873-.004v1.57l-2.873-.005-2.406.005ZM68.292 26v-8.901h1.906v2.26l.073.008V26h-1.98Zm1.505-5.516a4.544 4.544 0 0 1 .35-1.699 3.107 3.107 0 0 1 1.038-1.32c.466-.342 1.047-.513 1.743-.513a4.605 4.605 0 0 1 .517.034v1.83h-.491c-.558 0-1.037.094-1.436.284-.4.19-.708.476-.923.858-.216.383-.324.854-.324 1.415h-.47l-.004-.889Zm8.405 5.723c-.866 0-1.63-.188-2.295-.565a3.872 3.872 0 0 1-1.54-1.617c-.362-.704-.543-1.528-.543-2.471 0-.923.179-1.737.535-2.441a3.905 3.905 0 0 1 1.522-1.639c.659-.388 1.422-.582 2.29-.582.886 0 1.652.2 2.299.6.65.4 1.146.951 1.488 1.655.345.705.517 1.506.517 2.402 0 .093-.001.189-.004.29l-.009.31h-7.598v-1.415h6.309l-.677.397c-.006-.523-.1-.985-.28-1.384a2.117 2.117 0 0 0-.794-.945c-.35-.227-.775-.34-1.272-.34-.477 0-.894.108-1.25.323-.354.216-.63.54-.829.975-.195.434-.296.974-.302 1.621v.371c0 .647.1 1.186.298 1.617.198.432.48.754.845.966.368.213.808.32 1.32.32.365 0 .688-.057.97-.169.285-.115.522-.276.712-.483.192-.21.336-.46.43-.75l1.924.013a3.925 3.925 0 0 1-.78 1.548 3.672 3.672 0 0 1-1.385 1.03c-.557.242-1.191.363-1.901.363Zm9.703 0c-.866 0-1.63-.188-2.295-.565a3.872 3.872 0 0 1-1.54-1.617c-.361-.704-.542-1.528-.542-2.471 0-.923.178-1.737.534-2.441a3.905 3.905 0 0 1 1.523-1.639c.658-.388 1.421-.582 2.29-.582.885 0 1.651.2 2.298.6.65.4 1.146.951 1.488 1.655.345.705.517 1.506.517 2.402 0 .093-.001.189-.004.29l-.009.31h-7.598v-1.415h6.309l-.677.397c-.006-.523-.1-.985-.28-1.384a2.117 2.117 0 0 0-.794-.945c-.35-.227-.775-.34-1.272-.34-.477 0-.894.108-1.25.323-.354.216-.63.54-.829.975-.195.434-.296.974-.302 1.621v.371c0 .647.1 1.186.298 1.617.198.432.48.754.845.966.368.213.808.32 1.32.32.365 0 .688-.057.97-.169a1.93 1.93 0 0 0 .712-.483c.192-.21.336-.46.431-.75l1.923.013a3.925 3.925 0 0 1-.78 1.548 3.671 3.671 0 0 1-1.385 1.03c-.557.242-1.191.363-1.901.363ZM133.018 48.863V30.061h2.575v18.802h-2.575ZM130.081 48.95c-.621 0-1.125-.096-1.512-.285a1.741 1.741 0 0 1-.838-.865c-.176-.387-.264-.882-.264-1.485l-.086-.442v-6.906c0-.449-.09-.816-.271-1.102-.176-.287-.473-.5-.891-.64-.414-.146-.975-.219-1.684-.219-.735 0-1.327.077-1.776.231-.449.154-.787.412-1.016.773-.229.36-.366.854-.41 1.479h-2.555c.053-.951.278-1.763.674-2.436.4-.678 1.017-1.202 1.848-1.572.837-.374 1.917-.56 3.242-.56 1.263 0 2.291.166 3.083.5.797.331 1.375.793 1.736 1.387.361.595.542 1.3.542 2.12v7.255c0 .145.024.27.072.376.053.102.135.18.245.238.114.053.257.08.429.08H131.368v1.986a7.838 7.838 0 0 1-.62.06 8.545 8.545 0 0 1-.667.026Zm-7.031.237c-.982 0-1.838-.154-2.568-.462-.726-.313-1.288-.77-1.684-1.373-.391-.603-.587-1.332-.587-2.186 0-.761.167-1.43.501-2.007.335-.58.879-1.063 1.631-1.445.757-.388 1.745-.645 2.964-.773l2.007-.218c.458-.044.839-.132 1.142-.264.304-.136.533-.326.687-.568.159-.246.238-.554.238-.924l.871.277c-.004.788-.088 1.407-.251 1.855-.158.45-.422.786-.792 1.01-.365.22-.88.372-1.545.456l-1.901.231c-.731.088-1.309.231-1.736.43-.423.193-.724.442-.905.745-.176.3-.264.665-.264 1.096 0 .432.093.803.277 1.116.19.313.476.554.859.726.383.167.86.251 1.432.251.678 0 1.316-.132 1.915-.396a3.472 3.472 0 0 0 1.472-1.228c.378-.555.568-1.239.568-2.053h.904v1.624c-.211.88-.552 1.624-1.023 2.231a4.506 4.506 0 0 1-1.769 1.38c-.709.313-1.523.469-2.443.469ZM110.7 49.18c-1.276 0-2.403-.29-3.38-.871-.977-.581-1.736-1.409-2.278-2.482-.541-1.079-.812-2.338-.812-3.777 0-1.443.269-2.702.806-3.776.537-1.078 1.294-1.906 2.271-2.482.977-.581 2.11-.872 3.4-.872 1.122 0 2.115.207 2.977.62a5.25 5.25 0 0 1 2.086 1.763c.529.762.861 1.653.997 2.674h-2.634c-.114-.62-.339-1.142-.673-1.564a3.056 3.056 0 0 0-1.215-.944 3.826 3.826 0 0 0-1.545-.31c-.744 0-1.402.178-1.974.534-.567.357-1.014.902-1.34 1.637-.321.73-.482 1.638-.482 2.72 0 1.079.165 1.985.495 2.72.33.73.779 1.276 1.347 1.637.568.357 1.219.535 1.954.535a3.84 3.84 0 0 0 1.565-.317 3.148 3.148 0 0 0 1.228-.977c.339-.436.563-.973.673-1.61h2.615c-.137 1.051-.482 1.965-1.037 2.74a5.422 5.422 0 0 1-2.132 1.782c-.867.413-1.838.62-2.912.62ZM97.272 49.187c-1.215 0-2.254-.167-3.117-.502-.858-.334-1.529-.845-2.013-1.532-.48-.69-.753-1.564-.819-2.62h2.575c.066.642.225 1.155.475 1.538.251.383.612.66 1.083.832.475.171 1.092.257 1.849.257.704 0 1.28-.073 1.73-.218.448-.15.78-.365.996-.647.216-.286.324-.638.324-1.056 0-.387-.091-.706-.271-.957-.18-.256-.482-.47-.904-.64-.423-.172-1.006-.324-1.75-.456l-1.413-.245c-.92-.158-1.7-.407-2.343-.746-.639-.343-1.13-.787-1.473-1.333-.338-.55-.508-1.21-.508-1.98 0-.81.205-1.512.614-2.107.414-.594 1.012-1.052 1.796-1.373.788-.321 1.725-.482 2.812-.482 1.263 0 2.315.178 3.156.535.845.356 1.479.874 1.901 1.551.423.674.649 1.495.68 2.463h-2.509c-.03-.643-.176-1.147-.435-1.512a1.999 1.999 0 0 0-1.07-.766c-.458-.15-1.032-.224-1.723-.224-.576 0-1.063.072-1.459.218-.396.14-.698.347-.904.62-.203.269-.304.597-.304.984 0 .383.097.702.29.957.199.255.482.46.852.614.374.154.85.282 1.426.383l1.386.238c1.066.184 1.944.442 2.635.772.691.33 1.214.764 1.571 1.3.356.533.535 1.193.535 1.981 0 .88-.227 1.63-.68 2.252-.454.62-1.105 1.093-1.955 1.419-.849.321-1.861.482-3.036.482ZM89.234 48.95c-.62 0-1.125-.096-1.512-.285a1.743 1.743 0 0 1-.839-.865c-.176-.387-.264-.882-.264-1.485l-.085-.442v-6.906c0-.449-.09-.816-.271-1.102-.176-.287-.473-.5-.892-.64-.413-.146-.974-.219-1.683-.219-.735 0-1.327.077-1.776.231-.449.154-.788.412-1.017.773-.228.36-.365.854-.409 1.479h-2.555c.053-.951.278-1.763.674-2.436.4-.678 1.016-1.202 1.848-1.572.836-.374 1.917-.56 3.242-.56 1.263 0 2.29.166 3.083.5.796.331 1.375.793 1.736 1.387.36.595.541 1.3.541 2.12v7.255c0 .145.025.27.073.376.053.102.134.18.244.238.115.053.258.08.43.08H90.52v1.986c-.19.027-.396.047-.62.06a8.527 8.527 0 0 1-.667.026Zm-7.031.237c-.982 0-1.838-.154-2.569-.462-.726-.313-1.287-.77-1.683-1.373-.392-.603-.587-1.332-.587-2.186 0-.761.167-1.43.501-2.007.335-.58.878-1.063 1.63-1.445.758-.388 1.746-.645 2.965-.773l2.007-.218c.458-.044.838-.132 1.142-.264.304-.136.533-.326.687-.568.158-.246.237-.554.237-.924l.872.277c-.005.788-.088 1.407-.251 1.855-.158.45-.422.786-.792 1.01-.365.22-.88.372-1.545.456l-1.901.231c-.731.088-1.31.231-1.737.43-.422.193-.724.442-.904.745-.176.3-.264.665-.264 1.096 0 .432.092.803.277 1.116.19.313.475.554.858.726.383.167.86.251 1.433.251a4.69 4.69 0 0 0 1.915-.396 3.47 3.47 0 0 0 1.472-1.228c.378-.555.568-1.239.568-2.053h.904v1.624c-.211.88-.552 1.624-1.023 2.231a4.502 4.502 0 0 1-1.77 1.38c-.708.313-1.522.469-2.442.469ZM69.818 49.18c-1.148 0-2.136-.295-2.964-.884-.827-.59-1.459-1.42-1.895-2.49-.43-1.073-.647-2.325-.647-3.756v-.053c0-1.417.218-2.658.654-3.723.436-1.07 1.067-1.895 1.895-2.476.827-.585 1.813-.878 2.957-.878 1.206 0 2.26.293 3.163.878.902.581 1.597 1.409 2.086 2.483.493 1.073.74 2.33.74 3.77 0 1.438-.247 2.695-.74 3.769-.489 1.074-1.184 1.903-2.086 2.489-.903.58-1.957.871-3.163.871Zm-6.813 5.07V35.237h2.463v3.136h-.192v7.302h.304v8.576h-2.575Zm6.318-7.281c.766 0 1.435-.2 2.007-.601.577-.405 1.021-.984 1.334-1.736.312-.758.468-1.65.468-2.68 0-1.03-.156-1.907-.468-2.628-.308-.722-.749-1.268-1.32-1.638-.573-.37-1.246-.554-2.02-.554-.78 0-1.458.193-2.034.58-.577.388-1.021.951-1.334 1.69-.312.74-.469 1.623-.469 2.648 0 1.021.157 1.904.47 2.648.312.739.756 1.302 1.333 1.69.576.387 1.254.58 2.033.58Z"/><defs><clipPath id="a"><path fill="#fff" d="M12 12h42v42H12z"/></clipPath></defs></svg>