<svg xmlns="http://www.w3.org/2000/svg" viewBox="0 0 375.11 161.51"><defs><style>.cls-1,.cls-4{fill:#0054ff;}.cls-2{fill:#ffd800;}.cls-3{font-size:71px;font-family:Merriweather-Black, Merriweather;font-weight:800;}.cls-4{font-size:65.15px;font-family:NexaBold, Nexa Bold;}</style></defs><title>Fichier 1</title><g id="Calque_2" data-name="Calque 2"><g id="Layer_2" data-name="Layer 2"><path class="cls-1" d="M35,161.51c-.1-1.07-.24-1.88-.24-2.68q0-45.57.06-91.13c0-9.14,5.12-16.33,14.28-19.51C62.69,43.46,76,44.24,88.44,52a40.49,40.49,0,0,1,18.21,41.54,38.39,38.39,0,0,1-37.08,32c-2,0-4,.06-6,0s-2.82-.92-2.87-2.89,0-4,0-6c0-2.44,1-3.33,3.45-3.45a78.22,78.22,0,0,0,10.06-.7c10.74-2,19.61-12.13,20.5-23.1C96,73.26,85.52,60.13,69.63,58.1A35.34,35.34,0,0,0,55.16,59c-5.62,1.63-7.95,4.64-8,10.58q0,35.58,0,71.16c0,2.9.06,5.81,0,8.72a3.26,3.26,0,0,1-.78,2.06c-3.29,3.15-6.66,6.22-10,9.3A6.72,6.72,0,0,1,35,161.51Z"/><path class="cls-2" d="M68.06,138.74c11.77.2,22.54-3,32-10.12,11.73-8.89,18.95-20.6,20.88-35.44,3-23.19-9.35-46-31.85-56.14-16-7.2-32.11-6.6-48.07.48a13,13,0,0,1-3.61,1.11,2.37,2.37,0,0,1-2.8-2.54,64.22,64.22,0,0,1,0-7.21,3.28,3.28,0,0,1,1.64-2,55.58,55.58,0,0,1,15.41-5.52A67,67,0,0,1,73.47,20.2c13.93,1.6,26.4,6.67,37.07,16C122.8,46.89,130.62,60.25,133,76.48c4.84,32.85-14.05,61.61-43.55,71.32A71.2,71.2,0,0,1,64,151.1c-2.81-.12-3.34-.66-3.34-3.55,0-2.18,0-4.36,0-6.54,0-1.86.47-2.27,2.28-2.27S66.35,138.74,68.06,138.74Z"/><path class="cls-2" d="M0,84.47a66.91,66.91,0,0,1,9.73-32.3,21.6,21.6,0,0,1,2.18-3,6.28,6.28,0,0,1,6-2.15,3.74,3.74,0,0,1,3.38,3.86c0,.17,0,.34,0,.5A16.1,16.1,0,0,1,19.1,61a48.41,48.41,0,0,0-6.69,25.25,50.19,50.19,0,0,0,7.84,27.3,6.41,6.41,0,0,1,1,3.1q.18,6.19,0,12.41c0,.88-.51,2.31-1.06,2.47a3.4,3.4,0,0,1-2.72-.89A54.48,54.48,0,0,1,7.71,117C2.53,107.26.13,96.86,0,84.47Z"/><text class="cls-3" transform="translate(159.04 111.89) scale(0.95 1)">Pascal</text><text class="cls-4" transform="translate(237.71 55.38)">:=</text></g></g></svg>