<?xml version="1.0" encoding="UTF-8"?>
<svg xmlns="http://www.w3.org/2000/svg" version="1.1" xmlns:cc="http://creativecommons.org/ns#" xmlns:dc="http://purl.org/dc/elements/1.1/" xmlns:inkscape="http://www.inkscape.org/namespaces/inkscape" xmlns:rdf="http://www.w3.org/1999/02/22-rdf-syntax-ns#" xmlns:sodipodi="http://sodipodi.sourceforge.net/DTD/sodipodi-0.dtd" xmlns:svg="http://www.w3.org/2000/svg" viewBox="0 0 380 420">
  <defs>
    <style>
      .cls-1 {
        fill: #00599c;
      }

      .cls-1, .cls-2, .cls-3, .cls-4 {
        stroke-width: 0px;
      }

      .cls-1, .cls-2, .cls-4 {
        fill-rule: evenodd;
      }

      .cls-2 {
        fill: #004482;
      }

      .cls-3 {
        fill: #fff;
      }

      .cls-4 {
        fill: #659ad2;
      }
    </style>
  </defs>
  <g id="svg10" inkscape:version="1.0.1 (3bc2e813f5, 2020-09-07)" sodipodi:docname="icons8-c-programming.svg">
    <sodipodi:namedview id="namedview12" bordercolor="#666666" borderopacity="1" fit-margin-bottom="0" fit-margin-left="0" fit-margin-right="0" fit-margin-top="0" gridtolerance="10" guidetolerance="10" inkscape:current-layer="svg10" inkscape:cx="190" inkscape:cy="210.00282" inkscape:pageopacity="0" inkscape:pageshadow="2" inkscape:window-height="1056" inkscape:window-maximized="1" inkscape:window-width="1920" inkscape:window-x="0" inkscape:window-y="0" inkscape:zoom="1.4895833" objecttolerance="10" pagecolor="#ffffff" showgrid="false"/>
    <path id="path2" class="cls-2" d="M179,2.9c6.8-3.8,15.1-3.8,21.9,0,33.5,18.8,134.5,75.5,168.1,94.3,6.8,3.8,11,10.8,11,18.5v188.7c0,7.6-4.2,14.7-11,18.5-33.5,18.8-134.5,75.5-168.1,94.3-6.8,3.8-15.1,3.8-21.9,0-33.5-18.8-134.5-75.5-168.1-94.3C4.2,319,0,312,0,304.3V115.7C0,108.1,4.2,101,11,97.2,44.5,78.4,145.5,21.7,179,2.9h0Z"/>
    <path id="path4" class="cls-4" d="M3,314c-2.7-3.6-3-6.9-3-11.5V115c0-7.6,4.2-14.6,10.9-18.4C44.4,77.9,145,21.5,178.4,2.8c6.8-3.8,15.9-3.7,22.7,0,33.4,18.7,133.7,74.6,167.1,93.3,2.7,1.5,4.8,3.4,6.6,5.8L3,314Z"/>
    <path id="path8" class="cls-1" d="M374.9,102.1c5.2,4.8,5.1,12.1,5.1,17.8,0,38-.3,145.9,0,183.8,0,4-1.3,8.1-3.2,11.3l-190.8-105,188.9-108Z"/>
    <path class="cls-3" d="M179,56.3c0,2.5.4,4.7,1.2,4.7,1.6,0,6.5,9.2,7.6,14q.7,3.7-5.8,5.1c-15.7,3.2-19.6,14-8.9,30.5,3.5,5.3,3.5,5.6,3.1,20.3-.2,14,0,15.3,2.5,20.4,2.7,5.1,6.4,8.4,12.8,10.9,5.4,2,24.9,1,30.1-1.7,6.5-3.2,15.7-14,19.6-20.3,3-7.8,2.1-19.1-2.5-29.3-4.6-9.3-15.7-21.6-24.9-26.7-5.2-2.9-7.5-4.8-9.5-8.8-1.9-3.4-4.2-6.7-6.8-9.7-5-5.6-15.7-15.3-17-15.3s-1,2.2-1,4.7l-.6,1ZM97.9,77.9c-2.2,8.3-2.9,16.9-2.1,25.4.7,5.6.3,7.1-2,11.2-4.8,8.7-6.8,16.5-6.3,30.5.4,9.3,1.1,12.4,3.7,16.5,5.9,11.5,14.4,16.5,27.5,20.4,8.5,1.7,15.7,1.1,22.2-2.4,20.9-9.2,24.9-25.4,8-42-6.6-7.6-9.7-14-9.7-19.1s-3.3-15.3-7.3-19.1c-3.3-2.9-4.3-3-10.7-2.5-3.4.3-6.8.8-10.2,1.5-3,.7-3.5.3-5.5-4.7-1.4-3.1-2.1-6.5-2.2-9.9.3-4.5-2.5-10.7-4.8-10.7s-1.7,2.2-2.5,4.8h1.9ZM307.2,117.4c-.5,2.5-.3,4.8.7,5.9.8.9,1.6,4.4,1.7,7.9v6.2c.1,0-4.1.1-4.1.1-8.6.2-9.7.6-14.4,4.8-2.7,3-4.9,6.5-6.3,10.3-1.2,3.2-5.5,14-10.2,21.6-4.6,9.3-8.4,19.1-8.6,21.6-1.6,9.7,4.1,16.5,17,24.2,5.9,2.9,8.5,3.2,17,3.2s11-.5,17-3.7c9.4-4.4,14.4-9.7,19.6-19.1,2.8-5.6,3.2-7.9,3-19.1-.1-14-2.6-21.6-9-30.5-2.6-4-4.5-8.2-5.9-12.7-2.5-8.8-11.6-25.4-14.4-25.4s-2,1.7-2.5,4.1l-.7.6ZM32.5,193.7c-1.3,2.2,2,21.6,4.7,29.3,1.6,3.9,3.7,10.9,4.6,15.3,4.8,24.2,22.2,40.7,41.9,42,14.4.9,26.2-3.2,32.7-11.8,9.5-11.2,11.1-21.6,4.6-30.5-2-2.4-7.6-6.7-12.7-9.9-5-3-14.4-8.6-19.6-12.3-17-11.2-19.6-12-22.2-14-6.3-1.7-10.7-.4-15.7,4.5l-4.6,4.1-2.5-4.1c-1.3-2.2-2.5-4.8-2.5-6.4s-1.6-3.7-3.3-5.6c-3.7-3.4-4.6-3.7-5.5-2v1.7ZM202.5,223c-8.4,2.2-17,5.3-20.9,7.3-8.6,4.5-15.7,11.5-19.6,19.1-2.2,5.6-2.6,7.2-2,19.1.7,10.7.5,12.3-2.1,16.5-2.8,5.9-11.3,15.3-15.7,16.5-1.4.6-3.8,3.1-5.4,5.2-8.1,12,3,35.6,20.9,45.8,8.4,4.5,19.6,6.4,30.1,5.3,38-3.4,78.5-14,107.3-26.7,19.6-8.9,27.5-21.6,27.5-39.4-.4-19.1-10.1-30.5-26.2-30.5s-26.2-7.9-31.4-19.1c-4.1-7.9-12-15.3-19.6-20.3-4.2-1.7-8.4-2.5-17-2.9-9.5-.3-13.1.3-26.2,3.7l.3.5Z"/>
  </g>
</svg>