<?xml version="1.0" encoding="UTF-8"?>
<svg xmlns="http://www.w3.org/2000/svg" version="1.1" xmlns:cc="http://creativecommons.org/ns#" xmlns:dc="http://purl.org/dc/elements/1.1/" xmlns:inkscape="http://www.inkscape.org/namespaces/inkscape" xmlns:rdf="http://www.w3.org/1999/02/22-rdf-syntax-ns#" xmlns:sodipodi="http://sodipodi.sourceforge.net/DTD/sodipodi-0.dtd" xmlns:svg="http://www.w3.org/2000/svg" viewBox="0 0 380 420">
  <defs>
    <style>
      .cls-1 {
        fill: #00599c;
      }

      .cls-1, .cls-2, .cls-3, .cls-4 {
        stroke-width: 0px;
      }

      .cls-1, .cls-2, .cls-4 {
        fill-rule: evenodd;
      }

      .cls-2 {
        fill: #004482;
      }

      .cls-3 {
        fill: #fff;
      }

      .cls-4 {
        fill: #659ad2;
      }
    </style>
  </defs>
  <g id="svg10" inkscape:version="1.0.1 (3bc2e813f5, 2020-09-07)" sodipodi:docname="icons8-c-programming.svg">
    <sodipodi:namedview id="namedview12" bordercolor="#666666" borderopacity="1" fit-margin-bottom="0" fit-margin-left="0" fit-margin-right="0" fit-margin-top="0" gridtolerance="10" guidetolerance="10" inkscape:current-layer="svg10" inkscape:cx="190" inkscape:cy="210.00282" inkscape:pageopacity="0" inkscape:pageshadow="2" inkscape:window-height="1056" inkscape:window-maximized="1" inkscape:window-width="1920" inkscape:window-x="0" inkscape:window-y="0" inkscape:zoom="1.4895833" objecttolerance="10" pagecolor="#ffffff" showgrid="false"/>
    <path id="path2" class="cls-2" d="M179,2.9c6.8-3.8,15.1-3.8,21.9,0,33.5,18.8,134.5,75.5,168.1,94.3,6.8,3.8,11,10.8,11,18.5v188.7c0,7.6-4.2,14.7-11,18.5-33.5,18.8-134.5,75.5-168.1,94.3-6.8,3.8-15.1,3.8-21.9,0-33.5-18.8-134.5-75.5-168.1-94.3C4.2,319,0,312,0,304.3V115.7C0,108.1,4.2,101,11,97.2,44.5,78.4,145.5,21.7,179,2.9h0Z"/>
    <path id="path4" class="cls-4" d="M3,314c-2.7-3.6-3-6.9-3-11.5V115c0-7.6,4.2-14.6,10.9-18.4C44.4,77.9,145,21.5,178.4,2.8c6.8-3.8,15.9-3.7,22.7,0,33.4,18.7,133.7,74.6,167.1,93.3,2.7,1.5,4.8,3.4,6.6,5.8L3,314Z"/>
    <path id="path8" class="cls-1" d="M374.9,102.1c5.2,4.8,5.1,12.1,5.1,17.8,0,38-.3,145.9,0,183.8,0,4-1.3,8.1-3.2,11.3l-190.8-105,188.9-108Z"/>
    <g>
      <path class="cls-3" d="M194,70.8c-.5.3-.8,4.2-.8,8.3s-.5,8-1.1,8.3c-.7.5-1.1,6.8-1.1,15.2s.5,14.8,1.1,15.2c.7.3,1.1,3.7,1.1,7.4s.3,6.6,1.7,6.6,1.7-1.5,1.7-6.1.6-6.5,1.1-6.9c.7-.5,1.1-7,1.1-15.8s-.5-15.3-1.1-15.8c-.6-.3-1.1-4.5-1.1-9.1,0-7.7-.7-9.6-2.6-7.5Z"/>
      <path class="cls-3" d="M89.2,105.9c-.3.5-6.1,1.2-12.7,1.7-6.6.5-12.6,1.2-13.2,1.8s-2.5,1.1-4.2,1.1-3.5.5-3.8,1.1c-.3.6-1.9,1.1-3.4,1.1s-2.9.5-3.3,1-2.4,1.4-4.5,1.7c-2.1.5-4.5,1.6-5.3,2.5-.8,1-2.6,2.3-4.1,2.8-2.8,1-3.5,3.3-1.1,3.3s2-.6,2.7-1.2,6-1.5,11.9-1.8l10.7-.7,3.6,7.7c4.6,9.8,17.6,23.1,22.3,23.1s2.7.7,3.5,1.4c.9,1,6.3,1.5,18.6,1.5,18.4,0,20.9.7,20.9,5.5s.7,3.2,1.5,3.9,1.4,6.3,1.4,18.5-.2,17.3-2.5,20.7c-1.5,1.9-2.6,4.5-2.6,5.7s-1.1,3.7-2.6,5.5c-1.5,1.7-3.5,5-4.5,7.2-1,2.1-2.8,4.8-4.2,6.1-1.2,1.1-2.3,2.6-2.3,3.2s-2.5,3.6-5.6,6.5c-3,2.9-5.6,5.9-5.6,6.4s-1,1.9-2.3,3c-2.3,2.1-9,15-9,17.2s-.5,2.3-1.1,3.4c-1.6,2.8-3.3,20.8-2.1,22.1.6.7,1,4.3,1,8.1s.6,7.4,1.1,7.8c.7.3,1.1,2.7,1.1,5.1s.5,4.6,1,5c.6.5,1.4,2.8,1.8,5.5.5,2.6,1.7,5.5,2.7,6.4,1.1.9,2.3,2.6,2.7,3.7.5,1.2,1.8,2.4,3,2.7s2.3,1,2.3,1.6,1.7,0,3.7-1c4.8-2.8,5.4-7.7,1.4-11.5-1.6-1.5-2.8-3.2-2.8-3.8s-1-2.5-2.3-4.1-2.3-4.1-2.3-5.7-.6-3.4-1.2-4.1-1.4-7.2-1.4-16.8c-.2-15.4-.2-15.8,3.4-23,1.9-4.1,4.8-8.6,6.4-10,1.6-1.6,2.9-3.4,2.9-4.1s1.2-2.5,2.8-3.9,2.8-3.2,2.8-3.8,1.2-2.4,2.7-3.9c4.1-4.4,14.2-22.9,14.2-25.9s.9-2.8,2.1-4.4c1.1-1.7,2.1-3.8,2.3-4.7.8-7.7,1.6-11.9,2.5-13,1.4-1.4,1.4-31.3,0-32.8-.7-.6-1.4-6.6-1.7-13.4-1.1-21.7-1.5-23.4-5.1-27.9-5.4-6.6-8.6-8.6-14.8-9.2-3.4-.3-7.1-1.1-8.1-1.7-2.5-1.4-20.8-1.5-21.6-.1ZM97.5,115.8c5.9,1.5,7.3,5.7,2.9,8.6-2.5,1.7-2.8,1.6-5.1-.8-2.5-2.7-3.2-5.2-1.2-5.2s1.1-.6,1.1-1.2-.6-.9-1.7.1c-1.1.9-1.7,3.4-1.7,6.9,0,7.3,3.6,10,13.3,10s12.6-3.3,12.6-9,2.8-5.5,6.9-1.6c2.7,2.6,3.3,4.1,3.3,8.4s-.6,5.7-4.2,9.3c-3,2.9-5.2,4.1-7.9,4.1s-3.9.5-4.3,1.1c-.3.6-3.4,1.1-6.8,1.1s-6.4-.6-6.8-1.1c-.3-.7-2.5-1.1-4.6-1.1s-3.8-.3-3.8-.9-1.7-1.5-3.6-2.4c-5.6-2.4-12.2-9.1-12.2-12.5s2.4-9,3.8-9,2-.9,3.2-1.9c2.9-2.7,8.9-4.7,11.6-4.1,1.2.2,3.5.8,5.1,1.1Z"/>
      <path class="cls-3" d="M279.5,105.9c-.3.5-3.5,1.2-7,1.6-4.2.5-7.2,1.5-8.8,2.9-1.4,1.4-3.2,2.4-3.8,2.4s-1.4.6-1.4,1.2-1.2,2.8-2.8,4.8c-2,2.7-2.8,5.1-2.8,8.9s-.5,5.5-1.1,5.9-1.1,5.6-1.1,11.8-.5,11.5-1.1,11.8c-.7.5-1.1,7.3-1.1,16.9s.5,16.4,1.1,16.9c.7.3,1.1,2.6,1.1,5s.5,4.6.9,5.2c.6.7,1.7,3.4,2.5,6.2.9,2.8,3,7.9,4.7,11.3s3.2,6.6,3.2,7.2.9,1.8,2,2.8c1,1,2.8,3.6,3.9,5.7,3.5,6.8,4.5,8.3,10.8,15.5,6,6.9,12.5,18.2,12.5,21.8s.6,2.3,1.1,2.6c.7.3,1.1,4.2,1.1,8.4s-.5,8.1-1.1,8.4c-.6.3-1.1,3.4-1.1,6.8s-.5,6.4-1.1,6.8c-.6.3-1.1,1.9-1.1,3.4,0,3.7-3.4,10.8-6.5,13.6-3.5,3.2-3.2,9.5.7,11.1,1.4.6,2.5,1.5,2.5,1.9,0,1.7,7-2.9,7.9-5.3.6-1.5,1.6-2.9,2.1-3.4.7-.3,1.2-1.9,1.2-3.5s.5-2.7,1-2.7c1,0,3.3-11.3,4.3-21.4.2-3.4,1-6.6,1.6-7.2,1.4-1.5,1.4-15-.1-15.9-.6-.3-1.1-2.7-1.1-5.1s-.5-4.6-1-5c-.5-.3-1.2-2.3-1.7-4.2-.3-1.9-1.7-4.8-2.9-6.6-1.2-1.7-2.3-3.6-2.3-4.2s-1.2-2.3-2.8-3.7-2.8-3.2-2.8-3.9-2.5-3.7-5.6-6.8c-3-3-5.6-6.1-5.6-6.6s-1.2-2.4-2.7-3.9c-5.6-6-14.2-23.3-14.2-28.6s-.5-3.3-1.1-3.6c-1.4-.9-1.5-22.7-.1-23.5.5-.3,1.2-3.2,1.7-6.1,1.2-9.2,2.5-9.8,23-9.8s17.6-.3,18-1.5c.2-.7,1.6-1.4,3-1.4s3.2-.8,3.9-1.7,2-1.7,2.7-1.7c1.6,0,9.7-8,9.7-9.6s.8-1.8,1.7-2.8c1-1.1,3.2-4.7,4.8-8l3.2-6.1,11.1.2c6.8.1,11.4.7,11.6,1.4.6,1.6,3.6,1.6,3.6.1s-1.1-1.6-2.6-2.1-3.3-1.8-4.1-2.7c-.8-1-4.3-2.6-7.8-3.7-3.5-1-6.9-2.4-7.4-2.9-.7-.5-2.5-.9-4.1-.9s-3.4-.5-4.1-1c-.6-.7-6.8-1.5-13.7-1.9-7-.5-13-1.2-13.3-1.7-.8-1.4-20.4-1.4-21.2,0ZM301.9,115c.3.6,1.8,1.1,3.2,1.1s4.4,1.8,6.8,4.1c3.4,3.3,4.2,5,4.2,8.3s-.8,5-4.8,8.8c-7.2,6.5-13.1,8.9-25.5,10-3.6.3-6.4.1-7.2-.7s-2.6-1.2-4.2-1.2-3.9-1-5.1-2.3-2.6-2.3-3.3-2.3c-1.8,0-4.1-5.5-4.1-9.7s1-4.6,3.6-7.1c4.3-4.2,6.5-4.5,6.5-.9s2.4,8.1,5.5,9.6c4.1,1.9,13.6,1.6,17.6-.8,2.9-1.7,3.4-2.7,3.7-7.2.2-3.7-.2-5.9-1.5-7.1-.9-1-1.5-2.3-1.1-2.8.9-1.4,4.7-1.4,5.6.1Z"/>
      <path class="cls-3" d="M150.1,254.6c-3.9,4.6-5.3,7.7-5.3,12.2s4.3,14.5,6.8,15.4c.9.3,3.7,1.9,6.2,3.5s6.3,3.6,8.4,4.5c4.3,1.9,21.4,18.2,21.4,20.4s.8,1.9,1.7,2.7c2.1,1.7,2.4,14.6.3,16.7s-2.5,1.4-3.9,1.4-3.5.5-4.6,1c-4.2,2.1-7.7,3.4-11.5,4.2-2.1.3-4.6,1.1-5.6,1.6-.9.5-3.2,1.6-5.1,2.4-3.9,1.7-7.3,4.4-7.3,5.7s9.9,1.1,10.7-.2c.3-.7,3.2-1.1,6.2-1.1s5.7-.5,6.1-1c1-1.7,23.2-2.5,32.8-1.2,5,.7,11.3,1.5,14.1,1.8s5.5,1.1,6.1,1.7c.7.6,3.7,1,6.8,1h5.7c0-.1-4.4-3.9-4.4-3.9-2.5-2.1-5.6-3.9-7-3.9s-2.8-.5-3.3-1c-.3-.7-2.9-1.5-5.6-1.9-2.8-.3-5.1-1.1-5.1-1.7s-1.2-1-2.7-1-3.2-.6-3.5-1.1c-.3-.7-2.1-1.1-3.8-1.1-4.6,0-5.7-1.9-5.7-9.8v-7l10.9-11.5c9-9.3,12.4-12.1,19.1-15.2,4.5-2.1,8.2-4.4,8.2-5s.8-1.1,1.7-1.1c2.6,0,6.2-8.8,6.2-15.2s-.6-6.4-3.8-10.2l-3.8-4.4h-42.3c0-.1-42.3-.1-42.3-.1l-2.6,2.8Z"/>
    </g>
  </g>
</svg>