<?xml version="1.0" encoding="UTF-8"?>
<svg xmlns="http://www.w3.org/2000/svg" version="1.1" xmlns:cc="http://creativecommons.org/ns#" xmlns:dc="http://purl.org/dc/elements/1.1/" xmlns:inkscape="http://www.inkscape.org/namespaces/inkscape" xmlns:rdf="http://www.w3.org/1999/02/22-rdf-syntax-ns#" xmlns:sodipodi="http://sodipodi.sourceforge.net/DTD/sodipodi-0.dtd" xmlns:svg="http://www.w3.org/2000/svg" viewBox="0 0 380 420">
  <defs>
    <style>
      .cls-1 {
        fill: #fff;
      }

      .cls-1, .cls-2, .cls-3, .cls-4 {
        fill-rule: evenodd;
        stroke-width: 0px;
      }

      .cls-2 {
        fill: #00599c;
      }

      .cls-3 {
        fill: #004482;
      }

      .cls-4 {
        fill: #659ad2;
      }
    </style>
  </defs>
  <g id="svg10" inkscape:version="1.0.1 (3bc2e813f5, 2020-09-07)" sodipodi:docname="icons8-c-programming.svg">
    <sodipodi:namedview id="namedview12" bordercolor="#666666" borderopacity="1" fit-margin-bottom="0" fit-margin-left="0" fit-margin-right="0" fit-margin-top="0" gridtolerance="10" guidetolerance="10" inkscape:current-layer="svg10" inkscape:cx="190" inkscape:cy="210.00282" inkscape:pageopacity="0" inkscape:pageshadow="2" inkscape:window-height="1056" inkscape:window-maximized="1" inkscape:window-width="1920" inkscape:window-x="0" inkscape:window-y="0" inkscape:zoom="1.4895833" objecttolerance="10" pagecolor="#ffffff" showgrid="false"/>
    <path id="path2" class="cls-3" d="M179,2.9c6.8-3.8,15.1-3.8,21.9,0,33.5,18.8,134.5,75.5,168.1,94.3,6.8,3.8,11,10.8,11,18.5v188.7c0,7.6-4.2,14.7-11,18.5-33.5,18.8-134.5,75.5-168.1,94.3-6.8,3.8-15.1,3.8-21.9,0-33.5-18.8-134.5-75.5-168.1-94.3C4.2,319,0,312,0,304.3V115.7C0,108.1,4.2,101,11,97.2,44.5,78.4,145.5,21.7,179,2.9h0Z"/>
    <path id="path4" class="cls-4" d="M3,314c-2.7-3.6-3-6.9-3-11.5V115c0-7.6,4.2-14.6,10.9-18.4C44.4,77.9,145,21.5,178.4,2.8c6.8-3.8,15.9-3.7,22.7,0,33.4,18.7,133.7,74.6,167.1,93.3,2.7,1.5,4.8,3.4,6.6,5.8L3,314Z"/>
    <path id="path8" class="cls-2" d="M374.9,102.1c5.2,4.8,5.1,12.1,5.1,17.8,0,38-.3,145.9,0,183.8,0,4-1.3,8.1-3.2,11.3l-190.8-105,188.9-108Z"/>
    <path class="cls-1" d="M190,66.4c-51.9,0-93.9,42.1-93.9,93.9s.1,5.6.4,8.3v184.8h44.5v-113.1c14.3,8.8,31.1,13.9,49.1,13.9,51.9,0,93.9-42.1,93.9-93.9s-42.1-93.9-93.9-93.9ZM190,207.4c-25.9,0-47-21.1-47-47s21-47,47-47,47,21,47,47-21.1,47-47,47Z"/>
  </g>
</svg>