<svg xmlns="http://www.w3.org/2000/svg" viewBox="0 0 928.5 553.8"><path d="M124 208a85 85 0 0 1-64-26.6 88.4 88.4 0 0 1-25.4-63 88.8 88.8 0 0 1 89-89.5c24 0 45 8.8 62.3 26.2 17.3 17.4 26 38.9 26 63.8s-8.6 46-25.7 63.2A85 85 0 0 1 124 208Zm-.6-140.7a46.9 46.9 0 0 0-35.2 14.5A50.4 50.4 0 0 0 74 119c0 16.8 5.8 29.8 17.9 39.6a48.9 48.9 0 0 0 32 11.4 46 46 0 0 0 34.7-14.8c9.7-9.9 14.4-21.8 14.4-36.5s-4.7-26.5-14.5-36.5a46.7 46.7 0 0 0-35.1-15Zm113.8 136.6a4 4 0 0 1-4-4V37a4 4 0 0 1 4-4h25.6c15.4 0 26.4 1 33.7 3 10.5 2.8 19 8.1 25.3 15.8a42 42 0 0 1 9.6 27.3 40.2 40.2 0 0 1-13.6 30.3 51.3 51.3 0 0 1 17.9 16c5 7.7 7.5 16.7 7.5 27s-2.6 19-7.7 27.1a49.4 49.4 0 0 1-19.9 18.4c-8 4-19 6-32.7 6h-45.7Zm38.8-37.6c14.9 0 21.1-2.2 23.7-4 3.4-2.6 5-6.1 5-11a16 16 0 0 0-6.3-13.5c-4.5-3.4-12.5-5.2-23.7-5.2h-2.5v33.7h3.8ZM275 97c6.5 0 11.3-1.3 14.2-3.8 2.8-2.4 4.2-5.6 4.2-9.9 0-3.9-1.3-6.9-3.9-9-2.7-2.4-7.2-3.6-13.3-3.6h-4V97h2.8Zm125.2 107.8a61 61 0 0 1-49-25.1 4 4 0 0 1 .4-5.4l22.4-21a4 4 0 0 1 2.7-1h.2c1 0 2.1.5 2.8 1.3 4.5 5 8.6 9.8 11.5 11.4 2.5 1.3 4.8 1.4 8.2 1.4 2 0 3-.6 4-2.2.5-1 1.9-4.6 1.9-16.5V37a4 4 0 0 1 4-4h31a4 4 0 0 1 4 4v105c0 17.8-1.4 30.2-4.3 37.6-3 7.7-8 14-15 18.5s-15.3 6.8-24.8 6.8Zm77.5-.9a4 4 0 0 1-4-4V37a4 4 0 0 1 4-4h88.9a4 4 0 0 1 4 4v30.4a4 4 0 0 1-4 4h-54.1v21.4h54a4 4 0 0 1 4 4v29.8a4 4 0 0 1-4 4h-54v34.8h54a4 4 0 0 1 4 4V200a4 4 0 0 1-4 4h-88.8Zm307.4 0a4 4 0 0 1-4-4V71.6h-24.9a4 4 0 0 1-4-4V37a4 4 0 0 1 4-4h90a4 4 0 0 1 4 4v30.6a4 4 0 0 1-4 4h-25.7v128.3a4 4 0 0 1-4 4h-31.4Zm-112.6 0a81.1 81.1 0 0 1-60.9-25.4 84.3 84.3 0 0 1-24.2-60 84.7 84.7 0 0 1 85-85.5c22.9 0 42.9 8.4 59.3 25 3.4 3.4 6.5 7 9.3 10.9a4 4 0 0 1-.5 5.2l-21.4 20.7a4 4 0 0 1-6.3-.9 50 50 0 0 0-7.5-9.9c-9.2-9.5-20-14-33.3-14s-24.2 4.4-33.3 13.7a47.9 47.9 0 0 0-13.5 35.2c0 16 5.5 28.3 17 37.6a46 46 0 0 0 30.3 10.8c13 0 23.8-4.6 33-14a49 49 0 0 0 7.2-9.5 4 4 0 0 1 6.2-.8l21.5 20.7a4 4 0 0 1 .4 5.3 90 90 0 0 1-8.7 10.2 81.2 81.2 0 0 1-59.6 24.7ZM46.7 456a4 4 0 0 1-4-4V289a4 4 0 0 1 4-4h32.9c18.5 0 31.6 1.7 40 5.2a43.3 43.3 0 0 1 20.5 17.6c4.9 8 7.4 17.5 7.4 28.5 0 12.2-3.3 22.6-9.8 30.8a50.3 50.3 0 0 1-26.2 17c-5.9 1.7-15.6 2.6-29.8 2.8v65a4 4 0 0 1-4 4h-31Zm40.9-107.2c9 0 13-.8 14.8-1.5 2.2-.8 3.9-2 5.2-4a12 12 0 0 0 1.9-7c0-4.9-1.7-8.2-5.4-10.3-2-1.2-6.7-2.7-17.6-2.7h-4.8v25.5h5.9ZM285.3 456a4 4 0 0 1-3.7-2.6l-42.2-110-42.8 110a4 4 0 0 1-3.7 2.5h-32.2a4 4 0 0 1-3.7-5.4l62.8-162.8a4 4 0 0 1 3.7-2.6h31.4a4 4 0 0 1 3.8 2.5l62.6 162.9a4 4 0 0 1-3.7 5.4h-32.3Zm94.6 4c-12.4 0-23.3-3-32.5-9.1s-17-15.6-23.5-28.4a4 4 0 0 1 1.5-5.2l26-15.7a4 4 0 0 1 5.7 1.5c7 13 15 19.5 23.5 19.5 4.4 0 7.9-1.2 10.8-3.7 2.7-2.3 4-4.8 4-7.7s-1-5.7-3.3-8.7c-2.5-3.4-8.4-8.9-17.4-16.2-18.2-14.9-29.7-26.1-35.2-34.4a46.6 46.6 0 0 1-8.4-25.7c0-12.4 4.8-23.2 14.2-32 9.3-8.8 21-13.2 34.6-13.2 8.7 0 17.1 2 25 6 7.8 4 16.2 11.3 25.1 21.6a4 4 0 0 1-.4 5.6l-23 20.3a4 4 0 0 1-2.6 1h-.4a4 4 0 0 1-2.8-1.7c-7.3-10-14.4-15.1-21.4-15.1a11 11 0 0 0-7.4 2.3c-2.2 1.8-2.5 3.3-2.5 4.3 0 1.8.7 3.6 2 5.3 1.6 2 6.7 7.3 22.1 20.3a375 375 0 0 1 21.8 19 69.1 69.1 0 0 1 14.2 19.3 49.7 49.7 0 0 1 4.3 20.7c0 14.4-5.1 26.5-15.2 36-10 9.4-23 14.1-38.8 14.1Zm367.8-4a4 4 0 0 1-3.7-2.6l-42.2-110-42.8 110a4 4 0 0 1-3.7 2.5h-32.2a4 4 0 0 1-3.7-5.4l62.8-162.8a4 4 0 0 1 3.7-2.6h31.4a4 4 0 0 1 3.8 2.5l62.6 162.9a4 4 0 0 1-3.7 5.4h-32.2Zm56.3 0a4 4 0 0 1-4-4V289a4 4 0 0 1 4-4h31a4 4 0 0 1 4 4v129.3h41a4 4 0 0 1 4 4V452a4 4 0 0 1-4 4h-76Zm-267.5 4a85 85 0 0 1-63.8-26.5 88.4 88.4 0 0 1-25.4-63 88.8 88.8 0 0 1 89-89.5c24 0 45 8.8 62.3 26.2a95 95 0 0 1 9.6 11.4 4 4 0 0 1-.4 5.2l-22.5 21.8a4 4 0 0 1-3.4 1 4 4 0 0 1-2.9-2 52.4 52.4 0 0 0-7.9-10.4c-9.7-10-21.2-14.9-35.1-14.9s-25.6 4.8-35.2 14.5a50.4 50.4 0 0 0-14.2 37.2c0 16.9 5.8 29.9 17.9 39.6a48.9 48.9 0 0 0 32 11.4c13.7 0 25-4.8 34.7-14.7 3-3.1 5.6-6.5 7.7-10a4 4 0 0 1 6.2-.9l22.5 21.8a4 4 0 0 1 .5 5.2 94.9 94.9 0 0 1-9.2 10.8 85 85 0 0 1-62.4 25.8Z" fill="#fff"/><g opacity=".5" fill="#fff"><path d="M672.4 201.9h-3.6a2 2 0 0 1-2-2.2v-1c.1-1 1-1.9 2-1.9h6c.5 0 1 .3 1.4.6.4.4.6.9.6 1.4v1a2 2 0 0 1-2 2h-2.4Zm8.4-.4a2 2 0 0 1-2-1.8v-1a2 2 0 0 1 1.7-2.2 81.5 81.5 0 0 0 6.1-.7c.4 0 .8 0 1.2.3.4.3.7.8.8 1.3l.1 1a2 2 0 0 1-1.6 2.3l-2.5.4c0 .3 0 .4-.2.4l-1-.3-.6.1h-.5l-1.3.2h-.2Zm1.9-.2Zm0 0Zm-19.9 0h-.2c-1.2 0-2.4-.2-3.6-.4h-.7l-1.7-.4a2 2 0 0 1-1.7-2.3l.2-1a2 2 0 0 1 2.3-1.6c1.9.4 3.8.6 5.8.8a2 2 0 0 1 1.7 2.2v1a2 2 0 0 1-2 1.8Zm29.8-1.8a2 2 0 0 1-2-1.5l-.1-1a2 2 0 0 1 1.4-2.4 71.8 71.8 0 0 0 6.2-1.7 2 2 0 0 1 1.9 1.4l.3 1a2 2 0 0 1-1.3 2.5l-1.4.5-.6.1-1.2.4a71 71 0 0 1-3.2.7Zm-41.6-.2a98.8 98.8 0 0 1-2.3-.6l-.8-.2h-.3l-1.5-.5-1.5-.5a2 2 0 0 1-1.2-2.5l.3-1c.2-.5.5-.9 1-1.1a2 2 0 0 1 1.5-.1 72 72 0 0 0 5.6 1.6 2 2 0 0 1 1.4 2.4l-.2 1a2 2 0 0 1-2 1.5Zm53-3.6a2 2 0 0 1-1.8-1.2l-.4-.9c-.2-.5-.2-1 0-1.5s.6-1 1-1.1a66.6 66.6 0 0 0 6.2-2.7 2 2 0 0 1 1.7 1l.5 1c.3.4.3 1 .1 1.5a2 2 0 0 1-1 1.1l-2.6 1.4-.5.2a79.3 79.3 0 0 1-3.2 1.3Zm-64.3-.2a2 2 0 0 1-.8-.2l-.6-.2-5-2.5a2 2 0 0 1-.8-2.7l.5-.8a2 2 0 0 1 1.7-1.1c.4 0 .7 0 1 .2 1.7 1 3.4 1.8 5.2 2.5a2 2 0 0 1 1 2.7l-.4.9a2 2 0 0 1-1.8 1.2Zm75-5.3a2 2 0 0 1-1.8-1l-.5-.8a2 2 0 0 1 .6-2.8c1.6-1 3.2-2 4.8-3.2a2 2 0 0 1 2.8.4l.6.8a2 2 0 0 1-.4 2.8l-1 .7h-.1l-1.2 1-1.2.7-.7.5-.9.6a2 2 0 0 1-1 .3Zm-85.6-.4a2 2 0 0 1-1-.3l-2-1.3h-.2v-.2l-.3-.1.6-.7.5-1-1.1 1.7-2.6-2a2 2 0 0 1-.4-2.7l.6-.8a2 2 0 0 1 2.8-.4c1.5 1.2 3.1 2.3 4.7 3.3.5.3.8.7 1 1.3 0 .5 0 1-.4 1.5l-.5.8a2 2 0 0 1-1.7 1Zm95.2-6.8a2 2 0 0 1-1.5-.7l-.7-.7a2 2 0 0 1-.5-1.5c0-.5.3-1 .7-1.3l4.3-4c.4-.3.9-.5 1.4-.5s1 .1 1.4.5l.7.7c.4.4.6 1 .6 1.5s-.2 1-.6 1.4l-4.5 4.1a2 2 0 0 1-1.3.5Zm-104.7-.4a2 2 0 0 1-1.4-.5 86 86 0 0 1-3.4-3.2l-1-1a2 2 0 0 1 0-2.9l.7-.7a2 2 0 0 1 2.8 0l4.2 4c.4.4.7.9.7 1.4 0 .5-.1 1-.5 1.5l-.6.7a2 2 0 0 1-1.5.7Zm113.2-8a2 2 0 0 1-1.3-.5l-.8-.7a2 2 0 0 1-.2-2.8l3.7-4.4a2 2 0 0 1 1.6-.8c.4 0 .9.1 1.2.4l.8.6c.9.6 1 2 .4 2.8l-2.4 3-.2.2-.2.2-.2.3-1 1a2 2 0 0 1-1.4.7Zm-56.8-.4a2 2 0 0 1-2-1.9v-1a2 2 0 0 1 1.7-2l1.4-.2h.7a43.9 43.9 0 0 0 4-.6c1 0 1.8.7 2 1.7l.2 1a2 2 0 0 1-1.6 2.3c-2 .3-4.2.6-6.3.7h-.1Zm-65-.2a2 2 0 0 1-1.4-.7 94.5 94.5 0 0 1-3.8-4.8 2 2 0 0 1 .4-2.8l.8-.6a2 2 0 0 1 2.8.4c1.1 1.6 2.4 3 3.6 4.6a2 2 0 0 1-.2 2.8l-.7.6a2 2 0 0 1-1.3.5h-.2Zm55.6 0h-.3c-2-.2-4.2-.6-6.2-1a2 2 0 0 1-1.5-2.4l.2-1a2 2 0 0 1 2.4-1.5 52 52 0 0 0 1.5.3l.8.2h.4l-.2 2 .3-2h.2l2.7.4a2 2 0 0 1 1.8 2.2l-.1 1c-.1.6-.4 1-.8 1.4a2 2 0 0 1-1.2.4Zm21.4-2a2 2 0 0 1-2-1.3l-.2-1a2 2 0 0 1 1.3-2.5 44.2 44.2 0 0 0 6.2-2.2 2 2 0 0 1 1.8 1.1l.4 1a2 2 0 0 1-1 2.6 48.2 48.2 0 0 1-6.5 2.4Zm-33.4-.7a53.6 53.6 0 0 1-6.5-2.6 2 2 0 0 1-.9-2.7l.5-.9a2 2 0 0 1 1.8-1l.9.1 2.2 1.1 1.9.8 1.2.4a2 2 0 0 1 1.2 2.6l-.3.9a2 2 0 0 1-2 1.3Zm44.5-4.4h-.5a2 2 0 0 1-1.2-.9l-.5-.8a2 2 0 0 1 .6-2.8c1.6-1 3.2-2.1 4.7-3.4a2 2 0 0 1 2.8.3l.6.8a2 2 0 0 1-.3 2.8 52 52 0 0 1-5.2 3.7 2 2 0 0 1-1 .3Zm-55.4-1a2 2 0 0 1-1-.4 42 42 0 0 1-5-3.6l-.1-.1a2 2 0 0 1-.8-1.4c0-.5.1-1 .5-1.4l.6-.8a2 2 0 0 1 1.4-.7h.2a2 2 0 0 1 1.4.6l.2.1.1.1c1.3 1.1 2.8 2.1 4.2 3 .4.4.7.8.8 1.3.1.6 0 1-.3 1.5l-.5.9a2 2 0 0 1-1.7.9Zm96.4-.8a2 2 0 0 1-1.1-.4l-.9-.5a2 2 0 0 1-.6-2.8l3-5a2 2 0 0 1 1.8-1l1 .3.8.5a2 2 0 0 1 .8 2.7l-.6 1-1.2 2.1-.4.5-1 1.7a2 2 0 0 1-1.7.9Zm3.8-4.5Zm-140 3.8h-.3a2 2 0 0 1-1.3-1l-1-1.6-.3-.4-.3-.5-.2-.4c-.5-.8-1-1.5-1.3-2.3a2 2 0 0 1 .8-2.7l.8-.5a2 2 0 0 1 2.7.8 78 78 0 0 0 3 5 2 2 0 0 1-.6 2.7l-.9.6a2 2 0 0 1-1 .3Zm104.7-5.1a2 2 0 0 1-1.4-.6l-.7-.7c-.4-.4-.6-.9-.6-1.4s.2-1 .6-1.4l.4-.4 3-3.4.4-.5a2 2 0 0 1 1.6-.8c.4 0 .9.2 1.2.5l.8.6c.4.3.7.8.8 1.3 0 .5-.1 1-.5 1.5a60 60 0 0 1-3.7 4.2l-.5.5a2 2 0 0 1-1.4.6Zm-74.3-1.2a2 2 0 0 1-1.4-.6 52.4 52.4 0 0 1-4.2-4.8 2 2 0 0 1 .4-2.8l.8-.6a2 2 0 0 1 2.8.4l.2.3 3.3 3.8.2.2a2 2 0 0 1 0 2.9l-.7.7a2 2 0 0 1-1.4.5Zm111.5-3.6a2 2 0 0 1-.8-.1l-1-.4c-1-.5-1.4-1.7-1-2.7.8-1.7 1.6-3.5 2.2-5.3a2 2 0 0 1 2.5-1.2l1 .3a2 2 0 0 1 1.2 2.5l-.7 2-1 2.5v.1l-.6 1.2a2 2 0 0 1-1 1 2 2 0 0 1-.8.1Zm-147.5-.6a2 2 0 0 1-1.8-1.2l-.3-.6-.1-.2a78.2 78.2 0 0 1-1.5-3.8v.1l-.4-1.2a2 2 0 0 1 1.2-2.6l1-.3a2 2 0 0 1 2.5 1.2c.6 1.8 1.3 3.6 2.1 5.3.2.5.2 1 0 1.6a2 2 0 0 1-1 1l-.9.5a2 2 0 0 1-.8.2Zm117.9-4.2a2 2 0 0 1-1-.3l-1-.5a2 2 0 0 1-.5-2.7l1.6-2.9.3-.6.1-.2.7-1.4a2 2 0 0 1 2.6-1l1 .5c.4.2.8.6 1 1 .2.6.1 1.1 0 1.6l-3.1 5.6a2 2 0 0 1-1.7 1Zm-89.3-1.3a2 2 0 0 1-1.7-1 49 49 0 0 1-2.8-5.7 2 2 0 0 1 1-2.6l1-.4a2 2 0 0 1 1.5 0c.5.2.9.6 1.1 1a30.5 30.5 0 0 0 2.2 4.6l.3.6c.3.5.4 1 .2 1.5s-.4 1-.9 1.2l-.9.5a2 2 0 0 1-1 .3Zm122.9-5.2a2 2 0 0 1-.5 0l-1-.3a2 2 0 0 1-1.4-2.4c.5-1.9 1-3.8 1.3-5.7a2 2 0 0 1 2.3-1.6l1 .2a2 2 0 0 1 1.6 2.4l-1.4 6a2 2 0 0 1-1.9 1.4Zm-155.5-.6a2 2 0 0 1-2-1.5l-.1-.7a52.6 52.6 0 0 1-.5-2v-.2l-.1-.2-.6-3a2 2 0 0 1 1.6-2.3l1-.1h.3c.4 0 .8 0 1.1.3.5.3.8.7.9 1.2.3 2 .8 3.8 1.3 5.7.1.5 0 1-.2 1.5a2 2 0 0 1-1.3 1l-1 .2h-.4Zm127-4h-.5l-1-.3a2 2 0 0 1-1.3-2.5l.6-1.9.4-1.4.3-1.3v-.2l.2-.8a2 2 0 0 1 2.3-1.6l1 .2a2 2 0 0 1 1.6 2.4c-.4 2-1 4.1-1.6 6a2 2 0 0 1-2 1.5Zm-99-1.5a2 2 0 0 1-2-1.5c-.5-2-1-4-1.3-6.1-.1-.6 0-1.1.3-1.5a2 2 0 0 1 1.3-.8l1-.2h.3c1 0 1.8.6 2 1.6.2 0 .1.2 0 .5l.3 1.1.2 1a41.3 41.3 0 0 0 .3 1.6v.1l.2.6.2.8a2 2 0 0 1-1.4 2.4l-1 .3a2 2 0 0 1-.5 0Zm129.7-5.7h-1.2c-.5-.1-1-.4-1.3-.8s-.5-1-.5-1.5l.5-5.8c0-1 1-1.9 2-1.9h1.1c.5.1 1 .3 1.4.7.3.4.5 1 .5 1.5a90 90 0 0 1-.4 5.2s0 .1 0 .2v.7a2 2 0 0 1-2 1.8Zm-160-.6a2 2 0 0 1-2-1.8l-.5-6c0-1.2.8-2.1 2-2.2h1c.5 0 1 .2 1.4.5.4.3.6.8.6 1.4l.5 5.7a2 2 0 0 1-1.8 2.3h-1l-.2.1Zm131.6-4-1-.2a2 2 0 0 1-1.8-2.1l.3-3.8v-2c0-1.1.9-2 2-2h1a2 2 0 0 1 2 2c0 2.1-.1 4.2-.3 6.2 0 .5-.3 1-.7 1.4a2 2 0 0 1-1.3.4h-.2ZM620.3 125a2 2 0 0 1-2-1.9l-.1-4.3v-2c0-1 1-2 2-2l1 .1a2 2 0 0 1 2 2v2.9a1907.5 1907.5 0 0 0 0 3.2 2 2 0 0 1-1.8 2.1h-1.1Zm131.3-5.6a2 2 0 0 1-2-2c0-2-.1-3.9-.3-5.8 0-.5.2-1 .5-1.4a2 2 0 0 1 1.4-.7l1-.1h.1c1 0 2 .8 2 1.8l.3 5.4v.7c0 .6-.2 1-.6 1.5s-.9.6-1.4.6h-1Zm-160.2-.7a2 2 0 0 1-2-2l.1-2 .1-1.7a131.3 131.3 0 0 1 .2-2.5c0-1 1-1.8 2-1.8h.1l1 .1c.6 0 1 .3 1.4.7s.5 1 .5 1.5a92 92 0 0 0-.3 5.8c0 1-1 2-2 2l-1-.1Zm131.4-4.1a2 2 0 0 1-2-1.8v-.8a56 56 0 0 0-.9-5 2 2 0 0 1 1.6-2.3l1-.2h.4c.4 0 .7 0 1 .3.5.2.8.7 1 1.2.4 2 .7 4.1.9 6.3 0 .5-.1 1-.4 1.4a2 2 0 0 1-1.4.7l-1 .1h-.2ZM621.6 113h-.2l-1-.1c-.5 0-1-.3-1.3-.8s-.5-.9-.5-1.4l1.1-6.2a2 2 0 0 1 2.4-1.6l1 .3c.5 0 1 .4 1.2.8s.4 1 .3 1.6l-.3 1.4v.2c.5.1 0 .4-.2 1l-.2 1.1-.3 2c0 .5-.3 1-.7 1.3a2 2 0 0 1-1.3.4Zm129-5.3a2 2 0 0 1-2-1.7c-.2-2-.6-3.9-1-5.7a2 2 0 0 1 1.5-2.4l1-.2h.4c.4 0 .8 0 1.1.2.5.3.8.8.9 1.3a115.3 115.3 0 0 1 1.1 6 2 2 0 0 1-1.7 2.3l-1 .1h-.3Zm-157.1-.7h-.3l-1-.2a2 2 0 0 1-1.7-2.2l.2-1.3v-.3l.2-.4.1-.8.7-3.3v-.2a2 2 0 0 1 2.4-1.3l1 .2c.5.2 1 .5 1.2 1s.4 1 .3 1.4c-.5 2-.8 3.8-1.1 5.7a2 2 0 0 1-2 1.7Zm126.8-4a2 2 0 0 1-1.9-1.4 53 53 0 0 0-.8-2.3l-.2-.6-1-2v-.5a2 2 0 0 1 1-2.7l.8-.4a2 2 0 0 1 1.5 0c.5.1.9.5 1.1 1 1 1.9 1.7 3.9 2.4 5.9a2 2 0 0 1-1.3 2.5l-1 .3a2 2 0 0 1-.5.1Zm-96-1.6c-.2 0-.4 0-.7-.2l-1-.3a2 2 0 0 1-1.1-2.5c.7-2 1.5-4 2.4-5.9a2 2 0 0 1 2.7-.9l.9.4c.5.3.8.7 1 1.2.2.5.1 1 0 1.5l-.7 1.4-1.3 3.1-.3.8a2 2 0 0 1-1.9 1.4ZM748 96a2 2 0 0 1-2-1.4c-.5-1.8-1.2-3.7-1.9-5.4a2 2 0 0 1 0-1.6 2 2 0 0 1 1.2-1l.9-.4.7-.1.8.1c.5.2.9.6 1 1.1l2.1 5.8a2 2 0 0 1-1.3 2.5l-1 .3a2 2 0 0 1-.6.1Zm-151.9-.6h-.6l-1-.4a2 2 0 0 1-1.3-2.4l.1-.3a77 77 0 0 1 2-5.6 2 2 0 0 1 2.7-1l.9.3a2 2 0 0 1 1 2.6L598 94a2 2 0 0 1-1.9 1.4Zm119-3.4a2 2 0 0 1-1.7-1c-1-1.5-2.1-3.1-3.3-4.6a2 2 0 0 1 .3-2.8l.8-.7a2 2 0 0 1 2.8.3c1.3 1.7 2.5 3.5 3.6 5.2a2 2 0 0 1-.6 2.8l-.8.5a2 2 0 0 1-1 .3Zm-85.6-1.5a2 2 0 0 1-1.1-.3l-.9-.6a2 2 0 0 1-.5-2.7c1.1-1.8 2.4-3.5 3.8-5.1a2 2 0 0 1 2.8-.3l.7.7c.9.7 1 2 .3 2.8-1.3 1.5-2.4 3-3.5 4.6a2 2 0 0 1-1.6 1ZM743.6 85a2 2 0 0 1-1.6-1c-.8-1.7-1.7-3.4-2.7-5a2 2 0 0 1 .7-2.8l.9-.5a2 2 0 0 1 1.5-.3c.5.2 1 .5 1.2 1 1 1.7 2 3.5 2.9 5.4.2.5.3 1 0 1.5a2 2 0 0 1-1 1.2l-.8.4a2 2 0 0 1-.9.2Zm-143-.6a2 2 0 0 1-1-.2l-.8-.4a2 2 0 0 1-1-2.7l.8-1.4.2-.4v-.2l1.2-2 .4-.6.4-.8a2 2 0 0 1 1.2-1h.5c.4 0 .7.1 1 .3l.9.5c.4.3.8.7.9 1.2.1.5 0 1-.2 1.5l-.4.7a75 75 0 0 0-2.4 4.4 2 2 0 0 1-1.8 1.1Zm107-1.7a2 2 0 0 1-1.4-.6l-3-3-.3-.1-1-.8a2 2 0 0 1-.3-2.8l.7-.8a2 2 0 0 1 1.3-.7h.2c.5 0 1 .1 1.3.4 1.6 1.3 3.2 2.7 4.7 4.2.8.8.7 2.1 0 2.9l-.7.7a2 2 0 0 1-1.4.6Zm-70.4-1.3a2 2 0 0 1-1.5-.7l-.7-.7a2 2 0 0 1 .1-2.8c1.6-1.5 3.2-2.9 4.9-4.1a2 2 0 0 1 2.8.4l.6.8c.3.4.4 1 .3 1.4 0 .6-.3 1-.7 1.4h-.1c.4.6-.4.5-1 .8l-.2.2-1.4 1.1-.1.1h-.1l-.1.2-.6.5v.1h-.2l-.6.7a2 2 0 0 1-1.4.6Zm61.1-6.3a2 2 0 0 1-1-.3c-1.7-1-3.4-2-5-2.7a2 2 0 0 1-1-2.7l.4-.9a2 2 0 0 1 2.6-1l5.6 3.1a2 2 0 0 1 .6 2.8l-.5.8a2 2 0 0 1-1.7 1Zm39.3-.3a2 2 0 0 1-1.6-.9l-3.5-4.6a2 2 0 0 1-.4-1.4c0-.6.3-1 .7-1.4l.8-.6a2 2 0 0 1 2.8.3 119.6 119.6 0 0 1 3.7 4.9c.3.4.4 1 .3 1.5 0 .5-.4 1-.8 1.3l-.8.5a2 2 0 0 1-1.2.4Zm-131-.6a2 2 0 0 1-1.2-.3l-.8-.6a2 2 0 0 1-.5-2.8l1-1.4.1-.2.4-.5 1.3-1.7.7-.9.1-.2a2 2 0 0 1 1.3-.7h.3c.5 0 1 .1 1.3.4l.8.6c.4.4.6.9.7 1.4 0 .5-.1 1-.4 1.5-1.2 1.4-2.4 3-3.5 4.6a2 2 0 0 1-1.6.8Zm40.2 0a2 2 0 0 1-1.8-1l-.5-.9a2 2 0 0 1 .8-2.7 50.6 50.6 0 0 1 6.5-3 2 2 0 0 1 1.8 1.2l.4 1c.4 1 0 2-1 2.5l-.3.2-4.4 2-.2.2-.4.2a2 2 0 0 1-1 .3Zm40.6-4a56.3 56.3 0 0 0-2.5-.6c.1-.1-.1-.2-.1-.2h-.4c-1-.3-2-.6-3.1-.7a2 2 0 0 1-1.6-2.4l.1-1c.1-.5.4-1 .9-1.2a2 2 0 0 1 1.5-.4c2 .4 4.1 1 6.1 1.6.6.1 1 .5 1.2 1 .3.4.3 1 .1 1.5l-.3 1a2 2 0 0 1-1.9 1.3Zm-29.6-.6a2 2 0 0 1-1-.3 2 2 0 0 1-.9-1.2l-.3-1a2 2 0 0 1 1.4-2.4c2-.5 4.1-1 6.3-1.3h.3c.4 0 .8.2 1.1.4.5.3.8.8.8 1.3l.2 1a2 2 0 0 1-1.7 2.3 5 5 0 0 0-1.7.3l-.9.1-1.5.4-.6-2 .4 1.7v.2h.1l-.3.1h-.2l-1 .3-.5.1Zm72.4-4a2 2 0 0 1-1.5-.6 98.2 98.2 0 0 0-4.1-4.2 2 2 0 0 1 0-2.8l.6-.7a2 2 0 0 1 1.4-.6c.6 0 1 .2 1.4.5a2615.7 2615.7 0 0 0 2 2h.2l1.2 1.4 1 1a2 2 0 0 1-.1 2.8l-.8.6a2 2 0 0 1-1.3.6ZM614 65.1a2 2 0 0 1-1.4-.5l-.7-.7a2 2 0 0 1 0-2.8 80 80 0 0 1 4.3-4.3 2 2 0 0 1 1.4-.6c.6 0 1 .3 1.4.7l.7.7c.7.8.7 2.1-.1 2.8a74.8 74.8 0 0 0-4.1 4 2 2 0 0 1-1.4.7h-.1Zm107.5-7.5a2 2 0 0 1-1.2-.5l-4.6-3.5a2 2 0 0 1-.5-2.8l.6-.8a2 2 0 0 1 1.6-.9c.4 0 .8.2 1.2.4l1 .7.3.3h.1l.4.3 3 2.4a2 2 0 0 1 .3 2.8l-.6.8a2 2 0 0 1-1.6.7Zm-98.7-.4a2 2 0 0 1-1.6-.8l-.6-.8a2 2 0 0 1 .4-2.8 82 82 0 0 1 4.9-3.6 2 2 0 0 1 2.8.5l.5.9c.3.4.4 1 .3 1.5s-.4 1-.8 1.2l-4.7 3.4a2 2 0 0 1-1.2.4Zm89-6.5a2 2 0 0 1-1-.3c-1.6-1-3.3-1.9-5-2.7a2 2 0 0 1-1-1.2 2 2 0 0 1 .1-1.5l.5-1a2 2 0 0 1 2.6-.8 60.9 60.9 0 0 1 4.8 2.5l.6.4a2 2 0 0 1 .7 2.8l-.5.8c-.4.7-1 1-1.7 1Zm-79.2-.1a2 2 0 0 1-1.7-1l-.5-1a2 2 0 0 1 .7-2.6l2-1.1.5-.3.3-.2h.2l1 1.6-.9-1.7h.1a77.1 77.1 0 0 1 3.1-1.4 2 2 0 0 1 1.8 1.1l.4 1c.3.4.3 1 .1 1.5a2 2 0 0 1-1 1.1l-5.1 2.7a2 2 0 0 1-1 .3Zm10.7-5.2a2 2 0 0 1-1.9-1.3l-.3-.9a2 2 0 0 1 1-2.6 83 83 0 0 1 2.1-.7l.8-.3.6-.2a111.6 111.6 0 0 1 3-.9l1 .3c.4.2.8.6 1 1.1l.2 1a2 2 0 0 1-1.3 2.5 76.4 76.4 0 0 0-6.2 2Zm58 0-.7-.1-5.5-2A2 2 0 0 1 694 41l.3-1a2 2 0 0 1 2.4-1.3h.3l5.6 2c.5.3 1 .6 1.1 1.1s.2 1 0 1.6l-.3.9a2 2 0 0 1-1.9 1.3ZM654.7 42a2 2 0 0 1-2-1.6l-.2-1a2 2 0 0 1 1.4-2.3l.5-.1c1.9-.4 3.8-.8 5.7-1l.3-.1a2 2 0 0 1 2 1.7v1a2 2 0 0 1-1.6 2.3 74.6 74.6 0 0 0-6.1 1Zm35.4 0-.4-.1c-2-.4-3.8-.8-5.7-1a2 2 0 0 1-1.7-2.3l.1-1c.1-.5.4-1 .8-1.3a2 2 0 0 1 1.5-.4l1.9.3 2 .4h.1l1.6.3a74.3 74.3 0 0 0 .6.2 2 2 0 0 1 1.4 2.3l-.3 1a2 2 0 0 1-2 1.5Zm-23.7-1.8c-1 0-2-.8-2-1.8v-1a2 2 0 0 1 1.8-2.1l2.7-.2h7c.9 0 1.8 0 2.7.2 1 0 2 1 1.9 2l-.1 1a2 2 0 0 1-2 2h-.1c-2-.2-3.9-.2-5.8-.2h-.1c-2 0-4 0-5.8.2h-.2Z"/><path d="M831.3 69.4a2 2 0 0 1-2-2v-1c0-1.1.9-2 2-2h6a2 2 0 0 1 2 2v1a2 2 0 0 1-2 2h-6Zm-12 0a2 2 0 0 1-2-2v-1c0-1.1 1-2 2-2h6a2 2 0 0 1 2 2v1a2 2 0 0 1-2 2h-6Zm-12 0a2 2 0 0 1-2-2v-1c0-1.1 1-2 2-2h6a2 2 0 0 1 2 2v1a2 2 0 0 1-2 2h-6Zm-11.8 0a2 2 0 0 1-2-2v-1c0-1.1.9-2 2-2h6a2 2 0 0 1 2 2v1a2 2 0 0 1-2 2h-6Zm-12 0a2 2 0 0 1-2-2v-1c0-1.1 1-2 2-2h6a2 2 0 0 1 2 2v1a2 2 0 0 1-2 2h-6Zm-12 0a2 2 0 0 1-2-2v-1c0-1.1 1-2 2-2h6a2 2 0 0 1 2 2v1a2 2 0 0 1-2 2h-6Zm-11.9 0a2 2 0 0 1-2-2v-1c0-1.1 1-2 2-2h6a2 2 0 0 1 2 2v1a2 2 0 0 1-2 2h-6Zm-12 0a2 2 0 0 1-2-2v-1c0-1.1 1-2 2-2h6a2 2 0 0 1 2 2v1a2 2 0 0 1-2 2h-6Zm-11.9 0a2 2 0 0 1-2-2v-1c0-1.1 1-2 2-2h6a2 2 0 0 1 2 2v1a2 2 0 0 1-2 2h-6Zm-11.9 0a2 2 0 0 1-2-2v-1c0-1.1 1-2 2-2h6a2 2 0 0 1 2 2v1a2 2 0 0 1-2 2h-6Zm-12 0a2 2 0 0 1-2-2v-1c0-1.1 1-2 2-2h6a2 2 0 0 1 2 2v1a2 2 0 0 1-2 2h-6Zm-11.9 0a2 2 0 0 1-2-2v-1c0-1.1 1-2 2-2h6a2 2 0 0 1 2 2v1a2 2 0 0 1-2 2h-6Zm-12 0a2 2 0 0 1-2-2v-1c0-1.1 1-2 2-2h6a2 2 0 0 1 2 2v1a2 2 0 0 1-2 2h-6Zm-11.9 0a2 2 0 0 1-2-2v-1c0-1.1 1-2 2-2h6a2 2 0 0 1 2 2v1a2 2 0 0 1-2 2h-6Zm-11.9 0a2 2 0 0 1-2-2v-1c0-1.1 1-2 2-2h6a2 2 0 0 1 2 2v1a2 2 0 0 1-2 2h-6Zm-12 0a2 2 0 0 1-2-2v-1c0-1.1 1-2 2-2h6a2 2 0 0 1 2 2v1a2 2 0 0 1-2 2h-6Zm-11.9 0a2 2 0 0 1-2-2v-1c0-1.1 1-2 2-2h6a2 2 0 0 1 2 2v1a2 2 0 0 1-2 2h-6Zm-12 0a2 2 0 0 1-2-2v-1c0-1.1 1-2 2-2h6a2 2 0 0 1 2 2v1a2 2 0 0 1-2 2h-6Zm-11.9 0a2 2 0 0 1-2-2v-1c0-1.1 1-2 2-2h6a2 2 0 0 1 2 2v1a2 2 0 0 1-2 2h-6Zm-11.9 0a2 2 0 0 1-2-2v-1c0-1.1 1-2 2-2h6a2 2 0 0 1 2 2v1a2 2 0 0 1-2 2h-6Zm-12 0a2 2 0 0 1-2-2v-1c0-1.1 1-2 2-2h6a2 2 0 0 1 2 2v1a2 2 0 0 1-2 2h-6Zm-11.9 0a2 2 0 0 1-2-2v-1c0-1.1 1-2 2-2h6a2 2 0 0 1 2 2v1a2 2 0 0 1-2 2h-6Zm-12 0a2 2 0 0 1-2-2v-1c0-1.1 1-2 2-2h6a2 2 0 0 1 2 2v1a2 2 0 0 1-2 2h-6Zm-11.9 0a2 2 0 0 1-2-2v-1c0-1.1 1-2 2-2h6a2 2 0 0 1 2 2v1a2 2 0 0 1-2 2h-6Zm-11.9 0a2 2 0 0 1-2-2v-1c0-1.1 1-2 2-2h6a2 2 0 0 1 2 2v1a2 2 0 0 1-2 2h-6Zm-12 0a2 2 0 0 1-2-2v-1c0-1.1 1-2 2-2h6a2 2 0 0 1 2 2v1a2 2 0 0 1-2 2h-6Zm-11.9 0a2 2 0 0 1-2-2v-1c0-1.1 1-2 2-2h6a2 2 0 0 1 2 2v1a2 2 0 0 1-2 2h-6Zm-12 0a2 2 0 0 1-2-2v-1c0-1.1 1-2 2-2h6a2 2 0 0 1 2 2v1a2 2 0 0 1-2 2h-6Zm-11.9 0a2 2 0 0 1-2-2v-1c0-1.1 1-2 2-2h6a2 2 0 0 1 2 2v1a2 2 0 0 1-2 2h-6Zm-11.9 0a2 2 0 0 1-2-2v-1c0-1.1 1-2 2-2h6a2 2 0 0 1 2 2v1a2 2 0 0 1-2 2h-6Zm-12 0a2 2 0 0 1-2-2v-1c0-1.1 1-2 2-2h6a2 2 0 0 1 2 2v1a2 2 0 0 1-2 2h-6Zm-11.9 0a2 2 0 0 1-2-2v-1c0-1.1 1-2 2-2h6a2 2 0 0 1 2 2v1a2 2 0 0 1-2 2h-6Zm-12 0a2 2 0 0 1-2-2v-1c0-1.1 1-2 2-2h6a2 2 0 0 1 2 2v1a2 2 0 0 1-2 2h-6Zm-11.9 0a2 2 0 0 1-2-2v-1c0-1.1 1-2 2-2h6a2 2 0 0 1 2 2v1a2 2 0 0 1-2 2h-6Zm-11.9 0a2 2 0 0 1-2-2v-1c0-1.1 1-2 2-2h6a2 2 0 0 1 2 2v1a2 2 0 0 1-2 2h-6Zm-12 0a2 2 0 0 1-2-2v-1c0-1.1 1-2 2-2h6a2 2 0 0 1 2 2v1a2 2 0 0 1-2 2h-6Zm-11.9 0a2 2 0 0 1-2-2v-1c0-1.1 1-2 2-2h6a2 2 0 0 1 2 2v1a2 2 0 0 1-2 2h-6Zm-12 0a2 2 0 0 1-2-2v-1c0-1.1 1-2 2-2h6a2 2 0 0 1 2 2v1a2 2 0 0 1-2 2h-6Zm-11.8 0a2 2 0 0 1-2-2v-1c0-1.1.8-2 2-2h6a2 2 0 0 1 2 2v1a2 2 0 0 1-2 2h-6Zm-12 0a2 2 0 0 1-2-2v-1c0-1.1 1-2 2-2h6a2 2 0 0 1 2 2v1a2 2 0 0 1-2 2h-6Zm-12 0a2 2 0 0 1-2-2v-1c0-1.1 1-2 2-2h6a2 2 0 0 1 2 2v1a2 2 0 0 1-2 2h-6Zm-11.9 0a2 2 0 0 1-2-2v-1c0-1.1 1-2 2-2h6a2 2 0 0 1 2 2v1a2 2 0 0 1-2 2h-6Zm-12 0a2 2 0 0 1-2-2v-1c0-1.1 1-2 2-2h6a2 2 0 0 1 2 2v1a2 2 0 0 1-2 2h-6Zm-11.8 0a2 2 0 0 1-2-2v-1c0-1.1.9-2 2-2h6a2 2 0 0 1 2 2v1a2 2 0 0 1-2 2h-6Zm-12 0a2 2 0 0 1-2-2v-1c0-1.1 1-2 2-2h6a2 2 0 0 1 2 2v1a2 2 0 0 1-2 2h-6Zm-12 0a2 2 0 0 1-2-2v-1c0-1.1 1-2 2-2h6a2 2 0 0 1 2 2v1a2 2 0 0 1-2 2h-6Zm-11.9 0a2 2 0 0 1-2-2v-1c0-1.1 1-2 2-2h6a2 2 0 0 1 2 2v1a2 2 0 0 1-2 2h-6Zm-12 0a2 2 0 0 1-2-2v-1c0-1.1 1-2 2-2h6a2 2 0 0 1 2 2v1a2 2 0 0 1-2 2h-6Zm-11.9 0a2 2 0 0 1-2-2v-1c0-1.1 1-2 2-2h6a2 2 0 0 1 2 2v1a2 2 0 0 1-2 2h-6Zm-11.9 0a2 2 0 0 1-2-2v-1c0-1.1 1-2 2-2h6a2 2 0 0 1 2 2v1a2 2 0 0 1-2 2h-6Zm585.1-28.9a2 2 0 0 1-2-2v-1c0-1.1.9-2 2-2h6a2 2 0 0 1 2 2v1a2 2 0 0 1-2 2h-6Zm-12 0a2 2 0 0 1-2-2v-1c0-1.1 1-2 2-2h6a2 2 0 0 1 2 2v1a2 2 0 0 1-2 2h-6Zm-12 0a2 2 0 0 1-2-2v-1c0-1.1 1-2 2-2h6a2 2 0 0 1 2 2v1a2 2 0 0 1-2 2h-6Zm-11.8 0a2 2 0 0 1-2-2v-1c0-1.1.9-2 2-2h6a2 2 0 0 1 2 2v1a2 2 0 0 1-2 2h-6Zm-12 0a2 2 0 0 1-2-2v-1c0-1.1 1-2 2-2h6a2 2 0 0 1 2 2v1a2 2 0 0 1-2 2h-6Zm-12 0a2 2 0 0 1-2-2v-1c0-1.1 1-2 2-2h6a2 2 0 0 1 2 2v1a2 2 0 0 1-2 2h-6Zm-11.9 0a2 2 0 0 1-2-2v-1c0-1.1 1-2 2-2h6a2 2 0 0 1 2 2v1a2 2 0 0 1-2 2h-6Zm-12 0a2 2 0 0 1-2-2v-1c0-1.1 1-2 2-2h6a2 2 0 0 1 2 2v1a2 2 0 0 1-2 2h-6Zm-11.9 0a2 2 0 0 1-2-2v-1c0-1.1 1-2 2-2h6a2 2 0 0 1 2 2v1a2 2 0 0 1-2 2h-6Zm-11.9 0a2 2 0 0 1-2-2v-1c0-1.1 1-2 2-2h6a2 2 0 0 1 2 2v1a2 2 0 0 1-2 2h-6Zm-12 0a2 2 0 0 1-2-2v-1c0-1.1 1-2 2-2h6a2 2 0 0 1 2 2v1a2 2 0 0 1-2 2h-6Zm-11.9 0a2 2 0 0 1-2-2v-1c0-1.1 1-2 2-2h6a2 2 0 0 1 2 2v1a2 2 0 0 1-2 2h-6Zm-12 0a2 2 0 0 1-2-2v-1c0-1.1 1-2 2-2h6a2 2 0 0 1 2 2v1a2 2 0 0 1-2 2h-6Zm-11.9 0a2 2 0 0 1-2-2v-1c0-1.1 1-2 2-2h6a2 2 0 0 1 2 2v1a2 2 0 0 1-2 2h-6Zm-11.9 0a2 2 0 0 1-2-2v-1c0-1.1 1-2 2-2h6a2 2 0 0 1 2 2v1a2 2 0 0 1-2 2h-6Zm-12 0a2 2 0 0 1-2-2v-1c0-1.1 1-2 2-2h6a2 2 0 0 1 2 2v1a2 2 0 0 1-2 2h-6Zm-11.9 0a2 2 0 0 1-2-2v-1c0-1.1 1-2 2-2h6a2 2 0 0 1 2 2v1a2 2 0 0 1-2 2h-6Zm-12 0a2 2 0 0 1-2-2v-1c0-1.1 1-2 2-2h6a2 2 0 0 1 2 2v1a2 2 0 0 1-2 2h-6Zm-11.9 0a2 2 0 0 1-2-2v-1c0-1.1 1-2 2-2h6a2 2 0 0 1 2 2v1a2 2 0 0 1-2 2h-6Zm-11.9 0a2 2 0 0 1-2-2v-1c0-1.1 1-2 2-2h6a2 2 0 0 1 2 2v1a2 2 0 0 1-2 2h-6Zm-12 0a2 2 0 0 1-2-2v-1c0-1.1 1-2 2-2h6a2 2 0 0 1 2 2v1a2 2 0 0 1-2 2h-6Zm-11.9 0a2 2 0 0 1-2-2v-1c0-1.1 1-2 2-2h6a2 2 0 0 1 2 2v1a2 2 0 0 1-2 2h-6Zm-12 0a2 2 0 0 1-2-2v-1c0-1.1 1-2 2-2h6a2 2 0 0 1 2 2v1a2 2 0 0 1-2 2h-6Zm-11.9 0a2 2 0 0 1-2-2v-1c0-1.1 1-2 2-2h6a2 2 0 0 1 2 2v1a2 2 0 0 1-2 2h-6Zm-11.9 0a2 2 0 0 1-2-2v-1c0-1.1 1-2 2-2h6a2 2 0 0 1 2 2v1a2 2 0 0 1-2 2h-6Zm-12 0a2 2 0 0 1-2-2v-1c0-1.1 1-2 2-2h6a2 2 0 0 1 2 2v1a2 2 0 0 1-2 2h-6Zm-11.9 0a2 2 0 0 1-2-2v-1c0-1.1 1-2 2-2h6a2 2 0 0 1 2 2v1a2 2 0 0 1-2 2h-6Zm-12 0a2 2 0 0 1-2-2v-1c0-1.1 1-2 2-2h6a2 2 0 0 1 2 2v1a2 2 0 0 1-2 2h-6Zm-11.9 0a2 2 0 0 1-2-2v-1c0-1.1 1-2 2-2h6a2 2 0 0 1 2 2v1a2 2 0 0 1-2 2h-6Zm-11.9 0a2 2 0 0 1-2-2v-1c0-1.1 1-2 2-2h6a2 2 0 0 1 2 2v1a2 2 0 0 1-2 2h-6Zm-12 0a2 2 0 0 1-2-2v-1c0-1.1 1-2 2-2h6a2 2 0 0 1 2 2v1a2 2 0 0 1-2 2h-6Zm-11.9 0a2 2 0 0 1-2-2v-1c0-1.1 1-2 2-2h6a2 2 0 0 1 2 2v1a2 2 0 0 1-2 2h-6Zm-12 0a2 2 0 0 1-2-2v-1c0-1.1 1-2 2-2h6a2 2 0 0 1 2 2v1a2 2 0 0 1-2 2h-6Zm-11.9 0a2 2 0 0 1-2-2v-1c0-1.1 1-2 2-2h6a2 2 0 0 1 2 2v1a2 2 0 0 1-2 2h-6Zm-11.9 0a2 2 0 0 1-2-2v-1c0-1.1 1-2 2-2h6a2 2 0 0 1 2 2v1a2 2 0 0 1-2 2h-6Zm-12 0a2 2 0 0 1-2-2v-1c0-1.1 1-2 2-2h6a2 2 0 0 1 2 2v1a2 2 0 0 1-2 2h-6Zm-11.9 0a2 2 0 0 1-2-2v-1c0-1.1 1-2 2-2h6a2 2 0 0 1 2 2v1a2 2 0 0 1-2 2h-6Zm-12 0a2 2 0 0 1-2-2v-1c0-1.1 1-2 2-2h6a2 2 0 0 1 2 2v1a2 2 0 0 1-2 2h-6Zm-11.8 0a2 2 0 0 1-2-2v-1c0-1.1.8-2 2-2h6a2 2 0 0 1 2 2v1a2 2 0 0 1-2 2h-6Zm-12 0a2 2 0 0 1-2-2v-1c0-1.1 1-2 2-2h6a2 2 0 0 1 2 2v1a2 2 0 0 1-2 2h-6Zm-12 0a2 2 0 0 1-2-2v-1c0-1.1 1-2 2-2h6a2 2 0 0 1 2 2v1a2 2 0 0 1-2 2h-6Zm-11.9 0a2 2 0 0 1-2-2v-1c0-1.1 1-2 2-2h6a2 2 0 0 1 2 2v1a2 2 0 0 1-2 2h-6Zm-12 0a2 2 0 0 1-2-2v-1c0-1.1 1-2 2-2h6a2 2 0 0 1 2 2v1a2 2 0 0 1-2 2h-6Zm-11.8 0a2 2 0 0 1-2-2v-1c0-1.1.9-2 2-2h6a2 2 0 0 1 2 2v1a2 2 0 0 1-2 2h-6Zm-12 0a2 2 0 0 1-2-2v-1c0-1.1 1-2 2-2h6a2 2 0 0 1 2 2v1a2 2 0 0 1-2 2h-6Zm-12 0a2 2 0 0 1-2-2v-1c0-1.1 1-2 2-2h6a2 2 0 0 1 2 2v1a2 2 0 0 1-2 2h-6Zm-11.9 0a2 2 0 0 1-2-2v-1c0-1.1 1-2 2-2h6a2 2 0 0 1 2 2v1a2 2 0 0 1-2 2h-6Zm-12 0a2 2 0 0 1-2-2v-1c0-1.1 1-2 2-2h6a2 2 0 0 1 2 2v1a2 2 0 0 1-2 2h-6Zm-11.9 0a2 2 0 0 1-2-2v-1c0-1.1 1-2 2-2h6a2 2 0 0 1 2 2v1a2 2 0 0 1-2 2h-6Zm-11.9 0a2 2 0 0 1-2-2v-1c0-1.1 1-2 2-2h6a2 2 0 0 1 2 2v1a2 2 0 0 1-2 2h-6Z"/><rect x="499.4" y="197.3" width="10" height="5" rx="2" ry="2"/><rect x="511.4" y="197.3" width="10" height="5" rx="2" ry="2"/><rect x="523.4" y="197.3" width="10" height="5" rx="2" ry="2"/><rect x="535.4" y="197.3" width="10" height="5" rx="2" ry="2"/><rect x="475.3" y="197.3" width="10" height="5" rx="2" ry="2"/><rect x="631.4" y="197.3" width="10" height="5" rx="2" ry="2"/><rect x="487.3" y="197.3" width="10" height="5" rx="2" ry="2"/><rect x="559.4" y="197.3" width="10" height="5" rx="2" ry="2"/><rect x="547.4" y="197.3" width="10" height="5" rx="2" ry="2"/><rect x="607.4" y="197.3" width="10" height="5" rx="2" ry="2"/><rect x="595.4" y="197.3" width="10" height="5" rx="2" ry="2"/><rect x="463.3" y="197.3" width="10" height="5" rx="2" ry="2"/><rect x="619.4" y="197.3" width="10" height="5" rx="2" ry="2"/><rect x="571.4" y="197.3" width="10" height="5" rx="2" ry="2"/><rect x="583.4" y="197.3" width="10" height="5" rx="2" ry="2"/><rect x="403.3" y="197.3" width="10" height="5" rx="2" ry="2"/><rect x="343.3" y="197.3" width="10" height="5" rx="2" ry="2"/><rect x="355.3" y="197.3" width="10" height="5" rx="2" ry="2"/><rect x="331.2" y="197.3" width="10" height="5" rx="2" ry="2"/><rect x="451.3" y="197.3" width="10" height="5" rx="2" ry="2"/><rect x="319.2" y="197.3" width="10" height="5" rx="2" ry="2"/><rect x="295.2" y="197.3" width="10" height="5" rx="2" ry="2"/><rect x="307.2" y="197.3" width="10" height="5" rx="2" ry="2"/><rect x="367.3" y="197.3" width="10" height="5" rx="2" ry="2"/><rect x="427.3" y="197.3" width="10" height="5" rx="2" ry="2"/><rect x="439.3" y="197.3" width="10" height="5" rx="2" ry="2"/><rect x="415.3" y="197.3" width="10" height="5" rx="2" ry="2"/><rect x="391.3" y="197.3" width="10" height="5" rx="2" ry="2"/><rect x="643.4" y="197.3" width="10" height="5" rx="2" ry="2"/><rect x="379.3" y="197.3" width="10" height="5" rx="2" ry="2"/><rect x="751.5" y="197.3" width="10" height="5" rx="2" ry="2"/><rect x="727.5" y="197.3" width="10" height="5" rx="2" ry="2"/><rect x="739.5" y="197.3" width="10" height="5" rx="2" ry="2"/><rect x="763.5" y="197.3" width="10" height="5" rx="2" ry="2"/><rect x="679.5" y="197.3" width="10" height="5" rx="2" ry="2"/><rect x="667.5" y="197.3" width="10" height="5" rx="2" ry="2"/><rect x="703.5" y="197.3" width="10" height="5" rx="2" ry="2"/><rect x="691.5" y="197.3" width="10" height="5" rx="2" ry="2"/><rect x="715.5" y="197.3" width="10" height="5" rx="2" ry="2"/><rect x="655.5" y="197.3" width="10" height="5" rx="2" ry="2"/><rect x="775.5" y="197.3" width="10" height="5" rx="2" ry="2"/><rect x="799.5" y="197.3" width="10" height="5" rx="2" ry="2"/><rect x="787.5" y="197.3" width="10" height="5" rx="2" ry="2"/><rect x="775.5" y="167.8" width="10" height="5" rx="2" ry="2"/><rect x="367.3" y="167.8" width="10" height="5" rx="2" ry="2"/><rect x="379.3" y="167.8" width="10" height="5" rx="2" ry="2"/><rect x="655.5" y="167.8" width="10" height="5" rx="2" ry="2"/><rect x="355.3" y="167.8" width="10" height="5" rx="2" ry="2"/><rect x="763.5" y="167.8" width="10" height="5" rx="2" ry="2"/><rect x="787.5" y="167.8" width="10" height="5" rx="2" ry="2"/><rect x="403.3" y="167.8" width="10" height="5" rx="2" ry="2"/><rect x="391.3" y="167.8" width="10" height="5" rx="2" ry="2"/><rect x="595.4" y="167.8" width="10" height="5" rx="2" ry="2"/><rect x="331.2" y="167.8" width="10" height="5" rx="2" ry="2"/><rect x="343.3" y="167.8" width="10" height="5" rx="2" ry="2"/><rect x="307.2" y="167.8" width="10" height="5" rx="2" ry="2"/><rect x="295.2" y="167.8" width="10" height="5" rx="2" ry="2"/><rect x="643.4" y="167.8" width="10" height="5" rx="2" ry="2"/><rect x="631.4" y="167.8" width="10" height="5" rx="2" ry="2"/><rect x="619.4" y="167.8" width="10" height="5" rx="2" ry="2"/><rect x="583.4" y="167.8" width="10" height="5" rx="2" ry="2"/><rect x="319.2" y="167.8" width="10" height="5" rx="2" ry="2"/><rect x="607.4" y="167.8" width="10" height="5" rx="2" ry="2"/><rect x="799.5" y="167.8" width="10" height="5" rx="2" ry="2"/><rect x="415.3" y="167.8" width="10" height="5" rx="2" ry="2"/><rect x="715.5" y="167.8" width="10" height="5" rx="2" ry="2"/><rect x="703.5" y="167.8" width="10" height="5" rx="2" ry="2"/><rect x="511.4" y="167.8" width="10" height="5" rx="2" ry="2"/><rect x="487.3" y="167.8" width="10" height="5" rx="2" ry="2"/><rect x="559.4" y="167.8" width="10" height="5" rx="2" ry="2"/><rect x="499.4" y="167.8" width="10" height="5" rx="2" ry="2"/><rect x="535.4" y="167.8" width="10" height="5" rx="2" ry="2"/><rect x="691.5" y="167.8" width="10" height="5" rx="2" ry="2"/><rect x="523.4" y="167.8" width="10" height="5" rx="2" ry="2"/><rect x="679.5" y="167.8" width="10" height="5" rx="2" ry="2"/><rect x="463.3" y="167.8" width="10" height="5" rx="2" ry="2"/><rect x="439.3" y="167.8" width="10" height="5" rx="2" ry="2"/><rect x="667.5" y="167.8" width="10" height="5" rx="2" ry="2"/><rect x="739.5" y="167.8" width="10" height="5" rx="2" ry="2"/><rect x="475.3" y="167.8" width="10" height="5" rx="2" ry="2"/><rect x="751.5" y="167.8" width="10" height="5" rx="2" ry="2"/><rect x="427.3" y="167.8" width="10" height="5" rx="2" ry="2"/><rect x="727.5" y="167.8" width="10" height="5" rx="2" ry="2"/><rect x="547.4" y="167.8" width="10" height="5" rx="2" ry="2"/><rect x="571.4" y="167.8" width="10" height="5" rx="2" ry="2"/><rect x="451.3" y="167.8" width="10" height="5" rx="2" ry="2"/><path d="M536 458h-4.2a2 2 0 0 1-1.9-2.2v-1c.1-1 1-1.9 2-1.9h.2l4.4.1h1.4c.5 0 1 .2 1.4.6.4.4.6.9.6 1.4v1a2 2 0 0 1-2 2h-1.8Zm8-.3c-.5 0-1-.2-1.3-.5a2 2 0 0 1-.8-1.3v-1c0-.6.1-1 .4-1.5s.9-.6 1.4-.7c2-.1 3.9-.4 5.8-.6h.2c1 0 1.9.7 2 1.7l.2 1c0 .5 0 1-.4 1.4s-.8.8-1.3.8l-1.2.2-4.4.5h-.6Zm-18-.3h-.2l-1.5-.1-1.4-.2-1.8-.3-1.4-.2a2 2 0 0 1-1.6-2.3l.1-1a2 2 0 0 1 2.3-1.6l5.8.8a2 2 0 0 1 1.8 2.2l-.2 1a2 2 0 0 1-2 1.8Zm29.8-3.3v-.2l-2 .5-.2-1a2 2 0 0 1 1.5-2.4 80.4 80.4 0 0 0 6.2-1.5 2 2 0 0 1 2 1.4l.2 1a2 2 0 0 1-1.3 2.4l-.7.2c.1.4 0 .4-.2.4h-1l-.9.2h-.2l-.3.1-1 .3-1.8.4h-.3v-1.8Zm3.8 1Zm-45.5.3a2 2 0 0 1-.4-.1l-2.1-.6-2.2-.6-1.6-.5a2 2 0 0 1-1.3-2.5l.3-1a2 2 0 0 1 2.5-1.3 80 80 0 0 0 5.6 1.6 2 2 0 0 1 1.4 2.5l-.2 1a2 2 0 0 1-2 1.4Zm53.2-3a2 2 0 0 1-1.9-1.2l-.4-1v-1.5c.2-.5.7-.8 1.2-1a70.9 70.9 0 0 0 6.1-2.5l.7.1c.5.2 1 .5 1.1 1l.5 1a2 2 0 0 1 0 1.7l.1-.1c.1 0 .3 0 .4.4.4 1-.9.4-1.9.8l-1 .4-.5.3a86.3 86.3 0 0 1-4.4 1.7Zm6.1-2.4Zm-70.6 1.6c-.3 0-.6 0-.8-.2l-1.2-.5-.7-.3c-.2.3-.3.3-.4.3-.3 0-.7-.8-1.5-1.2l-1.8-.9a2 2 0 0 1-.8-2.7l.4-.9a2 2 0 0 1 2.7-.8l5.2 2.4a2 2 0 0 1 1.1 2.6l-.4 1a2 2 0 0 1-1.8 1.2Zm75.3-4.3a2 2 0 0 1-1.7-1l-.5-.9a2 2 0 0 1 .7-2.7l4.9-3a2 2 0 0 1 2.8.5l.5.8a2 2 0 0 1-.5 2.7 79.5 79.5 0 0 1-5.2 3.3 2 2 0 0 1-1 .3Zm-86-1.2a2 2 0 0 1-1-.3l-.5-.3-4.7-3.1a2 2 0 0 1-.4-2.8l.6-.8a2 2 0 0 1 1.3-.8h.3l1.2.3 4.8 3.3c.4.2.8.7.9 1.2s0 1-.3 1.5l-.5.9c-.4.6-1 1-1.7 1Zm95.9-5.6a2 2 0 0 1-1.6-.7l-.6-.8a2 2 0 0 1 .3-2.8c1.5-1.2 3-2.4 4.4-3.8a2 2 0 0 1 1.4-.5c.6 0 1.1.3 1.5.7l.6.7c.8.8.7 2-.1 2.8l-.8.7-.1.2h-.1l-.7.6-3 2.5a2 2 0 0 1-1.2.4Zm-105.6-1.4a2 2 0 0 1-1.3-.5l-3.4-3-.3-.4-.7-.6 1.3-1.5-1.4 1.4a2 2 0 0 1 0-2.9l.6-.7a2 2 0 0 1 1.4-.6c.6 0 1 .2 1.4.6l4.3 3.8c.9.8 1 2 .3 2.9l-.7.7a2 2 0 0 1-1.3.7h-.2Zm114.5-6.6a2 2 0 0 1-1.4-.6l-.7-.7a2 2 0 0 1 0-2.8 91 91 0 0 0 3.8-4.3 2 2 0 0 1 1.4-.7h.1c.5 0 1 .2 1.3.5l.8.6c.4.4.7 1 .7 1.5l-.3 1.2-.2.2-.3.3-.7.9-.5.6h-.2l-.3.5-.3.3-1.4 1.5-.4.4-.6.4a2 2 0 0 1-.9.2Zm-123.1-1.8a2 2 0 0 1-1.5-.6l-.8-1-.2-.2-3-3.5a2 2 0 0 1 .3-2.8l.8-.6a2 2 0 0 1 2.8.3 91 91 0 0 0 3.8 4.4 2 2 0 0 1-.1 2.8l-.8.7a2 2 0 0 1-1.3.5Zm62.7-1.7a2 2 0 0 1-2-2v-1c0-1.1 1-2 2-2h2.7l.8-.1a2 2 0 0 1 2 1.9v1a2 2 0 0 1-1.8 2l-3.7.2Zm-4.4-.2c-2.1-.1-4.2-.4-6.3-.7a2 2 0 0 1-1.6-2.3l.2-1a2 2 0 0 1 2.3-1.7 42.2 42.2 0 0 0 5.8.7c.5 0 1 .3 1.3.7.4.4.5 1 .5 1.5v1a2 2 0 0 1-2 1.8h-.2Zm14-.6a2 2 0 0 1-2-1.7l-.1-1a2 2 0 0 1 1.6-2.3l4-.8.4-.1a30.2 30.2 0 0 0 1.8-.5 2 2 0 0 1 2 1.5l.2 1a2 2 0 0 1-1.3 2.4 52.6 52.6 0 0 1-6.6 1.5Zm-25.9-1.5a55.2 55.2 0 0 1-6.5-2.3 2 2 0 0 1-1-1.1 2 2 0 0 1 0-1.5l.4-1a2 2 0 0 1 2.6-1 47.4 47.4 0 0 0 4.7 1.8l.7.2a2 2 0 0 1 1.3 2.5l-.3 1a2 2 0 0 1-1.9 1.4Zm37.6-2a2 2 0 0 1-1.8-1.2l-.4-1a2 2 0 0 1 1-2.5l1-.5.7-.3a48 48 0 0 0 3.5-1.9 2 2 0 0 1 2.7.7l.5.9a2 2 0 0 1-.7 2.7 54 54 0 0 1-6.4 3.1Zm46.8-1.3a2 2 0 0 1-1.2-.4l-.8-.6a2 2 0 0 1-.4-2.8l3.3-4.8a2 2 0 0 1 2.8-.6l.8.5c.5.3.8.7.9 1.3.1.5 0 1-.3 1.5l-2.8 4.1-.6 1a2 2 0 0 1-1.4.7h-.3Zm-95.6-1.6a2 2 0 0 1-1-.3c-1.8-1-3.6-2.2-5.3-3.4a2 2 0 0 1-.8-1.3c0-.5 0-1 .4-1.5l.6-.8a2 2 0 0 1 1.6-.8c.4 0 .8 0 1.2.3l2.2 1.6.7.5 1.6.9.3.2a2 2 0 0 1 .8 2.7l-.5.9a2 2 0 0 1-1.8 1Zm-42.7-.5a2 2 0 0 1-1.6-.8s0 0 0-.1l-.4-.5a124.1 124.1 0 0 0-2.7-4v-.2l-.3-.4a2 2 0 0 1 .7-2.7l.9-.5a2 2 0 0 1 2.7.7l3.1 4.8a2 2 0 0 1-.5 2.8l-.8.6a2 2 0 0 1-1.1.3Zm102-2.8h-.2a2 2 0 0 1-1.3-.8l-.6-.8a2 2 0 0 1 .4-2.8l.6-.5c1.2-1 2.5-2 3.7-3.2a2 2 0 0 1 2.9 0l.6.8c.4.4.6.9.6 1.4 0 .5-.2 1-.6 1.4a59.6 59.6 0 0 1-4.8 4 2 2 0 0 1-1.2.5Zm-69.1-3.9a2 2 0 0 1-1.4-.5l-4.4-4.4a2 2 0 0 1 .1-2.9l.8-.6a2 2 0 0 1 2.8.1l.7.8.4.5h.1v.1l.4.3a52 52 0 0 0 2.5 2.4c.4.4.6.9.7 1.4 0 .5-.2 1-.6 1.4l-.6.8a2 2 0 0 1-1.5.7Zm111.8-1.4a2 2 0 0 1-.9-.2l-.9-.5a2 2 0 0 1-.8-2.7 75 75 0 0 0 2.5-5.2 2 2 0 0 1 2.6-1l1 .4c.4.2.8.6 1 1s.2 1.1 0 1.6a83 83 0 0 1-2.7 5.6 2 2 0 0 1-1.8 1ZM460.2 411a2 2 0 0 1-1.8-1l-.7-1.5-.8-1.7-.2-.4-.9-2a2 2 0 0 1 0-1.6 2 2 0 0 1 1.1-1l1-.4.7-.2a2 2 0 0 1 1.8 1.3l2.4 5.2c.3.5.3 1 .1 1.5a2 2 0 0 1-1 1.2l-.8.4a2 2 0 0 1-1 .3Zm117-.9a2 2 0 0 1-1.3-.5l-.8-.6a2 2 0 0 1-.6-1.4c0-.5 0-1 .4-1.4l3.3-4.2.2-.4c.4-.5 1.1-.8 1.8-.8.3 0 .7 0 1 .3l.9.6a2 2 0 0 1 .5 2.7 58.7 58.7 0 0 1-3.9 5 2 2 0 0 1-1.5.7Zm-86.2-4.6a2 2 0 0 1-1.6-.8 51.8 51.8 0 0 1-3.3-5.4 2 2 0 0 1-.2-1.6c.2-.5.5-.9 1-1.1l.9-.5a2 2 0 0 1 1.5-.1c.5.1 1 .5 1.2 1a47.6 47.6 0 0 0 1.6 2.7 50.5 50.5 0 0 0 1.4 2.1 2 2 0 0 1-.5 2.8l-.8.6a2 2 0 0 1-1.1.4Zm124.9-3.3h-.7l-1-.4a2 2 0 0 1-1.2-2.6l1.7-5.5a2 2 0 0 1 2.5-1.4l1 .3a2 2 0 0 1 1.4 2.4l-1 3.4-.4 1c0 .5-.2.9-.4 1.3v.2a2 2 0 0 1-2 1.3Zm-31.8-2.1a2 2 0 0 1-1-.3l-.8-.4a2 2 0 0 1-.8-2.7c.9-1.7 1.7-3.5 2.4-5.3a2 2 0 0 1 2.6-1.1l1 .4a2 2 0 0 1 1 2.5c-.7 2-1.6 4-2.6 5.8-.4.7-1 1-1.8 1Zm-128.5-.1a2 2 0 0 1-2-1.4l-.1-.7c-.5-1.5-1-3-1.3-4.5v-.2l-.1-.1v-.3l-.1-.3a2 2 0 0 1 1.4-2.3l1-.2a2 2 0 0 1 1.5.2c.5.3.8.8 1 1.3l1.5 5.5c.2.5.2 1 0 1.5a2 2 0 0 1-1.2 1l-1 .4a2 2 0 0 1-.6 0Zm29.7-5.2a2 2 0 0 1-1.9-1.3l-1.9-6a2 2 0 0 1 1.5-2.5l1-.3h.4a2 2 0 0 1 2 1.5c0 .4.2.7.3 1l.3 1.3v.1l.2.3.3 1 .6 1.8a2 2 0 0 1-1.1 2.6l-1 .3a2 2 0 0 1-.6.1Zm133.6-4.2a2 2 0 0 1-.3 0l-1-.2a2 2 0 0 1-1.6-2.3l1-5.7a2 2 0 0 1 2.1-1.8l1 .1a2 2 0 0 1 1.8 2.3l-.2 1v.6l-.5 2.6v.2l-.1.8-.2.8a2 2 0 0 1-.8 1.3c-.4.2-.8.4-1.2.4Zm-30.3-1.9a2 2 0 0 1-.5 0l-1-.3a2 2 0 0 1-1.2-1 2 2 0 0 1-.2-1.5l.4-1.7v-.2l.5-2.1.3-1.6a2 2 0 0 1 2.3-1.7l1 .1a2 2 0 0 1 1.6 2.3c-.3 2.1-.7 4.2-1.3 6.2a2 2 0 0 1-1.9 1.5Zm-136-.4a2 2 0 0 1-1.9-1.6l-.8-6.1a2 2 0 0 1 1.7-2.2l1-.1h.2c1 0 2 .7 2 1.8l.8 5.7a2 2 0 0 1-1.6 2.3l-1 .2a2 2 0 0 1-.3 0Zm29.7-5.4a2 2 0 0 1-2-1.7c-.3-2-.5-4-.6-6.2a2 2 0 0 1 1.8-2.1h1.2c1 0 1.9.8 2 1.8a435.3 435.3 0 0 0 .5 5.3v.8a2 2 0 0 1-1.6 2l-1 .1h-.3Zm138-4.1-1-.1a2 2 0 0 1-1.4-.7 2 2 0 0 1-.5-1.4c.2-1.9.2-3.8.2-5.6v-.3c0-1 .9-2 2-2h1a2 2 0 0 1 2 2v1.4l-2 .1h2c0 1.7 0 3.2-.2 4.7 0 1-.9 1.8-2 1.8Zm-30-2.1h-1a2 2 0 0 1-1.8-2.2l.1-3v-2.8a2 2 0 0 1 2-2l1-.1c1 0 2 .8 2 2a81.6 81.6 0 0 1-.1 6.2c0 .5-.3 1-.7 1.4a2 2 0 0 1-1.3.5h-.1Zm-138.9-.3c-1 0-2-.8-2-2v-4.6h2-2v-.6.2-1a2 2 0 0 1 2-2h1c.5 0 1 .3 1.4.6.4.4.6 1 .6 1.5a126.8 126.8 0 0 0 0 5.8 2 2 0 0 1-2 2l-1 .1Zm30.1-5.6a2 2 0 0 1-2-2l.5-6.3a2 2 0 0 1 2-1.8h.3l1 .2a2 2 0 0 1 1.7 2.2c-.2 1.9-.4 3.8-.4 5.8a2 2 0 0 1-2 2h-1Zm138-4a2 2 0 0 1-2-1.9l-.6-5.7a2 2 0 0 1 1.7-2.3l1-.1h.3c1 0 1.8.7 2 1.7l.5 6.1a2 2 0 0 1-1.9 2.1l-1 .1Zm-30.4-2.2a2 2 0 0 1-2-1.7l-.1-.9a61 61 0 0 0-.6-3.5l-.1-.6-.2-.6a3 3 0 0 1 .2-1.6 2 2 0 0 1 1.3-.9l1-.2h.4c1 0 1.7.5 2 1.5.4 2 .8 4 1 6.2a2 2 0 0 1-1.7 2.2l-1 .1h-.2Zm-136.4-.1h-1.2a2 2 0 0 1-1.8-2.2c.1-1.7.3-3.4.6-5l.1-1.1a2 2 0 0 1 2.3-1.7l1 .1a2 2 0 0 1 1.7 2.3 54 54 0 0 0-.7 5.8 2 2 0 0 1-2 1.8Zm31.3-5.6h-.4l-1-.2a2 2 0 0 1-1.5-2.4c.4-2 1-4.1 1.6-6 .2-.6.6-1 1-1.2a2 2 0 0 1 1.6-.2l.9.4a2 2 0 0 1 1.3 2.5c-.6 1.8-1.2 3.7-1.6 5.6a2 2 0 0 1-2 1.6Zm134-3.8a2 2 0 0 1-2-1.6 84 84 0 0 0-1.4-5.7 2 2 0 0 1 1.4-2.4l1-.3h.5c.4 0 .7 0 1 .2l.2.1.3-.2h.3c.4 0 0 .5.1 1.2l.3.9v.1a22.9 22.9 0 0 0 .5 2v.2-.1.4l.4 1.3.3 1.4a2 2 0 0 1-1.6 2.3l-1 .2h-.4Zm-31.7-2.1a2 2 0 0 1-1.8-1.3l-1.1-2.8-.6-1.2-.6-1.3a2 2 0 0 1 1-2.7l.8-.4a2 2 0 0 1 1.5-.1c.5.1 1 .5 1.2 1 1 1.9 1.7 3.8 2.4 5.8a2 2 0 0 1-1.2 2.6l-.9.3a2 2 0 0 1-.7.1Zm-131.8-.2h-.5l-1-.3a2 2 0 0 1-1.4-2.4l1-3.9.2-.6.4-1.4a2 2 0 0 1 2.5-1.3l1 .2c.4.2.9.6 1.1 1 .3.5.3 1 .2 1.5a58 58 0 0 0-1.5 5.6 2 2 0 0 1-2 1.6Zm33.3-5.2c-.3 0-.6 0-.8-.2l-1-.4a2 2 0 0 1-1-1.2 2 2 0 0 1 0-1.5l3.1-5.6a2 2 0 0 1 2.8-.6l.8.5c.5.3.8.7 1 1.3 0 .5 0 1-.3 1.5l-.5.8-.5.8-1 2-.8 1.4a2 2 0 0 1-1.8 1.2Zm127-4a2 2 0 0 1-1.9-1.3 73 73 0 0 0-2.1-5.4 2 2 0 0 1 1-2.6l1-.4.7-.2a2 2 0 0 1 1.8 1.2 52.2 52.2 0 0 0 2.3 5.7 2 2 0 0 1-1.2 2.6l-1 .3a2 2 0 0 1-.6.1Zm-33.8-1.3a2 2 0 0 1-1.6-1l-.8-1.2-.4-.5-.2-.3-1-1.3-1-1.4a2 2 0 0 1 .3-2.8l.8-.6a2 2 0 0 1 2.8.3 60 60 0 0 1 3.7 5.1c.3.5.4 1 .3 1.5a2 2 0 0 1-1 1.3l-.8.5a2 2 0 0 1-1 .3Zm-123-.8c-.3 0-.5 0-.7-.2l-1-.3a2 2 0 0 1-1.1-2.6l.5-1.3a85 85 0 0 1 2-4.4 2 2 0 0 1 2.6-1l.9.5a2 2 0 0 1 1 2.7c-.9 1.7-1.7 3.5-2.4 5.3a2 2 0 0 1-1.8 1.3Zm36-4.1a2 2 0 0 1-1.2-.4l-.7-.7a2 2 0 0 1-.4-2.8 59 59 0 0 1 4.1-4.6l.1-.1a2 2 0 0 1 1.4-.6c.6 0 1 .2 1.5.6l.7.7c.7.7.8 2 0 2.8l-.6.6a49.1 49.1 0 0 0-3.2 3.7 2 2 0 0 1-1.6.8Zm79.5-4.5a2 2 0 0 1-1.4-.6 55.4 55.4 0 0 0-4.3-3.9 2 2 0 0 1-.2-2.8l.6-.7a2 2 0 0 1 1.3-.8h.2c.5 0 1 .2 1.3.5 1.6 1.3 3.2 2.7 4.7 4.3.7.7.7 2 0 2.8l-.8.7a2 2 0 0 1-1.4.6Zm36.5-.1h-.6a2 2 0 0 1-1.1-1c-1-1.8-1.9-3.4-3-5a2 2 0 0 1 .7-2.8l.8-.5a2 2 0 0 1 1.6-.3c.5.1 1 .4 1.2.9l2.1 3.6.4-.2c.4 0 .1.9.4 1.6l.2.3a2 2 0 0 1-.8 2.7l-1 .5a2 2 0 0 1-.9.2Zm2.7-3.4Zm0 0ZM463 330.8a2 2 0 0 1-1-.3l-.8-.5a2 2 0 0 1-1-1.2 2 2 0 0 1 .2-1.5l.6-1 .2-.3.3-.5.7-1.2.1-.2.1-.2.1-.1.1-.2.2-.3.8-1.3a2 2 0 0 1 2.8-.5l.8.5c.5.3.8.8.9 1.3s0 1-.3 1.5l-2.6 4.2-.4.7a2 2 0 0 1-1.2 1 2 2 0 0 1-.5 0Zm39.5-2h-.2a2 2 0 0 1-1.4-.7l-.6-.7a2 2 0 0 1 .3-2.8c1.7-1.4 3.4-2.6 5.1-3.8a2 2 0 0 1 1.5-.3c.5.2 1 .5 1.3 1l.5.8a2 2 0 0 1-.6 2.7l-1.7 1.2-.7.5-1.6 1.2-.3.2-.3.3a2 2 0 0 1-1.3.5Zm61.8-3.4a2 2 0 0 1-1.1-.4l-1-.6-.8-.4v-.1l-.4-.2-2.9-1.5a2 2 0 0 1-.9-2.7l.5-.9a2 2 0 0 1 1.1-1 2 2 0 0 1 1.6.1l5.5 3.1c.4.3.7.8.9 1.3 0 .5 0 1-.3 1.5l-.6.8c-.3.6-1 1-1.6 1Zm39.4-2.6a2 2 0 0 1-1.6-.8 52 52 0 0 0-3.6-4.6 2 2 0 0 1 .2-2.8l.8-.6a2 2 0 0 1 1.3-.5h.2c.5 0 1 .3 1.3.7a90 90 0 0 1 1.2 1.4v.1l.7.8.2.2v.1l.1.1h.1l.1.2.1.1 1.3 1.8c.4.4.5 1 .4 1.5 0 .5-.3 1-.8 1.3l-.8.6a2 2 0 0 1-1.2.4Zm-91.1-.4-.7-.1a2 2 0 0 1-1.1-1l-.5-1a2 2 0 0 1 1-2.6 51.6 51.6 0 0 1 6.5-2.5c.3 0 .6 0 .9.2.4.2.8.6 1 1.1l.3 1a2 2 0 0 1-1.3 2.5l-1.2.4-.6.3h-.2a49.3 49.3 0 0 0-4.1 1.7Zm-43-1.5a2 2 0 0 1-1.3-.5l-.7-.6a2 2 0 0 1-.8-1.3c0-.6 0-1 .4-1.5l2.2-2.8.2-.2.1-.2.3-.3 1-1.2a2 2 0 0 1 1.4-.7h.2c.5 0 1 .2 1.3.5l.7.7c.9.7 1 2 .2 2.8a80 80 0 0 0-3.7 4.4 2 2 0 0 1-1.5.8Zm83.9-.8a2 2 0 0 1-.7-.1l-.5-.2c-1.5-.5-3.1-1-4.8-1.3h-.2l-.8-.5-.3-.3a2 2 0 0 1-.4-1.6l.2-1a2 2 0 0 1 2-1.6h.4c2 .5 4.1 1 6 1.7a2 2 0 0 1 1.3 2.6l-.3 1a2 2 0 0 1-1.9 1.3Zm-29.6-1.6a2 2 0 0 1-2-1.6l-.2-1a2 2 0 0 1 1.6-2.3c2-.4 4-.8 6.2-1h.2c.5 0 1 .2 1.3.5.4.3.6.8.7 1.3l.1 1a2 2 0 0 1-1.8 2.2l-1 .1h-.7a52.2 52.2 0 0 0-4.4.8Zm17.9-1h-.2l-4.3-.2h-1.5a2 2 0 0 1-2-2v-1c0-.5.2-1 .6-1.4a2 2 0 0 1 1.4-.6h.2c2 0 4.1.1 6 .3a2 2 0 0 1 1.9 2.2l-.1 1a2 2 0 0 1-2 1.8Zm54.2-3.8a2 2 0 0 1-1.4-.6l-1-1-3.2-3a2 2 0 0 1 0-2.9l.6-.7a2 2 0 0 1 2.8-.1 117.6 117.6 0 0 1 3.7 3.5l.7.7c.8.8.7 2 0 2.9l-.8.6a2 2 0 0 1-1.4.6ZM477.4 312a2 2 0 0 1-1.4-.6l-.7-.7a2 2 0 0 1 0-2.9l3.2-3 .4-.3 1-.8a2 2 0 0 1 2.8.2l.6.8c.4.4.5 1 .5 1.5s-.3 1-.7 1.3a79 79 0 0 0-4.3 4 2 2 0 0 1-1.4.5Zm109.9-6.3a2 2 0 0 1-1.3-.4c-1.5-1.3-3-2.4-4.6-3.5a2 2 0 0 1-.5-2.8l.6-.8a2 2 0 0 1 2.8-.5l.2.1 1 .7 3.7 2.9c.8.7 1 2 .3 2.8l-.7.8a2 2 0 0 1-1.3.7h-.2Zm-100.8-1.4h-.4a2 2 0 0 1-1.3-.8l-.6-.8a2 2 0 0 1 .5-2.8 87 87 0 0 1 2.4-1.7l1.1-.8 1.6-1a2 2 0 0 1 1.5-.2c.5.1 1 .4 1.2.9l.5.8a2 2 0 0 1-.6 2.8l-4.8 3.2a2 2 0 0 1-1.1.4Zm91-5.4a2 2 0 0 1-1-.2 49 49 0 0 0-5-2.8 2 2 0 0 1-1-2.7l.5-.9a2 2 0 0 1 1.2-1 2 2 0 0 1 1.5.1l2.7 1.4.3-.3c.3 0 .6.7 1.1 1.1l1.3.8c.5.2.8.7 1 1.2s0 1-.3 1.5l-.5.9a2 2 0 0 1-1.7 1Zm.6-5.1Zm0 0Zm-81.6 4.2a2 2 0 0 1-1.8-1l-.5-1a2 2 0 0 1 .9-2.6l3.7-2 .8-.3 1-.5a2 2 0 0 1 2.6 1l.4 1a2 2 0 0 1-1 2.6 86.3 86.3 0 0 0-6.1 2.8Zm70.5-4.3-.8-.1c-1.8-.8-3.6-1.4-5.4-2a2 2 0 0 1-1.3-2.5l.3-1a2 2 0 0 1 1.9-1.4h.1l.1-.1s.2 0 .3.2l1.2.4.4.1 4.3 1.6a2 2 0 0 1 1 2.6l-.3 1a2 2 0 0 1-1.8 1.2Zm-59.7-.6a2 2 0 0 1-1.9-1.3l-.3-1a2 2 0 0 1 1.1-2.5l1.5-.6 1.6-.5a87.4 87.4 0 0 1 3.3-1c.4 0 .7.2 1 .3.4.3.8.7 1 1.2l.2 1a2 2 0 0 1-1.3 2.5 84 84 0 0 0-6.2 2Zm48.4-3h-.5a80 80 0 0 0-5.7-1.1c-.5-.1-1-.4-1.3-.8s-.4-1-.3-1.5l.1-1c.1-.6.4-1 1-1.4a2 2 0 0 1 1.4-.3 79.5 79.5 0 0 1 3.1.6l.6.1 1.5.3.8.2a2 2 0 0 1 1.5 2.4l-.3 1a2 2 0 0 1-2 1.5Zm-37-.3a2 2 0 0 1-2-1.6l-.2-1a2 2 0 0 1 .3-1.5 2 2 0 0 1 1.2-.8c1.9-.4 3.8-.8 5.7-1l.4-.1h.2c1 0 1.9.7 2 1.7l.2 1c0 .5-.1 1-.4 1.5a2 2 0 0 1-1.3.8 79 79 0 0 0-6.2 1Zm25.1-1.5a92 92 0 0 0-13.3-.2h-.1c-1 0-2-.8-2-1.8v-1c-.1-.6 0-1 .4-1.5a2 2 0 0 1 1.4-.7l3.8-.1h2.3c.3 0 .6 0 .9.2.3-.2.6-.2.9-.2h.6c2 0 3.7.1 5.5.3 1.1 0 2 1 1.9 2.1l-.1 1a2 2 0 0 1-2 1.9h-.2ZM784.5 468l-.8-.2a2 2 0 0 1-1-1.2l-2.2-5.6a2 2 0 0 1 1.1-2.5l1-.4.7-.1.8.1c.5.3.8.7 1 1.1l2.2 5.7a2 2 0 0 1-1.2 2.5l-1 .4a2 2 0 0 1-.6.1Zm-4.3-11.3c-.3 0-.6 0-.8-.2a2 2 0 0 1-1-1l-2.2-5.7a2 2 0 0 1 1.1-2.6l1-.3.7-.2.8.2c.5.2.9.6 1 1.1l2.2 5.6a2 2 0 0 1-1.2 2.6l-.9.4a2 2 0 0 1-.7.1Zm-4.3-11.2a2 2 0 0 1-1.9-1.3l-2-5.6a2 2 0 0 1 0-1.5 2 2 0 0 1 1-1l1-.4.7-.2a2 2 0 0 1 1.9 1.3l2.1 5.6c.2.5.2 1 0 1.6a2 2 0 0 1-1.1 1l-1 .4a2 2 0 0 1-.7.1Zm-4.3-11.2c-.2 0-.5 0-.8-.2a2 2 0 0 1-1-1l-2.2-5.7a2 2 0 0 1 1.2-2.6l1-.3.6-.2c.3 0 .6 0 .8.2.5.2.9.6 1 1.1l2.2 5.6a2 2 0 0 1-1.1 2.6l-1 .4a2 2 0 0 1-.7 0Zm-4.2-11.2c-.3 0-.6 0-.8-.2a2 2 0 0 1-1.1-1.1l-2.1-5.6a2 2 0 0 1 1.1-2.6l1-.4h1.5c.5.3.8.7 1 1.2l2.2 5.6a2 2 0 0 1-1.2 2.6l-1 .3a2 2 0 0 1-.6.2Zm-4.3-11.2a2 2 0 0 1-1.9-1.3l-2.1-5.6a2 2 0 0 1 0-1.6 2 2 0 0 1 1.1-1l1-.4.7-.1a2 2 0 0 1 1.8 1.3l2.2 5.6c.2.5.2 1 0 1.5a2 2 0 0 1-1.2 1l-.9.4a2 2 0 0 1-.7.2Zm-4.3-11.2-.8-.2a2 2 0 0 1-1-1.1l-2.2-5.6a2 2 0 0 1 1.1-2.6l1-.4.7-.1c.3 0 .5 0 .8.2.5.2.9.6 1 1l2.2 5.7a2 2 0 0 1-1.2 2.6l-.9.3a2 2 0 0 1-.7.2Zm-4.3-11.3-.8-.1a2 2 0 0 1-1-1.1l-2.2-5.7a2 2 0 0 1 1.2-2.5l.9-.4.7-.1.8.1c.5.3.9.7 1 1.2l2.2 5.6a2 2 0 0 1-1.1 2.6l-1 .3a2 2 0 0 1-.7.1Zm-4.3-11.2-.8-.1a2 2 0 0 1-1-1.2l-2.2-5.6a2 2 0 0 1 1.2-2.5l1-.4.6-.1.8.1c.5.3 1 .7 1.1 1.2l2.1 5.6a2 2 0 0 1-1.1 2.5l-1 .4a2 2 0 0 1-.6.1ZM746 367c-.3 0-.6 0-.8-.2a2 2 0 0 1-1-1L742 360a2 2 0 0 1 1.1-2.6l1-.3.7-.1.8.1c.5.2.8.6 1 1.1l2.2 5.6a2 2 0 0 1-1.2 2.6l-1 .4a2 2 0 0 1-.6.1Zm-4.3-11.2c-.3 0-.6 0-.8-.2a2 2 0 0 1-1-1l-2.2-5.7a2 2 0 0 1 1.1-2.6l1-.3.7-.2.8.2c.5.2.9.6 1 1.1l2.2 5.6a2 2 0 0 1-1.2 2.6l-.9.4a2 2 0 0 1-.7.1Zm-4.3-11.2c-.3 0-.5 0-.8-.2a2 2 0 0 1-1-1l-2.2-5.7a2 2 0 0 1 1.2-2.6l.9-.3.7-.2.8.2c.5.2.9.6 1 1.1l2.2 5.6a2 2 0 0 1-1.1 2.6l-1 .4a2 2 0 0 1-.7.1Zm-4.3-11.2a2 2 0 0 1-1.8-1.3l-2.2-5.6a2 2 0 0 1 0-1.5 2 2 0 0 1 1.2-1l1-.5h.6a2 2 0 0 1 1.9 1.2l2.1 5.6c.2.5.2 1 0 1.5a2 2 0 0 1-1.1 1.1l-1 .4a2 2 0 0 1-.7 0Zm-4.2-11.2c-.3 0-.6 0-.9-.2a2 2 0 0 1-1-1.1l-2.1-5.6a2 2 0 0 1 1.1-2.6l1-.4h1.5c.4.3.8.7 1 1.2l2.1 5.6a2 2 0 0 1-1.1 2.6l-1 .4a2 2 0 0 1-.6 0Zm-4.3-11.2-.8-.2a2 2 0 0 1-1-1.1l-2.2-5.6a2 2 0 0 1 1.1-2.6l1-.4.7-.1c.3 0 .5 0 .8.2.5.2.9.6 1 1l2.2 5.7a2 2 0 0 1-1.2 2.6l-.9.3a2 2 0 0 1-.7.2Zm-4.3-11.3a2 2 0 0 1-1.9-1.2l-2.1-5.7a2 2 0 0 1 0-1.5 2 2 0 0 1 1.1-1l1-.4.7-.1a2 2 0 0 1 1.9 1.3l2.1 5.6c.2.5.2 1 0 1.5a2 2 0 0 1-1.2 1l-.9.4a2 2 0 0 1-.7.1Zm-4.3-11.2-.8-.1a2 2 0 0 1-1-1.1l-2.2-5.7a2 2 0 0 1 1.2-2.5l.9-.4.7-.1.8.1c.5.3.9.7 1 1.2l2.2 5.6a2 2 0 0 1-1.1 2.6l-1 .3a2 2 0 0 1-.7.1Zm-4.3-11.2-.8-.1a2 2 0 0 1-1-1.2l-2.2-5.6a2 2 0 0 1 1.2-2.5l1-.4.6-.1.8.1c.5.3 1 .7 1.1 1.1l2.1 5.7a2 2 0 0 1-1.1 2.5l-1 .4a2 2 0 0 1-.6.1Zm-4.2-11.2c-.3 0-.6 0-.8-.2a2 2 0 0 1-1.1-1l-2.1-5.7a2 2 0 0 1 1.1-2.6l1-.3.6-.1.9.1c.5.2.8.6 1 1.1l2.2 5.7a2 2 0 0 1-1.2 2.5l-1 .4a2 2 0 0 1-.6.1Zm-4.3-11.2c-.3 0-.6 0-.8-.2a2 2 0 0 1-1-1l-2.2-5.7a2 2 0 0 1 0-1.5 2 2 0 0 1 1.1-1l1-.4.7-.2a2 2 0 0 1 1.9 1.3l2 5.6a2 2 0 0 1-1 2.6l-1 .4a2 2 0 0 1-.7.1ZM322.4 468a2 2 0 0 1-2-1.4l-2-5.6a2 2 0 0 1 0-1.5 2 2 0 0 1 1-1l1-.4.7-.1a2 2 0 0 1 1.9 1.2l2.1 5.7c.2.5.2 1 0 1.5a2 2 0 0 1-1.1 1l-1 .4a2 2 0 0 1-.6.1Zm-4.3-11.3c-.3 0-.6 0-.9-.2a2 2 0 0 1-1-1l-2.1-5.7a2 2 0 0 1 1.1-2.6l1-.3.6-.2.9.2c.4.2.8.6 1 1.1l2.2 5.6a2 2 0 0 1-1.2 2.6l-1 .4a2 2 0 0 1-.6.1Zm-4.3-11.2c-.3 0-.6 0-.8-.2a2 2 0 0 1-1-1l-2.2-5.7a2 2 0 0 1 1.1-2.6l1-.3.7-.2.8.2c.5.2.9.6 1 1.1l2.2 5.6a2 2 0 0 1-1.2 2.6l-.9.4a2 2 0 0 1-.7.1Zm-4.3-11.2c-.3 0-.5 0-.8-.2a2 2 0 0 1-1-1l-2.2-5.7a2 2 0 0 1 1.2-2.6l.9-.3.7-.2c.3 0 .6 0 .8.2.5.2.9.6 1 1.1l2.2 5.6a2 2 0 0 1-1.1 2.6l-1 .4a2 2 0 0 1-.7 0Zm-4.3-11.2c-.2 0-.5 0-.8-.2a2 2 0 0 1-1-1.1l-2.2-5.6a2 2 0 0 1 1.2-2.6l1-.4h1.4c.5.3.9.7 1 1.2l2.2 5.6a2 2 0 0 1-1.1 2.6l-1 .3a2 2 0 0 1-.7.2Zm-4.2-11.2c-.3 0-.6 0-.9-.2a2 2 0 0 1-1-1.1l-2.2-5.6a2 2 0 0 1 1.2-2.6l1-.4h1.5c.4.3.8.7 1 1.2l2.1 5.6a2 2 0 0 1-1.1 2.6l-1 .3a2 2 0 0 1-.6.2Zm-4.3-11.2-.8-.2a2 2 0 0 1-1-1.1l-2.2-5.6a2 2 0 0 1 1.1-2.6l1-.4.7-.1c.2 0 .5 0 .8.2.5.2.8.6 1 1l2.2 5.7a2 2 0 0 1-1.2 2.6l-1 .3a2 2 0 0 1-.6.2Zm-4.3-11.3-.8-.1a2 2 0 0 1-1-1.1l-2.2-5.7a2 2 0 0 1 1.2-2.5l.9-.4.7-.1.8.1c.5.3.9.7 1 1.2l2.2 5.6a2 2 0 0 1-1.1 2.6l-1 .3a2 2 0 0 1-.7.1Zm-4.3-11.2-.8-.1a2 2 0 0 1-1-1.2l-2.2-5.6a2 2 0 0 1 1.2-2.5l.9-.4.7-.1.8.1c.5.3.9.7 1 1.2l2.2 5.6a2 2 0 0 1-1.1 2.5l-1 .4a2 2 0 0 1-.7.1Zm-4.3-11.2c-.2 0-.5 0-.8-.2a2 2 0 0 1-1-1l-2.2-5.7a2 2 0 0 1 1.2-2.6l1-.3.6-.1.8.1c.5.2 1 .6 1.1 1.1l2.1 5.6a2 2 0 0 1-1.1 2.6l-1 .4a2 2 0 0 1-.6.1Zm-4.2-11.2c-.3 0-.6 0-.9-.2a2 2 0 0 1-1-1l-2.1-5.7a2 2 0 0 1 1.1-2.6l1-.3.6-.2.9.2c.4.2.8.6 1 1.1l2.2 5.6a2 2 0 0 1-1.2 2.6l-1 .4a2 2 0 0 1-.6.1Zm-4.3-11.2c-.3 0-.6 0-.8-.2a2 2 0 0 1-1-1l-2.2-5.7a2 2 0 0 1 1.1-2.6l1-.3.7-.2.8.2c.5.2.9.6 1 1.1l2.2 5.6a2 2 0 0 1-1.2 2.6l-.9.4a2 2 0 0 1-.7.1Zm-4.3-11.2c-.3 0-.5 0-.8-.2a2 2 0 0 1-1-1l-2.2-5.7a2 2 0 0 1 1.2-2.6l.9-.3.7-.2c.3 0 .6 0 .8.2.5.2.9.6 1 1.1l2.2 5.6a2 2 0 0 1-1.1 2.6l-1 .4a2 2 0 0 1-.7 0Zm-4.3-11.2a2 2 0 0 1-1.8-1.3l-2.2-5.6a2 2 0 0 1 1.2-2.6l1-.4h1.4c.5.3.9.7 1 1.2l2.2 5.6c.2.5.2 1 0 1.5a2 2 0 0 1-1.1 1l-1 .4a2 2 0 0 1-.7.2Zm-4.2-11.2-.9-.2a2 2 0 0 1-1-1.1l-2.2-5.6a2 2 0 0 1 1.2-2.6l1-.4.6-.1c.3 0 .6 0 .9.2.4.2.8.6 1 1l2.1 5.7a2 2 0 0 1-1.1 2.6l-1 .3a2 2 0 0 1-.6.2Zm-4.3-11.3-.8-.1a2 2 0 0 1-1-1.1l-2.2-5.6a2 2 0 0 1 1.1-2.6l1-.4.7-.1c.2 0 .5 0 .8.2.5.2.8.6 1 1l2.2 5.7a2 2 0 0 1-1.2 2.6l-1 .3a2 2 0 0 1-.6.1Zm-4.3-11.2-.8-.1a2 2 0 0 1-1-1.1l-2.2-5.7a2 2 0 0 1 1.1-2.5l1-.4.7-.1.8.1c.5.3.9.7 1 1.2l2.2 5.6a2 2 0 0 1-1.2 2.6l-.9.3a2 2 0 0 1-.7.1Zm-4.3-11.2-.8-.1a2 2 0 0 1-1-1.2l-2.2-5.6a2 2 0 0 1 1.2-2.5l.9-.4.7-.1.8.1c.5.3.9.7 1 1.1l2.2 5.7a2 2 0 0 1-1.1 2.5l-1 .4a2 2 0 0 1-.7.1Zm-4.3-11.2c-.2 0-.5 0-.8-.2a2 2 0 0 1-1-1l-2.2-5.7a2 2 0 0 1 1.2-2.6l1-.3.6-.1.9.1c.4.2.8.6 1 1.1l2.1 5.7a2 2 0 0 1-1.1 2.5l-1 .4a2 2 0 0 1-.6.1Zm-4.2-11.2c-.3 0-.6 0-.9-.2a2 2 0 0 1-1-1l-2.1-5.7a2 2 0 0 1 1.1-2.6l1-.3.7-.2.8.2c.5.2.8.6 1 1.1l2.2 5.6a2 2 0 0 1-1.2 2.6l-1 .4a2 2 0 0 1-.6.1Z"/><path d="M615.1 473.6c-.2 0-.4 0-.7-.2l-1-.3a2 2 0 0 1-1-1 2 2 0 0 1 0-1.6l1.2-3.3a2 2 0 0 1 2.6-1l1 .3c.4.2.8.6 1 1 .3.5.3 1 0 1.6l-1.2 3.2a2 2 0 0 1-1.9 1.3Zm3.5-8.9-.7-.1-1-.4a2 2 0 0 1-1-1 2 2 0 0 1 0-1.5l2-5.6a2 2 0 0 1 2.7-1.2l1 .4c.4.2.8.6 1 1 .2.5.2 1 0 1.6l-2.1 5.6a2 2 0 0 1-1.9 1.2Zm4.4-11.1c-.3 0-.5 0-.8-.2l-.9-.3a2 2 0 0 1-1.1-1.1 2 2 0 0 1 0-1.5l2.2-5.6a2 2 0 0 1 2.5-1.1l1 .3c.5.2.9.6 1 1 .3.6.3 1.1.1 1.6l-2.2 5.6a2 2 0 0 1-1.8 1.3Zm4.3-11.2-.7-.1-1-.4a2 2 0 0 1-1-1 2 2 0 0 1 0-1.6l2.1-5.6a2 2 0 0 1 2.6-1.1l1 .3c.4.2.8.6 1 1.1.3.5.3 1 0 1.5l-2.1 5.6a2 2 0 0 1-1.9 1.3Zm4.4-11.2-.7-.1-1-.4a2 2 0 0 1-1-1 2 2 0 0 1-.1-1.6l2.2-5.6a2 2 0 0 1 2.6-1.1l.9.4c.5.2.9.5 1.1 1 .2.5.2 1 0 1.6l-2.1 5.5a2 2 0 0 1-1.9 1.3Zm4.4-11.2-.8-.1-.9-.4a2 2 0 0 1-1.1-1 2 2 0 0 1 0-1.6l2.2-5.5a2 2 0 0 1 2.5-1.2l1 .4c.5.2.9.6 1 1 .3.5.3 1 .1 1.6l-2.2 5.6a2 2 0 0 1-1.8 1.2Zm4.3-11.1c-.2 0-.5 0-.7-.2l-1-.3a2 2 0 0 1-1-1.1 2 2 0 0 1 0-1.5l2.1-5.6a2 2 0 0 1 2.6-1.2l1 .4c.4.2.8.6 1 1 .2.6.3 1.1 0 1.6l-2.1 5.6a2 2 0 0 1-1.9 1.3Zm4.4-11.2c-.2 0-.5 0-.7-.2l-1-.3a2 2 0 0 1-1-1 2 2 0 0 1-.1-1.6l2.2-5.6a2 2 0 0 1 2.6-1.1l.9.3c.5.2.9.6 1.1 1 .2.6.2 1.1 0 1.6l-2.1 5.6a2 2 0 0 1-1.9 1.3Zm4.4-11.2-.8-.1-.9-.4a2 2 0 0 1-1.1-1 2 2 0 0 1 0-1.6l2.2-5.6a2 2 0 0 1 2.5-1.1l1 .4c.5.1.9.5 1 1 .3.5.3 1 .1 1.5l-2.2 5.6a2 2 0 0 1-1.8 1.3Zm4.3-11.2-.7-.1-1-.4a2 2 0 0 1-1-1 2 2 0 0 1 0-1.6l2.1-5.6a2 2 0 0 1 2.6-1l1 .3c.4.2.8.5 1 1 .2.5.3 1 0 1.6l-2.1 5.6a2 2 0 0 1-1.9 1.2Zm4.4-11.2-.7-.1-1-.4a2 2 0 0 1-1-1 2 2 0 0 1-.1-1.6l2.2-5.5a2 2 0 0 1 2.6-1.2l.9.4c.5.2.9.6 1.1 1 .2.5.2 1 0 1.6l-2.1 5.6a2 2 0 0 1-1.9 1.2Zm4.4-11.1c-.3 0-.5 0-.8-.2l-.9-.3a2 2 0 0 1-1.1-1.1 2 2 0 0 1 0-1.5l2.1-5.6a2 2 0 0 1 2.6-1.1l1 .3c.4.2.8.6 1 1 .3.6.3 1.1.1 1.6l-2.2 5.6a2 2 0 0 1-1.8 1.3Zm4.3-11.2-.7-.1-1-.4a2 2 0 0 1-1-1 2 2 0 0 1 0-1.6l2.1-5.6a2 2 0 0 1 2.6-1.1l1 .3c.4.2.8.6 1 1.1.2.5.3 1 0 1.5l-2.1 5.6a2 2 0 0 1-1.9 1.3Zm4.4-11.2-.7-.1-1-.4a2 2 0 0 1-1-1 2 2 0 0 1-.1-1.6l2.2-5.6a2 2 0 0 1 2.6-1.1l.9.4c.5.2.9.5 1.1 1 .2.5.2 1 0 1.6l-2.2 5.5a2 2 0 0 1-1.8 1.3Zm4.4-11.2-.8-.1-.9-.4a2 2 0 0 1-1.1-1 2 2 0 0 1 0-1.6l2.1-5.5a2 2 0 0 1 2.6-1.2l1 .4c.5.2.9.6 1 1 .3.5.3 1 .1 1.6l-2.2 5.6a2 2 0 0 1-1.8 1.2Zm4.3-11.1c-.2 0-.5 0-.7-.2l-1-.4a2 2 0 0 1-1-1 2 2 0 0 1 0-1.5l2.1-5.6a2 2 0 0 1 2.6-1.2l1 .4c.4.2.8.6 1 1 .2.6.3 1.1 0 1.6l-2.1 5.6a2 2 0 0 1-1.9 1.3Zm4.4-11.2c-.2 0-.5 0-.7-.2l-1-.3a2 2 0 0 1-1-1 2 2 0 0 1-.1-1.6l2.2-5.6a2 2 0 0 1 2.6-1.1l.9.3c.5.2.9.6 1.1 1 .2.6.2 1.1 0 1.6l-2.2 5.6a2 2 0 0 1-1.8 1.3Zm4.4-11.2-.8-.1-.9-.4a2 2 0 0 1-1.1-1 2 2 0 0 1 0-1.6l2.1-5.6a2 2 0 0 1 2.6-1.1l1 .4c.5.1.9.5 1 1 .3.5.3 1 .1 1.5l-2.2 5.6a2 2 0 0 1-1.8 1.3Zm4.3-11.2-.7-.1-1-.4a2 2 0 0 1-1-1 2 2 0 0 1 0-1.6l2.1-5.6a2 2 0 0 1 2.6-1l1 .3c.4.2.8.5 1 1 .2.5.3 1 0 1.6l-2.1 5.6a2 2 0 0 1-1.9 1.2Zm4.4-11.2-.7-.1-1-.4a2 2 0 0 1-1-1 2 2 0 0 1-.1-1.5l2.2-5.6a2 2 0 0 1 2.6-1.2l.9.4c.5.2.9.6 1.1 1 .2.5.2 1 0 1.6l-2.2 5.6a2 2 0 0 1-1.8 1.2Zm4.3-11.1c-.2 0-.4 0-.7-.2l-1-.3a2 2 0 0 1-1-1 2 2 0 0 1 0-1.6l2.1-5.6a2 2 0 0 1 2.6-1.1l1 .3a2 2 0 0 1 1 2.6l-2.1 5.6a2 2 0 0 1-1.9 1.3Zm4.4-11.2-.7-.1-1-.4a2 2 0 0 1-1-1 2 2 0 0 1 0-1.6l2.1-5.6a2 2 0 0 1 2.6-1.1l1 .3c.4.2.8.6 1 1.1s.2 1 0 1.5l-2.1 5.6a2 2 0 0 1-1.9 1.3Zm4.4-11.2a2 2 0 0 1-.7-.1l-1-.4a2 2 0 0 1-1.1-2.6l2.2-5.6a2 2 0 0 1 2.6-1.1l.9.4c.5.1.9.5 1.1 1s.2 1 0 1.5l-2.2 5.6a2 2 0 0 1-1.8 1.3Zm4.4-11.2-.8-.1-1-.4a2 2 0 0 1-1-1 2 2 0 0 1 0-1.6l2.1-5.5a2 2 0 0 1 2.6-1.2l1 .4a2 2 0 0 1 1 2.6l-2.1 5.6a2 2 0 0 1-1.9 1.2Zm4.3-11.2a2 2 0 0 1-.7 0l-1-.4a2 2 0 0 1-1-2.6l2.1-5.6a2 2 0 0 1 2.6-1.2l1 .4c.4.2.8.6 1 1 .2.6.3 1.1 0 1.6l-2.1 5.6a2 2 0 0 1-1.9 1.2ZM152.1 474c-.2 0-.5 0-.7-.2l-1-.3a2 2 0 0 1-1-1 2 2 0 0 1 0-1.6l1.2-3.3a2 2 0 0 1 2.6-1.1l1 .4c.4.1.8.5 1 1 .2.5.2 1 0 1.5l-1.2 3.3a2 2 0 0 1-1.9 1.3Zm3.5-8.9-.8-.1-.9-.4a2 2 0 0 1-1-1 2 2 0 0 1-.1-1.6l2.2-5.5a2 2 0 0 1 2.6-1.2l.9.4c.5.2.9.6 1 1 .3.5.3 1 .1 1.6l-2.2 5.6a2 2 0 0 1-1.8 1.2Zm4.3-11.2h-.7l-1-.4a2 2 0 0 1-1-1.1 2 2 0 0 1 0-1.5l2.1-5.6a2 2 0 0 1 2.6-1.2l1 .4c.4.2.8.6 1 1 .3.6.3 1.1 0 1.6l-2.1 5.6a2 2 0 0 1-1.9 1.3Zm4.4-11.1c-.2 0-.5 0-.7-.2l-1-.3a2 2 0 0 1-1-1 2 2 0 0 1 0-1.6l2-5.6a2 2 0 0 1 2.7-1.1l1 .3c.4.2.8.6 1 1 .2.6.2 1.1 0 1.6l-2.1 5.6a2 2 0 0 1-1.9 1.3Zm4.4-11.2c-.3 0-.5 0-.8-.2l-.9-.3a2 2 0 0 1-1-1 2 2 0 0 1-.1-1.6l2.2-5.6a2 2 0 0 1 2.6-1.1l.9.3c.5.2.9.6 1 1.1.3.5.3 1 .1 1.5l-2.2 5.6a2 2 0 0 1-1.8 1.3Zm4.3-11.2-.7-.1-1-.4a2 2 0 0 1-1-1 2 2 0 0 1 0-1.6l2.1-5.6a2 2 0 0 1 2.6-1.1l1 .4c.4.2.8.5 1 1 .3.5.3 1 0 1.6l-2 5.4a2 2 0 0 1-1.9 1.3Zm4.4-11.2-.7-.1-1-.4a2 2 0 0 1-1-1 2 2 0 0 1 0-1.5l2-5.6a2 2 0 0 1 2.7-1.2l1 .4c.4.2.8.6 1 1 .2.5.2 1 0 1.6l-2.1 5.6a2 2 0 0 1-1.9 1.2Zm4.4-11.1c-.3 0-.5 0-.8-.2l-.9-.3a2 2 0 0 1-1.1-1.1 2 2 0 0 1 0-1.5l2.1-5.6a2 2 0 0 1 2.6-1.1l1 .3c.5.2.9.6 1 1 .3.6.3 1.1.1 1.6l-2.2 5.6a2 2 0 0 1-1.8 1.3Zm4.3-11.2c-.2 0-.5 0-.7-.2l-1-.3a2 2 0 0 1-1-1 2 2 0 0 1 0-1.6l2.1-5.6a2 2 0 0 1 2.6-1.1l1 .3c.4.2.8.6 1 1 .3.6.3 1.1 0 1.6l-2.1 5.6a2 2 0 0 1-1.9 1.3Zm4.4-11.2-.7-.1-1-.4a2 2 0 0 1-1-1 2 2 0 0 1-.1-1.6l2.2-5.6a2 2 0 0 1 2.6-1.1l.9.4c.5.1.9.5 1.1 1 .2.5.2 1 0 1.5l-2.1 5.6a2 2 0 0 1-2 1.3Zm4.4-11.2-.8-.1-.9-.4a2 2 0 0 1-1.1-1 2 2 0 0 1 0-1.6l2.2-5.5a2 2 0 0 1 2.5-1.2l1 .4c.5.2.9.6 1 1 .3.5.3 1 .1 1.6l-2.2 5.6a2 2 0 0 1-1.8 1.2Zm4.3-11.1c-.2 0-.5 0-.7-.2l-1-.3a2 2 0 0 1-1-1.1 2 2 0 0 1 0-1.5l2.1-5.6a2 2 0 0 1 2.6-1.2l1 .4c.4.2.8.6 1 1 .3.6.3 1.1 0 1.6l-2.1 5.6a2 2 0 0 1-1.9 1.3Zm4.4-11.2c-.2 0-.5 0-.7-.2l-1-.3a2 2 0 0 1-1-1 2 2 0 0 1-.1-1.6l2.2-5.6a2 2 0 0 1 2.6-1.1l.9.3c.5.2.9.6 1.1 1 .2.6.2 1.1 0 1.6l-2.1 5.6a2 2 0 0 1-2 1.3ZM208 331l-.8-.1-.9-.4a2 2 0 0 1-1.1-1 2 2 0 0 1 0-1.6l2.2-5.6a2 2 0 0 1 2.5-1.1l1 .3c.5.2.9.6 1 1.1.3.5.3 1 .1 1.5l-2.2 5.6a2 2 0 0 1-1.8 1.3Zm4.3-11.2-.7-.1-1-.4a2 2 0 0 1-1-1 2 2 0 0 1 0-1.6l2.1-5.6a2 2 0 0 1 2.6-1l1 .3c.4.2.8.5 1 1 .2.5.3 1 0 1.6l-2.1 5.6a2 2 0 0 1-1.9 1.2Zm4.4-11.2-.7-.1-1-.4a2 2 0 0 1-1-1 2 2 0 0 1-.1-1.6l2.2-5.5a2 2 0 0 1 2.6-1.2l.9.4c.5.2.9.6 1.1 1 .2.5.2 1 0 1.6l-2.1 5.6a2 2 0 0 1-2 1.2Zm4.4-11.1c-.3 0-.5 0-.8-.2l-1-.3a2 2 0 0 1-1-1.1 2 2 0 0 1 0-1.5l2.1-5.6a2 2 0 0 1 2.6-1.1l1 .3c.5.2.9.6 1 1 .3.6.3 1.1 0 1.6l-2 5.6a2 2 0 0 1-2 1.3Zm4.3-11.2c-.2 0-.5 0-.7-.2l-1-.3a2 2 0 0 1-1-1 2 2 0 0 1 0-1.6l2.1-5.6a2 2 0 0 1 2.6-1.1l1 .3c.4.2.8.6 1 1 .2.6.3 1.1 0 1.6l-2.1 5.6a2 2 0 0 1-1.9 1.3Zm4.4-11.2-.7-.1-1-.4a2 2 0 0 1-1-1 2 2 0 0 1-.1-1.6l2.2-5.6a2 2 0 0 1 2.6-1.1l.9.4c.5.1.9.5 1.1 1 .2.5.2 1 0 1.5l-2.1 5.6a2 2 0 0 1-2 1.3Zm4.3-11.2-.7-.1-1-.4a2 2 0 0 1-1-1 2 2 0 0 1 0-1.6l2.1-5.5a2 2 0 0 1 2.6-1.2l1 .4c.5.2.9.6 1 1 .3.5.3 1 0 1.6l-2 5.6a2 2 0 0 1-2 1.2Zm4.4-11.1c-.2 0-.5 0-.7-.2l-1-.3a2 2 0 0 1-1-1.1 2 2 0 0 1 0-1.5l2.1-5.6a2 2 0 0 1 1.9-1.3l.7.1 1 .4a2 2 0 0 1 1 2.6l-2.1 5.6a2 2 0 0 1-1.9 1.3Zm4.4-11.2a2 2 0 0 1-.8-.2l-.9-.3a2 2 0 0 1-1.1-2.6l2.2-5.6a2 2 0 0 1 2.6-1.1l.9.3c.5.2.9.6 1 1 .3.6.3 1.1.1 1.6l-2.2 5.6a2 2 0 0 1-1.8 1.3Zm4.3-11.2c-.2 0-.4 0-.7-.2l-1-.3a2 2 0 0 1-1-1 2 2 0 0 1 0-1.6l2.1-5.6a2 2 0 0 1 1.9-1.3c.3 0 .5 0 .7.2l1 .3a2 2 0 0 1 1 2.6l-2 5.6a2 2 0 0 1-2 1.3Zm4.4-11.2-.7-.1-1-.4a2 2 0 0 1-1-1 2 2 0 0 1 0-1.6l2.1-5.6a2 2 0 0 1 2.6-1l1 .3c.4.2.8.5 1 1 .2.5.2 1 0 1.6l-2.1 5.5a2 2 0 0 1-1.9 1.3ZM256 208a2 2 0 0 1-.8-.1l-.9-.4a2 2 0 0 1-1.1-2.6l2.2-5.5a2 2 0 0 1 1.8-1.3l.8.1.9.4a2 2 0 0 1 1.1 2.6l-2.2 5.6a2 2 0 0 1-1.8 1.2Zm124.4 133a2 2 0 0 1-2-1.6l-.2-1c0-.5 0-1 .4-1.4s.8-.8 1.3-.9c1.5-.2 3-.8 4.2-1.7a2 2 0 0 1 1.5-.4c.5 0 1 .4 1.3.8l.6.8a2 2 0 0 1-.4 2.7 14.8 14.8 0 0 1-6.8 2.8Zm-6-.3a2 2 0 0 1-.6-.1 15 15 0 0 1-6-3.6 2 2 0 0 1 0-2.8l.7-.7a2 2 0 0 1 2.8 0 10 10 0 0 0 4 2.3 2 2 0 0 1 1.3 2.5l-.3 1a2 2 0 0 1-1.9 1.4Zm15.4-6.5a2 2 0 0 1-1-.2l-.8-.5c-.5-.2-.8-.6-1-1.1s-.1-1 .1-1.6c.7-1.4 1-2.9 1-4.4 0-.4.2-.7.3-1a2 2 0 0 1-.4-.8c-.2-1.6-.9-3-1.8-4.3a2 2 0 0 1 .3-2.8l.8-.5a2 2 0 0 1 2.8.3c1.4 1.9 2.4 4 2.8 6.4.1.5 0 1-.2 1.4.3.3.5.8.5 1.3 0 2.3-.6 4.6-1.6 6.7-.4.7-1.1 1.1-1.8 1.1Zm-23.7-1.7a2 2 0 0 1-2-1.4 14.8 14.8 0 0 1-.6-6.9c.1-.5.4-1 .8-1.3a2 2 0 0 1 1.5-.3h1c.5.2 1 .4 1.3.9.3.4.4 1 .4 1.4a9.5 9.5 0 0 0 .4 4.7 2 2 0 0 1-1.3 2.5l-.9.3a2 2 0 0 1-.6.1Zm2.4-11a2 2 0 0 1-1.1-.3l-.8-.6a2 2 0 0 1-.5-2.8 15 15 0 0 1 5.2-4.6 2 2 0 0 1 1.5-.1c.5.1 1 .5 1.2 1l.4.8a2 2 0 0 1-.8 2.7 10 10 0 0 0-3.5 3 2 2 0 0 1-1.6 1Zm15-3.9a2 2 0 0 1-1-.2 10 10 0 0 0-4.2-1h-.3c-1 0-2-.8-2-1.9v-1c0-.5.2-1 .6-1.4a2 2 0 0 1 1.4-.6h.3c2.2 0 4.4.5 6.4 1.4a2 2 0 0 1 1 2.7l-.4.9a2 2 0 0 1-1.8 1.1Zm-1.2 111.7-2.4-.1a2 2 0 0 1-1.7-2.3v-.9a2 2 0 0 1 2.3-1.7 13.4 13.4 0 0 0 4.8-.2h.4c1 0 1.8.6 2 1.5l.2 1a2 2 0 0 1-1.6 2.3 19 19 0 0 1-4 .4Zm-7.7-1.8a2 2 0 0 1-.9-.2 19 19 0 0 1-5.1-3.8 2 2 0 0 1 0-2.9l.7-.6a2 2 0 0 1 2.8 0c1.1 1.2 2.4 2.2 3.9 2.9.4.2.8.7 1 1.2.1.5 0 1-.2 1.5l-.4.8a2 2 0 0 1-1.8 1.1Zm16.6-.7a2 2 0 0 1-1.6-1l-.5-.7a2 2 0 0 1 .6-2.8 14 14 0 0 0 3.6-3.1 2 2 0 0 1 2.8-.3l.7.6c.4.3.7.8.8 1.3 0 .5-.1 1-.5 1.5a19 19 0 0 1-4.8 4.2 2 2 0 0 1-1 .3Zm-24.4-7.5a2 2 0 0 1-1.8-1.2c-1-2-1.4-4-1.6-6.2a2 2 0 0 1 1.8-2.1l1-.1h.1c1 0 1.9.8 2 1.8.1 1.6.5 3.1 1.2 4.6.2.5.2 1 0 1.5a2 2 0 0 1-1 1.1l-.9.4a2 2 0 0 1-.8.2Zm31.6-1.3a2 2 0 0 1-.7-.1l-.9-.3a2 2 0 0 1-1.2-2.6 14 14 0 0 0 .6-7c0-.5 0-1 .4-1.5a2 2 0 0 1 1.2-.8l1-.2h.3c1 0 1.8.7 2 1.7a18.7 18.7 0 0 1-.8 9.5 2 2 0 0 1-2 1.3Zm-31.6-9.7-.6-.1-.9-.2a2 2 0 0 1-1.2-1 2 2 0 0 1-.2-1.5c.6-2 1.4-4 2.7-5.9a2 2 0 0 1 2.7-.5l.8.5a2 2 0 0 1 .5 2.8c-.9 1.3-1.5 2.8-2 4.3a2 2 0 0 1-1.9 1.5Zm29.6-3.8a2 2 0 0 1-1.8-1c-.7-1.4-1.7-2.7-3-3.7a2 2 0 0 1-.6-1.4c0-.5.1-1 .5-1.5l.6-.7a2 2 0 0 1 2.8-.1c1.6 1.4 3 3 4 5 .3.4.4 1 .2 1.5a2 2 0 0 1-1 1.2l-.7.5a2 2 0 0 1-1 .2Zm-23.6-5.1a2 2 0 0 1-1.6-.8l-.6-.8a2 2 0 0 1 .4-2.8 19 19 0 0 1 6.3-3 2 2 0 0 1 2 1.5l.2.9a2 2 0 0 1-1.3 2.5c-1.5.4-3 1.1-4.3 2.1a2 2 0 0 1-1.1.4Zm15.6-2a2 2 0 0 1-.8-.1c-1.5-.6-3-1-4.7-1a2 2 0 0 1-1.3-.7 2 2 0 0 1-.6-1.4v-1c.1-1 1-1.9 2-1.9h.2c2.1.1 4.3.6 6.3 1.4.4.2.8.6 1 1 .3.6.3 1.1 0 1.6l-.3.9a2 2 0 0 1-1.9 1.2ZM97 355a19 19 0 0 1-4.7-.6A2 2 0 0 1 91 352l.2-1c.2-.5.5-1 1-1.2a2 2 0 0 1 1.5-.2 14 14 0 0 0 5 .3h.2a2 2 0 0 1 2 1.8l.2 1a2 2 0 0 1-1.8 2.2H97Zm7.8-2a2 2 0 0 1-1.8-1l-.4-.9a2 2 0 0 1 .9-2.7c1.5-.8 2.8-1.8 4-3.1a2 2 0 0 1 2.8-.2l.7.7c.4.3.6.8.7 1.4 0 .5-.2 1-.5 1.4a18.9 18.9 0 0 1-5.4 4.2 2 2 0 0 1-1 .3Zm-17.6-1a2 2 0 0 1-1.1-.4c-2-1.4-3.5-3-4.8-5a2 2 0 0 1 .5-2.7l.8-.6a2 2 0 0 1 2.8.5c1 1.5 2.2 2.7 3.6 3.7a2 2 0 0 1 .4 2.8l-.5.8a2 2 0 0 1-1.7.8Zm25.7-8a2 2 0 0 1-.7 0l-1-.4a2 2 0 0 1-1.2-2.6 14 14 0 0 0 1-5l.1-.7-.2-.8a14 14 0 0 0-1.4-4.8 2 2 0 0 1 .9-2.7l.9-.4a2 2 0 0 1 1.5-.1c.5.1 1 .5 1.2 1 1 2 1.6 4.2 1.9 6.6 0 .3 0 .6-.2 1 .2.2.3.6.3.9a19 19 0 0 1-1.3 6.8 2 2 0 0 1-1.8 1.3Zm-32.5-2a2 2 0 0 1-1-.4 2 2 0 0 1-1-1.2 19 19 0 0 1-.3-6.9 2 2 0 0 1 2-1.7h.3l1 .1a2 2 0 0 1 1.7 2.3 13.8 13.8 0 0 0 .3 5c0 .5 0 1-.3 1.5a2 2 0 0 1-1.2 1l-1 .2h-.5Zm2.5-11.6a2 2 0 0 1-1-.2l-.8-.5a2 2 0 0 1-1-1.2 2 2 0 0 1 .2-1.5c1-2 2.5-3.9 4.3-5.4a2 2 0 0 1 1.3-.5 2 2 0 0 1 1.5.7l.6.8c.4.4.6.9.5 1.4 0 .6-.3 1-.7 1.4a14 14 0 0 0-3.1 4 2 2 0 0 1-1.8 1Zm24.9-4.2a2 2 0 0 1-1.4-.5 14 14 0 0 0-4.3-2.7 2 2 0 0 1-1-2.6l.3-1a2 2 0 0 1 1.8-1.2l.8.1c2.1.9 4 2.1 5.8 3.7.8.7.9 2 .1 2.8l-.6.7a2 2 0 0 1-1.4.7h-.1ZM91.5 323l-.9-.2a2 2 0 0 1-1-1.2l-.3-.9a2 2 0 0 1 1.2-2.6A19 19 0 0 1 97 317h.2c.6 0 1 .2 1.4.6s.6.9.6 1.4v1c0 1.1-1 2-2 2H97c-1.7 0-3.3.3-4.8.8a2 2 0 0 1-.7.1Zm198.9-150.3a2 2 0 0 1-2-1.8l-.1-1a2 2 0 0 1 1.8-2.2c1.8-.1 3.5-.5 5-1.2a2 2 0 0 1 1.6 0c.5.2.9.6 1.1 1.1l.4 1a2 2 0 0 1-1.1 2.6c-2.1.8-4.3 1.3-6.6 1.5h-.1Zm-6.1-.3h-.5a24 24 0 0 1-6.3-2.4c-.4-.2-.8-.7-1-1.2s0-1 .3-1.5l.4-.9a2 2 0 0 1 2.8-.8c1.5.9 3.1 1.5 4.9 1.8.5.2 1 .5 1.2 1s.4.9.3 1.4l-.2 1a2 2 0 0 1-.8 1.3 2 2 0 0 1-1.1.3Zm17.3-4.2h-.2a2 2 0 0 1-1.4-.8l-.6-.7a2 2 0 0 1 .3-2.9c1.4-1 2.5-2.4 3.5-3.8a2 2 0 0 1 2.8-.6l.9.6c.4.3.7.8.8 1.3.1.5 0 1-.3 1.5a23 23 0 0 1-4.5 5 2 2 0 0 1-1.3.4Zm-28-1.6a2 2 0 0 1-1.4-.6 22.4 22.4 0 0 1-4-5.5 2 2 0 0 1 1-2.7l.8-.4a2 2 0 0 1 1-.3l.6.1c.5.2.9.6 1.1 1 .8 1.6 1.9 3 3.1 4.3.4.4.6.9.6 1.4 0 .5-.2 1-.6 1.4l-.8.7a2 2 0 0 1-1.4.6Zm34.8-8.5a2 2 0 0 1-.6 0l-1-.4a2 2 0 0 1-1.3-2.5c.5-1.6.8-3.4.8-5.1v-1.2c-.2-1.8-.6-3.5-1.2-5.1-.2-.5-.2-1 0-1.6s.7-.8 1.2-1l1-.4a2 2 0 0 1 1.4.1c.5.2.9.6 1 1.1.9 2.1 1.4 4.3 1.5 6.6v1.5a23 23 0 0 1-1 6.6 2 2 0 0 1-1.8 1.4Zm-40.3-2.3a2 2 0 0 1-2-1.6 23.3 23.3 0 0 1-.2-6.7 2 2 0 0 1 2.2-1.8l1 .1a2 2 0 0 1 1.7 2.2 17.6 17.6 0 0 0 .2 5.3c.1.5 0 1-.3 1.5a2 2 0 0 1-1.3.8l-1 .2h-.3Zm2.3-11.6a2 2 0 0 1-.8-.2l-1-.4a2 2 0 0 1-1-2.6c1-2 2.1-4 3.6-5.7a2 2 0 0 1 1.4-.7h.1c.5 0 1 .2 1.3.5l.8.6c.8.7 1 2 .2 2.8a26 26 0 0 0-2.8 4.5 2 2 0 0 1-1.8 1.2ZM304 140h-.2a2 2 0 0 1-1.3-.8 18 18 0 0 0-3.8-3.6 2 2 0 0 1-.8-1.3 2 2 0 0 1 .3-1.5l.6-.8a2 2 0 0 1 2.8-.5 23 23 0 0 1 4.8 4.6 2 2 0 0 1-.4 2.8l-.7.7a2 2 0 0 1-1.3.4Zm-26.2-4.6h-.5a2 2 0 0 1-1.2-1l-.5-.8a2 2 0 0 1 .6-2.7 22.7 22.7 0 0 1 6.6-2.8 2 2 0 0 1 2 1.4l.2 1a2 2 0 0 1-1.4 2.5c-1.7.4-3.3 1.1-4.7 2a2 2 0 0 1-1.1.4Zm16.8-2a2 2 0 0 1-.6-.2c-1.7-.5-3.4-.8-5.2-.9a2 2 0 0 1-2-2l.1-1c0-1.1 1-2 2-2 2.3 0 4.5.5 6.7 1.2.5.1.9.5 1.1 1 .3.4.3 1 .1 1.5l-.3 1a2 2 0 0 1-1.9 1.3Zm-14.6-30c-1.1 0-2.4 0-3.6-.3a2 2 0 0 1-1.6-2.3l.2-1a2 2 0 0 1 2.3-1.6 14.6 14.6 0 0 0 5.5 0c1 0 1.8.7 2 1.7l.1 1a2 2 0 0 1-1.6 2.3l-3.2.2Zm8.8-2.2-.6-.1a2 2 0 0 1-1.2-1l-.5-.8a2 2 0 0 1 .8-2.8c1.5-.8 2.8-1.9 4-3.2a2 2 0 0 1 1.3-.7h.2c.4 0 1 .2 1.3.5l.7.7c.4.3.7.8.7 1.3 0 .6-.1 1-.5 1.5a19.7 19.7 0 0 1-5.3 4.3 2 2 0 0 1-1 .2Zm-17.7-.3a2 2 0 0 1-1-.2c-1.3-.8-2.5-1.7-3.6-2.7l-.1-.2a2 2 0 0 1-.7-1.4V94c0-1 1-2 2-2h1a2 2 0 0 1 2 2v1l1.9 1.4c.5.2.8.7 1 1.2s0 1-.3 1.5l-.5.9a2 2 0 0 1-1.7 1Zm25.6-8.9a2 2 0 0 1-.7-.1l-1-.4a2 2 0 0 1-1-2.5c.6-1.6 1-3.3 1-5 0-1.2.9-2 2-2h1c.5 0 1 .2 1.4.6.4.4.6 1 .5 1.4 0 2.4-.4 4.6-1.3 6.8a2 2 0 0 1-1.8 1.2Zm-29-2a2 2 0 0 1-2-2v-6c0-1 1-2 2-2h1a2 2 0 0 1 2 2v6a2 2 0 0 1-2 2h-1Zm28.3-9.8a2 2 0 0 1-2-1.3 14 14 0 0 0-2.4-4.5 2 2 0 0 1 .3-2.8l.8-.6a2 2 0 0 1 2.8.3c1.4 1.8 2.6 3.8 3.3 6a2 2 0 0 1-1.3 2.5l-.9.3a2 2 0 0 1-.6.2ZM267.7 78a2 2 0 0 1-2-2v-5c0-.6.3-1.1.7-1.5l.1-.2 1-.8a2 2 0 0 1 1.2-.5h.2c.5 0 1 .3 1.4.7l.6.8c.3.4.5 1 .5 1.5s-.3 1-.7 1.2V76a2 2 0 0 1-2 2h-1Zm21.1-6.7a2 2 0 0 1-1-.2c-1.5-1-3-1.6-4.8-2a2 2 0 0 1-1.4-1 2 2 0 0 1-1.5.8c-1.8 0-3.4.3-5 .9a2 2 0 0 1-2.6-1.2l-.3-1a2 2 0 0 1 1.2-2.5 19 19 0 0 1 6.7-1.2 2 2 0 0 1 1.9 1.3c0-.3.3-.5.5-.6a2 2 0 0 1 1.5-.3c2.3.4 4.4 1.3 6.4 2.5a2 2 0 0 1 .6 2.7l-.5.9c-.4.6-1 1-1.7 1Zm243.3 87a2 2 0 0 1-2-2v-1c0-1 1-2 2-2h6a2 2 0 0 1 2 2v1a2 2 0 0 1-2 2h-6Zm-12 0a2 2 0 0 1-2-2v-1c0-1 1-2 2-2h6a2 2 0 0 1 2 2v1a2 2 0 0 1-2 2h-6Zm-12.1 0a2 2 0 0 1-2-2v-.8a2 2 0 0 1 1.6-2l.9-.2h5.6a2 2 0 0 1 2 2v1a2 2 0 0 1-2 2H508Zm29.6-5.1a2 2 0 0 1-2-2v-6c0-1.1 1-2 2-2h1a2 2 0 0 1 2 2v6a2 2 0 0 1-2 2h-1Zm-29.6-1.7a2 2 0 0 1-2-2v-6c0-1.1.9-2 2-2h1a2 2 0 0 1 2 2v6a2 2 0 0 1-2 2h-1Zm29.6-10.3a2 2 0 0 1-2-2v-6c0-1.1 1-2 2-2h1a2 2 0 0 1 2 2v6a2 2 0 0 1-2 2h-1Zm-29.6-1.7a2 2 0 0 1-2-2v-6c0-1.1.9-2 2-2h1a2 2 0 0 1 2 2v6a2 2 0 0 1-2 2h-1Zm29.6-10.3a2 2 0 0 1-1.3-.5H533a2 2 0 0 1-2-2v-1c0-1.1 1-2 2-2h5.5a2 2 0 0 1 2 2v1.5a2 2 0 0 1-2 2h-1Zm-16.5-.5a2 2 0 0 1-2-2v-1c0-1.1 1-2 2-2h6a2 2 0 0 1 2 2v1a2 2 0 0 1-2 2h-6Zm-12 0a2 2 0 0 1-2-2v-1c0-1.1 1-2 2-2h6a2 2 0 0 1 2 2v1a2 2 0 0 1-2 2h-6ZM840.2 99a2 2 0 0 1-2-2v-1c0-1 1-2 2-2h6a2 2 0 0 1 2 2v1a2 2 0 0 1-2 2h-6Zm-12 0a2 2 0 0 1-2-2v-1c0-1 1-2 2-2h6a2 2 0 0 1 2 2v1a2 2 0 0 1-2 2h-6ZM816 99a2 2 0 0 1-2-2v-.8a2 2 0 0 1 1.7-2l.8-.2h5.7a2 2 0 0 1 2 2v1a2 2 0 0 1-2 2H816Zm29.7-5.1a2 2 0 0 1-2-2v-6c0-1.1 1-2 2-2h1a2 2 0 0 1 2 2v6a2 2 0 0 1-2 2h-1ZM816 92.2a2 2 0 0 1-2-2v-6c0-1.1 1-2 2-2h1a2 2 0 0 1 2 2v6a2 2 0 0 1-2 2h-1Zm29.7-10.3a2 2 0 0 1-2-2v-6c0-1.1 1-2 2-2h1a2 2 0 0 1 2 2v6a2 2 0 0 1-2 2h-1ZM816 80.2a2 2 0 0 1-2-2v-6c0-1.1 1-2 2-2h1a2 2 0 0 1 2 2v6a2 2 0 0 1-2 2h-1Zm29.7-10.3a2 2 0 0 1-1.3-.5h-3.2a2 2 0 0 1-2-2v-1c0-1.1 1-2 2-2h5.5a2 2 0 0 1 2 2v1.5a2 2 0 0 1-2 2h-1Zm-16.5-.5a2 2 0 0 1-2-2v-1c0-1.1 1-2 2-2h6a2 2 0 0 1 2 2v1a2 2 0 0 1-2 2h-6Zm-12 0a2 2 0 0 1-2-2v-1c0-1.1 1-2 2-2h6a2 2 0 0 1 2 2v1a2 2 0 0 1-2 2h-6Zm41.5 355.8a2 2 0 0 1-2-2v-1c0-1.1.9-2 2-2h6a2 2 0 0 1 2 2v1a2 2 0 0 1-2 2h-6Zm-12 0a2 2 0 0 1-2-2v-1c0-1.1.9-2 2-2h6a2 2 0 0 1 2 2v1a2 2 0 0 1-2 2h-6Zm-12.2 0a2 2 0 0 1-2-2v-.8a2 2 0 0 1 1.7-2l.8-.2h5.7a2 2 0 0 1 2 2v1a2 2 0 0 1-2 2h-6.2Zm29.7-5.2a2 2 0 0 1-2-2v-6c0-1 .9-2 2-2h1a2 2 0 0 1 2 2v6a2 2 0 0 1-2 2h-1Zm-29.7-1.6a2 2 0 0 1-2-2v-6c0-1.1 1-2 2-2h1a2 2 0 0 1 2 2v6a2 2 0 0 1-2 2h-1Zm29.7-10.4a2 2 0 0 1-2-2v-6c0-1 .9-2 2-2h1a2 2 0 0 1 2 2v6a2 2 0 0 1-2 2h-1Zm-29.7-1.6a2 2 0 0 1-2-2v-6c0-1.1 1-2 2-2h1a2 2 0 0 1 2 2v6a2 2 0 0 1-2 2h-1Zm29.7-10.4a2 2 0 0 1-1.3-.5h-3.2a2 2 0 0 1-2-2v-1c0-1 .9-2 2-2h5.5a2 2 0 0 1 2 2v1.5a2 2 0 0 1-2 2h-1Zm-16.5-.5a2 2 0 0 1-2-2v-1c0-1 1-2 2-2h6a2 2 0 0 1 2 2v1a2 2 0 0 1-2 2h-6Zm-12 0a2 2 0 0 1-2-2v-1c0-1 1-2 2-2h6a2 2 0 0 1 2 2v1a2 2 0 0 1-2 2h-6Zm-734.3 17.9a2 2 0 0 1-2-2v-1c0-1 .9-2 2-2h6a2 2 0 0 1 2 2v1a2 2 0 0 1-2 2h-6Zm-12 0a2 2 0 0 1-2-2v-1c0-1 .9-2 2-2h6a2 2 0 0 1 2 2v1a2 2 0 0 1-2 2h-6Zm-12.2 0a2 2 0 0 1-2-2v-.8a2 2 0 0 1 1.6-2l1-.2h5.6a2 2 0 0 1 2 2v1a2 2 0 0 1-2 2h-6.2Zm29.7-5.1a2 2 0 0 1-2-2v-6c0-1.1.9-2 2-2h1a2 2 0 0 1 2 2v6a2 2 0 0 1-2 2h-1Zm-29.7-1.7a2 2 0 0 1-2-2v-6c0-1.1 1-2 2-2h1a2 2 0 0 1 2 2v6a2 2 0 0 1-2 2h-1Zm29.7-10.3a2 2 0 0 1-2-2v-6c0-1.1.9-2 2-2h1a2 2 0 0 1 2 2v6a2 2 0 0 1-2 2h-1Zm-29.7-1.7a2 2 0 0 1-2-2v-6c0-1.1 1-2 2-2h1a2 2 0 0 1 2 2v6a2 2 0 0 1-2 2h-1Zm29.7-10.3a2 2 0 0 1-1.4-.5h-3.1a2 2 0 0 1-2-2v-1c0-1.1.9-2 2-2h5.5a2 2 0 0 1 2 2v1.5a2 2 0 0 1-2 2h-1Zm-16.5-.5a2 2 0 0 1-2-2v-1c0-1.1.9-2 2-2h6a2 2 0 0 1 2 2v1a2 2 0 0 1-2 2h-6Zm-12 0a2 2 0 0 1-2-2v-1c0-1.1.9-2 2-2h6a2 2 0 0 1 2 2v1a2 2 0 0 1-2 2h-6Zm599.1 11.7a2 2 0 0 1-1.9-2.7l2.1-5.5a2 2 0 0 1 2.6-1.2l1 .4c.4.2.8.6 1 1s.3 1.1 0 1.6l-1.3 3.6v.8c0 .5-.2 1-.6 1.4a2 2 0 0 1-1.4.6h-1.5Zm7.5 0a2 2 0 0 1-2-2v-1c0-.5.2-1 .6-1.4a2 2 0 0 1 1.4-.6h6a2 2 0 0 1 2 2v1c0 .5-.2 1-.6 1.4a2 2 0 0 1-1.4.6h-6Zm12 0a2 2 0 0 1-2-2v-1c0-.5.2-1 .6-1.4a2 2 0 0 1 1.4-.6h6a2 2 0 0 1 2 2v1c0 .5-.2 1-.6 1.4a2 2 0 0 1-1.4.6h-6Zm12 0a2 2 0 0 1-2-2v-1c0-.5.2-1 .6-1.4a2 2 0 0 1 1.4-.6h6a2 2 0 0 1 2 2v1c0 .5-.2 1-.6 1.4a2 2 0 0 1-1.4.6h-6Zm12 0a2 2 0 0 1-2-2v-1c0-.6.2-1 .6-1.5a2 2 0 0 1 1.4-.6h.4l.1-.3a2 2 0 0 1 1.1-1l1-.4.7-.1a2 2 0 0 1 1.9 1.3l1 2.8c.3.6.2 1.3-.2 1.9s-1 .8-1.6.8H721Zm.2-8.2a2 2 0 0 1-1.8-1.3l-2.1-5.6a2 2 0 0 1 0-1.5 2 2 0 0 1 1.1-1l1-.4.7-.2a2 2 0 0 1 1.8 1.3l2.2 5.6c.1.6.1 1.1-.1 1.6a2 2 0 0 1-1.1 1l-1 .4a2 2 0 0 1-.7.1Zm-38.5-2.5-.7-.1-1-.4c-.4-.2-.8-.6-1-1s-.3-1.1 0-1.6l2-5.6a2 2 0 0 1 2.7-1.1l.9.3c.5.2.9.6 1.1 1s.2 1.1 0 1.6l-2.1 5.6a2 2 0 0 1-1.9 1.3ZM717 376a2 2 0 0 1-1.9-1.3l-2-5.6a2 2 0 0 1 0-1.6 2 2 0 0 1 1-1l1-.4.7-.1a2 2 0 0 1 1.9 1.3l2.1 5.6c.2.5.2 1 0 1.5a2 2 0 0 1-1.1 1.1l-1 .3a2 2 0 0 1-.7.2Zm-30-2.5-.7-.1-.9-.4c-.5-.2-.9-.6-1.1-1s-.2-1 0-1.6l2.1-5.6a2 2 0 0 1 2.6-1.1l1 .4c.4.1.8.5 1 1s.3 1 0 1.5l-2 5.6a2 2 0 0 1-2 1.3Zm25.8-8.8a2 2 0 0 1-1.9-1.2l-2.1-5.7a2 2 0 0 1 0-1.5 2 2 0 0 1 1.2-1l1-.4.6-.1a2 2 0 0 1 1.9 1.3l2 5.6c.3.5.3 1 0 1.5a2 2 0 0 1-1 1l-1 .4a2 2 0 0 1-.7.2Zm-21.4-2.4-.7-.1-1-.4c-.4-.2-.8-.5-1-1s-.3-1 0-1.6l2-5.6a2 2 0 0 1 2.7-1.1l.9.4c.5.2.9.5 1.1 1s.2 1 0 1.6l-2.1 5.5a2 2 0 0 1-1.9 1.3Zm17.1-8.8a2 2 0 0 1-1.9-1.3l-2-5.6a2 2 0 0 1 1.1-2.6l1-.3a2 2 0 0 1 1.5 0c.5.2.9.6 1 1.1l2.2 5.7a2 2 0 0 1-1.2 2.5l-1 .4a2 2 0 0 1-.7.1Zm-12.8-2.4-.7-.1-.9-.4c-.5-.1-.9-.5-1.1-1s-.2-1 0-1.5l2.1-5.6a2 2 0 0 1 2.6-1.2l1 .4c.4.2.8.6 1 1s.3 1 0 1.6l-2 5.6a2 2 0 0 1-2 1.2Zm8.6-8.8a2 2 0 0 1-1.8-1.3l-.8-2a2 2 0 0 1-2.3.8l-1-.3c-.4-.2-.8-.6-1-1.1s-.3-1-.1-1.5l2.2-5.6a2 2 0 0 1 2.6-1.2l.9.4c.5.2.9.6 1 1 .2.4.3.8.2 1.2.4.2.7.5.8 1l2.1 5.5c.2.5.2 1 0 1.6a2 2 0 0 1-1.1 1l-1 .4a2 2 0 0 1-.7.1Zm-488.9 53.2a2 2 0 0 1-1.8-2.7l2.1-5.5a2 2 0 0 1 2.6-1.2l1 .4c.4.2.8.6 1 1 .2.6.3 1.1 0 1.6l-1.3 3.6v.8a2 2 0 0 1-2 2h-1.6Zm7.6 0a2 2 0 0 1-2-2v-1c0-.5.2-1 .6-1.4a2 2 0 0 1 1.4-.6h6a2 2 0 0 1 2 2v1c0 .5-.2 1-.6 1.4a2 2 0 0 1-1.4.6h-6Zm12 0a2 2 0 0 1-2-2v-1c0-.5.2-1 .6-1.4a2 2 0 0 1 1.4-.6h6a2 2 0 0 1 2 2v1c0 .5-.2 1-.6 1.4a2 2 0 0 1-1.4.6h-6Zm12 0a2 2 0 0 1-2-2v-1c0-.5.2-1 .6-1.4a2 2 0 0 1 1.4-.6h6a2 2 0 0 1 2 2v1c0 .5-.2 1-.6 1.4a2 2 0 0 1-1.4.6h-6Zm12 0a2 2 0 0 1-2-2v-1c0-.6.2-1 .6-1.5a2 2 0 0 1 1.4-.6h.4a2 2 0 0 1 1.2-1.4l1-.3a2 2 0 0 1 1.5 0c.5.3.8.7 1 1.2l1.1 2.8a2 2 0 0 1-1.9 2.7H259Zm.2-8.2a2 2 0 0 1-1.9-1.3l-2-5.6a2 2 0 0 1 0-1.5 2 2 0 0 1 1-1l1-.4.7-.2a2 2 0 0 1 1.9 1.3l2.1 5.6c.2.6.2 1.1 0 1.6a2 2 0 0 1-1.2 1l-.9.4a2 2 0 0 1-.7.1Zm-38.5-2.5-.7-.1-1-.4c-.5-.2-.9-.6-1-1s-.3-1.1-.1-1.6l2.2-5.6a2 2 0 0 1 2.5-1.1l1 .3c.5.2.9.6 1 1s.3 1.1.1 1.6l-2.2 5.6a2 2 0 0 1-1.8 1.3ZM255 376a2 2 0 0 1-1.9-1.3l-2.1-5.6a2 2 0 0 1 0-1.6 2 2 0 0 1 1.2-1l1-.4.6-.1a2 2 0 0 1 1.9 1.3l2 5.6c.3.5.3 1 0 1.5a2 2 0 0 1-1 1.1l-1 .3a2 2 0 0 1-.7.2Zm-30-2.5-.7-.1-1-.4c-.4-.2-.8-.6-1-1s-.3-1 0-1.6l2.1-5.6a2 2 0 0 1 2.6-1.1l1 .4a2 2 0 0 1 1 2.5l-2.1 5.6a2 2 0 0 1-1.9 1.3Zm25.8-8.8a2 2 0 0 1-2-1.2l-2-5.7a2 2 0 0 1 0-1.5 2 2 0 0 1 1.1-1l1-.4.7-.1a2 2 0 0 1 1.8 1.3l2.2 5.6c.2.5.1 1 0 1.5a2 2 0 0 1-1.2 1l-1 .4a2 2 0 0 1-.7.2Zm-21.4-2.4-.8-.1-.9-.4a2 2 0 0 1-1.1-2.6l2.1-5.6a2 2 0 0 1 2.6-1.1l1 .4a2 2 0 0 1 1.1 2.6l-2.2 5.5a2 2 0 0 1-1.8 1.3Zm17.1-8.8a2 2 0 0 1-1.8-1.3l-2.2-5.6a2 2 0 0 1 0-1.5 2 2 0 0 1 1.2-1l1-.4.7-.2a2 2 0 0 1 1.8 1.3l2.1 5.7c.2.5.2 1 0 1.5a2 2 0 0 1-1.1 1l-1 .4a2 2 0 0 1-.7.1Zm-12.8-2.4-.7-.1-1-.4c-.4-.1-.8-.5-1-1s-.3-1 0-1.5l2.1-5.6a2 2 0 0 1 2.6-1.2l1 .4c.4.2.8.6 1 1s.3 1 0 1.6l-2.1 5.6a2 2 0 0 1-1.9 1.2Zm8.6-8.8a2 2 0 0 1-1.9-1.3l-.7-2a2 2 0 0 1-2.3.8l-1-.3c-.5-.2-.9-.6-1-1.1s-.3-1-.1-1.5l2.1-5.6a2 2 0 0 1 2.6-1.2l1 .4c.5.2.9.6 1 1 .2.4.3.8.2 1.2.4.2.6.5.8 1l2.1 5.5c.2.5.2 1 0 1.6a2 2 0 0 1-1.2 1l-.9.4a2 2 0 0 1-.7 0Z"/></g><path d="M672.3 37h-3.1l-2.7.2v1c2-.2 4-.2 6-.2v-1Zm-12 .9-5.5 1h-.4l.2 1c2-.4 3.9-.8 5.8-1l-.1-1Zm-11.6 2.6-2.4.8h-.3v.1h-.3v.1h-.4l-.1.1h-.2l-2 .8.3 1c1.9-.8 3.7-1.4 5.6-2l-.3-1ZM637.5 45l-2.2 1.1h-.1v.1h-.2v.1h-.2v.1h-.1v.1h-.2v.1h-.1l-.1.1h-.2l-1.8 1.1.5.9c1.7-1 3.5-2 5.2-2.8l-.4-.9Zm-10.4 6a82.4 82.4 0 0 0-4.9 3.5l.7.8c1.5-1.2 3.1-2.4 4.8-3.5l-.6-.8Zm-9.4 7.3h-.1v.1l-.2.1v.1a85.7 85.7 0 0 0-4 4l.7.6 4.3-4.1-.7-.8Zm-8.3 8.8h-.1v.1l-.1.1v.1h-.1l-.1.2-.1.1-.2.2-.2.3-.2.2-.2.3-.2.2v.1l-.2.2-.2.2v.1l-.1.2h-.1v.1l-.1.1v.1h-.1v.2h-.1v.1h-.1v.2h-.1v.2h-.1v.1l-.2.2-.4.6.8.6a76 76 0 0 1 3.6-4.8l-.8-.6Zm-6.8 9.8-.4.7v.2l-.1.1v.1h-.1v.1l-.1.1-1.1 2v.1h-.1v.1l-.1.1v.3h-.1v.2h-.1v.1l-.1.1v.1l-.4.7.9.4 2.4-4.5.4-.7-.8-.5Zm-5.3 10.8-2 5.4v.2l1 .3c.5-1.9 1.2-3.8 2-5.6l-1-.4ZM593.7 99v.7l-.1.1v1.2l-.1.1v2.4l-.2 1.2 1 .2 1.1-5.8-1-.3Zm-2 11.8v2.3l-.1 1.7v1.9h1l.3-6h-1Zm.8 12h-1l.5 6 1-.1-.5-6Zm1.4 11.7-1 .2.6 2.8v.6l.5 1.7v.6l1-.2-1.3-5.8ZM597 146l-1 .3.5 1.1v.6l1.3 3v.4l.2.4 1-.4a74 74 0 0 1-2.3-5.5Zm4.8 10.8-.9.4 1.3 2.3v.1l.1.1v.3h.1v.2h.1v.2h.1v.2l1.1 1.6.9-.5-3-5.1Zm6.4 10-.8.5c1.2 1.6 2.4 3.2 3.8 4.7l.7-.6-3.7-4.7Zm7.7 9-.7.6.6.6v.1h.1v.1h.1v.1h.1l3.4 3.2.6-.8a82.3 82.3 0 0 1-4.2-4Zm8.9 7.8-.6.8 2.5 1.8h.1v.1h.2v.1h.1c.7.5 1.3 1 2 1.3l.5-.8c-1.7-1-3.3-2.2-4.9-3.4Zm10 6.4-.5.9 4.9 2.3h.1v.1h.2l.5-.9a52 52 0 0 1-5.3-2.6Zm10.8 4.7-.3 1c.4 0 1 .2 1.4.4h.3l.1.1h.4l.1.1h.7l.1.1h.4v.1h.4l1.8.6.2-1c-2-.5-3.8-1-5.7-1.7Zm11.5 2.9-.2 1 1.8.3h.7l3.5.4v-1l-5.8-.8Zm11.8 1.2v1h5.7v-1a84.6 84.6 0 0 1-6 0Zm17.7-1-5.9.7.1 1 1.4-.1h.4l4.1-.6h.1l-.1-1Zm11.5-2.9-5.7 1.7.2 1 2.6-.8h1v-.1h.4l.1-.1 1.5-.5-.3-1Zm10.9-4.6c-1.8.9-3.6 1.8-5.4 2.5l.4 1 2.3-1v-.1h.4l.1-.1 2.6-1.3-.5-.9Zm10-6.3a78.2 78.2 0 0 1-4.9 3.3l.5.9 1-.6.1-.1h.1v-.1h.1l.1-.1h.1l1.2-.9h.1l.1-.1h.1v-.1h.2v-.1h.2v-.1h.1l.2-.2 1-.7-.6-.8Zm9-7.8a90.6 90.6 0 0 1-4.4 4l.7.8a88 88 0 0 0 4.4-4l-.7-.7Zm7.8-8.8-3.8 4.5.8.7.8-1h.1v-.1h.1v-.1h.1v-.2h.1v-.1l.1-.1 2.4-3-.8-.6Zm6.5-10a79 79 0 0 1-3 5.1l.8.6 1-1.6.1-.2.1-.2v-.1h.1l.1-.2v-.1l.1-.1.1-.2.1-.2.1-.1v-.1h.1v-.2h.1v-.2h.1v-.4l.1-.1v-.1l.6-1-.9-.5Zm4.8-10.8a75 75 0 0 1-2.2 5.5l.9.4.4-1v-.1h.1v-.7h.1v-.6h.1v-.6l.1-.1v-.1l.8-2-1-.3Zm3-11.4c-.3 2-.8 3.9-1.3 5.8l1 .2c.5-1.9 1-3.8 1.3-5.8l-1-.2Zm1.4-11.8-.5 6h1v-.8l.4-5-1-.1Zm.8-12-1 .2c.2 1.9.3 3.9.3 5.9h1v-.7c0-1.8-.1-3.6-.3-5.3Zm-1.8-11.8-1 .2a78 78 0 0 1 1.1 5.9l1-.2-.6-3.6v-.4l-.4-1.8ZM747 88.2l-.9.3 2 5.6 1-.3-2-5.6Zm-5.2-10.8-.9.5c1 1.7 2 3.5 2.8 5.2l1-.4c-1-1.8-1.9-3.6-3-5.3Zm-6.9-9.9-.8.7c1.3 1.5 2.5 3.1 3.6 4.7l.8-.6-.8-1V71h-.1v-.2h-.1v-.2h-.1v-.1h-.1v-.1l-.1-.1-2.1-2.7Zm-8.1-8.7-.7.7a83 83 0 0 1 4.2 4.2l.7-.7-.6-.6v-.1h-.1v-.1h-.1V62h-.2v-.1h-.1v-.1h-.1v-.1h-.1v-.1h-.1v-.1h-.1v-.1h-.1v-.1h-.1v-.1h-.1V61h-.1v-.2l-.7-.6h-.1v-.1h-.1V60h-.2v-.1h-.1v-.1l-.6-.5Zm-9.3-7.7-.6.9c1.6 1 3.2 2.3 4.7 3.6l.7-.8-3-2.4h-.2v-.1h-.1v-.1h-.1l-.1-.1h-.1V52l-1-.7ZM707.2 45l-.4.9a66 66 0 0 1 5.2 2.8l.5-.8-.7-.4v-.1h-.4v-.1h-.2l-.5-.4h-.2v-.1h-.2v-.1h-.2v-.1h-.4v-.1h-.1l-2.1-1.1Zm-11.1-4.5-.3 1c1.9.5 3.8 1.2 5.6 2l.4-1-5.4-1.9h-.2ZM684.4 38l-.1 1 5.8 1 .2-1H689l-.2-.1h-.3l-.1-.1h-.5v-.1h-.7l-.1-.1h-.7l-2-.3Zm-12-.9v1l6 .2v-1h-3l-2.8-.1Zm-11.6 133-.3 1c2 .5 4 .8 6 1l.2-1c-1 0-1.9-.2-2.8-.4h-1.8l-1.3-.3Zm-11.3-4-.5 1 5.7 2.3.3-1c-.4 0-.7-.2-1.1-.3h-.2v-.1h-.7l-.1-.1h-.2l-.1-.1h-.1l-.1-.1h-.2l-.1-.1-2.4-1.1Zm-10-6.5-.7.7.2.2 4.7 3.5.6-.9-4.4-3.1v-.1h-.1v-.1h-.1l-.1-.2h-.1Zm-8.4-8.6-.8.6a44 44 0 0 0 4 4.6l.7-.7-.1-.1a48.2 48.2 0 0 1-3.5-4v-.2Zm-6-10.4-.9.4a56 56 0 0 0 2.7 5.5l.9-.5-.3-.6v-.1l-.2-.2v-.5l-.1-.1v-.6l-.1-.1v-.4l-.1-.1v-.4l-.1-.2v-.1l-.6-1.4ZM622 129l-1 .1 1.3 6 1-.3-.2-.7v-.7l-.1-.1a46 46 0 0 1-.4-1.8v-.7c0-.6-.2-1.2-.3-1.7Zm-1.7-12a62.4 62.4 0 0 0 0 6h1v-5.7h-1Zm1.5-12.1c-.5 2-.8 4-1 6l1 .1.2-2v-1.6l.1-.1v-.3l.3-1.6-1-.2Zm4-11.5a50 50 0 0 0-2.4 5.6l1 .4.2-.7v-.1l.1-.1v-.7l.1-.1v-.4h.1V97l.1-.1v-.2h.1l.1-.3v-.1l.3-.5v-.3l.1-.1v-.5l.3-.6-.9-.4Zm6.7-10.2a53.3 53.3 0 0 0-3.7 4.9l.9.5a50 50 0 0 1 3.6-4.8l-.8-.6Zm8.9-8.4a52.1 52.1 0 0 0-4.7 4l.7.7.4-.4.2-.2.2-.2.4-.3.1-.2h.1l.1-.2h.1l.2-.2.2-.2.3-.2v-.1h.1l.1-.1V77h.4v-.1h.1v-.1l1.2-.9-.6-.8Zm10.6-6a49 49 0 0 0-5.5 2.6l.5.9.1-.1h.3V72a46 46 0 0 1 4.6-2.2h.1l-.3-1Zm11.8-3.3c-2 .3-4 .7-6 1.3l.2 1c.3-.2.6-.2 1-.3h.4l.1-.1 1.6-.4h.7l1.8-.3-.1-1Zm8.3-.6h-2.3v1h2.8l3.2.1v-1H672Zm10 .9-.3 1 3.3.7h.5l2 .6.2-1c-1.9-.6-3.9-1-5.9-1.4Zm11.6 3.7-.5.9a48 48 0 0 1 5.3 2.8l.5-.8c-1.7-1.1-3.5-2-5.3-3ZM704 76l-.6.7 1 .9h.1l3.2 3 .7-.6c-1.4-1.5-3-2.9-4.5-4.1Zm8.6 8.6-.8.6c1.3 1.6 2.5 3.2 3.5 5l.9-.6a57.4 57.4 0 0 0-3.6-5ZM719 95l-.9.5v.3l1 2.1v.6l.9 2.3 1-.3-2.3-5.7Zm3.9 11.6-1 .2v.5l.8 4.6v.5h1c-.2-2-.5-4.1-1-6Zm1.2 12.1h-1v1.9l-.2 3.9h1l.2-6Zm-2.2 12v1.2l-.1.1v.4l-.2.4v.4l-.1.1v.4l-.1.2v.2l-.1.2-.6 2 1 .3 1.5-6-1-.2Zm-3.7 11.3-.7 1.5v.2h-.1v.3l-.1.2-1.7 3 .8.5c1.1-1.7 2-3.5 3-5.4l-1-.4Zm-6.3 10.2-.2.3c-1 1.3-2.1 2.5-3.2 3.6l-.5.4.8.7.4-.4a46 46 0 0 0 3.6-4.1l-.8-.6Zm-8.5 8.5a49 49 0 0 1-4.8 3.5l.5.8a41 41 0 0 0 5-3.5l-.7-.8Zm-10.1 6.3-1.6.7h-.4c-1.1.6-2.3 1-3.5 1.3l.3 1c2-.6 3.9-1.4 5.7-2.2l-.4-1Zm-11.4 3.6-3.8.6h-1.8v1c2-.2 4.1-.4 6-.8l-.1-1Z" fill="#939598"/><path d="M837.2 67.4h-6v-1h6v1Zm-11.9 0h-6v-1h6v1Zm-12 0h-6v-1h6v1Zm-11.9 0h-6v-1h6v1Zm-12 0h-5.9v-1h6v1Zm-11.9 0h-6v-1h6v1Zm-11.9 0h-6v-1h6v1Zm-12 0h-6v-1h6v1Zm-11.9 0h-6v-1h6v1Zm-12 0h-5.9v-1h6v1Zm-11.9 0h-6v-1h6v1Zm-11.9 0h-6v-1h6v1Zm-12 0h-6v-1h6v1Zm-11.9 0h-6v-1h6v1Zm-12 0h-5.9v-1h6v1Zm-11.9 0h-6v-1h6v1Zm-11.9 0h-6v-1h6v1Zm-12 0h-6v-1h6v1Zm-11.9 0h-6v-1h6v1Zm-12 0h-5.9v-1h6v1Zm-11.9 0h-6v-1h6v1Zm-11.9 0h-6v-1h6v1Zm-12 0h-6v-1h6v1Zm-11.9 0h-6v-1h6v1Zm-12 0h-5.9v-1h6v1Zm-11.9 0h-6v-1h6v1Zm-11.9 0h-6v-1h6v1Zm-12 0h-6v-1h6v1Zm-11.9 0h-6v-1h6v1Zm-12 0H485v-1h6v1Zm-11.9 0h-6v-1h6v1Zm-11.9 0h-6v-1h6v1Zm-12 0h-6v-1h6v1Zm-11.9 0h-6v-1h6v1Zm-12 0h-5.9v-1h6v1Zm-11.9 0h-6v-1h6v1Zm-11.9 0h-6v-1h6v1Zm-12 0h-6v-1h6v1Zm-11.9 0h-6v-1h6v1Zm-12 0h-5.9v-1h6v1Zm-11.9 0h-6v-1h6v1Zm-11.9 0h-6v-1h6v1Zm-12 0h-6v-1h6v1Zm-11.9 0h-6v-1h6v1Zm-12 0H306v-1h6v1Zm-11.9 0h-6v-1h6v1Zm-11.9 0h-6v-1h6v1Zm-12 0h-6v-1h6v1Zm-11.9 0h-6v-1h6v1Zm-12 0h-5.9v-1h6v1Zm585.1-28.9h-6v-1h6v1Zm-11.9 0h-6v-1h6v1Zm-12 0h-6v-1h6v1Zm-11.9 0h-6v-1h6v1Zm-12 0h-5.9v-1h6v1Zm-11.9 0h-6v-1h6v1Zm-11.9 0h-6v-1h6v1Zm-12 0h-6v-1h6v1Zm-11.9 0h-6v-1h6v1Zm-12 0h-5.9v-1h6v1Zm-11.9 0h-6v-1h6v1Zm-11.9 0h-6v-1h6v1Zm-12 0h-6v-1h6v1Zm-11.9 0h-6v-1h6v1Zm-12 0h-5.9v-1h6v1Zm-11.9 0h-6v-1h6v1Zm-11.9 0h-6v-1h6v1Zm-12 0h-6v-1h6v1Zm-11.9 0h-6v-1h6v1Zm-12 0h-5.9v-1h6v1Zm-11.9 0h-6v-1h6v1Zm-11.9 0h-6v-1h6v1Zm-12 0h-6v-1h6v1Zm-11.9 0h-6v-1h6v1Zm-12 0h-5.9v-1h6v1Zm-11.9 0h-6v-1h6v1Zm-11.9 0h-6v-1h6v1Zm-12 0h-6v-1h6v1Zm-11.9 0h-6v-1h6v1Zm-12 0H485v-1h6v1Zm-11.9 0h-6v-1h6v1Zm-11.9 0h-6v-1h6v1Zm-12 0h-6v-1h6v1Zm-11.9 0h-6v-1h6v1Zm-12 0h-5.9v-1h6v1Zm-11.9 0h-6v-1h6v1Zm-11.9 0h-6v-1h6v1Zm-12 0h-6v-1h6v1Zm-11.9 0h-6v-1h6v1Zm-12 0h-5.9v-1h6v1Zm-11.9 0h-6v-1h6v1Zm-11.9 0h-6v-1h6v1Zm-12 0h-6v-1h6v1Zm-11.9 0h-6v-1h6v1Zm-12 0H306v-1h6v1Zm-11.9 0h-6v-1h6v1Zm-11.9 0h-6v-1h6v1Zm-12 0h-6v-1h6v1Zm-11.9 0h-6v-1h6v1Zm-12 0h-5.9v-1h6v1Zm249.3 160.8h6v1h-6zm12 0h6v1h-6zm12 0h6v1h-6zm12 0h6v1h-6zm-60.1 0h6v1h-6zm156.1 0h6v1h-6zm-144.1 0h6v1h-6zm72.1 0h6v1h-6zm-12 0h6v1h-6zm60 0h6v1h-6zm-12 0h6v1h-6zm-132.1 0h6v1h-6zm156.1 0h6v1h-6zm-48 0h6v1h-6zm12 0h6v1h-6zm-180.1 0h6v1h-6zm-60 0h6v1h-6zm12 0h6v1h-6zm-24.1 0h6v1h-6zm120.1 0h6v1h-6zm-132.1 0h6v1h-6zm-24 0h6v1h-6zm12 0h6v1h-6zm60.1 0h6v1h-6zm60 0h6v1h-6zm12 0h6v1h-6zm-24 0h6v1h-6zm-24 0h6v1h-6zm252.1 0h6v1h-6zm-264.1 0h6v1h-6zm372.2 0h6v1h-6zm-24 0h6v1h-6zm12 0h6v1h-6zm24 0h6v1h-6zm-84 0h6v1h-6zm-12 0h6v1h-6zm36 0h6v1h-6zm-12 0h6v1h-6zm24 0h6v1h-6zm-60 0h6v1h-6zm120 0h6v1h-6zm24 0h6v1h-6zm-12 0h6v1h-6zm-12-29.5h6v1h-6zm-408.2 0h6v1h-6zm12 0h6v1h-6zm276.2 0h6v1h-6zm-300.2 0h6v1h-6zm408.2 0h6v1h-6zm24 0h6v1h-6zm-384.2 0h6v1h-6zm-12 0h6v1h-6zm204.1 0h6v1h-6zm-264.2 0h6v1h-6zm12.1 0h6v1h-6zm-36.1 0h6v1h-6zm-12 0h6v1h-6zm348.2 0h6v1h-6zm-12 0h6v1h-6zm-12 0h6v1h-6zm-36 0h6v1h-6zm-264.2 0h6v1h-6zm288.2 0h6v1h-6zm192.1 0h6v1h-6zm-384.2 0h6v1h-6zm300.2 0h6v1h-6zm-12 0h6v1h-6zm-192.1 0h6v1h-6zm-24.1 0h6v1h-6zm72.1 0h6v1h-6zm-60 0h6v1h-6zm36 0h6v1h-6zm156.1 0h6v1h-6zm-168.1 0h6v1h-6zm156.1 0h6v1h-6zm-216.2 0h6v1h-6zm-24 0h6v1h-6zm228.2 0h6v1h-6zm72 0h6v1h-6zm-264.2 0h6v1h-6zm276.2 0h6v1h-6zm-324.2 0h6v1h-6zm300.2 0h6v1h-6zm-180.1 0h6v1h-6zm24 0h6v1h-6zm-120.1 0h6v1h-6zm83 115.2h-2.2l-3.8.1v1l6-.2v-1Zm-12 .8h-.2c-2 .2-3.8.6-5.6 1l.2 1a37 37 0 0 1 5.8-1l-.1-1Zm-11.7 2.5-2.7.8h-.2v.1h-.9v.1h-.4l-1.5.6.3 1 5.7-1.9-.3-1Zm-11.2 4.2-1 .4h-.1v.1h-.3l-.1.1h-.1v.1a90 90 0 0 0-3.7 1.9l.4.8 5.3-2.6-.4-.9Zm-10.6 5.7-1.5 1h-.1l-.2.2h-.2v.1h-.2l-.2.2-.1.1-2.4 1.7.6.8c1.6-1.2 3.2-2.3 5-3.4l-.6-.8Zm-9.7 7-.4.4-.1.1-.1.1-.1.1h-.1v.1h-.1v.1l-.2.2h-.1l-3.1 3 .7.7c1.4-1.4 2.8-2.8 4.4-4l-.7-.8Zm-8.5 8.4-1 1.1v.1h-.1l-.2.3-.1.1-.2.2v.1l-.1.1v.1h-.1v.1h-.1v.1h-.1v.1h-.1v.1h-.1v.2h-.1v.1h-.1v.1h-.1v.1h-.1v.1h-.1v.1l-.1.1v.1h-.1v.1h-.1l-.1.1v.1h-.1v.2h-.1v.2h-.1v.1h-.1v.1h-.1v.1l.8.6 3.7-4.6-.7-.6Zm-7.3 9.5-.8 1.3v.1h-.1v.1l-.1.1v.2l-.1.1-.1.1-.2.3-.6 1-.2.4-.1.1v.2h-.1v.1l-.1.1v.1l-.5.7 1 .5.4-.8a87 87 0 0 1 2.6-4.2l-.8-.6Zm-5.9 10.5a89 89 0 0 0-1.9 4.3v.2l-.1.1-.1.3-.3.6 1 .4a84 84 0 0 1 2.3-5.5l-.9-.4Zm-4.3 11.2-.4 1.3v.5l-.1.1a84 84 0 0 0-1 3.8l1 .2 1.5-5.7-1-.3Zm-2.7 11.7v1c-.3 1.6-.5 3.2-.6 4.9h1c.1-2 .4-4 .7-5.8l-1-.2Zm-1 11.9v5.8h1v-6h-1Zm1.5 11.9h-1l.8 6 1-.1c-.4-2-.6-4-.8-6Zm2 11.6-1 .3v.6l1.4 4.4v.7l1-.3c-.6-1.9-1.2-3.8-1.6-5.7Zm3.7 11.3-1 .4 1 2v.9h.1v.5l.1.1v.5h.1v.2h.1l.4 1 1-.5c-1-1.8-1.8-3.6-2.5-5.4Zm5.3 10.6-.8.5v.4h.1v.1l1.7 2.6.1.2.1.1v.1h.1v.1h.1v.2h.1v.1h.1v.1l.1.1v.1h.1v.1h.1v.1l.1.1.2.3.8-.6a91.7 91.7 0 0 1-3.2-5Zm6.8 9.7-.8.6 2.9 3.4v.1l.1.1.1.1.8.9.7-.7-3.8-4.5Zm8 8.8-.7.7.1.2h.1v.1h.1v.1h.1v.1h.1v.1h.1v.1h.1v.1h.1v.1l.2.1 3.3 3 .7-.8c-1.5-1.2-3-2.6-4.4-4Zm9 7.6-.6.9 4.5 3h.2v.1h.1l.2.1.5-.8c-1.7-1-3.3-2.2-5-3.3Zm10 6.3-.4.9 1.8.8h.1v.1h.2v.1h.2v.1h.4v.1h.5v.1h.3l.1.1h.1l.1.1h.2v.1l1.2.5.4-1c-1.8-.7-3.6-1.5-5.3-2.4Zm11 4.5-.3 1 1.5.5h3.1l.8.3.3-1c-2-.4-3.9-1-5.7-1.6Zm11.5 3-.2.9 1.4.2h1.5l.2.1 1.4.2h1.4l.1-1c-2-.1-4-.4-5.9-.8Zm11.8 1.2v1h5.8v-1h-6Zm17.8-.8-6 .6.1 1h.4a86 86 0 0 0 4.4-.5h.2l1-.1-.2-1Zm11.5-2.6-5.7 1.5.2 1h3l.1-.1h.2l2.3-.7-.3-1Zm11-4.3-5.4 2.3.4 1 3.6-1.6h.3v-.1h.4l.1-.1h.3v-.1h.2v-.1h.2l.1-.1-.4-1Zm10.3-6a77.6 77.6 0 0 1-5 3.2l.5.9.5-.3h.2v-.1h.1l4.2-2.7-.6-.8Zm9.3-7.3a85 85 0 0 1-4.5 3.9l.6.7 3-2.4v-.1h.1v-.1h.1v-.1h.1v-.1h.1l.1-.1h.1v-.1h.1v-.1h.1v-.1h.1l.6-.5-.7-.8Zm8.2-8.5c-1.2 1.5-2.6 3-4 4.4l.8.7v-.1h.1v-.1h.1l.1-.2 1.4-1.4v-.1h.1l.1-.2h.1v-.1h.1v-.1h.1v-.1h.1v-.1l.1-.1h.1v-.2h.1l.1-.1.2-.2.7-.9h.1v-.1l.1-.1-.7-.7Zm7-9.5c-1 1.6-2 3.3-3.3 4.9l.8.5.5-.5v-.2h.1l2.7-4.1-.8-.6Zm5.6-10.5a52 52 0 0 1-2.6 5.3l1 .5 2.5-5.4-.9-.4Zm4-11.2-1.8 5.7 1 .3v-.2l.4-1.2v-.8h.1v-.1l1-3.3-1-.3Zm2.2-11.6c-.2 2-.6 4-1 5.9l1 .2.2-.8v-1.7h.1v-.4l.1-.3v-.6l.1-.2v-.9l.1-.9-1-.1Zm1.7-11.8h-1v.2c0 1.9 0 3.8-.2 5.7h1l.2-4.3v-1.6Zm-.8-12-1 .1.6 6 1-.1-.5-6Zm-2.3-11.8-1 .3c.6 1.9 1 3.8 1.4 5.8l1-.2v-1.1l-.1-.1v-.5l-.1-.2v-.3h-.1v-.5l-.1-.1v-2.7Zm-4-11.3-.9.4 2.2 5.5 1-.3-2-4.8v-.4l-.1-.3Zm-5.6-10.6-.9.6 3 5 .9-.4v-.2h-.1v-.1l-.1-.1-2.7-4.7Zm-7.1-9.6-.8.6 3.7 4.7.8-.6-1.3-1.7v-.1l-.1-.1-.1-.1v-.1h-.1v-.1h-.1v-.1h-.1v-.2h-.1v-.1h-.1v-.1l-.1-.1v-.1h-.1v-.1h-.1v-.1l-.1-.1v-.1h-.1v-.1h-.1l-1-1.2Zm-8.3-8.7-.7.8a103.8 103.8 0 0 1 4.2 4.1l.8-.7-.7-.6v-.1h-.1v-.1h-.1v-.1h-.1v-.1h-.1v-.1h-.1v-.1l-.1-.1v-.1h-.1a97 97 0 0 0-2.8-2.7Zm-9.4-7.5-.6.8 4.8 3.6.6-.8c-1.1-1-2.3-1.8-3.5-2.7l-.2-.1-.2-.2h-.1l-.2-.2h-.1v-.1h-.1v-.1h-.2v-.1h-.1Zm-10.3-6-.4.8 5.2 2.8.5-.8-1-.6h-.2l-4-2.2Zm-11.1-4.6-.3 1c1.9.6 3.7 1.2 5.6 2l.3-1a76 76 0 0 0-4.2-1.5h-.4l-1-.4ZM550 286l-.1 1 5.8 1.1.2-1h-.6l-1.6-.4h-.8l-2.6-.5h-.1Zm-12-1v1l6 .3v-1c-1.7-.2-3.5-.3-5.3-.3h-.5Zm-11.5 140-.2 1c2 .3 4 .6 6 .7l.1-1c-1.3 0-2.5-.2-3.8-.4h-1l-1.2-.2Zm-11.5-3.5-.4 1c1.8.8 3.8 1.5 5.7 2l.3-.9-.7-.2h-.2l-.1-.1h-.5v-.1h-.4l-.1-.1h-.2l-3.5-1.4Zm-10.4-6-.6.9 5.1 3.3.5-.9h-.2v-.1h-.1v-.1h-.2v-.1h-.1v-.1h-.2v-.1h-.2v-.1h-.4l-.1-.1h-.1l-.1-.1h-.1v-.1h-.2v-.1h-.1l-.1-.1h-.1v-.1h-.2l-2.3-1.7Zm-9-8-.7.7c1.4 1.5 2.8 3 4.4 4.4l.6-.8-2.6-2.5v-.1h-.1v-.1h-.1v-.1l-.1-.1v-.1h-.1l-.8-1Zm-6.8-9.7-.8.4c.9 1.8 2 3.6 3.1 5.3l.9-.6-.8-1.2v-.3l-.2-.3-.1-.1v-.2h-.1v-.1l-.2-.3v-.3l-.1-.2v-.4l-.8-1.3Zm-4.3-11.2-1 .2c.6 2 1.2 4 2 5.9l.8-.4-.6-1.9v-1.1l-.1-.1v-.9l-.4-1.2Zm-1.7-11.9h-1c0 2.1.3 4.2.6 6.1l1-.1v-.4a34 34 0 0 1-.5-4.6v-.7Zm-.7-12c-.2 2-.4 4-.4 6h1c0-2 .2-4 .4-6h-1Zm2.6-12a56 56 0 0 0-1.6 6l1 .1c.4-2 1-3.9 1.6-5.7l-1-.4Zm5.2-11c-1 1.7-2 3.5-2.9 5.4l1 .4.7-1.6v-.5l.1-.1v-.2l.1-.2.1-.2.3-.4v-.2l.1-.1.1-.1v-.4l.6-.9-.9-.5Zm7.6-9.6-.2.1a55 55 0 0 0-3.9 4.5l.8.6 3.3-3.9.2-.1v-.1l.1-.1h.1v-.1l.2-.1-.8-.7Zm9.4-7.7a42 42 0 0 0-5 3.6l.7.8.3-.3h.1v-.1h.1v-.1l1.7-1.3h.2v-.1h.2l.1-.1 1.9-1.3-.6-.8Zm11-5.3a40 40 0 0 0-5.7 2.3l.5.9c1-.6 2.2-1 3.4-1.5h.2l.1-.1h.3l1.4-.5-.3-1Zm12-2.6c-2.1.2-4.2.5-6.1 1l.2 1c1.4-.4 2.7-.6 4.1-.8h.9l.8-.1v-1Zm6.2-.3h-.2v1h1.2c1.6 0 3.1.1 4.6.3v-1c-1.9-.2-3.8-.3-5.9-.3Zm12 1.2-.3 1h.2c1.8.4 3.4.9 5 1.4h.5l.3-.9c-1.9-.6-3.9-1.2-5.9-1.6Zm11.5 4-.5.9 3 1.6h.1l.1.1h.2v.1h.3v.1h.4l.1.1h.2v.1h.2v.1l.3.2.6-.9a51 51 0 0 0-5.3-3Zm10.2 6.6-.6.8c1.5 1.2 3 2.6 4.4 4l.7-.7a56 56 0 0 0-4.5-4Zm8.6 8.7-.8.6 1.2 1.4v.2l.1.1v.1l.1.1v.1h.1v.1l.1.1.1.2.2.2v.1l.1.1v.1h.1v.2h.1v.2l1 1.3.7-.6c-1-1.7-2.2-3.3-3.5-5ZM585 345l-.9.5.6 1.3.1.1v.7l.1.1v.2l1.2 2.9 1-.4c-.7-1.9-1.6-3.8-2.4-5.6Zm4.1 11.5-1 .2v.2l.1.2v.7l.7 3.8v.8l1-.1c-.2-2-.5-4.1-1-6Zm1.6 12.1h-1v2.8l-.1 3.1h1a72.9 72.9 0 0 0 0-6Zm-1.7 12v.5l-.1.2v.2l-.2.7v.6l-.1.2v2.2c0 .1 0 0 0 0v.5l1 .3 1.2-6-1-.1Zm-3.1 11.6-2.5 5.4.8.5c1-1.8 1.8-3.7 2.6-5.6l-1-.3Zm-5.7 10.5v.2h-.1v.1a47 47 0 0 1-3.4 4.4l.7.6c1.4-1.5 2.6-3.1 3.8-4.8l-.8-.6Zm-7.8 9.1a60.5 60.5 0 0 1-3.9 3.4h-.2v.1h-.1l-.2.2.6.8c1.6-1.2 3.1-2.5 4.6-4l-.7-.7Zm-9.5 7.3-3.7 2h-.5l-1 .5.4.9c1.8-.8 3.7-1.8 5.4-2.8l-.5-.9Zm-11 4.8-1.3.3h-.2l-4.2 1 .1 1 6-1.5-.3-1Zm-11.8 2h-3.3v1h3.5v-1ZM784.5 466l-2.2-5.7 1-.3 2.1 5.6-1 .3Zm-4.3-11.3-2.1-5.6.9-.4 2.1 5.6-.9.4Zm-4.3-11.2-2.1-5.6 1-.4 2 5.6-.9.4Zm-4.3-11.2-2.1-5.6 1-.4 2 5.6-.9.4Zm-4.2-11.2-2.2-5.6 1-.4 2.1 5.6-1 .4Zm-4.3-11.2-2.1-5.6.9-.4 2.1 5.6-1 .4Zm-4.3-11.2-2.1-5.6.9-.4 2.1 5.6-.9.4Zm-4.3-11.3-2.1-5.6 1-.3 2 5.6-.9.3Zm-4.3-11.2-2-5.6.8-.3 2.2 5.6-1 .3ZM746 365l-2.2-5.6 1-.4 2.1 5.7-1 .3Zm-4.3-11.2-2.1-5.6.9-.4 2.1 5.6-.9.4Zm-4.3-11.2-2.1-5.6 1-.4 2 5.6-.9.4Zm-4.3-11.2-2.1-5.6 1-.4 2 5.6-.9.4Zm-4.2-11.2-2.2-5.6 1-.4 2 5.6-.8.4Zm-4.3-11.2-2.1-5.7.9-.3 2.1 5.6-1 .4Zm-4.3-11.3-2.1-5.6.9-.3 2.1 5.6-.9.4Zm-4.3-11.2-2-5.5 1-.3 2 5.6-.9.3Zm-4.3-11.2-2-5.6.8-.3 2.2 5.6-1 .3Zm-4.2-11.2-2.2-5.6 1-.4 2.1 5.7-1 .3Zm-4.3-11.2-2.1-5.6.9-.4 2.1 5.6-.9.4ZM322.4 466l-2.2-5.7 1-.4 2 5.7-.8.3Zm-4.3-11.3-2.2-5.6 1-.4 2.1 5.6-1 .4Zm-4.3-11.2-2.1-5.6.9-.4 2.1 5.6-.9.4Zm-4.3-11.2-2.1-5.6 1-.4 2 5.6-.9.4Zm-4.3-11.2-2.1-5.6 1-.4 2 5.6-.9.4Zm-4.2-11.2-2.2-5.6 1-.4 2 5.6-.8.4Zm-4.3-11.2-2.2-5.6 1-.4 2.1 5.6-1 .4Zm-4.3-11.3-2.1-5.6.9-.3 2.1 5.6-.9.3Zm-4.3-11.2-2.1-5.6 1-.3 2 5.6-.9.3Zm-4.3-11.2-2-5.6.8-.4 2.2 5.7-1 .3Zm-4.2-11.2-2.2-5.6 1-.4 2.1 5.6-1 .4Zm-4.3-11.2-2.1-5.6.9-.4 2.1 5.6-1 .4Zm-4.3-11.2-2.1-5.6 1-.4 2 5.6-.9.4Zm-4.3-11.2-2.1-5.6 1-.4 2 5.6-.9.4Zm-4.2-11.2-2.2-5.7 1-.3 2 5.6-.8.4Zm-4.3-11.3-2.2-5.6 1-.3 2.1 5.6-1 .4Zm-4.3-11.2-2.1-5.6.9-.3 2.1 5.6-.9.3Zm-4.3-11.2-2.1-5.6 1-.3 2 5.6-.9.3Zm-4.3-11.2-2-5.6.8-.4 2.2 5.7-1 .3Zm-4.2-11.2-2.2-5.6 1-.4 2.1 5.6-1 .4Z" fill="#939598"/><path d="m615.1 471.6-.9-.4 1.3-3.2 1 .3-1.4 3.3Zm3.5-8.9-1-.3 2.3-5.6.9.4-2.2 5.5Zm4.4-11.1-1-.4 2.2-5.6 1 .4-2.2 5.6Zm4.3-11.2-.9-.4 2.2-5.6 1 .4-2.3 5.6Zm4.4-11.2-1-.4 2.3-5.5.9.3-2.2 5.6Zm4.4-11.2-1-.3 2.2-5.6 1 .3-2.2 5.6Zm4.3-11.1-.9-.4 2.2-5.6 1 .4-2.3 5.6Zm4.4-11.2-1-.4 2.3-5.6.9.4-2.2 5.6Zm4.4-11.2-1-.4 2.2-5.6 1 .4-2.2 5.6Zm4.3-11.2-.9-.3 2.2-5.6 1 .3-2.3 5.6Zm4.4-11.2-1-.3 2.3-5.6.9.4-2.2 5.5Zm4.4-11.1-1-.4 2.2-5.6 1 .4-2.2 5.6Zm4.3-11.2-.9-.4 2.2-5.6 1 .4-2.3 5.6Zm4.4-11.2-1-.4 2.3-5.5.9.3-2.2 5.6Zm4.4-11.2-1-.3 2.2-5.6 1 .3-2.2 5.6Zm4.3-11.1-.9-.4 2.2-5.6 1 .4-2.3 5.6Zm4.4-11.2-1-.4 2.2-5.6 1 .4-2.2 5.6Zm4.4-11.2-1-.4 2.2-5.6 1 .4-2.2 5.6Zm4.3-11.2-1-.3 2.3-5.6.9.3-2.2 5.6Zm4.4-11.2-1-.3 2.2-5.6 1 .4-2.2 5.5Zm4.4-11.1-1-.4 2.2-5.6 1 .4-2.2 5.6Zm4.3-11.2-1-.4 2.3-5.6.9.4-2.2 5.6Zm4.4-11.2-1-.4 2.2-5.5 1 .3-2.2 5.6Zm4.4-11.2-1-.3 2.2-5.6 1 .3-2.3 5.6Zm4.3-11.2-1-.3 2.3-5.6.9.4-2.2 5.6ZM152.1 472l-1-.4 1.4-3.3.9.4-1.3 3.3Zm3.5-8.9-1-.3 2.2-5.6 1 .3-2.2 5.6Zm4.3-11.2-.9-.3 2.2-5.6 1 .4-2.3 5.6Zm4.4-11.1-1-.4 2.2-5.6 1 .4-2.2 5.6Zm4.4-11.2-1-.4 2.2-5.6 1 .4-2.2 5.6Zm4.3-11.2-.9-.3 2.2-5.6 1 .3-2.3 5.6Zm4.4-11.2-1-.3 2.2-5.6 1 .4-2.2 5.5Zm4.4-11.1-1-.4 2.2-5.6 1 .4-2.2 5.6Zm4.3-11.2-.9-.4 2.2-5.6 1 .4-2.3 5.6Zm4.4-11.2-1-.4 2.2-5.6 1 .4-2.2 5.6Zm4.4-11.2-1-.3 2.2-5.6 1 .3-2.2 5.6Zm4.3-11.1-.9-.4 2.2-5.6 1 .4-2.3 5.6Zm4.4-11.2-1-.4 2.2-5.6 1 .4-2.2 5.6ZM208 329l-1-.4 2.2-5.6 1 .4-2.2 5.6Zm4.3-11.2-1-.4 2.3-5.5.9.3-2.2 5.6Zm4.4-11.2-1-.3 2.2-5.6 1 .4-2.2 5.5Zm4.4-11.1-1-.4 2.2-5.6 1 .4-2.2 5.6Zm4.3-11.2-1-.4 2.3-5.6.9.4-2.2 5.6Zm4.4-11.2-1-.4 2.2-5.5 1 .3-2.2 5.6Zm4.3-11.2-.9-.3 2.2-5.6 1 .3-2.2 5.6Zm4.4-11.1-1-.4 2.3-5.6.9.4-2.2 5.6Zm4.4-11.2-1-.4 2.2-5.6 1 .4-2.2 5.6Zm4.3-11.2-.9-.4 2.2-5.6 1 .4-2.2 5.6Zm4.4-11.2-1-.3 2.3-5.6.9.3-2.2 5.6ZM256 206l-1-.3 2.2-5.6 1 .3-2.2 5.6Zm124.4 133-.2-.9a12 12 0 0 0 5.1-2.1l.6.8c-1.6 1.2-3.6 2-5.5 2.3Zm-6-.3a13 13 0 0 1-5.2-3.1l.7-.7a12 12 0 0 0 4.8 2.9l-.3.9Zm15.4-6.5-.9-.4c.8-1.7 1.3-3.5 1.3-5.4h1c0 2-.5 4-1.4 5.8Zm-23.7-1.7a12.8 12.8 0 0 1-.6-6l1 .2a12 12 0 0 0 .5 5.5l-1 .3Zm23.9-6.3a12 12 0 0 0-2.3-5l.8-.7c1.2 1.6 2 3.5 2.4 5.5l-.9.2Zm-21.5-4.7-.8-.5a13 13 0 0 1 4.5-4l.5.8c-1.7 1-3.1 2.2-4.2 3.7Zm15-3.9a12 12 0 0 0-5.2-1.2h-.3v-1h.3c2 0 3.8.5 5.6 1.3l-.4 1Zm-1.2 111.7-2.2-.1.2-1c1.8.3 3.6.2 5.4-.2l.2 1-3.6.3Zm-7.7-1.8a17 17 0 0 1-4.6-3.4l.7-.7c1.3 1.4 2.7 2.4 4.4 3.3l-.5.8Zm16.6-.7-.4-.8c1.5-1 2.9-2.2 4-3.6l.8.6a17.2 17.2 0 0 1-4.3 3.8Zm-24.4-7.5a15 15 0 0 1-1.4-5.6h.9a16 16 0 0 0 1.4 5.2l-.9.4Zm31.6-1.3-.9-.3a16 16 0 0 0 .7-8l1-.2a16.8 16.8 0 0 1-.8 8.5Zm-31.6-9.7-1-.3a17 17 0 0 1 2.4-5.2l.8.5a16 16 0 0 0-2.3 5Zm29.6-3.8c-.9-1.6-2-3-3.4-4.2l.6-.7a17 17 0 0 1 3.6 4.5l-.8.4Zm-23.6-5.1-.6-.8c1.6-1.1 3.3-2 5.1-2.6l.3 1a16 16 0 0 0-4.8 2.4Zm15.6-2a16 16 0 0 0-5.4-1.1v-1c2 .1 4 .5 5.7 1.3l-.3.8ZM97 353a20 20 0 0 1-4.2-.5l.3-1c1.8.5 3.8.6 5.7.4l.2 1h-2Zm7.8-2-.4-.8a16 16 0 0 0 4.5-3.6l.8.7a17 17 0 0 1-4.9 3.8Zm-17.6-1a17 17 0 0 1-4.3-4.5l.8-.5a16 16 0 0 0 4.1 4.1l-.6.8Zm25.7-8-1-.3a16 16 0 0 0 1-5.7h1c0 2-.3 4.1-1 6Zm-32.5-2a17.2 17.2 0 0 1-.3-6.2l1 .1a16 16 0 0 0 .3 5.8l-1 .2Zm32.5-5.6c-.2-2-.8-3.9-1.6-5.6l.9-.5a17 17 0 0 1 1.7 6h-1Zm-30-6-.9-.5a17 17 0 0 1 3.9-4.7l.6.7a16 16 0 0 0-3.6 4.5Zm24.9-4.2a16 16 0 0 0-5-3l.4-1a17 17 0 0 1 5.2 3.3l-.6.7ZM91.5 321l-.4-1a17 17 0 0 1 5.9-1h.2v1H97a16 16 0 0 0-5.5 1Zm198.9-150.3-.1-1c2-.1 3.8-.6 5.6-1.3l.4.9c-1.9.8-3.9 1.3-6 1.4Zm-6.1-.3c-2-.4-4-1.1-5.8-2.1l.5-1c1.7 1 3.5 1.7 5.5 2.1l-.2 1Zm17.3-4.2-.6-.8a20 20 0 0 0 3.9-4.3l.8.5a21.1 21.1 0 0 1-4.1 4.6Zm-28-1.6a20.9 20.9 0 0 1-3.6-5l1-.5c.8 1.8 2 3.4 3.3 4.8l-.7.7Zm34.8-8.5-1-.3c.6-1.8.8-3.8.8-5.7h1c0 2-.3 4-.9 6Zm-40.3-2.3a21.1 21.1 0 0 1-.2-6.1h1a21.4 21.4 0 0 0 .2 6l-1 .1Zm40.1-5c-.1-2-.5-4-1.2-5.7l1-.4c.6 2 1 4 1.2 6h-1Zm-37.8-6.6-1-.4c.9-2 2-3.7 3.3-5.2l.8.6a20.1 20.1 0 0 0-3.1 5ZM304 138a16 16 0 0 0-4.2-4l.6-.9a18 18 0 0 1 4.4 4.3l-.8.6Zm-26.2-4.6-.6-.8a20 20 0 0 1 5.6-2.5l.3 1c-1.9.4-3.7 1.2-5.3 2.3Zm16.8-2a20 20 0 0 0-5.7-1v-1c2 0 4 .3 6 1l-.3 1Zm-14.6-30a18 18 0 0 1-3.2-.3l.2-1c1.9.4 3.9.4 5.8.1l.2 1-3 .2Zm8.8-2.2-.5-1c1.7-.9 3.2-2 4.4-3.6l.8.7a18 18 0 0 1-4.8 3.9Zm-17.7-.3c-1.2-.6-2.2-1.4-3.2-2.4l-.2-.1V94h1v2c1 .8 1.9 1.5 2.9 2l-.5 1Zm25.6-8.9-1-.3c.8-1.9 1.1-3.8 1.2-5.7h1c0 2-.5 4-1.2 6Zm-28-2h-1v-6h1v6Zm27.3-9.8a17 17 0 0 0-2.8-5l.7-.7c1.3 1.7 2.3 3.5 3 5.4l-1 .3ZM268.7 76h-1v-5l.2-.2.8-.8.7.8-.7.6V76Zm20.1-6.7c-1.7-1-3.5-1.7-5.4-2l.2-1c2 .4 4 1.1 5.7 2.2l-.5.8ZM274.4 68l-.4-1c2-.6 4-1 6-1v1c-1.9 0-3.8.3-5.6 1Zm263.7 88.3h-6v-1h6v1Zm-12 0h-6v-1h6v1Zm-12 0H508v-.8h.6v-.2h5.6v1Zm24.5-5.1h-1v-6h1v6Zm-29.6-1.7h-1v-6h1v6Zm29.6-10.3h-1v-6h1v6Zm-29.6-1.7h-1v-6h1v6Zm29.6-10.3h-1v-.5h-4.5v-1h5.5v1.5Zm-11.5-.5h-6v-1h6v1Zm-12 0h-6v-1h6v1ZM846.2 97h-6v-1h6v1Zm-12 0h-6v-1h6v1Zm-12 0H816v-.8h.5V96h5.7v1Zm24.5-5.1h-1v-6h1v6ZM817 90.2h-1v-6h1v6Zm29.7-10.3h-1v-6h1v6ZM817 78.2h-1v-6h1v6Zm29.7-10.3h-1v-.5h-4.5v-1h5.5v1.5Zm-11.5-.5h-6v-1h6v1Zm-12 0h-6v-1h6v1Zm41.5 355.8h-6v-1h6v1Zm-12 0h-6v-1h6v1Zm-12 0h-6.2v-.8h.5v-.2h5.7v1Zm24.5-5.2h-1v-6h1v6Zm-29.7-1.6h-1v-6h1v6Zm29.7-10.4h-1v-6h1v6Zm-29.7-1.6h-1v-6h1v6Zm29.7-10.4h-1v-.5h-4.5v-1h5.5v1.5Zm-11.5-.5h-6v-1h6v1Zm-12 0h-6v-1h6v1Zm-734.3 17.9h-6v-1h6v1Zm-12 0h-6v-1h6v1Zm-12 0h-6.2v-.8h.5v-.2h5.7v1Zm24.5-5.1h-1v-6h1v6Zm-29.7-1.7h-1v-6h1v6Zm29.7-10.3h-1v-6h1v6Zm-29.7-1.7h-1v-6h1v6Zm29.7-10.3h-1v-.5h-4.5v-1h5.5v1.5Zm-11.5-.5h-6v-1h6v1Zm-12 0h-6v-1h6v1Zm593.1 11.7 2.1-5.5 1 .4-1.7 4.1h.1v1h-1.5Zm7.5 0v-1h6v1h-6Zm12 0v-1h6v1h-6Zm12 0v-1h6v1h-6Zm12 0v-1h3l-.6-1.6.9-.3 1 2.9H721Zm.2-8.2-2-5.6.9-.3 2 5.6-.9.3Zm-38.5-2.5-1-.4 2.3-5.6.9.4-2.2 5.6ZM717 374l-2.1-5.6 1-.4 2 5.6-.9.4Zm-30-2.5-.9-.4 2.2-5.5 1 .3-2.2 5.6Zm25.8-8.8-2.1-5.6 1-.3 2 5.6-1 .3Zm-21.4-2.4-1-.3 2.2-5.6 1 .3-2.2 5.6Zm17.1-8.8-2-5.6.9-.3 2 5.6-.8.3Zm-12.8-2.4-.9-.3 2.2-5.6 1 .3-2.3 5.6Zm8.6-8.8-2-5.6.9-.4 2 5.6-.9.4Zm-4.2-2.3-1-.4 2.2-5.6 1 .4-2.2 5.6Zm-484.7 55.5 2.2-5.5 1 .4-1.7 4.1v1h-1.5Zm7.6 0v-1h6v1h-6Zm12 0v-1h6v1h-6Zm12 0v-1h6v1h-6Zm12 0v-1h3l-.7-1.6 1-.3 1 2.9H259Zm.2-8.2-2.1-5.6 1-.4 2 5.7-.9.3Zm-38.5-2.5-1-.4 2.2-5.6 1 .4-2.2 5.6ZM255 374l-2.1-5.6 1-.4 2 5.6-1 .4Zm-30-2.5-.9-.4 2.2-5.5.9.3-2.2 5.6Zm25.8-8.8-2.2-5.6 1-.3 2 5.6-.8.3Zm-21.4-2.4-1-.3 2.2-5.6 1 .3-2.2 5.6Zm17.1-8.8-2-5.6.8-.3 2.2 5.6-1 .3Zm-12.8-2.4-1-.3 2.3-5.6.9.3-2.2 5.6Zm8.6-8.8-2.1-5.6 1-.4 2 5.6-1 .4ZM238 338l-1-.4 2.2-5.6 1 .4-2.2 5.6Z" fill="#939598"/><path d="M123.7 33c23 0 42.9 8.3 59.4 25 16.6 16.6 25 37 25 61s-8.3 43.8-24.6 60.3C167 195.7 147.3 204 123.9 204s-44.7-8.5-60.9-25.4a84.1 84.1 0 0 1-24.3-60.2 84.5 84.5 0 0 1 85-85.5Zm-.3 30.3a51 51 0 0 0-38 15.7A54.7 54.7 0 0 0 70 119a52 52 0 0 0 19.4 42.7 53.2 53.2 0 0 0 34.5 12.3c14.7 0 27.3-5.3 37.6-16s15.5-23.7 15.5-39.3-5.2-28.6-15.6-39.3a51 51 0 0 0-38-16.1Zm113.8 136.6V37h25.6c14.9 0 25.8 1 32.6 3a43.7 43.7 0 0 1 23.3 14.3c5.8 7 8.7 15.3 8.7 24.8a36.1 36.1 0 0 1-16.8 31.1 51 51 0 0 1 21.7 17.5c4.6 7 6.9 15.2 6.9 24.7s-2.4 17.5-7 25-11 13.2-18.4 16.9a70.2 70.2 0 0 1-30.9 5.6h-45.6Zm31-133.3v34.3h6.8c7.6 0 13.2-1.6 16.8-4.7 3.7-3.2 5.5-7.5 5.5-13 0-5-1.7-9.1-5.2-12.1s-8.8-4.5-15.9-4.5h-8Zm0 62v41.7h7.8c12.9 0 21.6-1.6 26-4.9 4.5-3.2 6.8-8 6.8-14.1 0-7-2.7-12.6-8-16.6-5.2-4-14-6.1-26.1-6.1h-6.5ZM409.3 37h31v105c0 17.2-1.3 29.2-4 36.2-2.8 7-7.3 12.4-13.5 16.5a40.3 40.3 0 0 1-22.6 6.2 57 57 0 0 1-45.8-23.6l22.3-21c5 5.7 9.1 10.4 12.6 12.3 3.4 1.9 6.9 2 10.1 2s5.8-1.5 7.4-4.3a44 44 0 0 0 2.5-18.5V37Zm68.4 0h88.9v30.4h-58.1v29.4h58v29.8h-58v42.8h58V200h-88.8V37Zm278.5 0h90v30.6h-29.7v132.3h-31.4V67.6h-28.9V37Zm-40 108.9c-2.2 3.6-4.8 7-7.9 10.2a48 48 0 0 1-35.8 15.2 50.6 50.6 0 0 1-32.9-11.7 49.6 49.6 0 0 1-18.4-40.7c0-15.3 4.8-28 14.6-38s21.9-15 36.2-15 26.3 5.1 36.2 15.4c3.2 3.3 6 6.9 8.1 10.7l21.4-20.7a78.2 78.2 0 0 0-8.8-10.4A77 77 0 0 0 672.3 37c-14.4 0-28 3.6-40.5 10.9a79.6 79.6 0 0 0-40.3 70.4 80.5 80.5 0 0 0 81 81.5c23.2 0 41.2-7.8 56.8-23.5 3-3.1 5.8-6.4 8.3-9.8L716.2 146ZM46.7 289.1h32.9c17.8 0 30.6 1.6 38.5 5 7.8 3.2 14 8.5 18.6 15.9a49.2 49.2 0 0 1 6.8 26.4 44 44 0 0 1-9 28.3 46 46 0 0 1-24.1 15.7c-6 1.7-16.9 2.6-32.7 2.6v69h-31V289Zm31 63.7h9.9a53 53 0 0 0 16.1-1.7c3-1.1 5.4-3 7.2-5.5 1.7-2.6 2.6-5.7 2.6-9.3 0-6.3-2.5-10.9-7.3-13.8a41.6 41.6 0 0 0-19.8-3.2h-8.7v33.5Zm161.7-20.5-46.5 119.6h-32.2l62.8-162.8h31.4L317.6 452h-32.3M427 311.2l-23 20.3c-8-11.2-16.2-16.8-24.6-16.8-4 0-7.4 1-10 3.2-2.6 2.2-3.9 4.7-3.9 7.4s1 5.3 2.8 7.8A218 218 0 0 0 391 354a433 433 0 0 1 21.6 18.7 65 65 0 0 1 13.3 18.2c2.6 5.8 4 12.1 4 19 0 13.3-4.7 24.4-13.9 33a50.5 50.5 0 0 1-36.1 13.1 53.8 53.8 0 0 1-30.3-8.5 67.3 67.3 0 0 1-22.2-26.8l26.1-15.7c7.8 14.4 16.9 21.6 27 21.6 5.4 0 9.9-1.6 13.5-4.7s5.4-6.6 5.4-10.7c0-3.7-1.4-7.4-4-11a114 114 0 0 0-18.2-17c-17.7-14.5-29.2-25.6-34.3-33.5a42.5 42.5 0 0 1-7.8-23.5c0-11.3 4.3-21 12.9-29a44.7 44.7 0 0 1 31.9-12.2c8 0 15.8 1.9 23.2 5.7a84.7 84.7 0 0 1 23.9 20.5Zm274.8 21.1-46.5 119.6h-32.2l62.8-162.8h31.4L780 452h-32.3M804 289.1h31v133.3h45V452h-76V289ZM582.3 399.3c-2.2 3.8-5 7.4-8.2 10.8a50.5 50.5 0 0 1-37.6 16c-13 0-24.5-4.2-34.6-12.4a52 52 0 0 1-19.3-42.7c0-16.1 5-29.5 15.4-40 10.2-10.4 22.9-15.7 38-15.7s27.6 5.4 38 16.1c3.4 3.6 6.2 7.3 8.5 11.3l22.5-21.8a89.4 89.4 0 0 0-9.3-10.9 80.9 80.9 0 0 0-59.4-25 83.5 83.5 0 0 0-42.6 11.5 84.5 84.5 0 0 0-42.4 74 84 84 0 0 0 24.3 60.2c16.2 16.9 36.5 25.3 61 25.3s43.1-8.2 59.5-24.6a93 93 0 0 0 8.7-10.3l-22.5-21.8Z" fill="#231f20"/></svg>