<svg xmlns="http://www.w3.org/2000/svg" width="935.2" height="1000"><path d="M935.2 414.5a228 228 0 0 0-2.5-34.2A414 414 0 0 0 811 125a484.2 484.2 0 0 0-20.9-19.8v-16a5 5 0 0 0-5-5h-20.4l-4-3V52.5a5 5 0 0 0-6.9-4.6l-25.2 11.2A402.7 402.7 0 0 0 514 0a410.9 410.9 0 0 0-217 59.8c-7-4.2-15.4-6.3-25-6.3-7.8 0-15 1.5-21.6 4.5A42.7 42.7 0 0 0 233 73.2a84.6 84.6 0 0 0-11.8 43.7 419.2 419.2 0 0 0-82.5 108.8H94.3a5 5 0 0 0-4.2 2.4L.7 372.4A5 5 0 0 0 5 380h87.3a456.7 456.7 0 0 0-2.4 46.7c0 104 33.2 196.6 98.5 275.3L84.7 993.4a5 5 0 0 0 4.6 6.6H295a5 5 0 0 0 4.7-3.3l59.6-170a438 438 0 0 0 156 27.3c116 0 216-41.5 297.4-123.3 81.3-81.8 122.6-183.2 122.6-301.3l-.1-8.6v-6.3Zm-438.7 17.8a5 5 0 0 0-4-2h-204a5 5 0 0 0-4.7 3.2l-18 50.5a322.2 322.2 0 0 1-1-104h297c43.1 0 73.1 3.5 89 10.4 24.9 11 36.2 33.7 34.6 69.8-1.1 24.5-21 70.2-73.6 118.5-32.5 29.8-89.2 71-175.4 98a245 245 0 0 1-22-8.3l82.8-231.6a5 5 0 0 0-.7-4.5ZM421 224.1h30c14 0 24.5-4 31.3-12.2 6.4-7.6 9.6-18.9 9.6-34.4v-9.7c5.8-.4 11.7-.7 17.7-.7 2.3 4.6 5.2 8.6 8.7 12.2 9.8 9.7 23.7 14.6 41.4 14.6a95 95 0 0 0 36.3-7.3l3.7-1.5a5 5 0 0 0 2.4-2 239.8 239.8 0 0 1 71.4 43 917 917 0 0 0-23.7-.4H350a235.6 235.6 0 0 1 97.6-50.9v2.7c0 4.5-.6 6.7-.9 7.4l-2 .2H421a5 5 0 0 0-5 5v29a5 5 0 0 0 5 5Z" fill="#fff"/><path d="M514.1 9.5c112.5 0 209.2 40.7 290.2 122.1 81 81.5 121.4 180.7 121.4 297.8s-40 214.3-119.8 294.6C726 804.4 629.1 844.5 515.2 844.5s-218.5-41.2-297.4-123.7c-79-82.5-118.5-180.6-118.5-294A412.5 412.5 0 0 1 306.2 65.3a407.8 407.8 0 0 1 208-56Zm-1.6 148c-73.6 0-135.4 25.7-185.6 76.8-50.1 51.2-75.2 116.2-75.2 195.1 0 88 31.6 157.5 94.7 208.7 49 40 105.3 60 168.8 60 71.8 0 133-26 183.4-77.9 50.5-51.9 75.8-115.8 75.8-191.9s-25.5-139.7-76.3-192a248.8 248.8 0 0 0-185.6-78.7Z" fill="#231f20"/><path d="M925.7 414.5c0 106-73.2 196.8-219.6 272.7 8.7-4.5-81.9 64-348.9 116.5l-65.5 186.8h-196l196-550.8H486L393.7 698C593.7 652.6 692 523 695 460.7c1.8-40.1-11.7-66.4-40.3-79-17.2-7.5-48.1-11.2-92.9-11.2H13.1l83.8-135.3h552.9c80.9 0 142.6 10 185.2 30 60.5 28.3 90.7 78 90.7 149.3Z" fill="#00aeef"/><path d="M272.1 189c-7.8 0-14.7-1.6-20.4-4.6a39 39 0 0 1-14.4-13c-7.6-11.1-11.2-26.7-11.2-47.7s3.7-36.6 11.2-47.7a37.8 37.8 0 0 1 15.3-13.5 46 46 0 0 1 19.5-4.1c15.3 0 27 6 35 17.6 7.6 11.2 11.2 26.7 11.2 47.7s-3.7 36.6-11.1 47.6a39 39 0 0 1-14.6 13c-5.8 3-12.7 4.6-20.5 4.6Zm0-98.4c-2.3 0-5 .7-7.1 5.7-1.6 3.6-3.5 11.2-3.5 27.3s1.9 23.9 3.5 27.4c2.1 5 4.8 5.7 7.1 5.7s5.1-.6 7.3-5.6c1.6-3.6 3.5-11.3 3.5-27.4s-1.9-23.8-3.5-27.3c-2.2-5.1-4.9-5.8-7.3-5.8ZM376 189c-7.5 0-14-2.3-19.2-6.6l-.8 4.3h-31v-131h34.2v36.2a30 30 0 0 1 16.9-5c11.6 0 20.8 5 27.5 14.5 6.1 9 9.3 21.2 9.3 36.5s-3.1 27.5-9.3 36.5a31.7 31.7 0 0 1-27.5 14.5Zm-6.8-71.4c-1.8 0-4.2.5-6.5 4.3-2.3 3.9-3.5 9.3-3.5 16.2s1.2 12.4 3.5 16.2c2.2 3.9 4.5 4.3 6.2 4.3s4-.4 6.2-4.3c2.3-4 3.4-9.5 3.4-16.7s-1-12.3-3.3-16c-2-3.5-4.2-4-6-4Zm51.7 101.6V190h23.8c3 0 5-.6 5.9-1.8.6-.8 2-3.5 2-10.7v-59.3h-22.8V89h25.8a8.1 8.1 0 0 1-3-6.6V61a8 8 0 0 1 8.2-8.2h17.9a8 8 0 0 1 8.2 8.2v21.6a8 8 0 0 1-3 6.6h3v88.4c0 14.3-2.7 24.5-8.4 31.3-5.8 6.9-15 10.4-27.5 10.4h-30ZM559.7 189c-16.3 0-29-4.5-37.9-13.2a50.5 50.5 0 0 1-13.3-37.4c0-10 1.8-18.9 5.3-26.4a41.6 41.6 0 0 1 16.6-18.5A51.5 51.5 0 0 1 557 87a43 43 0 0 1 23.5 6.3 42.2 42.2 0 0 1 15.5 17.6 57.2 57.2 0 0 1 5.3 25.1v15.1h-3.6v29.4l-3.7 1.6a90 90 0 0 1-34.4 6.8ZM544 151c1.5 4.7 5.7 8.2 16.7 8.2a55 55 0 0 0 27.6-8.2H544Zm22-28.8a8 8 0 0 0-1.8-3.3c-1.8-1.8-4.4-2.7-8.2-2.7s-6.8 1-8.7 2.9c-.9.9-1.6 2-2.2 3.2h21Zm91 66.8a47.5 47.5 0 0 1-36-13.8c-8.7-9-13-21.5-13-37.2s4.3-28.2 12.8-37.3a46.3 46.3 0 0 1 35.4-13.9 62 62 0 0 1 28.9 7.3l3.2 1.7V133l-9.9-8.6a27.1 27.1 0 0 0-18.5-7.3c-5.7 0-9.9 1.6-12.7 4.9-3 3.5-4.6 8.9-4.6 16s1.6 12.3 4.5 15.8c2.8 3.2 6.9 4.8 12.5 4.8 7.2 0 13.4-2.3 18.7-7.2l10-9.1v37.5l-3 1.7a56 56 0 0 1-28.4 7.4Zm103.4-2c-9.2 0-16.4-1-21.9-3a22.8 22.8 0 0 1-13.5-12c-2.4-5-3.5-11.6-3.5-20v-33.8h-22V89h22V67.7l34.3-15.2V89h29.4v29.2h-29.4v35c0 2.1.5 3.3.9 3.6.2.2 1.4 1 5.3 1h23.2V187h-24.8Z" fill="#231f20"/><path d="M272.1 183c-6.8 0-12.8-1.3-17.7-3.9a33 33 0 0 1-12.2-11c-6.8-10-10.2-24.8-10.2-44.4s3.4-34.2 10.2-44.4c3.5-5.2 7.8-9 13-11.4a39.9 39.9 0 0 1 17-3.5 34 34 0 0 1 30 15c6.8 10 10.1 24.8 10.1 44.3s-3.3 34.2-10 44.3c-3.3 4.8-7.5 8.5-12.4 11.1s-11 3.9-17.8 3.9Zm0-20.3c5.9 0 10.1-3.1 12.8-9.3 2.6-6 4-15.9 4-29.8s-1.4-23.7-4-29.7c-2.7-6.1-7-9.2-12.8-9.2s-9.9 3-12.6 9.2c-2.6 6-4 16-4 29.7s1.4 23.9 4 29.8c2.7 6.2 6.9 9.3 12.6 9.3ZM376 183c-10.4 0-18-5-22.8-15l-2.2 12.8h-20V61.6h22.3v45.6c5.5-9.5 13-14.3 22.9-14.3s17.1 4 22.6 12c5.5 7.9 8.2 18.9 8.2 33s-2.7 25.1-8.2 33.1a26 26 0 0 1-22.6 12Zm-7-18.4c4.6 0 8.4-2.4 11.2-7.3 2.9-4.9 4.3-11.4 4.3-19.7s-1.4-14.3-4.1-19c-2.7-4.7-6.5-7-11.2-7s-8.8 2.4-11.6 7.2c-3 4.9-4.4 11.3-4.4 19.3s1.5 14.4 4.3 19.3c2.9 4.8 6.7 7.2 11.4 7.2Zm57.8 31.4h18c4.9 0 8.4-1.4 10.5-4.3 2.2-2.9 3.2-7.6 3.2-14.2v-65.3h-22.7V95H481v82.5c0 12.7-2.4 21.9-7 27.4-4.7 5.5-12.3 8.3-23 8.3h-24.2V196Zm34-111.2c-1.5 0-2.3-.8-2.3-2.3V61c0-1.5.8-2.3 2.3-2.3h17.9c1.5 0 2.3.8 2.3 2.3v21.6c0 1.5-.8 2.3-2.3 2.3h-17.9Zm98.9 98.2c-14.8 0-26-3.8-33.7-11.5-7.7-7.6-11.5-18.6-11.5-33 0-9.2 1.6-17.2 4.8-24a35.5 35.5 0 0 1 14.2-16 45.4 45.4 0 0 1 23.7-5.6 37 37 0 0 1 20.2 5.5 36.2 36.2 0 0 1 13.3 15 51 51 0 0 1 4.7 22.6v9.1h-58c0 13.4 7.7 20.1 23.3 20.1a61 61 0 0 0 31.1-9.3v20.6a83.6 83.6 0 0 1-32.1 6.5Zm13.1-54.7c0-6-1.4-10.4-4.3-13.4-3-3-7-4.6-12.5-4.6s-9.8 1.6-13 4.7-4.9 7.5-5.5 13.3h35.3ZM657 183a42 42 0 0 1-31.8-11.9c-7.5-7.9-11.2-19-11.2-33s3.7-25.4 11.1-33.3c7.5-8 17.8-12 31.1-12a55 55 0 0 1 26.1 6.6v20.5A33.1 33.1 0 0 0 660 111c-7.5 0-13.2 2.4-17.2 7-4 4.7-6 11.3-6 19.8s2 15.1 6 19.8c3.9 4.6 9.5 6.9 16.9 6.9 8.7 0 16.3-3 22.7-8.8v20.6A50 50 0 0 1 657 183Zm103.4-2c-8.5 0-15-.8-19.9-2.5a17 17 0 0 1-10.1-9c-2-4.2-3-10-3-17.5v-39.8h-21.9V95h22V71.6l22.4-10V95h29.3v17.2h-29.3v41c0 3.7 1 6.4 2.8 8.1s5 2.5 9.3 2.5h17.2v17.3h-18.9Zm-522.7 67.7h31c15.7 0 27 2.8 34 8.4 7 5.5 10.4 14.7 10.4 27.3s-3.4 21.8-10.3 27.4c-7 5.6-18.4 8.4-34 8.4h-8.5V363h-22.6V248.7Zm31.9 52.5c7.4 0 12.6-1.3 15.6-3.8s4.4-6.8 4.4-13-1.5-10.5-4.4-13c-3-2.5-8.2-3.7-15.6-3.7h-9.3v33.5h9.3Zm86.8 64c-8.8 0-16-2.5-21.5-7.6s-8.2-12.4-8.2-22c0-6 1-10.9 3.2-14.7a23 23 0 0 1 8.9-8.8 39 39 0 0 1 12.7-4.4c4.8-.8 9.8-1.2 15-1.2H382v-3.7c0-3-.8-5.4-2.4-7-1.6-1.6-3.7-2.6-6.2-3.2s-5.1-.8-7.8-.8c-5.4 0-10.6.7-15.5 2.2a80 80 0 0 0-15 6.3V281a80.3 80.3 0 0 1 31.8-6c9.4 0 16.8 1.3 22.3 4 5.4 2.7 9.3 6.8 11.6 12.4a56 56 0 0 1 3.5 21.3 359.4 359.4 0 0 1-.2 17 382 382 0 0 1-.2 14l.3 5.8c.2 2.4.5 4.8 1 7.2a17 17 0 0 0 2.6 6.2h-22.2a22.6 22.6 0 0 1-3.1-9.6c-3 4-6.8 7-11.3 9a39.3 39.3 0 0 1-14.7 2.8Zm7.4-15.5a15 15 0 0 0 11-4 21 21 0 0 0 5.6-9.6c1-4 1.6-7.9 1.6-11.9v-1.5h-9c-3.4 0-7 .3-10.4.7-3.5.5-6.4 1.7-8.6 3.6-2.3 2-3.4 5.1-3.4 9.5s1.1 7.4 3.4 9.7c2.4 2.3 5.6 3.5 9.8 3.5Zm96.6 15.5c-9.6 0-20.3-1.8-32-5.4v-19.6c10 5.8 20.1 8.7 30.2 8.7s15.8-3.1 15.8-9.4c0-2.7-1.3-5-3.8-6.6a38.8 38.8 0 0 0-12.8-4.5l-6.2-1.3c-16.4-3.7-24.6-12.2-24.6-25.4 0-8.4 3-15 9.1-19.6 6.1-4.6 15-7 26.6-7a77.6 77.6 0 0 1 27 4.8v19.6a55.9 55.9 0 0 0-13-6.1c-4-1.3-8.2-2-12.6-2-5 0-9 .8-11.8 2.3-2.7 1.5-4.1 3.5-4.1 6 0 2.3 1.3 4.2 3.9 5.9a41 41 0 0 0 12.5 4.5l7.3 1.7c8.1 2 14.1 5 18 9.4 3.7 4.3 5.6 10 5.6 17 0 18-11.7 27-35 27Zm102.1 0c-13.6 0-24.1-4-31.7-11.9-7.5-7.9-11.2-19-11.2-33s3.7-25.3 11.1-33.3c7.5-8 17.8-12 31.1-12a55 55 0 0 1 26.1 6.6V302a33.1 33.1 0 0 0-22.4-8.7c-7.5 0-13.2 2.3-17.2 7-4 4.6-6 11.2-6 19.8s2 15 6 19.7a21 21 0 0 0 16.9 7c8.7 0 16.3-3 22.7-8.9v20.6a50 50 0 0 1-25.4 6.6Zm77.2 0c-8.9 0-16-2.5-21.6-7.6-5.4-5.1-8.2-12.4-8.2-22 0-6 1-10.9 3.3-14.7 2.1-3.8 5-6.8 8.8-8.8s8-3.6 12.8-4.4c4.7-.8 9.7-1.2 15-1.2h15.5v-3.7c0-3-.8-5.4-2.4-7s-3.7-2.6-6.2-3.2-5.2-.8-7.8-.8a54 54 0 0 0-15.6 2.2c-5 1.5-10 3.6-14.9 6.3V281a80.3 80.3 0 0 1 31.7-6c9.4 0 16.8 1.3 22.3 4a24 24 0 0 1 11.7 12.4 56 56 0 0 1 3.4 21.3 359.4 359.4 0 0 1-.2 17 382 382 0 0 1-.1 14 45.4 45.4 0 0 0 1.3 13 17 17 0 0 0 2.6 6.2h-22.2a22.6 22.6 0 0 1-3.2-9.6c-3 4-6.8 7-11.3 9s-9.4 2.8-14.7 2.8Zm7.3-15.5a15 15 0 0 0 11-4c2.7-2.5 4.5-5.7 5.6-9.6 1.1-4 1.7-7.9 1.7-11.9v-1.5h-9c-3.5 0-7 .3-10.5.7-3.5.5-6.3 1.7-8.6 3.6-2.3 2-3.4 5.1-3.4 9.5s1.2 7.4 3.5 9.7c2.3 2.3 5.6 3.5 9.7 3.5Zm110.4 13.9c-10.6 0-18.3-2.8-23-8.4s-7-14.7-7-27.4v-66.7h-22.7v-17.3h45.2v84c0 6.7 1 11.4 3.2 14.3 2 2.8 5.6 4.3 10.5 4.3h18v17.2h-24.2Z" fill="#fff"/></svg>