<svg xmlns="http://www.w3.org/2000/svg" width="1000" height="1000"><rect x="2" y="2" width="996" height="996" rx="68.2" ry="68.2" fill="#1c75bc"/><path d="M929.9 4A66.2 66.2 0 0 1 996 70.2v859.7a66.2 66.2 0 0 1-66.2 66.1H70.3A66.2 66.2 0 0 1 4 929.8V70.3A66.2 66.2 0 0 1 70.2 4h859.7m0-4H70A70.2 70.2 0 0 0 0 70.2v859.7a70.2 70.2 0 0 0 70.2 70.1h859.7a70.2 70.2 0 0 0 70.1-70.2V70.3A70.2 70.2 0 0 0 929.8 0Z" fill="#231f20"/><path d="M929.9 5A65.2 65.2 0 0 1 995 70.2v859.7a65.2 65.2 0 0 1-65.2 65.1H70.3A65.2 65.2 0 0 1 5 929.8V70.3A65.2 65.2 0 0 1 70.2 5h859.7m0-5H70A70.2 70.2 0 0 0 0 70.2v859.7a70.2 70.2 0 0 0 70.2 70.1h859.7a70.2 70.2 0 0 0 70.1-70.2V70.3A70.2 70.2 0 0 0 929.8 0Z" fill="#231f20"/><path d="M737.8 176.3C672 109.6 592.3 75.7 501 75.7a332.3 332.3 0 0 0-181 53l-2.3 1.4-1 .7a341.6 341.6 0 0 0-19.7 13.7l-.8.6-1.1.9a338.5 338.5 0 0 0-20.5 17l-1.7 1.5-8.3 7.8-1.4 1.4c-6.1 6-12 12.2-17.4 18.6s-.4.4-.4.4l-.8 1-1.7 1.9-9 11.2-.2.2a337 337 0 0 0-9.2 12.5l-.3.5c-2.4 3.5-5 7.2-7.6 11.4l-1.8 2.8a340.7 340.7 0 0 0-41.2 95 353.6 353.6 0 0 0-11.2 98.4v2.8l.2 5.5.2 2.3v1a386.4 386.4 0 0 0 .5 8.1v.5l.4 4.5c0 1.3.2 2.5.3 3.7l.5 4.4.4 3.8a530 530 0 0 0 2.3 16l.6 3.4v.5a581.7 581.7 0 0 0 1.3 6.7l.3 1.7.7 3.5.5 2 .4 2 .9 3.7.4 1.5a313 313 0 0 0 5.1 19l.5 1.6 1.8 5.3.6 2a316 316 0 0 0 1.8 5.2l.8 2.1a356 356 0 0 0 1.9 5.1l.8 2a292 292 0 0 0 2 5.2l.8 2 2.3 5.2.7 1.6 2.5 5.5.6 1.2 2.8 5.8.2.6a344.4 344.4 0 0 0 31.5 51l.2.4 4.4 5.8.3.4 4.6 5.8.3.3 4.8 5.9 2.1 2.5v-451H411c33.7 0 63.9 1.3 89.7 4a233.1 233.1 0 0 1 48.6 5.5h.3a213.6 213.6 0 0 1 18.6 5.5c2.7.9 5.4 1.9 8 3l.8.2 2 .8 4.8 2 1.6.8.7.3a164 164 0 0 1 8.4 4.1l.5.3a157.3 157.3 0 0 1 6.7 3.6 192.8 192.8 0 0 1 76 71 206.7 206.7 0 0 1 18.2 37.9A217.6 217.6 0 0 1 709 386v.7c.5 2.7.8 5.8 1.2 9.6l.1 1.5.6 9.4v1l.1.9a293 293 0 0 1 0 21.6v2.9l-.6 8.3c0 1.4-.2 2.7-.4 4.1a276.8 276.8 0 0 1-1 11l-.4 2.5-.2 1c-.5 3.5-1.1 6.9-1.8 10l-.4 2-1.4 6.3a198.4 198.4 0 0 1-37.8 81.4 212.7 212.7 0 0 1-69 57.2 197.6 197.6 0 0 1-28.3 12.4c-6.3 2.3-12.7 4.5-19.1 6.3-25 7.1-65.5 11-123.9 11.8h-1.2v107.8l1 .2a323.7 323.7 0 0 0 17.9 3.2l.7.1 8 1.1 1.4.2 7.5.9 2 .2 7 .6 2.4.2 6.8.4 2.7.1c2.3.2 4.6.2 7 .3h2.4l9.5.2A364 364 0 0 0 569 757a316.6 316.6 0 0 0 91-32.6 322.6 322.6 0 0 0 54.1-37.2c8.6-7.2 17-15 25.1-23.3 65-65.8 97.8-147.4 97.8-242.5S803.6 243 737.8 176.3Z" fill="#231f20"/><path d="M754.9 159.5c-70.5-71.5-156-107.7-254-107.7A356 356 0 0 0 319 101.1a359.9 359.9 0 0 0-132.5 133.6 367 367 0 0 0-48.2 184.6A364.4 364.4 0 0 0 242.8 679l.5.5v269.6h184.6V780.4c23.6 4.5 48.4 6.8 73.9 6.8 99.2 0 184.8-35.8 254.4-106.4 69.5-70.5 104.7-157.7 104.7-259.3s-35.7-190.6-106-262Zm-.4 519.6a343 343 0 0 1-252.7 105.7 395 395 0 0 1-75-7l-1.3-.2v169.3H245.7V678.6l-1.2-1.2-1.2-1.2a362 362 0 0 1-102.6-257c0-66 16-127.7 47.8-183.3a357.6 357.6 0 0 1 131.7-132.7 353.5 353.5 0 0 1 180.7-49c97.4 0 182.3 36 252.3 107 69.8 70.9 105.3 158.5 105.3 260.3s-35 187.6-104 257.6Z" fill="#231f20"/><path d="m433.9 626.1 9-.2h2.2l10.2-.4h1.1l11.1-.5h1.7l6.7-.4 2.7-.2 6-.4 3-.2 5.1-.4 3.3-.3 4.7-.4 3.3-.4 4.2-.4 3.4-.4 3.8-.5 3.5-.5 3.2-.5h.6l2.8-.5.6-.1 2.3-.4 1.6-.4 2.6-.4 1.6-.4h.6l3-.8 1.9-.4 5-1.3a256.3 256.3 0 0 0 15.6-5.1l1-.3a219.8 219.8 0 0 0 35.5-16.7l.7-.5 1.1-.7c3-1.7 6-3.7 9-5.7l.8-.6a178.2 178.2 0 0 0 35-31 187.2 187.2 0 0 0 15.8-20.6 172.3 172.3 0 0 0 24.3-58.7l.2-1c3.5-15.9 5.3-33.1 5.3-51.2 0-30-4.6-57.5-13.6-81.8a191.8 191.8 0 0 0-7.6-17.8l-.2-.3-3-5.7-.3-.7-.8-1.4a182 182 0 0 0-9.4-15.2l-1.3-1.9c-3.5-5-7.3-9.8-11.2-14.3l-1.5-1.7a170 170 0 0 0-28.3-25.2l-1.8-1.3a164.4 164.4 0 0 0-31.9-17.3 289 289 0 0 0-79-17.4c-6-.7-12.3-1.2-19-1.7h-1c-2.5-.3-5.2-.5-7.9-.6l-3.5-.2a759.7 759.7 0 0 0-18.7-.9l-6-.2-6.1-.2H429l-5-.2H267.3v708.1H404V626.4h13.8a1536.3 1536.3 0 0 0 12.6-.2h3.5Zm-30-133V350.4h36.8c41.1 0 69.6 4.7 84.7 13.8 20.7 12.2 31.1 32 31.1 58.7 0 15.4-3.7 28.7-11 39.5A61.4 61.4 0 0 1 515 486c-13 4.7-36.4 7.1-69.7 7.1H404Z" fill="#231f20"/><path d="M507.7 465.7a39.8 39.8 0 0 0 20-15.3A47.6 47.6 0 0 0 535 423c0-19.4-6.3-31.7-20.7-40.3-6.6-4-25-10.7-73.6-10.7h-15.2v99.5h20c40.3 0 56.2-3.6 62.2-5.8Zm-79.8-91.3h12.8c48.1 0 66 6.5 72.6 10.5 13.3 8 19.3 19.7 19.3 38a45 45 0 0 1-7 26.2 37.5 37.5 0 0 1-18.8 14.3c-5.7 2.2-21.4 5.7-61.3 5.7h-17.6v-94.7Z" fill="#231f20"/><path d="M515.5 487a62.4 62.4 0 0 0 31-23.8 70 70 0 0 0 11.2-40.2c0-27.3-10.5-47.2-31.6-59.7-15.4-9.3-43.9-14-85.4-14h-38v145h42.8c33.5 0 56.9-2.5 70-7.3Zm-88.8-113.8h14c48.4 0 66.5 6.6 73 10.5l.2.2c13.8 8.1 20 20.2 20 39 0 11-2.4 19.8-7.2 26.9a38.6 38.6 0 0 1-19.4 14.8c-5.9 2.1-21.7 5.7-61.8 5.7h-18.8v-97Z" fill="#fff"/><path d="M754 160.3C683.8 89.1 598.6 53 501 53a354.7 354.7 0 0 0-181.3 49.2 358.7 358.7 0 0 0-132 133.1 365.8 365.8 0 0 0-48.1 184 363 363 0 0 0 103 257.7l2 2.1v269h182.2V779c24 4.7 49 7 75 7 99 0 184.3-35.7 253.6-106 69.3-70.3 104.4-157.2 104.4-258.5S824 231.5 754 160.4ZM239.6 637.6l-.2-.3-4.6-5.8-.3-.4-4.4-5.8-.2-.3a341.4 341.4 0 0 1-34.4-57.3l-.6-1.2-2.5-5.5-.7-1.6-2.2-5.2-.8-2-2-5-.9-2a314 314 0 0 1-1.9-5.2l-.7-2-1.8-5.2-.7-2-1.7-5.4-.5-1.5a378 378 0 0 1-5.2-19l-.3-1.4-1-4.6-.8-3.1-.8-4.3-.7-3.5-.8-4-.6-4-.6-3.9-.6-4a516 516 0 0 1-.6-3.8l-.5-4.2-.4-3.8-.4-4.4a231 231 0 0 1-.4-3.7l-.3-4.5-.3-3.6-.3-4.8a355.2 355.2 0 0 1-.3-8.9l-.1-2.8a385.3 385.3 0 0 1 0-20 351.1 351.1 0 0 1 14.1-88.8 335.9 335.9 0 0 1 38.2-84l1.7-2.7c2.5-3.9 5-7.7 7.6-11.4l.3-.4c3-4.3 6-8.5 9.2-12.5 0-.1 0-.2.2-.2 3.1-4.1 6.4-8.1 9.7-12v447.9l-4.9-6ZM402.8 924H268.4V218.3h142.7l13 .1h5l7.7.2 6 .2a1132.1 1132.1 0 0 1 12.8.4l4.9.3a740.2 740.2 0 0 1 10.6.6l8 .5h1c6.5.6 12.8 1.1 18.9 1.8 33.2 3.5 59.4 9.2 78.7 17.3a213.9 213.9 0 0 1 31.6 17.2l1.8 1.2 7.1 5.3 6.8 5.7 1.6 1.5c4.4 4 8.6 8.1 12.6 12.6l1.5 1.7c3.9 4.5 7.6 9.2 11.1 14.2l1.4 2a191.8 191.8 0 0 1 14.4 24.8c2.4 5.2 4.7 10.5 6.7 15.9 9 24.3 13.5 51.4 13.5 81.4a237 237 0 0 1-5.3 51l-.2.9a197.3 197.3 0 0 1-9.6 30.7 169.9 169.9 0 0 1-30.2 48.2l-1.7 1.9a189.7 189.7 0 0 1-33 28.8l-.9.6c-2.9 2-5.9 3.9-8.9 5.7l-1.8 1.1c-11 6.5-22.8 12-35.4 16.6l-2.1.8a246.8 246.8 0 0 1-19.3 6c-.6 0-1.3.2-1.9.4l-3 .6-.5.1-2.5.5-1.4.3-2 .4-2.8.5a545.7 545.7 0 0 1-6.7 1l-2.5.4h-.9a945.5 945.5 0 0 1-21.3 2.4h-1.3l-5.2.5-2.1.2h-1l-5.8.4-2.6.2-6.7.3-1.7.1-11.1.5h-1.1a1400.4 1400.4 0 0 1-21.5.6h-3.5a992.7 992.7 0 0 1-12.5.2h-.3l-14.7.1v299Zm335.5-261a367.9 367.9 0 0 1-44.6 38.6 319.3 319.3 0 0 1-85.8 44 319.3 319.3 0 0 1-55.4 13 361.7 361.7 0 0 1-60.2 3.3l-2.5-.1-7-.2-2.6-.2-6.8-.4-2.3-.2a323 323 0 0 1-7-.6l-2-.2-7.5-.8-1.5-.2-8-1.1-.8-.1-8.6-1.5h-.1l-9-1.7V649c58.5-.8 99.2-4.7 124.2-11.8h.1c6.6-2 13-4 19.2-6.4a184 184 0 0 0 28.5-12.5c3-1.7 6.1-3.4 9-5.2a213 213 0 0 0 60.3-52.2 199 199 0 0 0 38-82l1.4-6.2.4-2c.7-3.3 1.3-6.7 1.8-10.1l.6-3.5a391.6 391.6 0 0 0 1.3-11l.4-4a252.7 252.7 0 0 0 .8-21.5c0-3.9 0-7.7-.2-11.5l-.1-2-.6-9.4-.2-1.5-1-9.6-.2-.7c-.4-3.5-1-6.9-1.6-10.3a218.2 218.2 0 0 0-11.8-41.3 205 205 0 0 0-18.3-38 193.7 193.7 0 0 0-81.3-74.2 158.2 158.2 0 0 0-10.7-5.3l-2.3-1a178 178 0 0 0-5-2.2l-2.6-1a195.1 195.1 0 0 0-11.3-4l-4.8-1.6-6.5-1.8-4.5-1a247.5 247.5 0 0 0-25.3-4.4 264.3 264.3 0 0 0-23.6-1.3 877 877 0 0 0-89.8-4H245.4a330 330 0 0 1 18.5-19.9l1.4-1.3c2.7-2.7 5.5-5.3 8.3-7.8l1.7-1.6a356 356 0 0 1 20.4-17l2-1.4 8.4-6.1 3.3-2.3 7.9-5.3 3.2-2 11.2-7A329.6 329.6 0 0 1 501 77c91.5 0 170.2 33.4 236 100.2 66 66.8 98.9 148.3 98.9 244.3s-32.5 175.8-97.5 241.7Z" fill="#fff"/><path d="M550.5 89.5c11.6 1.9 21 7.7 28 17.5a42.6 42.6 0 0 1 7.4 32.8c-2 12-7.7 21.4-17.3 28.4-9.6 7-20.3 9.5-32 7.6-12.4-2-22-8-28.8-17.9s-9.2-20.6-7.2-32.3a43.1 43.1 0 0 1 49.9-36.1Zm-2.7 15.2c-7.6-1.2-14.4.4-20.5 4.8a28 28 0 0 0-11 19 27.2 27.2 0 0 0 22.7 32.2 27.7 27.7 0 0 0 31.3-23.5 27.8 27.8 0 0 0-22.5-32.5ZM651.9 123l-15.4 26.4a26 26 0 0 1 21 2.6c7 4 11.3 10 13.1 18.1a33 33 0 0 1-4.4 24.5c-4.6 7.9-11 13-19.1 15.5a27.4 27.4 0 0 1-30.2-9 32 32 0 0 1-4.7-10l-3.3 5.6-13.2-7.7 42.9-73.8 13.3 7.8Zm-4.3 39.6c-4.2-2.4-8.6-3-13-1.8a18 18 0 0 0-10.7 8.9 18.5 18.5 0 0 0-2.5 13.9c1 4.5 3.7 8 7.9 10.4 4 2.4 8.4 3 12.9 1.6s8-4.3 10.8-9c2.6-4.5 3.4-9 2.4-13.6-1-4.5-3.7-8-7.8-10.4Zm59.4 28.1 11.1 10.8-44 45.8c-4.1 4.2-7.6 7-10.4 8.3a13.5 13.5 0 0 1-8.5 1 17 17 0 0 1-8.1-4.6 37.6 37.6 0 0 1-6.7-9.7l8.4-8.8c1 2.6 2 4.5 3.4 5.7 1.4 1.4 2.9 2 4.4 1.8 1.5-.1 3.3-1.3 5.5-3.6l44.9-46.7Zm23.1-12.9c2 2 3 4.2 3 7 .1 2.8-.8 5.1-2.8 7.2-1.9 2-4.2 3-7 3a9.6 9.6 0 0 1-10-9.6c0-2.8 1-5.3 3-7.3 1.8-2 4.1-3 6.8-3s5 .8 7 2.7ZM747 299l-27-41.6a16.5 16.5 0 0 0-2.5 22.6c3.1 4.9 7.5 8 13.2 9.3l1.9 14.2a30.8 30.8 0 0 1-26.4-16 31.1 31.1 0 0 1 9.3-44.8c7.8-5.2 16-6.9 24.5-5.1a30.5 30.5 0 0 1 20.2 14.1 31.6 31.6 0 0 1 5 25c-2 8.5-7.3 15.4-15.9 21L747 299Zm1.8-19.5c2.4-2.7 3.6-6 3.8-9.6.2-3.7-.8-7.2-3-10.6a18.5 18.5 0 0 0-9-7.6c-2.4-.9-5.7-1-9.9-.4l18.1 28.2Zm45.5 96.7-10.1-10.7c1.8-3 3-5.7 3.3-8.2.4-2.6.1-5.4-.7-8.4a19.3 19.3 0 0 0-8.5-12.3c-4.2-2.6-9-3.3-14.1-2A17 17 0 0 0 753 343a19 19 0 0 0-1.4 14.4 19.7 19.7 0 0 0 10.9 13.8l-5 13.9a33.2 33.2 0 0 1-19.5-23.9 33.5 33.5 0 0 1 3-27 31.5 31.5 0 0 1 19.5-14.5 31.7 31.7 0 0 1 31.6 9.3c4.1 4.5 7 9.9 8.6 16.3 1.6 5.9 1.8 11.5.6 16.8-1.1 5.4-3.5 10-7 14.2Zm36.7 33.5.3 15.5-22.7.4.1 9.1-13.3.3-.1-9.2-48.3.8-.3-15.5 48.3-.8-.1-7.9 13.3-.2.1 8 22.7-.5Zm-446-60V368c0 9.8-1 17-2.8 21.3a21.6 21.6 0 0 1-8.8 10.2c-4 2.6-9 3.8-14.6 3.8-6.3 0-11.5-1.6-15.6-5a24.8 24.8 0 0 1-8.7-13.3c-1-3.3-1.4-9.3-1.4-18h-38.2v-17.2h90ZM349.7 367v5.4c0 4.3.3 7.3.9 9a8 8 0 0 0 3 3.9c1.4 1 3.1 1.4 5.1 1.4 3.5 0 6-1.3 7.7-4a23 23 0 0 0 1.7-11V367h-18.4Zm11.8 112.8v16.7H295v-16.7h7a27.4 27.4 0 0 1-8.8-20.5c0-8.6 3.4-16 10-22.3 6.7-6.3 15-9.4 25-9.4s18.6 3 25.2 9A29 29 0 0 1 361 470a30.8 30.8 0 0 1-6.8 9.8h7.3Zm-13.7-17.6c0-5.2-1.8-9.4-5.5-12.9-3.6-3.4-8.3-5-14-5s-10.5 1.7-14.2 5.1c-3.7 3.5-5.6 7.8-5.6 12.9s1.9 9.6 5.5 13c3.7 3.5 8.4 5.2 14.4 5.2s10.4-1.7 14-5.2c3.6-3.4 5.4-7.8 5.4-13Zm4.4 104.4L342 556.3c4.1-4.2 6.2-8 6.2-11.5 0-1.8-.4-3.3-1.2-4.4-.8-1-1.8-1.6-3-1.6a4 4 0 0 0-2.4 1 19 19 0 0 0-3.1 5l-3 6.2a36 36 0 0 1-9.8 13.2 19.2 19.2 0 0 1-11.6 3.6c-6 0-10.9-2.1-14.8-6.5-4-4.3-6-10.1-6-17.4 0-9.7 3.8-17.5 11.4-23.3l11.2 10.3c-2.3 2-4.1 4.3-5.5 6.9-1.4 2.6-2.1 5-2.1 7 0 2.2.5 4 1.5 5.3 1.1 1.4 2.3 2 3.7 2 2.6 0 5.1-2.4 7.5-7.3l2.8-5.6c5.5-10.8 12.3-16.1 20.4-16.1 5.3 0 9.8 2 13.5 6s5.6 9.3 5.6 15.6a27.1 27.1 0 0 1-11 22Zm-4.2 92.1-7.6-14c2.7-2.6 4.6-5.1 5.7-7.7 1-2.5 1.6-5.5 1.6-9 0-6.2-1.9-11.3-5.6-15.1-3.7-3.9-8.5-5.8-14.3-5.8s-10.3 1.9-13.9 5.6a20.2 20.2 0 0 0-5.4 14.6c0 7.5 2.6 13.3 7.7 17.5l-9 13.1a36 36 0 0 1-14-30.2 36 36 0 0 1 10.5-27.5c6.9-6.6 15-10 24.3-10a34.2 34.2 0 0 1 30.6 18.4 40.2 40.2 0 0 1 4.6 19.3 38 38 0 0 1-4 17.8 33.8 33.8 0 0 1-11.2 13Zm13.5 76.7V752H295v-16.7h7a27.4 27.4 0 0 1-8.8-20.5c0-8.6 3.4-16 10-22.3 6.7-6.3 15-9.4 25-9.4s18.6 3 25.2 9a29 29 0 0 1 7.6 33.4 30.8 30.8 0 0 1-6.8 9.8h7.3Zm-13.7-17.6c0-5.2-1.8-9.4-5.5-12.9-3.6-3.4-8.3-5-14-5s-10.5 1.7-14.2 5.1c-3.7 3.5-5.6 7.8-5.6 12.9s1.9 9.6 5.5 13c3.7 3.5 8.4 5.2 14.4 5.2s10.4-1.7 14-5.2c3.6-3.4 5.4-7.8 5.4-13.1Zm39.4 61.8v16.7H295v-16.7h92.2Z" fill="#fff"/></svg>