<svg xmlns="http://www.w3.org/2000/svg" viewBox="0 0 925.3 454.2"><path d="M127.4 6.7c34.3 0 63.8 12.4 88.4 37.2 24.7 24.9 37 55.1 37 90.9s-12.1 65.3-36.5 89.8c-24.3 24.5-53.9 36.8-88.6 36.8S61 248.8 37 223.6A125.2 125.2 0 0 1 .8 134 125.8 125.8 0 0 1 64 23.7c19.7-11.3 40.8-17 63.5-17Zm-.5 45.1a76.1 76.1 0 0 0-56.6 23.5 81.5 81.5 0 0 0-23 59.5c0 26.8 9.6 48 28.9 63.6a79.2 79.2 0 0 0 51.5 18.3c21.9 0 40.5-8 56-23.7 15.3-15.9 23-35.4 23-58.6s-7.7-42.6-23.3-58.6a75.9 75.9 0 0 0-56.6-24Z" fill="#2e3192"/><path d="M296 8.2v89c8.1-8.2 17-14.3 26.4-18.3a76 76 0 0 1 30.3-6.1c23.4 0 43.3 8.8 59.7 26.5 16.4 17.7 24.6 40.4 24.6 68s-8.5 49.1-25.4 67.1a80 80 0 0 1-89 21.4 88 88 0 0 1-26.6-18v23.5h-44.7V8.2H296Zm47.3 106.1a47 47 0 0 0-35.3 14.5c-9.3 9.7-14 22.3-14 38s4.7 28.8 14 38.6c9.4 9.8 21.1 14.7 35.3 14.7s25.3-5 34.7-15c9.4-10 14.1-22.7 14.1-38.2s-4.6-28-13.8-37.8a45.9 45.9 0 0 0-35-14.8ZM670 180H525.4a48.1 48.1 0 0 0 51.5 41.8 60 60 0 0 0 43.3-17.7l38 17.8a89.4 89.4 0 0 1-34 29.8 106.2 106.2 0 0 1-47 9.6 90.5 90.5 0 0 1-95.3-93.3c0-26.7 8.8-50 26.5-68.1a88.8 88.8 0 0 1 66.3-27.1c28.2 0 51.2 9 68.9 27 17.7 18.2 26.5 42 26.5 71.7l-.1 8.6Zm-45-35.3c-3-10-8.8-18.2-17.6-24.4a51 51 0 0 0-30.5-9.4 53.9 53.9 0 0 0-33 10.5 58.7 58.7 0 0 0-16.5 23.2H625Z" fill="#2e3192"/><path d="M854.5 113.7 817 134.3c-7-7.4-14-12.5-20.9-15.4-6.9-2.8-15-4.3-24.2-4.3a56 56 0 0 0-40.8 15.1c-10.4 10-15.6 23-15.6 38.6s5 27.7 15 37.4a54.4 54.4 0 0 0 39.4 14.4c20.2 0 35.9-6.8 47-20.6l35.6 24.3c-19.3 25-46.4 37.5-81.5 37.5-31.5 0-56.2-9.3-74-28a92 92 0 0 1-26.9-65.6 92.3 92.3 0 0 1 49.4-82.4c15.6-8.4 33-12.5 52.2-12.5 17.8 0 33.8 3.5 48 10.6a91 91 0 0 1 34.7 30.2Z" fill="#2e3192"/><path d="M855.3 7.8h43.3v42h26.6v38.8h-26.7v172.8h-43.2V88.6h-23.1V49.9h23V7.8Z" fill="#2e3192"/><path fill="none" stroke="#231f20" stroke-miterlimit="10" stroke-width="2" d="M116.7 261.4h781.8"/><path d="M459.3 0c8 0 14.9 2.9 20.5 8.6 5.7 5.7 8.5 12.6 8.5 20.7S485.5 44 480 49.8a28.1 28.1 0 0 1-40.6-.2c-5.7-5.8-8.5-12.8-8.5-21s2.8-14.6 8.3-20.2A27.4 27.4 0 0 1 459.3 0ZM437 73.8h45v173.8c0 17-1.7 29.7-5 38.1a39.1 39.1 0 0 1-16 19.4c-7.2 4.5-16 6.7-26.1 6.7-9 0-20.3-2.2-33.7-6.7v-35.5a44 44 0 0 0 18.6 5.1c5.8 0 10-1.7 13-5 2.8-3.5 4.2-9.7 4.2-18.9v-177Z" fill="#2e3192"/><path d="M233.5 306.9c0 27-18.7 50.3-56.2 69.7 2.2-1.1-21 16.4-89.3 29.8l-16.7 47.8H21.2l50-140.9H121l-23.6 66c51.1-11.5 76.3-44.7 77-60.6.5-10.3-3-17-10.3-20.2-4.4-2-12.3-2.9-23.7-2.9H0L21.4 261H163c20.7 0 36.5 2.6 47.4 7.7 15.4 7.2 23.2 20 23.2 38.2Zm111.9 106.5c-4 13-14 19.6-30 19.6h-46.3c-13.2 0-19.8-4.2-19.8-12.7a42 42 0 0 1-32.8 15.1c-9.5 0-17.3-2.9-23.2-8.8-6-5.8-9-13.5-9-23a48 48 0 0 1 19.6-40.3 70.6 70.6 0 0 1 44-13.4h69.7l-23 63.5h50.8Zm-78.9-44h-27l-8.6 28.5a18 18 0 0 0-.7 4.9c0 7 7 10.6 20.8 10.6l15.5-44Z" fill="#f7941d"/><path d="M492.8 413.4c-.3 5.5-3.4 10.1-9.3 13.9-6 3.8-12.4 5.7-19.4 5.7h-93c-17.8 0-26.7-5.5-26.7-16.4 0-1 0-2 .2-3.2a15 15 0 0 1 7.8-11.3c4-2.4 8.4-3.5 13.5-3.5 8.8.3 20.7 5.1 35.8 14.6a26 26 0 0 0 6.5-16.4c0-2.8-1.8-9-5.3-19l-13.8 12.7h-24.4l32.5-30.1a37.7 37.7 0 0 1-3-6.3 33 33 0 0 1-1.8-10.2l30-32c13.6 2.2 20.4 8.4 20.4 18.4 0 5.9-1.8 11.3-5.3 16.3 3 8 6 16 9.2 24a77 77 0 0 1 5.6 24.9c0 7-2.8 13-8.3 18h48.8Z" fill="#f7941d"/><path d="M645.5 413.4a24.6 24.6 0 0 1-11.3 14.8A34.3 34.3 0 0 1 616 433h-73.6a79 79 0 0 1-35.3-7.1c-12-6-18-15-18-26.9 0-1.3 0-2.6.2-4 1.6-14.6 9.2-26 22.7-34.3a79.5 79.5 0 0 1 42.2-10.8H585c7 0 12.8 2.2 17.7 6.6 5 4.4 7.4 9.7 7.4 16.1s-2.5 11.9-7.4 16.4c-5 4.5-10.9 6.7-17.7 6.7s-12.8-2.3-17.7-6.8c-4.8-4.5-7.2-10-7.1-16.5v-3h-14.8l-9.5 27c-.9 2.3-1.3 4.4-1.3 6.3 0 7.1 5.7 10.7 17 10.7h94Z" fill="#f7941d"/><path d="M801.7 413.4c-3.9 13-13.9 19.6-30 19.6h-46.3c-13.2 0-19.8-4.2-19.8-12.7a42 42 0 0 1-32.7 15.1c-9.5 0-17.3-2.9-23.2-8.8s-9-13.5-9-23a48 48 0 0 1 19.6-40.3 70.6 70.6 0 0 1 43.9-13.4H774l-23 63.5h50.8Zm-78.8-44h-27l-8.6 28.5a18 18 0 0 0-.7 4.9c0 7 6.9 10.6 20.8 10.6l15.5-44Z" fill="#f7941d"/><path d="M896.1 413.4c-2 7.2-6.7 12.5-14 16a38 38 0 0 1-16.5 3.6h-47.1c-12 0-18.1-4.1-18.1-12.4 0-2 .4-4.5 1.3-7.2l53.6-152h43.2l-53.7 152H896Z" fill="#f7941d"/></svg>