<svg xmlns="http://www.w3.org/2000/svg" width="151" height="66" fill="none"><g clip-path="url(#a)"><mask id="b" width="27" height="27" x="9" y="28" maskUnits="userSpaceOnUse" style="mask-type:alpha"><path fill="#004373" d="M9.289 28.75h26.25V55H9.289z"/></mask><g mask="url(#b)"><path stroke="#003D6B" stroke-width="2.625" d="M34.227 62.875c0 9.175-2.72 17.428-7.052 23.356-4.332 5.928-10.208 9.457-16.573 9.457-6.366 0-12.242-3.529-16.574-9.457-4.332-5.928-7.051-14.181-7.051-23.356 0-9.175 2.719-17.428 7.05-23.356 4.333-5.928 10.209-9.456 16.575-9.456 6.365 0 12.24 3.528 16.573 9.456 4.332 5.928 7.052 14.181 7.052 23.356Z"/></g><mask id="c" width="27" height="27" x="9" y="23" maskUnits="userSpaceOnUse" style="mask-type:alpha"><path fill="#004373" d="M9.289 23.5h26.25v26.25H9.289z"/></mask><g mask="url(#c)"><path stroke="#003D6B" stroke-width="2.625" d="M34.227 57.625c0 9.175-2.72 17.428-7.052 23.356-4.332 5.928-10.208 9.457-16.573 9.457-6.366 0-12.242-3.529-16.574-9.457-4.332-5.928-7.051-14.181-7.051-23.356 0-9.175 2.719-17.428 7.05-23.356 4.333-5.928 10.209-9.456 16.575-9.456 6.365 0 12.24 3.528 16.573 9.456 4.332 5.928 7.052 14.181 7.052 23.356Z"/></g><mask id="d" width="27" height="27" x="9" y="18" maskUnits="userSpaceOnUse" style="mask-type:alpha"><path fill="#004373" d="M9.289 18.25h26.25V44.5H9.289z"/></mask><g mask="url(#d)"><path stroke="#003D6B" stroke-width="2.625" d="M34.227 52.375c0 9.175-2.72 17.428-7.052 23.356-4.332 5.928-10.208 9.457-16.573 9.457-6.366 0-12.242-3.529-16.574-9.457-4.332-5.928-7.051-14.181-7.051-23.356 0-9.175 2.719-17.428 7.05-23.356 4.333-5.928 10.209-9.456 16.575-9.456 6.365 0 12.24 3.528 16.573 9.456 4.332 5.928 7.052 14.181 7.052 23.356Z"/></g><mask id="e" width="27" height="27" x="9" y="13" maskUnits="userSpaceOnUse" style="mask-type:alpha"><path fill="#004373" d="M9.289 13h26.25v26.25H9.289z"/></mask><g mask="url(#e)"><path stroke="#003D6B" stroke-width="2.625" d="M34.227 47.125c0 9.175-2.72 17.428-7.052 23.356-4.332 5.928-10.208 9.457-16.573 9.457-6.366 0-12.242-3.529-16.574-9.457-4.332-5.928-7.051-14.181-7.051-23.356 0-9.175 2.719-17.428 7.05-23.356 4.333-5.928 10.209-9.456 16.575-9.456 6.365 0 12.24 3.528 16.573 9.456 4.332 5.928 7.052 14.181 7.052 23.356Z"/></g><mask id="f" width="27" height="27" x="30" y="11" maskUnits="userSpaceOnUse" style="mask-type:alpha"><path fill="#004373" d="M56.703 37.25h-26.25V11h26.25z"/></mask><g mask="url(#f)"><path stroke="#003D6B" stroke-width="2.625" d="M31.766 3.125c0-9.175 2.719-17.428 7.05-23.356 4.333-5.928 10.209-9.456 16.575-9.456 6.365 0 12.24 3.528 16.573 9.456 4.332 5.928 7.052 14.181 7.052 23.356 0 9.175-2.72 17.428-7.052 23.356-4.332 5.928-10.208 9.456-16.573 9.456-6.366 0-12.242-3.528-16.574-9.456-4.332-5.928-7.051-14.181-7.051-23.356Z"/></g><mask id="g" width="27" height="27" x="30" y="16" maskUnits="userSpaceOnUse" style="mask-type:alpha"><path fill="#004373" d="M56.703 42.5h-26.25V16.25h26.25z"/></mask><g mask="url(#g)"><path stroke="#003D6B" stroke-width="2.625" d="M31.766 8.375c0-9.175 2.719-17.428 7.05-23.356 4.333-5.928 10.209-9.457 16.575-9.457 6.365 0 12.24 3.529 16.573 9.457C76.296-9.053 79.016-.8 79.016 8.375c0 9.175-2.72 17.428-7.052 23.356-4.332 5.928-10.208 9.456-16.573 9.456-6.366 0-12.242-3.528-16.574-9.456-4.332-5.928-7.051-14.181-7.051-23.356Z"/></g><mask id="h" width="27" height="27" x="30" y="21" maskUnits="userSpaceOnUse" style="mask-type:alpha"><path fill="#004373" d="M56.703 47.75h-26.25V21.5h26.25z"/></mask><g mask="url(#h)"><path stroke="#003D6B" stroke-width="2.625" d="M31.766 13.625c0-9.175 2.719-17.428 7.05-23.356 4.333-5.928 10.209-9.457 16.575-9.457 6.365 0 12.24 3.529 16.573 9.457 4.332 5.928 7.052 14.181 7.052 23.356 0 9.175-2.72 17.428-7.052 23.356-4.332 5.928-10.208 9.456-16.573 9.456-6.366 0-12.242-3.528-16.574-9.456-4.332-5.928-7.051-14.181-7.051-23.356Z"/></g><mask id="i" width="27" height="27" x="30" y="26" maskUnits="userSpaceOnUse" style="mask-type:alpha"><path fill="#004373" d="M56.703 53h-26.25V26.75h26.25z"/></mask><g mask="url(#i)"><path stroke="#003D6B" stroke-width="2.625" d="M31.766 18.875c0-9.175 2.719-17.428 7.05-23.356 4.333-5.928 10.209-9.457 16.575-9.457 6.365 0 12.24 3.529 16.573 9.457 4.332 5.928 7.052 14.181 7.052 23.356 0 9.175-2.72 17.428-7.052 23.356-4.332 5.928-10.208 9.456-16.573 9.456-6.366 0-12.242-3.528-16.574-9.456-4.332-5.928-7.051-14.181-7.051-23.356Z"/></g><path fill="#003D6B" d="M31 12h2v17h-2zM33 37h2v17h-2z"/></g><path fill="#003D6B" d="M108.124 25.28c-.592 0-1.081-.07-1.466-.21-.382-.142-.67-.367-.862-.678-.193-.313-.289-.724-.289-1.233V13.61h1.975V22.9c0 .184.031.334.095.449a.574.574 0 0 0 .315.245c.146.052.346.078.599.078h.785v1.565h-.061a10.19 10.19 0 0 1-1.091.043Zm-4.036-7.374v-1.57l2.406.005 2.782-.005v1.57l-2.782-.004-2.406.004ZM99.623 25.449c-.863 0-1.622-.19-2.277-.57a3.87 3.87 0 0 1-1.518-1.621c-.36-.704-.54-1.527-.54-2.467 0-.943.18-1.767.536-2.47a3.827 3.827 0 0 1 1.522-1.622c.655-.38 1.42-.57 2.294-.57.768 0 1.443.14 2.027.419a3.465 3.465 0 0 1 1.402 1.177c.353.506.572 1.097.655 1.772l-2.001.005a2.16 2.16 0 0 0-.41-.953 1.794 1.794 0 0 0-.733-.574 2.358 2.358 0 0 0-.953-.19c-.466 0-.87.11-1.216.328-.345.219-.614.553-.806 1.005-.193.448-.29 1.005-.29 1.669 0 .667.098 1.225.294 1.673.195.449.466.782.81 1a2.2 2.2 0 0 0 1.204.328c.353 0 .677-.064.97-.194.296-.13.545-.328.746-.595.202-.27.337-.604.406-1h1.983c-.089.698-.316 1.308-.681 1.828-.365.52-.842.922-1.432 1.203-.586.28-1.25.419-1.992.419ZM89.963 25.444c-.865 0-1.63-.188-2.294-.565a3.872 3.872 0 0 1-1.54-1.617c-.362-.704-.543-1.528-.543-2.47 0-.924.178-1.737.534-2.442a3.906 3.906 0 0 1 1.523-1.639c.658-.388 1.421-.582 2.29-.582.885 0 1.651.2 2.298.6a3.9 3.9 0 0 1 1.488 1.656c.345.704.518 1.505.518 2.402 0 .092-.002.188-.005.289l-.008.31h-7.599v-1.414h6.31l-.678.396c-.006-.523-.1-.984-.28-1.384a2.116 2.116 0 0 0-.794-.944c-.35-.227-.775-.34-1.272-.34-.477 0-.894.107-1.25.323-.354.215-.63.54-.829.974-.195.434-.296.975-.301 1.622v.37c0 .647.099 1.186.297 1.618.199.431.48.753.845.966.368.212.808.319 1.32.319.365 0 .689-.056.97-.168.285-.115.522-.276.712-.483.193-.21.336-.46.431-.75l1.924.012a3.924 3.924 0 0 1-.781 1.548 3.673 3.673 0 0 1-1.384 1.031c-.558.242-1.192.362-1.902.362ZM80.758 27.204h.487c.205 0 .37-.029.496-.086a.562.562 0 0 0 .29-.263.984.984 0 0 0 .094-.466V16.336H84.1v10.23c0 .529-.096.957-.289 1.285a1.673 1.673 0 0 1-.85.716c-.373.15-.839.224-1.396.224a8.791 8.791 0 0 1-.807-.035v-1.552Zm1.367-11.847V13.4h1.98v1.957h-1.98ZM76.744 25.444c-.747 0-1.387-.19-1.919-.569-.529-.38-.931-.908-1.207-1.587-.276-.681-.417-1.473-.423-2.376v-.285c.006-.894.147-1.679.423-2.354.279-.679.684-1.205 1.216-1.579.532-.376 1.17-.565 1.915-.565.784 0 1.472.191 2.06.574.59.38 1.043.92 1.36 1.621.319.699.478 1.517.478 2.454 0 .937-.16 1.758-.479 2.463-.316.704-.769 1.247-1.358 1.63-.59.382-1.278.573-2.066.573Zm-4.726-.207V12.955h1.98v5.477h-.22v4.688h.137l-.004 2.117h-1.893Zm4.26-1.444c.475 0 .887-.123 1.238-.367.354-.247.625-.6.815-1.06.193-.464.29-1.011.29-1.644 0-.632-.096-1.169-.285-1.608-.19-.44-.46-.772-.811-.997-.35-.227-.766-.34-1.247-.34-.48 0-.897.118-1.25.353-.354.236-.627.58-.82 1.031-.19.448-.284.988-.284 1.617 0 .63.095 1.172.284 1.626.193.451.466.796.82 1.035.353.236.77.354 1.25.354ZM66.053 25.449c-.88 0-1.661-.192-2.346-.574a4.042 4.042 0 0 1-1.59-1.63c-.38-.704-.57-1.524-.57-2.458 0-.929.19-1.745.57-2.45a4.035 4.035 0 0 1 1.595-1.63c.681-.385 1.462-.578 2.341-.578.877 0 1.655.193 2.334.578a4.006 4.006 0 0 1 1.59 1.63c.38.702.57 1.518.57 2.45 0 .934-.19 1.754-.57 2.458a4.041 4.041 0 0 1-1.59 1.63c-.679.383-1.457.574-2.334.574Zm0-1.643c.498 0 .93-.117 1.299-.35.37-.233.658-.575.862-1.026.204-.454.306-1 .306-1.639 0-.638-.102-1.183-.306-1.634-.204-.454-.492-.798-.862-1.031-.368-.236-.801-.354-1.299-.354-.503 0-.94.118-1.31.354-.371.233-.659.575-.863 1.026-.204.452-.306.998-.306 1.64 0 .64.102 1.186.306 1.638.204.451.492.793.862 1.026.371.233.808.35 1.311.35ZM133.15 48.613V29.811h2.575v18.802h-2.575ZM130.187 48.7c-.621 0-1.125-.096-1.512-.285a1.743 1.743 0 0 1-.839-.865c-.176-.387-.264-.882-.264-1.485l-.086-.442v-6.906c0-.449-.09-.816-.27-1.102-.176-.287-.473-.5-.892-.64-.413-.146-.974-.219-1.683-.219-.735 0-1.327.077-1.776.231-.449.154-.788.412-1.017.773-.229.36-.365.854-.409 1.479h-2.555c.053-.951.277-1.763.673-2.436.401-.678 1.017-1.202 1.849-1.572.836-.374 1.917-.56 3.242-.56 1.263 0 2.29.166 3.083.5.796.331 1.375.793 1.736 1.387.361.595.541 1.3.541 2.12v7.255c0 .145.024.27.073.376.053.102.134.18.244.238.115.053.258.08.429.08h.72v1.986a7.82 7.82 0 0 1-.621.06 8.5 8.5 0 0 1-.666.026Zm-7.031.237c-.982 0-1.838-.154-2.569-.462-.726-.313-1.287-.77-1.683-1.373-.392-.603-.588-1.332-.588-2.186 0-.761.168-1.43.502-2.007.335-.58.878-1.063 1.631-1.445.757-.388 1.745-.645 2.964-.773l2.007-.218c.458-.044.838-.132 1.142-.264.304-.136.533-.326.687-.568.158-.246.237-.554.237-.924l.872.277c-.005.788-.088 1.407-.251 1.855-.159.45-.423.786-.792 1.01-.366.22-.881.372-1.545.456l-1.901.231c-.731.088-1.31.231-1.737.43-.422.193-.724.442-.904.745-.176.3-.264.665-.264 1.096 0 .432.092.803.277 1.116.189.313.475.554.858.726.383.167.861.251 1.433.251.678 0 1.316-.132 1.914-.396a3.474 3.474 0 0 0 1.473-1.228c.378-.555.567-1.239.567-2.053h.905v1.624c-.211.88-.553 1.624-1.023 2.231a4.502 4.502 0 0 1-1.77 1.38c-.708.313-1.523.469-2.442.469ZM110.779 48.93c-1.276 0-2.403-.29-3.38-.871-.977-.581-1.736-1.409-2.277-2.482-.542-1.079-.812-2.338-.812-3.777 0-1.443.268-2.702.805-3.776.537-1.078 1.294-1.906 2.271-2.482.977-.581 2.111-.872 3.4-.872 1.122 0 2.115.207 2.978.62a5.258 5.258 0 0 1 2.086 1.763c.528.762.86 1.653.997 2.674h-2.635c-.114-.62-.338-1.142-.673-1.564a3.056 3.056 0 0 0-1.215-.944 3.826 3.826 0 0 0-1.545-.31c-.743 0-1.401.178-1.973.534-.568.357-1.015.902-1.341 1.637-.321.73-.482 1.638-.482 2.72 0 1.079.165 1.985.496 2.72.33.73.779 1.276 1.346 1.637.568.357 1.219.535 1.954.535a3.84 3.84 0 0 0 1.565-.317 3.14 3.14 0 0 0 1.228-.977c.339-.436.563-.973.673-1.61h2.615c-.137 1.051-.482 1.965-1.037 2.74a5.422 5.422 0 0 1-2.132 1.782c-.867.413-1.838.62-2.912.62ZM97.324 48.937c-1.214 0-2.253-.167-3.116-.502-.858-.334-1.53-.845-2.013-1.532-.48-.69-.753-1.564-.819-2.62h2.575c.066.642.224 1.155.475 1.538s.612.66 1.083.832c.475.171 1.091.257 1.849.257.704 0 1.28-.073 1.73-.218.448-.15.78-.365.996-.647.216-.286.324-.638.324-1.056 0-.387-.091-.706-.271-.957-.18-.256-.482-.47-.905-.64-.422-.172-1.005-.324-1.75-.456l-1.412-.245c-.92-.158-1.701-.407-2.344-.746-.638-.343-1.129-.787-1.472-1.333-.339-.55-.508-1.21-.508-1.98 0-.81.205-1.512.614-2.107.414-.594 1.012-1.052 1.796-1.373.787-.321 1.725-.482 2.812-.482 1.263 0 2.315.178 3.156.535.845.356 1.478.874 1.901 1.551.423.674.649 1.495.68 2.463h-2.509c-.031-.643-.176-1.147-.436-1.512a1.998 1.998 0 0 0-1.069-.766c-.458-.15-1.032-.224-1.723-.224-.577 0-1.063.072-1.46.218-.395.14-.697.347-.903.62-.203.269-.304.597-.304.984 0 .383.097.702.29.957.198.255.482.46.852.614.374.154.85.282 1.426.383l1.386.238c1.065.184 1.943.442 2.634.772.691.33 1.215.764 1.572 1.3.356.533.534 1.193.534 1.981 0 .88-.226 1.63-.68 2.252-.453.62-1.104 1.093-1.954 1.419-.85.321-1.861.482-3.037.482ZM89.26 48.7c-.62 0-1.125-.096-1.512-.285a1.743 1.743 0 0 1-.838-.865c-.176-.387-.264-.882-.264-1.485l-.086-.442v-6.906c0-.449-.09-.816-.27-1.102-.177-.287-.474-.5-.892-.64-.414-.146-.975-.219-1.683-.219-.736 0-1.328.077-1.776.231-.45.154-.788.412-1.017.773-.229.36-.365.854-.41 1.479h-2.554c.052-.951.277-1.763.673-2.436.4-.678 1.017-1.202 1.849-1.572.836-.374 1.916-.56 3.241-.56 1.263 0 2.29.166 3.083.5.797.331 1.376.793 1.736 1.387.361.595.542 1.3.542 2.12v7.255c0 .145.024.27.072.376.053.102.135.18.245.238.114.053.257.08.429.08H90.547v1.986a7.84 7.84 0 0 1-.62.06 8.526 8.526 0 0 1-.667.026Zm-7.03.237c-.982 0-1.839-.154-2.57-.462-.725-.313-1.286-.77-1.682-1.373-.392-.603-.588-1.332-.588-2.186 0-.761.167-1.43.502-2.007.334-.58.878-1.063 1.63-1.445.757-.388 1.745-.645 2.965-.773l2.007-.218c.457-.044.838-.132 1.142-.264.303-.136.532-.326.686-.568.159-.246.238-.554.238-.924l.871.277c-.004.788-.088 1.407-.25 1.855-.159.45-.423.786-.793 1.01-.365.22-.88.372-1.545.456l-1.9.231c-.731.088-1.31.231-1.737.43-.423.193-.724.442-.905.745-.176.3-.264.665-.264 1.096 0 .432.093.803.277 1.116.19.313.476.554.859.726.383.167.86.251 1.432.251a4.69 4.69 0 0 0 1.915-.396 3.47 3.47 0 0 0 1.472-1.228c.379-.555.568-1.239.568-2.053h.904v1.624c-.21.88-.552 1.624-1.023 2.231a4.503 4.503 0 0 1-1.77 1.38c-.708.313-1.522.469-2.442.469ZM69.818 48.93c-1.148 0-2.136-.295-2.964-.884-.827-.59-1.459-1.42-1.895-2.49-.43-1.073-.647-2.325-.647-3.756v-.053c0-1.417.218-2.658.654-3.723.436-1.07 1.067-1.895 1.895-2.476.827-.585 1.813-.878 2.957-.878 1.206 0 2.26.293 3.163.878.902.581 1.597 1.409 2.086 2.483.493 1.073.74 2.33.74 3.77 0 1.438-.247 2.695-.74 3.769-.489 1.074-1.184 1.903-2.086 2.489-.903.58-1.957.871-3.163.871ZM63.005 54V34.987h2.463v3.136h-.192v7.302h.304V54h-2.575Zm6.318-7.281c.766 0 1.435-.2 2.007-.601.577-.405 1.021-.984 1.334-1.736.312-.758.468-1.65.468-2.68 0-1.03-.156-1.907-.468-2.628-.308-.722-.748-1.268-1.32-1.638-.573-.37-1.246-.554-2.02-.554-.78 0-1.458.193-2.034.58-.577.388-1.021.951-1.334 1.69-.312.74-.469 1.623-.469 2.648 0 1.021.157 1.904.47 2.648.312.739.756 1.302 1.333 1.69.576.387 1.254.58 2.033.58Z"/><defs><clipPath id="a"><path fill="#fff" d="M12 12h42v42H12z"/></clipPath></defs></svg>