<svg xmlns="http://www.w3.org/2000/svg" width="66" height="66" fill="none"><g clip-path="url(#a)"><mask id="b" width="27" height="27" x="9" y="28" maskUnits="userSpaceOnUse" style="mask-type:alpha"><path fill="#004373" d="M9.289 28.75h26.25V55H9.289z"/></mask><g mask="url(#b)"><path stroke="#fff" stroke-width="2.625" d="M34.227 62.875c0 9.175-2.72 17.428-7.052 23.356-4.332 5.928-10.208 9.457-16.573 9.457-6.366 0-12.242-3.529-16.574-9.457-4.332-5.928-7.051-14.181-7.051-23.356 0-9.175 2.719-17.428 7.05-23.356 4.333-5.928 10.209-9.456 16.575-9.456 6.365 0 12.24 3.528 16.573 9.456 4.332 5.928 7.052 14.181 7.052 23.356Z"/></g><mask id="c" width="27" height="27" x="9" y="23" maskUnits="userSpaceOnUse" style="mask-type:alpha"><path fill="#004373" d="M9.289 23.5h26.25v26.25H9.289z"/></mask><g mask="url(#c)"><path stroke="#fff" stroke-width="2.625" d="M34.227 57.625c0 9.175-2.72 17.428-7.052 23.356-4.332 5.928-10.208 9.457-16.573 9.457-6.366 0-12.242-3.529-16.574-9.457-4.332-5.928-7.051-14.181-7.051-23.356 0-9.175 2.719-17.428 7.05-23.356 4.333-5.928 10.209-9.456 16.575-9.456 6.365 0 12.24 3.528 16.573 9.456 4.332 5.928 7.052 14.181 7.052 23.356Z"/></g><mask id="d" width="27" height="27" x="9" y="18" maskUnits="userSpaceOnUse" style="mask-type:alpha"><path fill="#004373" d="M9.289 18.25h26.25V44.5H9.289z"/></mask><g mask="url(#d)"><path stroke="#fff" stroke-width="2.625" d="M34.227 52.375c0 9.175-2.72 17.428-7.052 23.356-4.332 5.928-10.208 9.457-16.573 9.457-6.366 0-12.242-3.529-16.574-9.457-4.332-5.928-7.051-14.181-7.051-23.356 0-9.175 2.719-17.428 7.05-23.356 4.333-5.928 10.209-9.456 16.575-9.456 6.365 0 12.24 3.528 16.573 9.456 4.332 5.928 7.052 14.181 7.052 23.356Z"/></g><mask id="e" width="27" height="27" x="9" y="13" maskUnits="userSpaceOnUse" style="mask-type:alpha"><path fill="#004373" d="M9.289 13h26.25v26.25H9.289z"/></mask><g mask="url(#e)"><path stroke="#fff" stroke-width="2.625" d="M34.227 47.125c0 9.175-2.72 17.428-7.052 23.356-4.332 5.928-10.208 9.457-16.573 9.457-6.366 0-12.242-3.529-16.574-9.457-4.332-5.928-7.051-14.181-7.051-23.356 0-9.175 2.719-17.428 7.05-23.356 4.333-5.928 10.209-9.456 16.575-9.456 6.365 0 12.24 3.528 16.573 9.456 4.332 5.928 7.052 14.181 7.052 23.356Z"/></g><mask id="f" width="27" height="27" x="30" y="11" maskUnits="userSpaceOnUse" style="mask-type:alpha"><path fill="#004373" d="M56.703 37.25h-26.25V11h26.25z"/></mask><g mask="url(#f)"><path stroke="#fff" stroke-width="2.625" d="M31.766 3.125c0-9.175 2.719-17.428 7.05-23.356 4.333-5.928 10.209-9.456 16.575-9.456 6.365 0 12.24 3.528 16.573 9.456 4.332 5.928 7.052 14.181 7.052 23.356 0 9.175-2.72 17.428-7.052 23.356-4.332 5.928-10.208 9.456-16.573 9.456-6.366 0-12.242-3.528-16.574-9.456-4.332-5.928-7.051-14.181-7.051-23.356Z"/></g><mask id="g" width="27" height="27" x="30" y="16" maskUnits="userSpaceOnUse" style="mask-type:alpha"><path fill="#004373" d="M56.703 42.5h-26.25V16.25h26.25z"/></mask><g mask="url(#g)"><path stroke="#fff" stroke-width="2.625" d="M31.766 8.375c0-9.175 2.719-17.428 7.05-23.356 4.333-5.928 10.209-9.457 16.575-9.457 6.365 0 12.24 3.529 16.573 9.457C76.296-9.053 79.016-.8 79.016 8.375c0 9.175-2.72 17.428-7.052 23.356-4.332 5.928-10.208 9.456-16.573 9.456-6.366 0-12.242-3.528-16.574-9.456-4.332-5.928-7.051-14.181-7.051-23.356Z"/></g><mask id="h" width="27" height="27" x="30" y="21" maskUnits="userSpaceOnUse" style="mask-type:alpha"><path fill="#004373" d="M56.703 47.75h-26.25V21.5h26.25z"/></mask><g mask="url(#h)"><path stroke="#fff" stroke-width="2.625" d="M31.766 13.625c0-9.175 2.719-17.428 7.05-23.356 4.333-5.928 10.209-9.457 16.575-9.457 6.365 0 12.24 3.529 16.573 9.457 4.332 5.928 7.052 14.181 7.052 23.356 0 9.175-2.72 17.428-7.052 23.356-4.332 5.928-10.208 9.456-16.573 9.456-6.366 0-12.242-3.528-16.574-9.456-4.332-5.928-7.051-14.181-7.051-23.356Z"/></g><mask id="i" width="27" height="27" x="30" y="26" maskUnits="userSpaceOnUse" style="mask-type:alpha"><path fill="#004373" d="M56.703 53h-26.25V26.75h26.25z"/></mask><g mask="url(#i)"><path stroke="#fff" stroke-width="2.625" d="M31.766 18.875c0-9.175 2.719-17.428 7.05-23.356 4.333-5.928 10.209-9.457 16.575-9.457 6.365 0 12.24 3.529 16.573 9.457 4.332 5.928 7.052 14.181 7.052 23.356 0 9.175-2.72 17.428-7.052 23.356-4.332 5.928-10.208 9.456-16.573 9.456-6.366 0-12.242-3.528-16.574-9.456-4.332-5.928-7.051-14.181-7.051-23.356Z"/></g><path fill="#fff" d="M31 12h2v17h-2zM33 37h2v17h-2z"/></g><defs><clipPath id="a"><path fill="#fff" d="M12 12h42v42H12z"/></clipPath></defs></svg>