<svg width="100" height="100" viewBox="0 0 100 100" fill="none" xmlns="http://www.w3.org/2000/svg">
<g clip-path="url(#clip0_1_9)">
<rect width="100" height="100" fill="url(#paint0_linear_1_9)"/>
<path d="M43.152 97.832C39.6747 97.832 36.5813 97.0427 33.872 95.464C31.1627 93.8853 29.0293 91.528 27.472 88.392C25.936 85.256 25.168 81.3413 25.168 76.648C25.168 71.8693 25.936 67.9227 27.472 64.808C29.0293 61.672 31.1627 59.336 33.872 57.8C36.5813 56.264 39.6747 55.496 43.152 55.496C46.6507 55.496 49.7547 56.2747 52.464 57.832C55.1947 59.3893 57.328 61.7467 58.864 64.904C60.4213 68.04 61.2 71.9547 61.2 76.648C61.2 81.384 60.4213 85.3307 58.864 88.488C57.328 91.624 55.1947 93.9707 52.464 95.528C49.7547 97.064 46.6507 97.832 43.152 97.832ZM43.152 92.264C46.7787 92.264 49.6373 90.9307 51.728 88.264C53.84 85.5973 54.896 81.704 54.896 76.584C54.896 71.592 53.84 67.7413 51.728 65.032C49.6373 62.3013 46.7787 60.936 43.152 60.936C39.5893 60.936 36.752 62.3013 34.64 65.032C32.528 67.7627 31.472 71.6347 31.472 76.648C31.472 81.7253 32.528 85.5973 34.64 88.264C36.752 90.9307 39.5893 92.264 43.152 92.264ZM70.3925 97V56.232H84.0565C88.6005 56.232 92.0992 57.3627 94.5525 59.624C97.0058 61.8853 98.2325 65.0107 98.2325 69C98.2325 72.9467 97.0058 76.0507 94.5525 78.312C92.0992 80.552 88.6005 81.672 84.0565 81.672H76.5365V97H70.3925ZM76.5365 76.36H84.0565C86.6592 76.36 88.6325 75.688 89.9765 74.344C91.3205 73 91.9925 71.2187 91.9925 69C91.9925 66.76 91.3205 64.9467 89.9765 63.56C88.6325 62.1733 86.6592 61.48 84.0565 61.48H76.5365V76.36Z" fill="black"/>
</g>
<defs>
<linearGradient id="paint0_linear_1_9" x1="50" y1="0" x2="50" y2="100" gradientUnits="userSpaceOnUse">
<stop stop-color="#B1DAFF"/>
<stop offset="1" stop-color="#0085FF"/>
</linearGradient>
<clipPath id="clip0_1_9">
<rect width="100" height="100" fill="white"/>
</clipPath>
</defs>
</svg>
