<svg width="100" height="119" viewBox="0 0 100 119" fill="none" xmlns="http://www.w3.org/2000/svg">
<path d="M7.19873 33.2887L50 8.57735L92.8013 33.2887V82.7113L50 107.423L7.19873 82.7113V33.2887Z" fill="url(#paint0_linear_1_5)" stroke="#6D6D6D"/>
<mask id="path-2-outside-1_1_5" maskUnits="userSpaceOnUse" x="31" y="25" width="47" height="68" fill="black">
<rect fill="white" x="31" y="25" width="47" height="68"/>
<path d="M32.9476 92V26.3H54.8176C59.1976 26.3 63.0076 27.14 66.2476 28.82C69.5476 30.5 72.0976 32.87 73.8976 35.93C75.6976 38.93 76.5976 42.47 76.5976 46.55C76.5976 50.63 75.6976 54.2 73.8976 57.26C72.0976 60.26 69.5476 62.6 66.2476 64.28C63.0076 65.96 59.1976 66.8 54.8176 66.8H44.1976V92H32.9476ZM44.1976 56.9H54.8176C57.9976 56.9 60.5176 55.94 62.3776 54.02C64.2376 52.1 65.1676 49.61 65.1676 46.55C65.1676 43.49 64.2376 41 62.3776 39.08C60.5176 37.16 57.9976 36.2 54.8176 36.2H44.1976V56.9Z"/>
</mask>
<path d="M32.9476 92V26.3H54.8176C59.1976 26.3 63.0076 27.14 66.2476 28.82C69.5476 30.5 72.0976 32.87 73.8976 35.93C75.6976 38.93 76.5976 42.47 76.5976 46.55C76.5976 50.63 75.6976 54.2 73.8976 57.26C72.0976 60.26 69.5476 62.6 66.2476 64.28C63.0076 65.96 59.1976 66.8 54.8176 66.8H44.1976V92H32.9476ZM44.1976 56.9H54.8176C57.9976 56.9 60.5176 55.94 62.3776 54.02C64.2376 52.1 65.1676 49.61 65.1676 46.55C65.1676 43.49 64.2376 41 62.3776 39.08C60.5176 37.16 57.9976 36.2 54.8176 36.2H44.1976V56.9Z" fill="white"/>
<path d="M32.9476 92H31.9476V93H32.9476V92ZM32.9476 26.3V25.3H31.9476V26.3H32.9476ZM66.2476 28.82L65.7873 29.7078L65.7939 29.7112L66.2476 28.82ZM73.8976 35.93L73.0356 36.437L73.0401 36.4445L73.8976 35.93ZM73.8976 57.26L74.7551 57.7745L74.7595 57.767L73.8976 57.26ZM66.2476 64.28L65.7939 63.3888L65.7873 63.3922L66.2476 64.28ZM44.1976 66.8V65.8H43.1976V66.8H44.1976ZM44.1976 92V93H45.1976V92H44.1976ZM44.1976 56.9H43.1976V57.9H44.1976V56.9ZM62.3776 54.02L61.6593 53.3242L61.6593 53.3242L62.3776 54.02ZM62.3776 39.08L61.6593 39.7758L61.6593 39.7758L62.3776 39.08ZM44.1976 36.2V35.2H43.1976V36.2H44.1976ZM33.9476 92V26.3H31.9476V92H33.9476ZM32.9476 27.3H54.8176V25.3H32.9476V27.3ZM54.8176 27.3C59.0692 27.3 62.7153 28.1149 65.7873 29.7078L66.7079 27.9322C63.2999 26.1651 59.326 25.3 54.8176 25.3V27.3ZM65.7939 29.7112C68.9317 31.3086 71.3366 33.5487 73.0356 36.437L74.7595 35.423C72.8585 32.1913 70.1635 29.6914 66.7013 27.9288L65.7939 29.7112ZM73.0401 36.4445C74.7323 39.2648 75.5976 42.6207 75.5976 46.55H77.5976C77.5976 42.3193 76.6629 38.5952 74.7551 35.4155L73.0401 36.4445ZM75.5976 46.55C75.5976 50.4787 74.7325 53.8684 73.0356 56.753L74.7595 57.767C76.6627 54.5316 77.5976 50.7813 77.5976 46.55H75.5976ZM73.0401 56.7455C71.3424 59.575 68.9368 61.7888 65.7939 63.3888L66.7013 65.1712C70.1583 63.4112 72.8528 60.945 74.7551 57.7745L73.0401 56.7455ZM65.7873 63.3922C62.7153 64.9851 59.0692 65.8 54.8176 65.8V67.8C59.326 67.8 63.2999 66.9349 66.7079 65.1678L65.7873 63.3922ZM54.8176 65.8H44.1976V67.8H54.8176V65.8ZM43.1976 66.8V92H45.1976V66.8H43.1976ZM44.1976 91H32.9476V93H44.1976V91ZM44.1976 57.9H54.8176V55.9H44.1976V57.9ZM54.8176 57.9C58.2129 57.9 61.0121 56.8667 63.0958 54.7158L61.6593 53.3242C60.023 55.0133 57.7822 55.9 54.8176 55.9V57.9ZM63.0958 54.7158C65.1629 52.582 66.1676 49.8291 66.1676 46.55H64.1676C64.1676 49.3909 63.3122 51.618 61.6593 53.3242L63.0958 54.7158ZM66.1676 46.55C66.1676 43.2709 65.1629 40.518 63.0958 38.3842L61.6593 39.7758C63.3122 41.482 64.1676 43.7091 64.1676 46.55H66.1676ZM63.0958 38.3842C61.0121 36.2333 58.2129 35.2 54.8176 35.2V37.2C57.7822 37.2 60.023 38.0867 61.6593 39.7758L63.0958 38.3842ZM54.8176 35.2H44.1976V37.2H54.8176V35.2ZM43.1976 36.2V56.9H45.1976V36.2H43.1976Z" fill="#5F5F5F" mask="url(#path-2-outside-1_1_5)"/>
<defs>
<linearGradient id="paint0_linear_1_5" x1="29" y1="20" x2="73.5" y2="93.5" gradientUnits="userSpaceOnUse">
<stop stop-color="#0075FF"/>
<stop offset="1" stop-color="#FFC907"/>
</linearGradient>
</defs>
</svg>
