<svg width="100" height="100" viewBox="0 0 100 100" fill="none" xmlns="http://www.w3.org/2000/svg">
<rect width="100" height="100" rx="10" fill="url(#paint0_linear_2001_12)"/>
<rect x="30" y="17" width="20" height="20" fill="white"/>
<rect x="30" y="63" width="20" height="20" fill="white"/>
<rect x="30" y="40" width="20" height="20" fill="white"/>
<path d="M78.138 27.3853L79.8881 26.4173H79.8881L78.138 27.3853ZM78.6144 28.2466L76.8643 29.2147V29.2147L78.6144 28.2466ZM50 50L70 61.547V38.453L50 50ZM77.8682 43.6434L79.5165 44.7762L77.8682 43.6434ZM50 21L63.9175 21V17L50 17V21ZM76.3879 28.3534L76.8643 29.2147L80.3645 27.2786L79.8881 26.4173L76.3879 28.3534ZM76.2199 42.5107C73.8585 45.9469 69.9566 48 65.7872 48V52C71.274 52 76.409 49.2982 79.5165 44.7762L76.2199 42.5107ZM63.9175 21C69.1025 21 73.8783 23.8162 76.3879 28.3534L79.8881 26.4173C76.6742 20.6066 70.5578 17 63.9175 17V21ZM76.8643 29.2147C79.1853 33.411 78.9358 38.5585 76.2199 42.5107L79.5165 44.7762C83.0906 39.5751 83.419 32.8009 80.3645 27.2786L76.8643 29.2147Z" fill="white"/>
<defs>
<linearGradient id="paint0_linear_2001_12" x1="50" y1="0" x2="50" y2="100" gradientUnits="userSpaceOnUse">
<stop stop-color="#B1DAFF"/>
<stop offset="1" stop-color="#0085FF"/>
</linearGradient>
</defs>
</svg>
