<svg width="100" height="100" viewBox="0 0 100 100" fill="none" xmlns="http://www.w3.org/2000/svg">
<rect width="100" height="100" rx="10" fill="#032878"/>
<g filter="url(#filter0_d_2004_2)">
<path d="M6.32 75.312C6.32 74.416 6.624 73.656 7.232 73.032C7.856 72.408 8.64 72.096 9.584 72.096C10.528 72.096 11.328 72.408 11.984 73.032C12.64 73.656 12.968 74.416 12.968 75.312C12.968 76.192 12.64 76.936 11.984 77.544C11.328 78.136 10.528 78.432 9.584 78.432C8.64 78.432 7.856 78.128 7.232 77.52C6.624 76.912 6.32 76.176 6.32 75.312ZM29.9521 78.624C28.2721 78.624 26.8161 78.248 25.5841 77.496C24.3521 76.728 23.4081 75.608 22.7521 74.136C22.1121 72.648 21.7921 70.808 21.7921 68.616H23.5681C23.5681 69.88 23.8401 70.952 24.3841 71.832C24.9281 72.696 25.6401 73.36 26.5201 73.824C27.4161 74.272 28.3681 74.496 29.3761 74.496C30.4321 74.496 31.4561 74.2 32.4481 73.608C33.4561 73 34.2801 72.096 34.9201 70.896C35.5601 69.696 35.8801 68.208 35.8801 66.432C35.8801 64.736 35.5921 63.288 35.0161 62.088C34.4561 60.888 33.6881 59.968 32.7121 59.328C31.7361 58.688 30.6401 58.368 29.4241 58.368C28.4001 58.368 27.4401 58.616 26.5441 59.112C25.6481 59.592 24.9281 60.304 24.3841 61.248C23.8401 62.176 23.5681 63.312 23.5681 64.656H21.7921C21.7921 62.336 22.1601 60.408 22.8961 58.872C23.6481 57.336 24.6561 56.192 25.9201 55.44C27.1841 54.672 28.5841 54.288 30.1201 54.288C31.9281 54.288 33.6241 54.776 35.2081 55.752C36.7921 56.712 38.0721 58.096 39.0481 59.904C40.0401 61.712 40.5361 63.888 40.5361 66.432C40.5361 68.976 40.0401 71.16 39.0481 72.984C38.0561 74.808 36.7521 76.208 35.1361 77.184C33.5361 78.144 31.8081 78.624 29.9521 78.624ZM19.0081 89.328V54.912H22.7761L23.5681 60.456V89.328H19.0081ZM62.0739 78L61.4979 72.696V63.072C61.4979 61.184 61.1059 59.816 60.3219 58.968C59.5379 58.104 58.2979 57.672 56.6019 57.672C55.6419 57.672 54.7859 57.816 54.0339 58.104C53.2979 58.376 52.7139 58.792 52.2819 59.352C51.8659 59.912 51.6579 60.616 51.6579 61.464H46.6179C46.6179 59.768 47.0339 58.392 47.8659 57.336C48.6979 56.28 49.8579 55.512 51.3459 55.032C52.8499 54.536 54.6019 54.288 56.6019 54.288C58.4739 54.288 60.1219 54.6 61.5459 55.224C62.9699 55.832 64.0739 56.792 64.8579 58.104C65.6579 59.416 66.0579 61.112 66.0579 63.192V78H62.0739ZM54.3459 78.624C52.4099 78.624 50.8019 78.288 49.5219 77.616C48.2419 76.928 47.2819 76.032 46.6419 74.928C46.0179 73.824 45.7059 72.648 45.7059 71.4C45.7059 69.88 46.0899 68.632 46.8579 67.656C47.6419 66.664 48.7219 65.928 50.0979 65.448C51.4739 64.968 53.0579 64.728 54.8499 64.728C56.0819 64.728 57.2819 64.84 58.4499 65.064C59.6179 65.288 60.7699 65.584 61.9059 65.952V68.712C60.9779 68.376 59.9459 68.112 58.8099 67.92C57.6899 67.712 56.6419 67.608 55.6659 67.608C54.2099 67.608 52.9939 67.896 52.0179 68.472C51.0419 69.048 50.5539 70.024 50.5539 71.4C50.5539 72.408 50.9379 73.28 51.7059 74.016C52.4739 74.736 53.6899 75.096 55.3539 75.096C56.5699 75.096 57.6419 74.824 58.5699 74.28C59.4979 73.72 60.2179 73.024 60.7299 72.192C61.2419 71.36 61.4979 70.528 61.4979 69.696H62.6019C62.6019 71.296 62.2739 72.776 61.6179 74.136C60.9779 75.48 60.0419 76.568 58.8099 77.4C57.5779 78.216 56.0899 78.624 54.3459 78.624ZM83.1905 78.624C80.9505 78.624 79.0625 78.312 77.5265 77.688C75.9905 77.048 74.8145 76.168 73.9985 75.048C73.1985 73.912 72.7825 72.584 72.7505 71.064H77.0465C77.1105 72.392 77.6385 73.376 78.6305 74.016C79.6385 74.656 80.9985 74.976 82.7105 74.976C83.6225 74.976 84.4465 74.832 85.1825 74.544C85.9345 74.256 86.5265 73.864 86.9585 73.368C87.4065 72.872 87.6305 72.312 87.6305 71.688C87.6305 70.904 87.3425 70.288 86.7665 69.84C86.1905 69.376 85.2625 68.968 83.9825 68.616L79.2545 67.008C77.3665 66.368 75.9185 65.52 74.9105 64.464C73.9025 63.392 73.3985 62.112 73.3985 60.624C73.3985 58.72 74.2465 57.192 75.9425 56.04C77.6385 54.872 79.8865 54.288 82.6865 54.288C85.5825 54.288 87.8145 54.904 89.3825 56.136C90.9665 57.352 91.7905 58.88 91.8545 60.72H87.4625C87.3505 59.808 86.8945 59.112 86.0945 58.632C85.3105 58.136 84.1745 57.888 82.6865 57.888C81.2945 57.888 80.1985 58.192 79.3985 58.8C78.6145 59.408 78.2225 60.096 78.2225 60.864C78.2225 62.24 79.4065 63.264 81.7745 63.936L86.7425 65.688C88.6305 66.296 90.0865 67.08 91.1105 68.04C92.1345 69 92.6465 70.216 92.6465 71.688C92.6465 72.872 92.2545 73.992 91.4705 75.048C90.6865 76.104 89.5825 76.968 88.1585 77.64C86.7505 78.296 85.0945 78.624 83.1905 78.624Z" fill="#F6FF00"/>
</g>
<defs>
<filter id="filter0_d_2004_2" x="2.32001" y="54.288" width="94.3265" height="43.04" filterUnits="userSpaceOnUse" color-interpolation-filters="sRGB">
<feFlood flood-opacity="0" result="BackgroundImageFix"/>
<feColorMatrix in="SourceAlpha" type="matrix" values="0 0 0 0 0 0 0 0 0 0 0 0 0 0 0 0 0 0 127 0" result="hardAlpha"/>
<feOffset dy="4"/>
<feGaussianBlur stdDeviation="2"/>
<feComposite in2="hardAlpha" operator="out"/>
<feColorMatrix type="matrix" values="0 0 0 0 0 0 0 0 0 0 0 0 0 0 0 0 0 0 0.25 0"/>
<feBlend mode="normal" in2="BackgroundImageFix" result="effect1_dropShadow_2004_2"/>
<feBlend mode="normal" in="SourceGraphic" in2="effect1_dropShadow_2004_2" result="shape"/>
</filter>
</defs>
</svg>
