<?xml version="1.0" encoding="UTF-8" standalone="no"?>
<svg
   width="702.68317"
   height="703.4137"
   viewBox="0 0 702.68317 703.4137"
   version="1.1"
   xml:space="preserve"
   id="SVGRoot"
   sodipodi:docname="logo1-yellow.svg"
   inkscape:version="1.3.2 (091e20ef0f, 2023-11-25)"
   xmlns:inkscape="http://www.inkscape.org/namespaces/inkscape"
   xmlns:sodipodi="http://sodipodi.sourceforge.net/DTD/sodipodi-0.dtd"
   xmlns:xlink="http://www.w3.org/1999/xlink"
   xmlns="http://www.w3.org/2000/svg"
   xmlns:svg="http://www.w3.org/2000/svg"><defs
   id="defs48"><linearGradient
     id="linearGradient3"
     inkscape:collect="always"><stop
       style="stop-color:#64b5f6;stop-opacity:1;"
       offset="0"
       id="stop3" /><stop
       style="stop-color:#0a5ac1;stop-opacity:1;"
       offset="0.71666759"
       id="stop4" /></linearGradient><linearGradient
     inkscape:collect="always"
     xlink:href="#linearGradient3"
     id="linearGradient4"
     x1="444.26062"
     y1="89.199318"
     x2="444.26062"
     y2="786.52948"
     gradientUnits="userSpaceOnUse"
     spreadMethod="pad"
     gradientTransform="matrix(1.0003743,0,0,1.0003743,-91.565419,-85.771718)" /></defs>
<sodipodi:namedview
   pagecolor="#a9a9a9"
   bordercolor="#292929"
   borderopacity="1"
   inkscape:showpageshadow="2"
   inkscape:pageopacity="0.0"
   inkscape:pagecheckerboard="0"
   inkscape:deskcolor="#232323"
   id="namedview1"
   inkscape:zoom="1.2743636"
   inkscape:cx="356.6486"
   inkscape:cy="388.82153"
   inkscape:window-width="1874"
   inkscape:window-height="1011"
   inkscape:window-x="0"
   inkscape:window-y="0"
   inkscape:window-maximized="1"
   inkscape:current-layer="SVGRoot" />
<style
   type="text/css"
   id="style1">
g.prefab path {
  vector-effect:non-scaling-stroke;
  -inkscape-stroke:hairline;
  fill: none;
  fill-opacity: 1;
  stroke-opacity: 1;
  stroke: #00349c;
}
</style>

<rect
   style="display:inline;fill:url(#linearGradient4);fill-opacity:1;stroke:none;stroke-width:0;stroke-linejoin:round;stroke-dasharray:none;stroke-opacity:1;paint-order:normal"
   id="rect49"
   width="700.26202"
   height="700.26202"
   x="2.4211659"
   y="3.151669"
   rx="60"
   ry="60" /><path
   style="font-weight:bold;font-size:186.667px;font-family:'Clear Sans';-inkscape-font-specification:'Clear Sans Bold';letter-spacing:-15px;fill:#f7e791"
   d="m 261.28715,438.92038 q 0,32.9037 -13.94533,49.30998 -13.8542,16.40628 -40.37768,16.40628 -27.98182,0 -41.19799,-17.22659 -13.12503,-17.31774 -13.12503,-48.48967 0,-31.35423 13.12503,-48.48968 13.21617,-17.22659 41.19799,-17.22659 28.16411,0 41.19799,17.22659 13.12502,17.13545 13.12502,48.48968 z m -26.52348,0 q 0,-22.42192 -6.38022,-32.63027 -6.28908,-10.2995 -21.41931,-10.2995 -15.13024,0 -21.51046,10.2995 -6.28907,10.20835 -6.28907,32.63027 0,22.42191 6.38022,32.72141 6.47136,10.20835 21.41931,10.20835 15.13023,0 21.41931,-10.20835 6.38022,-10.2995 6.38022,-32.72141 z m 121.81014,14.58336 q 0,23.7891 -10.02606,37.55215 -9.93491,13.76304 -28.43755,13.76304 -7.29168,0 -15.95055,-3.28125 -8.56772,-3.3724 -13.6719,-8.47658 l -3.19011,8.93231 h -17.95576 v -135.7164 h 23.51567 v 47.76051 q 12.94273,-10.39065 28.61984,-10.39065 19.23181,0 28.16412,13.30732 8.9323,13.21617 8.9323,36.54955 z m -24.24483,0.36458 q 0,-14.76565 -4.64845,-22.14848 -4.64844,-7.38282 -14.94794,-7.38282 -5.7422,0 -11.66669,2.73438 -5.83334,2.64323 -10.20835,6.56251 v 41.83601 q 3.91928,3.3724 9.47918,6.01564 5.65105,2.55209 10.93752,2.55209 10.11721,0 15.58597,-7.65627 5.46876,-7.74741 5.46876,-22.51306 z m 57.09649,-73.55482 q 0,6.65366 -3.28125,9.29689 -3.28126,2.64323 -9.93492,2.64323 -7.47397,0 -10.20835,-3.09896 -2.73438,-3.09896 -2.73438,-8.84116 0,-6.38022 2.91667,-9.1146 2.91667,-2.82553 10.02606,-2.82553 7.10939,0 10.11721,2.73438 3.09896,2.64324 3.09896,9.20575 z m -1.27604,125.78148 q 0,17.13545 -7.65627,24.51827 -7.65626,7.38283 -25.06515,7.38283 -3.91927,0 -10.29949,-0.91146 -6.38022,-0.82032 -9.84377,-1.82292 l 5.10417,-20.41671 q 6.65366,2.64324 13.76305,2.64324 7.10939,0 8.75002,-4.37501 1.73177,-4.37501 1.73177,-14.49221 v -92.23976 h 23.51567 z m 30.84642,-45.75529 q 0.63803,12.76044 6.19793,18.32034 5.55991,5.55991 17.50003,5.55991 6.9271,0 12.12242,-1.73178 5.28647,-1.73177 9.20575,-6.65365 l 17.50003,12.487 q -5.7422,8.29428 -14.94794,12.39585 -9.1146,4.10157 -24.97401,4.10157 -23.60681,0 -35.2735,-12.39585 -11.57554,-12.39586 -11.57554,-37.46101 0,-51.3152 45.93758,-51.3152 20.41671,0 31.08079,11.57555 10.75523,11.48439 10.75523,33.54172 v 11.57555 z m 40.19539,-16.22399 q 0,-21.7839 -19.04951,-21.7839 -6.28908,0 -10.2995,2.18751 -4.01043,2.09636 -6.47137,6.38022 -2.36979,4.19271 -3.73698,13.21617 z m 108.59397,44.20581 q -5.46876,8.11199 -14.40107,12.30471 -8.93231,4.19271 -22.60421,4.19271 -23.15108,0 -35.00006,-12.57814 -11.84898,-12.6693 -11.84898,-37.46101 0,-24.15369 11.48439,-37.6433 11.4844,-13.48961 34.45319,-13.48961 12.30471,0 21.87504,4.01043 9.66148,4.01042 14.67451,12.39585 l -17.50003,12.48701 q -3.19011,-4.28387 -7.47398,-6.28908 -4.28386,-2.09636 -11.02866,-2.09636 -12.03127,0 -17.13545,7.38283 -5.10418,7.38283 -5.10418,22.87765 0,15.49482 5.19533,22.69535 5.28646,7.10939 17.95576,7.10939 5.46876,0 10.02606,-1.54948 4.5573,-1.54949 8.65887,-6.83595 z m 55.36472,13.6719 q -9.47919,2.82552 -19.96098,2.82552 -16.58857,0 -23.88025,-7.47397 -7.29168,-7.47397 -7.29168,-24.24483 V 425.06618 H 559.8946 v -18.68493 h 12.12242 v -26.61463 h 23.51567 v 26.61463 h 22.23962 v 18.68493 h -22.23962 v 45.02613 q 0,8.93231 2.73438,12.12242 2.82552,3.19011 7.9297,3.19011 6.47137,0 12.85159,-2.64324 z"
   id="text2"
   aria-label="Object" /><path
   style="font-weight:bold;font-size:186.667px;font-family:'Clear Sans';-inkscape-font-specification:'Clear Sans';letter-spacing:-15px;fill:#f7e791"
   d="m 157.71228,570.7177 q 0,22.7865 -10.75523,33.81517 -10.66408,11.02866 -34.72663,11.02866 H 91.266841 v 39.01049 H 65.563669 V 528.42596 h 47.395921 q 21.41931,0 33.086,10.02606 11.66669,9.93491 11.66669,32.26568 z m -26.52349,0.18229 q 0,-10.66408 -5.92449,-15.40367 -5.83334,-4.73959 -21.14587,-4.73959 H 91.266841 v 42.38289 h 10.481789 q 14.12763,0 19.50525,-1.91407 5.46876,-2.00521 7.65626,-6.65366 2.27865,-4.64844 2.27865,-13.6719 z m 86.44549,83.67203 v -9.93491 q -13.94533,12.76044 -29.89588,12.76044 -15.85941,0 -23.9714,-8.29429 -8.11199,-8.38543 -8.11199,-21.41931 0,-10.20835 4.10157,-16.86201 4.19271,-6.65366 12.30471,-10.39064 8.20314,-3.82813 23.51566,-5.37762 l 20.14327,-1.91406 v -4.28386 q 0,-8.02085 -4.83074,-10.93752 -4.83074,-3.00782 -14.12763,-3.00782 -7.65626,0 -13.21617,2.55209 -5.46876,2.55208 -8.11199,7.29168 l -18.32035,-11.75784 q 4.83074,-8.11199 15.13024,-12.39585 10.2995,-4.37501 24.88286,-4.37501 22.33076,0 32.17453,7.83855 9.93492,7.74741 9.93492,25.52088 v 64.9871 z m -1.91406,-44.3881 -11.94013,1.09375 q -12.66929,1.09375 -18.32034,4.83074 -5.55991,3.73699 -5.55991,11.21096 0,6.56251 3.64584,9.02345 3.64584,2.3698 9.66148,2.3698 4.28386,0 10.39064,-2.64324 6.19793,-2.73438 12.12242,-7.65626 z m 107.31794,17.13545 q 0,9.47918 -4.83074,16.22399 -4.73959,6.7448 -13.58076,10.29949 -8.75001,3.5547 -20.05212,3.5547 -29.98703,0 -40.8334,-16.67972 l 17.50003,-12.30471 q 4.28386,5.83334 9.84377,7.83856 5.65105,1.91406 12.03127,1.91406 16.77086,0 16.77086,-9.75262 0,-4.28386 -4.73959,-6.56251 -4.73959,-2.3698 -14.8568,-4.83074 -19.04951,-4.19272 -26.79692,-11.84898 -7.74741,-7.65626 -7.74741,-19.86983 0,-12.66929 9.66148,-20.87243 9.75262,-8.20314 28.61984,-8.20314 12.85158,0 22.60421,4.10157 9.84376,4.10157 15.13023,12.30471 l -17.59118,12.487 q -6.28907,-9.66148 -20.50785,-9.66148 -7.29167,0 -11.02866,2.55209 -3.73699,2.46094 -3.73699,6.38022 0,3.73699 3.37241,6.01564 3.3724,2.1875 13.30731,4.64844 16.31513,4.01043 23.24223,8.02085 7.01824,3.91928 10.57294,9.84377 3.64584,5.83334 3.64584,14.40107 z m 84.53141,13.58075 q -5.46876,8.112 -14.40107,12.30471 -8.93231,4.19272 -22.60421,4.19272 -23.15108,0 -35.00006,-12.57815 -11.84898,-12.66929 -11.84898,-37.46101 0,-24.15369 11.4844,-37.64329 11.48439,-13.48961 34.45318,-13.48961 12.30471,0 21.87504,4.01042 9.66148,4.01043 14.67451,12.39586 l -17.50003,12.487 q -3.19011,-4.28386 -7.47397,-6.28907 -4.28387,-2.09636 -11.02867,-2.09636 -12.03127,0 -17.13545,7.38282 -5.10417,7.38283 -5.10417,22.87765 0,15.49482 5.19532,22.69535 5.28647,7.10939 17.95576,7.10939 5.46876,0 10.02606,-1.54948 4.5573,-1.54948 8.65887,-6.83595 z m 58.91941,13.6719 v -9.93491 q -13.94533,12.76044 -29.89588,12.76044 -15.85941,0 -23.9714,-8.29429 -8.112,-8.38543 -8.112,-21.41931 0,-10.20835 4.10157,-16.86201 4.19272,-6.65366 12.30471,-10.39064 8.20314,-3.82813 23.51567,-5.37762 l 20.14327,-1.91406 v -4.28386 q 0,-8.02085 -4.83074,-10.93752 -4.83074,-3.00782 -14.12763,-3.00782 -7.65626,0 -13.21617,2.55209 -5.46876,2.55208 -8.11199,7.29168 l -18.32035,-11.75784 q 4.83074,-8.11199 15.13024,-12.39585 10.29949,-4.37501 24.88285,-4.37501 22.33077,0 32.17454,7.83855 9.93492,7.74741 9.93492,25.52088 v 64.9871 z m -1.91406,-44.3881 -11.94013,1.09375 q -12.66929,1.09375 -18.32034,4.83074 -5.55991,3.73699 -5.55991,11.21096 0,6.56251 3.64584,9.02345 3.64584,2.3698 9.66148,2.3698 4.28386,0 10.39064,-2.64324 6.19793,-2.73438 12.12242,-7.65626 z m 34.31,44.3881 V 518.85563 h 23.51566 v 135.71639 z"
   id="text3"
   aria-label="Pascal" /></svg>
