<?xml version="1.0" encoding="UTF-8" standalone="no"?>
<svg
   width="702.68317"
   height="703.4137"
   viewBox="0 0 702.68317 703.4137"
   version="1.1"
   xml:space="preserve"
   id="SVGRoot"
   sodipodi:docname="logo2.svg"
   inkscape:version="1.3.2 (091e20ef0f, 2023-11-25)"
   xmlns:inkscape="http://www.inkscape.org/namespaces/inkscape"
   xmlns:sodipodi="http://sodipodi.sourceforge.net/DTD/sodipodi-0.dtd"
   xmlns:xlink="http://www.w3.org/1999/xlink"
   xmlns="http://www.w3.org/2000/svg"
   xmlns:svg="http://www.w3.org/2000/svg"><defs
   id="defs48"><linearGradient
     id="linearGradient3"
     inkscape:collect="always"><stop
       style="stop-color:#64b5f6;stop-opacity:1;"
       offset="0"
       id="stop3" /><stop
       style="stop-color:#0a5ac1;stop-opacity:1;"
       offset="0.71666759"
       id="stop4" /></linearGradient><linearGradient
     inkscape:collect="always"
     xlink:href="#linearGradient3"
     id="linearGradient4"
     x1="444.26062"
     y1="89.199318"
     x2="444.26062"
     y2="786.52948"
     gradientUnits="userSpaceOnUse"
     spreadMethod="pad"
     gradientTransform="matrix(1.0003743,0,0,1.0003743,-91.565419,-85.771718)" /></defs>
<sodipodi:namedview
   pagecolor="#a9a9a9"
   bordercolor="#292929"
   borderopacity="1"
   inkscape:showpageshadow="2"
   inkscape:pageopacity="0.0"
   inkscape:pagecheckerboard="0"
   inkscape:deskcolor="#232323"
   id="namedview1"
   inkscape:zoom="0.63718178"
   inkscape:cx="184.40578"
   inkscape:cy="457.48326"
   inkscape:window-width="1874"
   inkscape:window-height="1011"
   inkscape:window-x="0"
   inkscape:window-y="0"
   inkscape:window-maximized="1"
   inkscape:current-layer="SVGRoot" />
<style
   type="text/css"
   id="style1">
g.prefab path {
  vector-effect:non-scaling-stroke;
  -inkscape-stroke:hairline;
  fill: none;
  fill-opacity: 1;
  stroke-opacity: 1;
  stroke: #00349c;
}
</style>

<rect
   style="display:inline;fill:url(#linearGradient4);fill-opacity:1;stroke:none;stroke-width:0;stroke-linejoin:round;stroke-dasharray:none;stroke-opacity:1;paint-order:normal"
   id="rect49"
   width="700.26202"
   height="700.26202"
   x="2.4211659"
   y="3.151669"
   rx="60"
   ry="60" /><path
   style="font-weight:bold;font-size:186.667px;font-family:Dubai;-inkscape-font-specification:Dubai;letter-spacing:-5px;fill:#e3f2fd"
   d="m 212.00269,504.60675 q -19.41337,0 -33.04006,-8.02669 -13.44003,-8.02668 -20.3467,-22.21337 -6.90668,-14.37336 -6.90668,-33.22673 0,-20.9067 8.40001,-34.90673 8.40002,-14.18669 22.21338,-20.9067 14.00002,-6.90668 30.98672,-6.90668 19.41337,0 32.85339,8.02668 13.62669,8.02668 20.34671,22.40004 6.90667,14.18669 6.90667,33.04006 0,20.90671 -8.40001,35.0934 -8.21335,14.00002 -22.21337,20.9067 -13.81336,6.72002 -30.80006,6.72002 z m 0,-21.65338 q 11.01335,0 18.6667,-4.85334 7.84001,-5.04001 11.57335,-14.18669 3.92001,-9.33335 3.92001,-21.84004 0,-19.7867 -8.40001,-30.80006 -8.40002,-11.20002 -24.45338,-11.20002 -16.80003,0 -25.57338,11.01336 -8.77335,10.82668 -8.77335,29.86672 0,19.7867 8.40001,30.98672 8.40002,11.01335 24.64005,11.01335 z m 125.66687,-67.76012 q 16.9867,0 25.20005,10.82669 8.21335,10.82668 8.21335,32.66672 0,16.80003 -7.09335,27.06672 -6.90668,10.26668 -17.92003,14.56003 -11.01335,4.29334 -24.08004,4.29334 -6.72002,0 -16.24003,-1.12001 -9.52002,-1.12 -19.22671,-3.73334 V 373.56651 l 25.57338,-2.42667 v 51.70676 q 12.69336,-7.65335 25.57338,-7.65335 z m -16.98669,70.7468 q 11.38668,0 17.73336,-6.72002 6.53335,-6.90668 6.53335,-20.9067 0,-8.96002 -1.49334,-14.18669 -1.49333,-5.22668 -5.04001,-7.46668 -3.36,-2.42668 -9.33335,-2.42668 -7.28001,0 -16.9867,5.04001 v 45.92009 q 3.73335,0.74667 8.58669,0.74667 z m 75.08016,-80.45348 q -4.29334,0 -8.02668,-2.05334 -3.73334,-2.24001 -5.97335,-5.78668 -2.24,-3.54667 -2.24,-7.84001 0,-4.29334 2.24,-7.84002 2.24001,-3.73334 5.97335,-5.78667 3.73334,-2.24001 8.02668,-2.24001 4.48001,0 8.21335,2.24001 3.92001,2.05333 6.16001,5.78667 2.24,3.54668 2.24,7.84002 0,4.29334 -2.24,7.84001 -2.24,3.54667 -6.16001,5.78668 -3.73334,2.05334 -8.21335,2.05334 z m -16.9867,133.84024 q -4.66667,0 -9.89335,-1.12 -5.22668,-0.93334 -9.70668,-2.80001 l 5.41334,-16.9867 q 5.60001,1.68001 9.33335,1.68001 9.33335,0 9.33335,-10.45335 v -91.65351 l 25.38671,-2.42667 v 92.40017 q 0,15.8667 -8.21334,23.52005 -8.02669,7.84001 -21.65338,7.84001 z m 121.93365,-86.98683 q 0,3.73334 -0.74667,13.06669 h -53.7601 q 1.12,10.45336 6.90668,15.49337 5.78668,4.85334 13.81336,4.85334 5.97334,0 11.57335,-1.68 5.60001,-1.68001 11.94669,-5.41335 l 8.58669,15.3067 q -6.72002,5.04001 -15.49337,7.84001 -8.77335,2.80001 -19.04003,2.80001 -12.32002,0 -22.21337,-4.48001 -9.70669,-4.48001 -15.68003,-14.18669 -5.78668,-9.89336 -5.78668,-25.38672 0,-14.18669 4.85334,-24.45338 5.04001,-10.26668 14.37336,-15.49336 9.52002,-5.41334 22.40004,-5.41334 12.32002,0 20.90671,4.85334 8.77335,4.85334 13.06669,13.25336 4.29334,8.40001 4.29334,19.04003 z m -37.70674,-19.97337 q -6.53334,0 -10.64002,4.10668 -3.92,3.92001 -5.41334,12.50669 h 29.68005 v -0.56 q 0,-8.58669 -3.73334,-12.32003 -3.73334,-3.73334 -9.89335,-3.73334 z m 86.46697,72.24014 q -18.29337,0 -30.05339,-9.70669 -11.76002,-9.70668 -11.76002,-33.04006 0,-15.86669 6.34668,-26.32005 6.53334,-10.64002 16.61336,-15.49336 10.08002,-4.85334 21.09337,-4.85334 7.84002,0 14.1867,1.86667 6.53334,1.68 14.56002,5.97334 l -8.77335,16.61337 q -5.97334,-2.98667 -10.08001,-4.10668 -4.10668,-1.12 -8.21335,-1.12 -8.77335,0 -14.1867,6.90668 -5.22667,6.72001 -5.22667,20.3467 0,12.88003 5.22667,17.92004 5.41335,4.85334 14.00003,4.85334 5.22668,0 9.70668,-1.68 4.66668,-1.68001 10.26669,-4.85335 l 8.96002,16.24003 q -16.24003,10.45336 -32.66673,10.45336 z m 97.48034,-6.16001 q -11.01336,6.16001 -24.64005,6.16001 -6.90668,0 -12.88002,-2.61334 -5.78668,-2.80001 -9.52002,-8.77335 -3.73334,-5.97335 -3.73334,-15.12003 v -40.13341 h -15.30669 v -19.97337 h 15.30669 v -18.85336 l 25.38671,-3.54668 v 22.40004 h 23.33338 l -2.61334,19.97337 h -20.72004 v 36.2134 q 0,5.60001 1.86667,7.84002 2.05334,2.24 5.60001,2.24 2.61334,0 5.04001,-0.56 2.42667,-0.74667 5.97335,-2.24 z"
   id="text2"
   aria-label="Object" /><path
   style="font-weight:bold;font-size:186.667px;font-family:Dubai;-inkscape-font-specification:'Dubai Bold';letter-spacing:-5px;fill:#e3f2fd"
   d="m 107.51854,533.6118 q 16.05336,0 26.69338,5.04001 10.64002,5.04001 15.8667,13.81336 5.22667,8.58668 5.22667,19.97337 0,12.13335 -5.41334,21.65337 -5.41334,9.33335 -16.4267,14.74669 -10.82668,5.22668 -26.50671,5.22668 H 91.651842 v 40.50674 H 65.145127 V 533.6118 Z m -3.17334,59.17344 q 11.38669,0 17.5467,-4.29334 6.16001,-4.48001 6.16001,-15.30669 0,-9.14669 -5.60001,-13.6267 -5.41334,-4.66667 -15.3067,-4.66667 H 91.651842 v 37.8934 z m 96.36034,-25.01338 q 16.42669,0 24.64004,6.53335 8.40002,6.34668 8.40002,21.09337 v 59.17344 h -21.65338 l -2.05333,-6.53334 q -6.90668,5.04001 -13.81336,7.09334 -6.72001,2.05334 -14.18669,2.05334 -7.84002,0 -13.81336,-2.98667 -5.97335,-2.98667 -9.33335,-8.21335 -3.17334,-5.41334 -3.17334,-12.32002 0,-14.7467 14.56002,-22.40004 14.56003,-7.84002 38.08007,-8.77335 v -2.05334 q 0,-5.22668 -1.12,-8.21335 -0.93333,-2.98667 -3.54667,-4.29334 -2.61334,-1.49334 -7.28001,-1.49334 -11.76003,0 -26.69339,9.52002 l -9.70668,-15.30669 q 10.08002,-6.53335 19.60004,-9.70669 9.70668,-3.17334 21.09337,-3.17334 z m -18.6667,62.72012 q 0,4.10667 2.42667,6.34668 2.42667,2.05333 7.09334,2.05333 7.65335,0 16.80003,-5.04001 v -16.24003 q -13.62669,0.74667 -19.97337,4.29335 -6.34667,3.54667 -6.34667,8.58668 z m 98.04034,26.69338 q -11.94669,0 -21.46671,-2.80001 -9.33335,-2.98667 -17.5467,-8.77334 l 10.64002,-16.24003 q 6.90668,5.04 14.00003,7.28001 7.09334,2.05334 13.62669,2.05334 6.16001,0 8.96002,-1.86667 2.98667,-1.86667 2.98667,-5.04001 0,-2.05334 -1.12,-3.54668 -1.12001,-1.68 -4.66668,-3.17334 -3.36001,-1.68 -10.08002,-3.54667 l -5.41334,-1.49333 q -13.44003,-3.73335 -19.41337,-9.70669 -5.78668,-5.97334 -5.78668,-16.24003 0,-7.84001 4.29334,-13.81336 4.29335,-5.97334 12.13336,-9.14668 7.84001,-3.36001 17.92003,-3.36001 19.04004,0 34.5334,9.14669 l -9.70669,16.24003 q -7.65334,-3.92001 -12.88002,-5.41335 -5.22668,-1.49333 -11.20002,-1.49333 -4.66667,0 -7.09335,1.68 -2.24,1.68 -2.24,4.29334 0,1.86667 0.93334,3.17334 0.93333,1.12 3.36,2.24 2.61334,0.93334 8.02668,2.42668 l 6.16001,1.68 q 14.37336,3.73334 20.90671,10.45335 6.72001,6.72001 6.72001,16.9867 0,8.02668 -4.10667,14.37336 -3.92001,6.34668 -12.32003,10.08002 -8.21334,3.54667 -20.16003,3.54667 z m 83.29356,0 q -18.29337,0 -30.05339,-9.70668 -11.76002,-9.70669 -11.76002,-33.04007 0,-15.86669 6.34668,-26.32004 6.53334,-10.64002 16.61336,-15.49336 10.08002,-4.85335 21.09337,-4.85335 7.84002,0 14.18669,1.86667 6.53335,1.68001 14.56003,5.97335 l -8.77335,16.61336 q -5.97334,-2.98667 -10.08002,-4.10667 -4.10667,-1.12001 -8.21335,-1.12001 -8.77335,0 -14.18669,6.90668 -5.22667,6.72002 -5.22667,20.34671 0,12.88002 5.22667,17.92003 5.41334,4.85334 14.00003,4.85334 5.22667,0 9.70668,-1.68 4.66668,-1.68 10.26669,-4.85334 l 8.96001,16.24003 q -16.24003,10.45335 -32.66672,10.45335 z m 79.00027,-89.4135 q 16.4267,0 24.64004,6.53335 8.40002,6.34668 8.40002,21.09337 v 59.17344 H 453.7597 l -2.05334,-6.53334 q -6.90668,5.04001 -13.81336,7.09334 -6.72001,2.05334 -14.18669,2.05334 -7.84002,0 -13.81336,-2.98667 -5.97334,-2.98667 -9.33335,-8.21335 -3.17334,-5.41334 -3.17334,-12.32002 0,-14.7467 14.56003,-22.40004 14.56002,-7.84002 38.08007,-8.77335 v -2.05334 q 0,-5.22668 -1.12,-8.21335 -0.93334,-2.98667 -3.54668,-4.29334 -2.61334,-1.49334 -7.28001,-1.49334 -11.76002,0 -26.69338,9.52002 l -9.70669,-15.30669 q 10.08002,-6.53335 19.60004,-9.70669 9.70668,-3.17334 21.09337,-3.17334 z m -18.6667,62.72012 q 0,4.10667 2.42667,6.34668 2.42667,2.05333 7.09335,2.05333 7.65334,0 16.80003,-5.04001 v -16.24003 q -13.62669,0.74667 -19.97337,4.29335 -6.34668,3.54667 -6.34668,8.58668 z m 68.17363,24.08004 v -128.4269 l 25.38671,-2.42667 v 130.85357 z"
   id="text3"
   aria-label="Pascal" /></svg>
