<?xml version="1.0" encoding="UTF-8" standalone="no"?>
<svg
   width="702.68317"
   height="703.4137"
   viewBox="0 0 702.68317 703.4137"
   version="1.1"
   xml:space="preserve"
   id="SVGRoot"
   sodipodi:docname="logo6.svg"
   inkscape:version="1.3.2 (091e20ef0f, 2023-11-25)"
   xmlns:inkscape="http://www.inkscape.org/namespaces/inkscape"
   xmlns:sodipodi="http://sodipodi.sourceforge.net/DTD/sodipodi-0.dtd"
   xmlns:xlink="http://www.w3.org/1999/xlink"
   xmlns="http://www.w3.org/2000/svg"
   xmlns:svg="http://www.w3.org/2000/svg"><defs
   id="defs48"><linearGradient
     id="linearGradient3"
     inkscape:collect="always"><stop
       style="stop-color:#64b5f6;stop-opacity:1;"
       offset="0"
       id="stop3" /><stop
       style="stop-color:#0a5ac1;stop-opacity:1;"
       offset="0.71666759"
       id="stop4" /></linearGradient><linearGradient
     inkscape:collect="always"
     xlink:href="#linearGradient3"
     id="linearGradient4"
     x1="444.26062"
     y1="89.199318"
     x2="444.26062"
     y2="786.52948"
     gradientUnits="userSpaceOnUse"
     spreadMethod="pad"
     gradientTransform="matrix(1.0003743,0,0,1.0003743,-91.565419,-85.771718)" /></defs>
<sodipodi:namedview
   pagecolor="#a9a9a9"
   bordercolor="#292929"
   borderopacity="1"
   inkscape:showpageshadow="2"
   inkscape:pageopacity="0.0"
   inkscape:pagecheckerboard="0"
   inkscape:deskcolor="#232323"
   id="namedview1"
   inkscape:zoom="0.90111111"
   inkscape:cx="368.9889"
   inkscape:cy="373.42787"
   inkscape:window-width="1874"
   inkscape:window-height="1011"
   inkscape:window-x="0"
   inkscape:window-y="0"
   inkscape:window-maximized="1"
   inkscape:current-layer="SVGRoot" />
<style
   type="text/css"
   id="style1">
g.prefab path {
  vector-effect:non-scaling-stroke;
  -inkscape-stroke:hairline;
  fill: none;
  fill-opacity: 1;
  stroke-opacity: 1;
  stroke: #00349c;
}
</style>

<rect
   style="display:inline;fill:url(#linearGradient4);fill-opacity:1;stroke:none;stroke-width:0;stroke-linejoin:round;stroke-dasharray:none;stroke-opacity:1;paint-order:normal"
   id="rect49"
   width="700.26202"
   height="700.26202"
   x="2.4211659"
   y="3.151669"
   rx="60"
   ry="60" /><path
   style="font-weight:bold;font-size:186.667px;font-family:'ITC Officina Sans Std';-inkscape-font-specification:'ITC Officina Sans Std';letter-spacing:-10px;fill:#e3f2fd"
   d="m 286.53609,438.15329 c 0,-45.17341 -17.73337,-67.20012 -46.48009,-67.20012 -28.74672,0 -46.48008,21.84004 -46.48008,67.20012 0,45.17342 17.54669,67.01346 46.48008,67.01346 28.93339,0 46.48009,-21.84004 46.48009,-67.01346 z M 240.056,485.56671 c -14.00002,0 -19.97337,-18.29337 -19.97337,-47.41342 0,-29.12005 5.97335,-47.60009 19.97337,-47.60009 14.00003,0 19.97337,18.29337 19.97337,47.60009 0,29.12005 -5.97334,47.41342 -19.97337,47.41342 z m 83.52025,-53.94676 c 2.42667,-2.05334 6.53334,-6.34668 12.88002,-6.34668 14.18669,0 16.80003,14.37336 16.80003,29.30672 0,14.56002 -3.36,31.92006 -20.3467,31.92006 -5.04001,0 -8.21335,-2.98668 -9.33335,-3.92001 z m 0,-60.85345 c 0,-3.17334 -0.37334,-3.92001 -1.86667,-3.92001 -0.37334,0 -2.05334,0.56001 -2.61334,0.56001 l -15.68003,3.17333 c -2.24,0.56001 -3.54667,0.56001 -3.54667,3.36001 V 478.2867 c 0,3.92001 0,7.84001 -0.74667,11.57335 -1.30667,6.34668 -3.36001,8.02668 -3.36001,9.70669 0,0.74667 0.93334,1.30667 1.86667,1.49333 l 14.93336,3.73334 c 0.74667,0.18667 1.68001,0.37334 2.61334,0.37334 2.80001,0 4.66668,-6.16001 5.41335,-8.21335 2.98667,2.98667 7.09334,8.21335 17.73336,8.21335 25.01338,0 38.64007,-20.16004 38.64007,-51.89343 0,-24.26671 -7.28001,-46.66675 -32.66672,-46.66675 -10.26669,0 -16.9867,5.41334 -20.72004,8.21335 z m 96.96031,41.62674 c 0,-2.05333 -0.37333,-2.61333 -2.61334,-2.61333 h -35.65339 c -2.24001,0 -2.61334,0.56 -2.61334,2.61333 v 12.13336 c 0,2.05334 0.37333,2.61334 2.61334,2.61334 h 14.56002 v 75.60014 c 0,13.25335 -0.37333,23.52004 -10.82668,23.52004 -5.78668,0 -10.64002,-2.61334 -11.94669,-2.61334 -0.56,0 -1.30667,0.56 -1.49334,1.12 l -4.10667,14.00003 c -0.18667,0.56 -0.37334,1.30667 -0.37334,1.86667 0,2.98667 11.20002,5.22667 20.53337,5.22667 27.25339,0 31.92006,-16.24002 31.92006,-42.74674 z m 3.17334,-30.24005 c 0,-8.58668 -6.90668,-15.3067 -15.30669,-15.3067 -8.58669,0 -15.49336,6.72002 -15.49336,15.3067 0,8.58668 6.90667,15.49336 15.49336,15.49336 8.40001,0 15.30669,-6.90668 15.30669,-15.49336 z m 78.48026,98.74685 c -0.37334,-0.74667 -1.12,-1.49334 -2.05334,-1.49334 -2.61334,0 -10.26669,6.16001 -23.70671,6.16001 -17.5467,0 -20.53337,-12.88002 -20.53337,-23.33337 h 50.21342 c 3.54668,0 4.29335,-1.12001 4.29335,-4.66668 0,-22.58671 -5.60001,-50.96009 -37.33341,-50.96009 -25.01337,0 -40.88007,20.53337 -40.88007,50.21342 0,34.34673 17.17336,48.34676 41.81341,48.34676 14.74669,0 33.41339,-6.16001 33.41339,-11.01336 0,-0.74666 -0.18666,-1.49333 -0.56,-2.05333 z M 455.89674,444.8733 c 0.56,-5.22667 1.30667,-20.9067 15.8667,-20.9067 12.88002,0 13.44002,13.25336 13.44002,20.9067 z m 121.97358,36.2134 c -0.37333,-0.56 -0.74667,-0.93333 -1.30667,-0.93333 -3.36,0 -7.09334,6.34668 -16.61336,6.34668 -14.37336,0 -19.2267,-9.52002 -19.2267,-30.05339 0,-21.46671 5.60001,-31.17339 18.29336,-31.17339 9.70669,0 15.8667,7.46668 17.73337,7.46668 0.56,0 0.93333,-0.56 1.30667,-0.93334 l 6.90668,-12.13335 c 0.18666,-0.56 0.56,-1.12 0.56,-1.68001 0,-5.78667 -16.4267,-11.38668 -26.50672,-11.38668 -27.62671,0 -43.49341,19.60003 -43.49341,51.14676 0,31.54672 15.49336,47.41342 41.44008,47.41342 11.20002,0 26.32004,-5.41335 26.32004,-9.89335 0,-0.56001 -0.37333,-1.30667 -0.56,-1.86667 z m 64.10692,0.18667 c -0.18667,-0.74667 -0.74667,-1.12 -1.49333,-1.12 -2.61334,0 -7.28002,3.54667 -14.7467,3.54667 -6.34668,0 -6.34668,-5.41334 -6.34668,-11.38669 v -45.17341 h 18.48004 c 2.24,0 2.8,-0.18667 3.36,-2.80001 l 2.42667,-11.01335 c 0.18667,-0.74667 0.18667,-1.12 0.18667,-1.49334 0,-2.05333 -1.49333,-2.05333 -3.17334,-2.05333 h -21.28004 v -26.13338 c 0,-2.24001 -0.18666,-3.17334 -1.86667,-3.17334 -1.12,0 -1.86667,0.18666 -2.42667,0.18666 l -16.42669,2.24001 c -2.61334,0.37333 -2.98668,0.93333 -2.98668,3.36 v 23.52005 h -13.25335 c -2.24001,0 -2.61334,0.56 -2.61334,2.61333 v 12.13336 c 0,2.05334 0.37333,2.61334 2.61334,2.61334 h 13.25335 v 42.00007 c 0,17.17337 0,36.02674 24.08005,36.02674 12.69335,0 26.32005,-3.54668 26.32005,-7.09335 0,-0.56 -0.18667,-0.56 -0.37334,-1.49334 z"
   id="text2"
   aria-label="Object" /><path
   style="font-weight:bold;font-size:186.667px;font-family:'ITC Officina Sans Std';-inkscape-font-specification:'ITC Officina Sans Std';letter-spacing:-10px;fill:#e3f2fd"
   d="m 91.278508,583.82523 v -37.52007 h 7.653347 c 9.706685,0 19.600035,0.56 19.600035,16.80003 0,18.85337 -10.45335,20.72004 -21.466705,20.72004 z m 0,19.60003 h 9.893352 c 19.60004,0 42.56008,-10.82668 42.56008,-41.62674 0,-35.0934 -28.37339,-35.0934 -43.49342,-35.0934 H 69.998469 c -3.173339,0 -3.920007,0.56 -3.920007,3.92001 v 120.02688 c 0,3.36001 0.746668,3.92001 3.920007,3.92001 h 17.360032 c 3.173339,0 3.920007,-0.56 3.920007,-3.92001 z m 121.600202,47.78676 c 0.93333,-0.37334 1.68,-0.93334 1.68,-1.68001 0,-3.73334 -4.85334,-6.16001 -4.85334,-24.26671 v -36.02673 c 0,-19.41337 -8.77335,-30.05339 -32.10673,-30.05339 -14.37335,0 -32.85339,4.48001 -32.85339,8.77335 0,0.74667 0.18667,1.49334 0.56,2.24 l 3.73334,11.38669 c 0.18667,0.74667 0.93334,1.86667 1.86667,1.86667 2.42667,0 12.69336,-5.60001 23.14671,-5.60001 11.76002,0 13.25336,5.41334 13.25336,13.81336 v 5.78668 c -14.74669,0 -48.72009,0 -48.72009,31.54672 0,17.5467 10.82669,28.74672 28.00005,28.74672 14.00003,0 20.53337,-7.46668 24.26671,-11.20002 0.93334,4.66668 3.73334,11.20002 5.41335,11.20002 0.74666,0 1.68,-0.56 2.42667,-0.74667 z m -25.57338,-17.92004 c -2.24,2.24001 -7.09335,7.09335 -14.00003,7.09335 -7.09334,0 -12.32002,-5.41334 -12.32002,-12.69336 0,-16.42669 21.65337,-14.93336 26.32005,-14.93336 z m 94.90701,-62.53344 c 0.37334,-0.74667 0.93334,-1.86667 0.93334,-2.42668 0,-4.29334 -17.73337,-9.14668 -29.12005,-9.14668 -20.16004,0 -33.04006,13.44003 -33.04006,30.42672 0,10.82669 5.41334,17.36003 11.01335,21.09337 12.32002,8.21335 30.61339,8.21335 30.61339,19.04004 0,6.72001 -5.22668,9.33335 -11.38669,9.33335 -11.57335,0 -25.94671,-8.21335 -26.69338,-8.21335 -0.74667,0 -1.12,0.74667 -1.49334,1.68 l -4.10667,10.64002 c -0.18667,0.74667 -0.93334,1.86667 -0.93334,2.42668 0,5.04 21.28004,12.13335 35.0934,12.13335 19.7867,0 31.92006,-12.88002 31.92006,-30.05339 0,-10.82668 -5.22668,-17.92003 -12.50669,-22.77337 -13.25336,-8.77335 -30.05339,-8.02668 -30.05339,-18.1067 0,-6.34668 5.22668,-8.96002 12.32002,-8.96002 11.94669,0 21.09338,4.85334 21.65338,4.85334 0.18666,0 1.12,-0.74666 1.49333,-1.68 z m 69.14693,62.90678 c -0.37333,-0.56 -0.74666,-0.93334 -1.30667,-0.93334 -3.36,0 -7.09334,6.34668 -16.61336,6.34668 -14.37336,0 -19.2267,-9.52002 -19.2267,-30.05339 0,-21.4667 5.60001,-31.17339 18.29337,-31.17339 9.70668,0 15.86669,7.46668 17.73336,7.46668 0.56,0 0.93334,-0.56 1.30667,-0.93333 l 6.90668,-12.13336 c 0.18667,-0.56 0.56,-1.12 0.56,-1.68 0,-5.78668 -16.4267,-11.38669 -26.50671,-11.38669 -27.62672,0 -43.49342,19.60004 -43.49342,51.14676 0,31.54672 15.49337,47.41342 41.44008,47.41342 11.20002,0 26.32005,-5.41334 26.32005,-9.89335 0,-0.56 -0.37334,-1.30667 -0.56,-1.86667 z m 80.34695,17.5467 c 0.93334,-0.37334 1.68001,-0.93334 1.68001,-1.68001 0,-3.73334 -4.85335,-6.16001 -4.85335,-24.26671 v -36.02673 c 0,-19.41337 -8.77334,-30.05339 -32.10672,-30.05339 -14.37336,0 -32.85339,4.48001 -32.85339,8.77335 0,0.74667 0.18666,1.49334 0.56,2.24 l 3.73334,11.38669 c 0.18666,0.74667 0.93333,1.86667 1.86667,1.86667 2.42667,0 12.69335,-5.60001 23.14671,-5.60001 11.76002,0 13.25335,5.41334 13.25335,13.81336 v 5.78668 c -14.74669,0 -48.72008,0 -48.72008,31.54672 0,17.5467 10.82668,28.74672 28.00005,28.74672 14.00002,0 20.53337,-7.46668 24.26671,-11.20002 0.93333,4.66668 3.73334,11.20002 5.41334,11.20002 0.74667,0 1.68,-0.56 2.42667,-0.74667 z m -25.57338,-17.92004 c -2.24,2.24001 -7.09334,7.09335 -14.00002,7.09335 -7.09335,0 -12.32002,-5.41334 -12.32002,-12.69336 0,-16.42669 21.65337,-14.93336 26.32004,-14.93336 z m 74.37365,2.42667 c -0.18667,-0.74666 -0.74667,-1.12 -1.49334,-1.12 -1.12,0 -3.54667,1.68 -7.28001,1.68 -5.22668,0 -5.22668,-5.22667 -5.22668,-11.20002 V 523.34512 c 0,-3.17334 -0.37333,-3.92001 -1.86667,-3.92001 -0.37333,0 -2.05333,0.56 -2.61334,0.56 l -15.68002,3.17334 c -2.24001,0.56 -3.54668,0.56 -3.54668,3.36 v 95.20018 c 0,17.17336 0,36.02673 22.96004,36.02673 8.96002,0 18.85337,-2.61334 18.85337,-5.22668 0,-0.56 -0.18666,-0.56 -0.37333,-1.49333 z"
   id="text3"
   aria-label="Pascal" /></svg>
