<?xml version="1.0" encoding="UTF-8" standalone="no"?>
<svg
   width="702.68317"
   height="703.4137"
   viewBox="0 0 702.68317 703.4137"
   version="1.1"
   xml:space="preserve"
   id="SVGRoot"
   sodipodi:docname="logo5.svg"
   inkscape:version="1.3.2 (091e20ef0f, 2023-11-25)"
   xmlns:inkscape="http://www.inkscape.org/namespaces/inkscape"
   xmlns:sodipodi="http://sodipodi.sourceforge.net/DTD/sodipodi-0.dtd"
   xmlns:xlink="http://www.w3.org/1999/xlink"
   xmlns="http://www.w3.org/2000/svg"
   xmlns:svg="http://www.w3.org/2000/svg"><defs
   id="defs48"><linearGradient
     id="linearGradient3"
     inkscape:collect="always"><stop
       style="stop-color:#64b5f6;stop-opacity:1;"
       offset="0"
       id="stop3" /><stop
       style="stop-color:#0a5ac1;stop-opacity:1;"
       offset="0.71666759"
       id="stop4" /></linearGradient><linearGradient
     inkscape:collect="always"
     xlink:href="#linearGradient3"
     id="linearGradient4"
     x1="444.26062"
     y1="89.199318"
     x2="444.26062"
     y2="786.52948"
     gradientUnits="userSpaceOnUse"
     spreadMethod="pad"
     gradientTransform="matrix(1.0003743,0,0,1.0003743,-91.565419,-85.771718)" /></defs>
<sodipodi:namedview
   pagecolor="#a9a9a9"
   bordercolor="#292929"
   borderopacity="1"
   inkscape:showpageshadow="2"
   inkscape:pageopacity="0.0"
   inkscape:pagecheckerboard="0"
   inkscape:deskcolor="#232323"
   id="namedview1"
   inkscape:zoom="0.63718178"
   inkscape:cx="267.58455"
   inkscape:cy="529.67616"
   inkscape:window-width="1874"
   inkscape:window-height="1011"
   inkscape:window-x="0"
   inkscape:window-y="0"
   inkscape:window-maximized="1"
   inkscape:current-layer="SVGRoot" />
<style
   type="text/css"
   id="style1">
g.prefab path {
  vector-effect:non-scaling-stroke;
  -inkscape-stroke:hairline;
  fill: none;
  fill-opacity: 1;
  stroke-opacity: 1;
  stroke: #00349c;
}
</style>

<rect
   style="display:inline;fill:url(#linearGradient4);fill-opacity:1;stroke:none;stroke-width:0;stroke-linejoin:round;stroke-dasharray:none;stroke-opacity:1;paint-order:normal"
   id="rect49"
   width="700.26202"
   height="700.26202"
   x="2.4211659"
   y="3.151669"
   rx="60"
   ry="60" /><path
   style="font-weight:bold;font-stretch:condensed;font-size:186.667px;font-family:'Helvetica Neue LT Std';-inkscape-font-specification:'Helvetica Neue LT Std Bold Condensed';letter-spacing:-5px;fill:#e3f2fd"
   d="m 211.33591,435.35329 c 0,40.50674 5.04001,69.25346 45.36008,69.25346 40.32008,0 45.36009,-28.74672 45.36009,-69.25346 0,-40.50674 -5.04001,-69.25346 -45.36009,-69.25346 -40.32007,0 -45.36008,28.74672 -45.36008,69.25346 z m 26.88005,0 c 0,-35.6534 2.61334,-49.46676 18.48003,-49.46676 15.8667,0 18.48004,13.81336 18.48004,49.46676 0,35.84006 -2.61334,49.46675 -18.48004,49.46675 -15.86669,0 -18.48003,-13.62669 -18.48003,-49.46675 z m 99.72015,16.42669 c 0,-21.84004 2.24,-33.04006 13.62669,-33.04006 11.20002,0 13.44002,11.20002 13.44002,33.04006 0,21.84004 -2.24,33.04006 -13.44002,33.04006 -11.38669,0 -13.62669,-11.20002 -13.62669,-33.04006 z m -25.76005,50.21343 h 24.64005 v -10.64002 h 0.37333 c 5.60001,9.33335 12.69336,13.25336 22.77337,13.25336 21.09338,0 30.80006,-15.49337 30.80006,-52.82677 0,-37.3334 -9.70668,-52.82676 -30.80006,-52.82676 -9.70668,0 -16.24003,3.92001 -21.65337,11.94669 h -0.37333 v -42.18675 h -25.76005 z m 89.26684,-1.86667 c 0,11.01335 -0.93334,16.05336 -10.08002,16.05336 -1.49334,0 -2.8,0 -4.10667,-0.37333 v 18.6667 c 3.73334,0.18666 7.46668,0.37333 10.45335,0.37333 23.14671,0 29.49339,-9.14668 29.49339,-25.94671 V 401.56656 H 401.4429 Z m 0,-110.8802 h 25.76005 V 367.21983 H 401.4429 Z m 111.8535,66.45345 v -5.78668 c 0,-30.80005 -6.72001,-50.96009 -36.7734,-50.96009 -34.72007,0 -39.94674,25.01338 -39.94674,51.89343 0,25.01338 1.49333,53.7601 38.82674,53.7601 24.26671,0 35.46673,-13.06669 36.40006,-36.40007 h -23.14671 c -1.49333,12.32002 -5.04001,18.85337 -13.62669,18.85337 -9.52002,0 -12.69336,-11.57336 -12.69336,-23.33338 v -8.02668 z M 462.3363,440.3933 v -3.92001 c 0,-9.33335 2.98668,-19.97337 13.25336,-19.97337 10.64002,0 12.50669,8.58668 13.06669,23.89338 z m 132.38679,-2.61334 c 0,-23.70671 -12.32002,-38.82674 -36.02673,-38.82674 -23.70671,0 -40.69341,11.57335 -40.69341,52.82676 0,40.32008 12.69336,52.82677 38.45341,52.82677 27.25338,0 38.26673,-14.7467 38.26673,-41.06675 h -24.64004 c 0,16.24003 -3.92001,23.52005 -12.50669,23.52005 -11.57335,0 -13.81336,-10.26669 -13.81336,-35.0934 0,-23.14671 2.05334,-34.34673 14.7467,-34.34673 9.70668,0 11.57335,10.45335 11.57335,20.16004 z m 14.03994,-36.2134 h -13.06669 v 17.5467 h 13.06669 v 57.49344 c 0,20.3467 3.73334,26.50671 23.89338,26.50671 5.97334,0 11.20002,-0.56 16.80003,-1.12 v -17.92003 c -1.68,0.18666 -3.73334,0.37333 -5.78668,0.37333 -7.46668,0 -9.14668,-3.17334 -9.14668,-11.01335 v -54.3201 h 14.93336 v -17.5467 h -14.93336 v -28.74672 h -25.76005 z"
   id="text2"
   aria-label="Object" /><path
   d="m 69.22512,650.57202 h 26.880049 v -53.2001 h 14.373361 c 25.38671,0 42.37341,-12.50669 42.37341,-40.1334 0,-19.97337 -9.33335,-39.94674 -36.58673,-39.94674 H 69.22512 Z M 96.105169,537.07848 h 11.200021 c 13.44002,0 18.6667,7.46668 18.6667,20.53337 0,13.62669 -7.28001,19.97337 -17.92003,19.97337 H 96.105169 Z m 82.733291,43.86675 v -2.80001 c 0,-7.84001 4.10668,-13.06669 11.94669,-13.06669 8.58669,0 11.94669,4.66668 11.94669,12.32002 0,6.72002 -2.61334,9.70669 -10.26668,11.76003 l -14.56003,3.92 c -17.73337,4.85335 -25.38671,12.50669 -25.38671,31.36006 0,13.44002 6.34667,28.74672 24.26671,28.74672 12.32002,0 19.60003,-2.61334 25.57338,-13.06669 h 0.37333 c 0.74667,3.36001 1.49334,7.28001 3.17334,10.45335 h 24.64005 c -2.61334,-5.78668 -3.17334,-10.08002 -3.17334,-19.41337 v -52.82676 c 0,-18.1067 -5.78668,-30.80006 -36.40007,-30.80006 -19.41337,0 -35.28006,7.84002 -35.28006,30.98673 v 2.42667 z m 23.89338,39.20007 c 0,11.01335 -8.96001,15.49336 -15.86669,15.49336 -6.90668,0 -9.70669,-6.34668 -9.70669,-14.00002 0,-8.96002 4.10668,-14.00003 14.56003,-16.24003 3.17334,-0.74667 7.46668,-2.42668 11.01335,-5.04001 z m 33.64024,-2.42667 v 3.54667 c 0,19.2267 8.02668,31.92006 36.96006,31.92006 21.65338,0 37.33341,-10.45335 37.33341,-31.54672 0,-15.12003 -5.97335,-23.33338 -22.21338,-28.74672 l -15.49336,-5.22668 c -8.58668,-2.80001 -11.20002,-6.90668 -11.20002,-11.76002 0,-7.09335 5.60001,-10.82669 12.13336,-10.82669 8.40001,0 11.38668,5.04001 11.38668,15.12003 h 23.14671 v -4.10667 c 0,-18.1067 -11.01335,-28.56006 -34.34673,-28.56006 -26.50671,0 -36.96007,13.62669 -36.96007,30.24006 0,14.18669 7.28002,22.96004 21.46671,28.00005 l 18.1067,6.53334 c 5.04001,1.86668 9.33335,4.85335 9.33335,11.38669 0,8.02668 -5.22668,11.94669 -13.06669,11.94669 -8.77335,0 -13.44002,-5.78668 -13.44002,-14.56003 v -3.36 z m 155.16034,-31.36006 c 0,-23.70671 -12.32002,-38.82674 -36.02673,-38.82674 -23.70671,0 -40.69341,11.57336 -40.69341,52.82677 0,40.32007 12.69336,52.82676 38.4534,52.82676 27.25339,0 38.26674,-14.74669 38.26674,-41.06674 h -24.64004 c 0,16.24003 -3.92001,23.52004 -12.50669,23.52004 -11.57336,0 -13.81336,-10.26668 -13.81336,-35.0934 0,-23.14671 2.05333,-34.34673 14.74669,-34.34673 9.70669,0 11.57336,10.45336 11.57336,20.16004 z m 31.39994,-5.41334 v -2.80001 c 0,-7.84001 4.10667,-13.06669 11.94669,-13.06669 8.58668,0 11.94669,4.66668 11.94669,12.32002 0,6.72002 -2.61334,9.70669 -10.26669,11.76003 l -14.56003,3.92 c -17.73336,4.85335 -25.38671,12.50669 -25.38671,31.36006 0,13.44002 6.34668,28.74672 24.26671,28.74672 12.32003,0 19.60004,-2.61334 25.57338,-13.06669 h 0.37334 c 0.74666,3.36001 1.49333,7.28001 3.17334,10.45335 h 24.64004 c -2.61334,-5.78668 -3.17334,-10.08002 -3.17334,-19.41337 v -52.82676 c 0,-18.1067 -5.78668,-30.80006 -36.40006,-30.80006 -19.41337,0 -35.28007,7.84002 -35.28007,30.98673 v 2.42667 z m 23.89338,39.20007 c 0,11.01335 -8.96002,15.49336 -15.8667,15.49336 -6.90668,0 -9.70668,-6.34668 -9.70668,-14.00002 0,-8.96002 4.10667,-14.00003 14.56002,-16.24003 3.17334,-0.74667 7.46668,-2.42668 11.01336,-5.04001 z m 38.8669,30.42672 h 25.76005 V 517.29178 h -25.76005 z"
   id="text3"
   style="font-weight:bold;font-stretch:condensed;font-size:186.667px;font-family:'Helvetica Neue LT Std';-inkscape-font-specification:'Helvetica Neue LT Std Bold Condensed';letter-spacing:-5px;fill:#e3f2fd"
   aria-label="Pascal" /></svg>
