<?xml version="1.0" encoding="UTF-8" standalone="no"?>
<svg
   width="702.68317"
   height="703.4137"
   viewBox="0 0 702.68317 703.4137"
   version="1.1"
   xml:space="preserve"
   id="SVGRoot"
   sodipodi:docname="logo4.svg"
   inkscape:version="1.3.2 (091e20ef0f, 2023-11-25)"
   xmlns:inkscape="http://www.inkscape.org/namespaces/inkscape"
   xmlns:sodipodi="http://sodipodi.sourceforge.net/DTD/sodipodi-0.dtd"
   xmlns:xlink="http://www.w3.org/1999/xlink"
   xmlns="http://www.w3.org/2000/svg"
   xmlns:svg="http://www.w3.org/2000/svg"><defs
   id="defs48"><linearGradient
     id="linearGradient3"
     inkscape:collect="always"><stop
       style="stop-color:#64b5f6;stop-opacity:1;"
       offset="0"
       id="stop3" /><stop
       style="stop-color:#0a5ac1;stop-opacity:1;"
       offset="0.71666759"
       id="stop4" /></linearGradient><linearGradient
     inkscape:collect="always"
     xlink:href="#linearGradient3"
     id="linearGradient4"
     x1="444.26062"
     y1="89.199318"
     x2="444.26062"
     y2="786.52948"
     gradientUnits="userSpaceOnUse"
     spreadMethod="pad"
     gradientTransform="matrix(1.0003743,0,0,1.0003743,-91.565419,-85.771718)" /></defs>
<sodipodi:namedview
   pagecolor="#a9a9a9"
   bordercolor="#292929"
   borderopacity="1"
   inkscape:showpageshadow="2"
   inkscape:pageopacity="0.0"
   inkscape:pagecheckerboard="0"
   inkscape:deskcolor="#232323"
   id="namedview1"
   inkscape:zoom="0.90111111"
   inkscape:cx="452.21948"
   inkscape:cy="388.96424"
   inkscape:window-width="1874"
   inkscape:window-height="1011"
   inkscape:window-x="0"
   inkscape:window-y="0"
   inkscape:window-maximized="1"
   inkscape:current-layer="SVGRoot" />
<style
   type="text/css"
   id="style1">
g.prefab path {
  vector-effect:non-scaling-stroke;
  -inkscape-stroke:hairline;
  fill: none;
  fill-opacity: 1;
  stroke-opacity: 1;
  stroke: #00349c;
}
</style>

<rect
   style="display:inline;fill:url(#linearGradient4);fill-opacity:1;stroke:none;stroke-width:0;stroke-linejoin:round;stroke-dasharray:none;stroke-opacity:1;paint-order:normal"
   id="rect49"
   width="700.26202"
   height="700.26202"
   x="2.4211659"
   y="3.151669"
   rx="60"
   ry="60" /><path
   style="font-weight:600;font-size:186.667px;font-family:'Haas Grot Disp R Trial';-inkscape-font-specification:'Haas Grot Disp R Trial Semi-Bold';letter-spacing:-5px;fill:#e3f2fd"
   d="m 193.68269,504.98008 c 39.38674,0 64.21345,-29.49339 64.21345,-69.44013 0,-39.94674 -24.82671,-69.62679 -64.21345,-69.62679 -39.38674,0 -64.40012,29.68005 -64.40012,69.62679 0,39.94674 25.01338,69.44013 64.40012,69.44013 z m 0.18667,-22.21337 c -24.45338,0 -36.96007,-20.72004 -36.96007,-47.22676 0,-26.69338 12.50669,-47.41342 36.96007,-47.41342 24.45338,0 36.40007,20.72004 36.40007,47.41342 0,26.50672 -11.94669,47.22676 -36.40007,47.22676 z m 125.10681,22.0267 c 24.08004,0 40.50674,-19.60003 40.50674,-50.58676 0,-29.86672 -17.17337,-50.58675 -41.25341,-50.58675 -13.25336,0 -21.46671,6.16001 -26.69338,14.18669 h -0.56001 V 368.5265 H 265.5894 v 133.46691 h 24.45338 v -11.94669 h 0.37333 c 5.60001,8.96002 15.12003,14.74669 28.56006,14.74669 z m -5.60001,-21.28004 c -14.1867,0 -22.96005,-11.20002 -22.96005,-28.74671 0,-17.73337 5.97335,-30.61339 22.02671,-30.61339 14.18669,0 21.28004,12.32002 21.28004,30.05338 0,18.48004 -7.28001,29.30672 -20.3467,29.30672 z M 364.7496,381.21985 c 0,8.21335 6.34668,14.00003 14.18669,14.00003 7.84002,0 14.18669,-5.78668 14.18669,-14.00003 0,-8.02668 -6.34667,-13.81335 -14.18669,-13.81335 -7.84001,0 -14.18669,5.78667 -14.18669,13.81335 z m 0,152.32028 c 8.21335,0 15.68003,-1.86667 20.53337,-6.90668 4.10667,-4.10667 6.34668,-9.70668 6.34668,-20.9067 v -99.49352 h -25.38671 v 98.18685 c 0,8.77335 -5.60002,9.70668 -15.8667,9.89335 v 18.1067 c 3.92001,0.74667 9.70668,1.12 14.37336,1.12 z m 83.29365,-28.74672 c 24.64005,0 39.76007,-14.37336 43.30675,-31.36005 h -25.01338 c -2.80001,7.28001 -8.58668,11.76002 -18.48003,11.76002 -14.37336,0 -22.58671,-9.14669 -24.45338,-23.89338 h 69.44012 c 0,-34.16006 -16.42669,-57.6801 -47.22675,-57.6801 -28.00005,0 -47.22675,22.0267 -47.22675,50.40009 0,28.56005 17.92003,50.77342 49.65342,50.77342 z m -2.05334,-81.57348 c 11.57336,0 19.60004,8.40002 20.34671,20.53337 h -42.56008 c 2.24001,-12.50669 8.77335,-20.53337 22.21337,-20.53337 z m 98.04031,81.57348 c 25.57338,0 41.44007,-16.24003 43.12008,-36.58673 h -24.45338 c -1.68,10.82669 -8.96002,16.24003 -19.2267,16.24003 -15.49337,0 -22.77338,-12.13336 -22.77338,-30.24006 0,-18.48003 7.84002,-30.24005 23.14671,-30.24005 9.33335,0 15.8667,6.34668 17.5467,14.74669 h 24.82671 c -3.36,-20.72004 -18.6667,-35.09339 -43.49341,-35.09339 -29.12005,0 -47.78676,22.0267 -47.78676,50.58675 0,28.56006 18.85337,50.58676 49.09343,50.58676 z m 43.53339,-81.76015 h 13.25336 v 56.18677 c 0,18.1067 13.62669,22.96005 25.94671,22.96005 10.08002,0 15.8667,-0.37334 15.8667,-0.37334 v -18.6667 c 0,0 -4.29334,0.18667 -7.46668,0.18667 -5.60001,0 -9.52002,-2.42667 -9.52002,-9.52002 v -50.77343 h 16.4267 v -16.80003 h -16.4267 v -29.86672 h -24.82671 v 29.86672 h -13.25336 z"
   id="text2"
   aria-label="Object" /><path
   style="font-weight:600;font-size:186.667px;font-family:'Haas Grot Disp R Trial';-inkscape-font-specification:'Haas Grot Disp R Trial Semi-Bold';letter-spacing:-5px;fill:#e3f2fd"
   d="m 62.158436,654.57202 h 28.000001 v -48.34667 h 32.853333 c 28,0 44.61334,-16.98666 44.61334,-42.18666 0,-12.32 -4.48,-22.77334 -11.94667,-30.42667 -7.84,-8.02667 -19.41333,-12.50667 -34.90667,-12.50667 H 62.158436 Z M 90.158437,544.62535 h 28.373333 c 13.44,0 21.28,7.09334 21.28,19.6 0,12.13334 -7.46667,19.97334 -21.65333,19.97334 H 90.158437 Z m 115.026423,94.45334 c -8.96,0 -14.93334,-3.17334 -14.93334,-12.13334 0,-8.96 6.53334,-11.94666 19.78667,-14.93333 6.34667,-1.49333 13.25334,-2.98667 17.73334,-5.6 v 14.37333 c 0,9.33334 -8.02667,18.29334 -22.58667,18.29334 z m 25.38667,15.49333 h 24.45333 v -0.93333 c -2.24,-1.68 -3.36,-5.97334 -3.36,-13.25334 v -48.72 c 0,-22.4 -11.57333,-35.28 -40.32,-35.28 -28,0 -40.50667,14.74667 -41.25334,31.54667 h 22.58667 c 0.74667,-9.14667 6.53334,-13.44 18.48,-13.44 10.64,0 16.05334,4.48 16.05334,11.38667 0,7.28 -7.28,8.58666 -23.14667,10.82666 -21.28,2.98667 -38.45334,9.70667 -38.45334,30.8 0,19.04 13.81334,29.30667 33.41334,29.30667 16.42667,0 23.33333,-5.6 28.18667,-12.88 h 0.37333 c 0.56,4.29333 1.49333,8.77333 2.98667,10.64 z m 70.97322,2.8 c 23.89333,0 40.32,-11.57333 40.32,-30.8 0,-22.4 -17.73334,-26.88 -33.78667,-30.24 -13.62667,-2.8 -26.32,-3.54667 -26.32,-11.76 0,-6.90667 6.53333,-10.64 16.42667,-10.64 10.82666,0 17.36,3.73333 18.48,14 h 22.96 c -1.86667,-19.22667 -15.86667,-31.73333 -41.06667,-31.73333 -21.84,0 -39.01333,9.89333 -39.01333,30.61333 0,20.90667 16.8,25.57333 33.97333,28.93333 13.06667,2.61334 25.2,3.54667 25.2,12.69334 0,6.72 -6.34667,11.01333 -17.54667,11.01333 -11.38666,0 -19.22666,-4.85333 -20.90666,-15.86667 h -23.52 c 1.49333,20.34667 16.98666,33.78667 44.8,33.78667 z m 92.06661,0 c 25.57333,0 41.44,-16.24 43.12,-36.58667 h -24.45333 c -1.68,10.82667 -8.96,16.24 -19.22667,16.24 -15.49333,0 -22.77333,-12.13333 -22.77333,-30.24 0,-18.48 7.84,-30.24 23.14666,-30.24 9.33334,0 15.86667,6.34667 17.54667,14.74667 h 24.82667 c -3.36,-20.72 -18.66667,-35.09333 -43.49334,-35.09333 -29.12,0 -47.78666,22.02666 -47.78666,50.58666 0,28.56 18.85333,50.58667 49.09333,50.58667 z m 85.9067,-18.29333 c -8.96,0 -14.93334,-3.17334 -14.93334,-12.13334 0,-8.96 6.53334,-11.94666 19.78667,-14.93333 6.34667,-1.49333 13.25333,-2.98667 17.73333,-5.6 v 14.37333 c 0,9.33334 -8.02666,18.29334 -22.58666,18.29334 z m 25.38666,15.49333 h 24.45334 v -0.93333 c -2.24,-1.68 -3.36,-5.97334 -3.36,-13.25334 v -48.72 c 0,-22.4 -11.57334,-35.28 -40.32,-35.28 -28,0 -40.50667,14.74667 -41.25334,31.54667 h 22.58667 c 0.74667,-9.14667 6.53333,-13.44 18.48,-13.44 10.64,0 16.05333,4.48 16.05333,11.38667 0,7.28 -7.28,8.58666 -23.14666,10.82666 -21.28,2.98667 -38.45334,9.70667 -38.45334,30.8 0,19.04 13.81334,29.30667 33.41334,29.30667 16.42666,0 23.33333,-5.6 28.18666,-12.88 h 0.37334 c 0.56,4.29333 1.49333,8.77333 2.98666,10.64 z m 32.51988,0 h 25.38667 V 521.10535 H 537.4246 Z"
   id="text3"
   aria-label="Pascal" /></svg>
