<?xml version="1.0" encoding="UTF-8" standalone="no"?>
<svg
   width="702.68317"
   height="703.4137"
   viewBox="0 0 702.68317 703.4137"
   version="1.1"
   xml:space="preserve"
   id="SVGRoot"
   sodipodi:docname="logo3.svg"
   inkscape:version="1.3.2 (091e20ef0f, 2023-11-25)"
   xmlns:inkscape="http://www.inkscape.org/namespaces/inkscape"
   xmlns:sodipodi="http://sodipodi.sourceforge.net/DTD/sodipodi-0.dtd"
   xmlns:xlink="http://www.w3.org/1999/xlink"
   xmlns="http://www.w3.org/2000/svg"
   xmlns:svg="http://www.w3.org/2000/svg"><defs
   id="defs48"><linearGradient
     id="linearGradient3"
     inkscape:collect="always"><stop
       style="stop-color:#64b5f6;stop-opacity:1;"
       offset="0"
       id="stop3" /><stop
       style="stop-color:#0a5ac1;stop-opacity:1;"
       offset="0.71666759"
       id="stop4" /></linearGradient><linearGradient
     inkscape:collect="always"
     xlink:href="#linearGradient3"
     id="linearGradient4"
     x1="444.26062"
     y1="89.199318"
     x2="444.26062"
     y2="786.52948"
     gradientUnits="userSpaceOnUse"
     spreadMethod="pad"
     gradientTransform="matrix(1.0003743,0,0,1.0003743,-91.565419,-85.771718)" /></defs>
<sodipodi:namedview
   pagecolor="#a9a9a9"
   bordercolor="#292929"
   borderopacity="1"
   inkscape:showpageshadow="2"
   inkscape:pageopacity="0.0"
   inkscape:pagecheckerboard="0"
   inkscape:deskcolor="#232323"
   id="namedview1"
   inkscape:zoom="0.90111111"
   inkscape:cx="391.18372"
   inkscape:cy="361.22072"
   inkscape:window-width="1874"
   inkscape:window-height="1011"
   inkscape:window-x="0"
   inkscape:window-y="0"
   inkscape:window-maximized="1"
   inkscape:current-layer="SVGRoot" />
<style
   type="text/css"
   id="style1">
g.prefab path {
  vector-effect:non-scaling-stroke;
  -inkscape-stroke:hairline;
  fill: none;
  fill-opacity: 1;
  stroke-opacity: 1;
  stroke: #00349c;
}
</style>

<rect
   style="display:inline;fill:url(#linearGradient4);fill-opacity:1;stroke:none;stroke-width:0;stroke-linejoin:round;stroke-dasharray:none;stroke-opacity:1;paint-order:normal"
   id="rect49"
   width="700.26202"
   height="700.26202"
   x="2.4211659"
   y="3.151669"
   rx="60"
   ry="60" /><path
   style="font-weight:600;font-size:173.333px;font-family:'Eurostile LT Std';-inkscape-font-specification:'Eurostile LT Std Semi-Bold';letter-spacing:-5px;fill:#e3f2fd"
   d="m 206.50911,370.95367 c -41.25325,0 -54.94656,7.10665 -54.94656,47.49324 v 35.01326 c 0,42.63992 14.73331,49.57324 54.94656,49.57324 39.34659,0 55.46656,-7.97332 55.46656,-49.57324 v -35.01326 c 0,-41.77326 -18.02663,-47.49324 -55.46656,-47.49324 z m 0,21.31995 c 22.18662,0 31.02661,1.73333 30.50661,26.17329 v 35.01326 c 0,25.13328 -7.79999,28.25328 -30.50661,28.25328 -24.95995,0 -29.98661,-2.42666 -29.98661,-28.25328 v -35.01326 c 0.52,-20.62663 3.12,-26.17329 29.98661,-26.17329 z m 110.9598,34.31994 c 15.07997,0 19.41329,4.33332 19.41329,27.21328 0,20.62662 0.52,32.5866 -19.41329,32.5866 -22.35996,0 -21.83996,-10.91998 -21.83996,-32.5866 0,-19.4133 2.94666,-27.21328 21.83996,-27.21328 z m -43.67992,75.39985 h 21.83996 l -0.86666,-13.69331 h 0.69333 c 5.54665,11.95998 15.59997,14.73331 28.42661,14.73331 33.79993,0 34.83993,-21.31996 34.83993,-49.22657 0,-26.69328 -3.63999,-43.85325 -34.83993,-43.85325 -11.09331,0 -22.70662,2.08 -27.38661,13.17331 h -0.86667 V 371.99366 H 273.78899 Z M 392.20206,410.99359 H 370.3621 v 95.15981 c 0,6.41332 -1.04,11.09331 -10.74665,11.09331 v 15.59997 c 2.77333,0.69333 5.37333,1.04 8.14665,1.04 19.9333,0 24.43996,-12.13331 24.43996,-29.81328 z m 0,-38.99993 H 370.3621 v 18.54663 h 21.83996 z m 73.34657,101.05314 c 0,13.51997 -8.49332,13.34664 -20.62663,13.34664 -19.58662,0 -20.10662,-6.23999 -20.10662,-25.82662 h 62.57321 c 0,-39.69325 -5.02666,-50.61323 -42.46659,-50.61323 -36.74659,0 -41.94658,14.2133 -41.94658,46.79991 0,35.18659 7.10665,46.27991 41.94658,46.27991 25.99995,0 42.46659,-1.38667 42.46659,-29.98661 z m -40.73325,-26.34662 c 0,-16.11996 1.21333,-20.10662 20.10662,-20.10662 17.8533,0 20.62663,1.38666 20.62663,20.10662 z m 132.97301,20.62663 c 0,15.94664 -1.73333,19.06663 -19.58663,19.06663 -19.23996,0 -18.89329,-7.10665 -18.89329,-29.81328 0,-23.39995 0.17333,-29.9866 18.89329,-29.9866 15.25331,0 19.58663,2.42666 19.58663,16.2933 h 21.83996 c 0,-28.77328 -14.38664,-32.93327 -41.42659,-32.93327 -35.70659,0 -40.73325,14.7333 -40.73325,46.62657 0,36.7466 7.27999,46.45325 40.73325,46.45325 30.67994,0 41.42659,-5.89333 41.42659,-35.7066 z m 21.86673,-39.69326 h 11.43998 v 46.79991 c 0,23.05329 7.27998,28.59995 31.19994,28.59995 23.57328,0 30.5066,-8.31999 30.15994,-35.87993 h -19.23997 c 0,9.53331 1.38667,19.23996 -10.91997,19.23996 -9.18665,0 -9.18665,-3.81333 -9.35999,-12.13331 v -46.62658 h 34.83994 V 410.99359 H 612.93505 V 390.36696 H 591.0951 v 20.62663 h -11.43998 z"
   id="text2"
   aria-label="Object" /><path
   style="font-weight:600;font-size:173.333px;font-family:'Eurostile LT Std';-inkscape-font-specification:'Eurostile LT Std Semi-Bold';letter-spacing:-5px;fill:#e3f2fd"
   d="M 61.598417,654.57202 H 86.558368 V 612.4521 h 32.586602 c 33.97327,0 46.27991,-6.41332 46.27991,-43.15991 0,-36.39993 -11.43998,-44.71991 -46.27991,-44.71991 H 61.598417 Z m 24.959951,-63.43987 v -45.23991 h 32.586602 c 18.71996,-0.17334 21.31996,5.02665 21.31996,23.39995 0,18.19996 -3.46666,21.49329 -21.31996,21.83996 z m 128.466552,22.53329 c 10.74664,0 20.10662,0.34666 20.10662,12.99997 0,12.99997 -8.49331,14.03997 -20.10662,14.03997 -14.73331,0 -19.9333,-1.21333 -19.9333,-14.03997 0,-12.99997 8.83999,-12.99997 19.9333,-12.99997 z m 20.10662,40.90658 h 21.83996 v -57.02655 c 0,-30.50661 -12.13331,-35.01327 -41.25325,-35.01327 -20.79996,0 -38.99992,1.04 -38.99992,27.55995 h 21.83995 c 0,-11.78665 7.62665,-12.65331 17.15997,-12.65331 18.19996,0 19.41329,5.19999 19.41329,19.93329 v 11.78665 h -0.69333 c -5.19999,-10.22665 -16.11997,-10.39998 -27.21328,-10.39998 -22.53329,0 -33.97326,6.06665 -33.97326,27.90661 0,24.61328 13.34664,28.94661 33.97326,28.94661 10.57332,0 23.91996,-0.34667 28.25328,-12.47998 h 0.52 z m 115.63989,-66.2132 c 0,-25.47995 -21.31996,-25.82662 -39.17326,-25.82662 -23.39995,0 -41.42658,0.52 -41.42658,25.47995 0,23.22662 6.06665,27.73328 39.51992,28.25328 22.01329,0.34667 22.53329,4.33332 22.53329,12.30664 0,12.47998 -7.62665,12.13331 -20.62663,12.13331 -16.11997,0 -19.23996,-1.55999 -19.58663,-14.7333 h -21.83995 c 0,29.63994 16.63996,29.63994 41.42658,29.63994 23.05329,0 42.46659,-2.42666 42.46659,-27.03995 0,-29.46661 -19.06663,-27.90661 -40.55992,-28.94661 -19.06663,-0.86666 -21.4933,-1.21333 -21.4933,-10.22664 0,-11.95998 7.97332,-11.95998 19.58663,-11.95998 11.61331,0 17.3333,0 17.3333,10.91998 z m 71.95971,31.5466 c 0,15.94664 -1.73333,19.06663 -19.58663,19.06663 -19.23996,0 -18.89329,-7.10665 -18.89329,-29.81327 0,-23.39996 0.17333,-29.98661 18.89329,-29.98661 15.25331,0 19.58663,2.42666 19.58663,16.2933 h 21.83996 c 0,-28.77328 -14.38664,-32.93327 -41.42659,-32.93327 -35.70659,0 -40.73325,14.73331 -40.73325,46.62658 0,36.74659 7.27999,46.45324 40.73325,46.45324 30.67994,0 41.42659,-5.89332 41.42659,-35.7066 z m 71.43996,-6.23998 c 10.74665,0 20.10663,0.34666 20.10663,12.99997 0,12.99997 -8.49332,14.03997 -20.10663,14.03997 -14.7333,0 -19.93329,-1.21333 -19.93329,-14.03997 0,-12.99997 8.83998,-12.99997 19.93329,-12.99997 z m 20.10663,40.90658 h 21.83996 v -57.02655 c 0,-30.50661 -12.13331,-35.01327 -41.25325,-35.01327 -20.79996,0 -38.99993,1.04 -38.99993,27.55995 h 21.83996 c 0,-11.78665 7.62665,-12.65331 17.15997,-12.65331 18.19996,0 19.41329,5.19999 19.41329,19.93329 v 11.78665 h -0.69333 c -5.19999,-10.22665 -16.11997,-10.39998 -27.21328,-10.39998 -22.53329,0 -33.97327,6.06665 -33.97327,27.90661 0,24.61328 13.34664,28.94661 33.97327,28.94661 10.57331,0 23.91995,-0.34667 28.25328,-12.47998 h 0.52 z M 574.7977,524.57228 h -21.83996 v 129.99974 h 21.83996 z"
   id="text3"
   aria-label="Pascal" /></svg>
