<?xml version="1.0" encoding="UTF-8" standalone="no"?>
<svg
   width="702.68317"
   height="703.4137"
   viewBox="0 0 702.68317 703.4137"
   version="1.1"
   xml:space="preserve"
   id="SVGRoot"
   sodipodi:docname="logo7.svg"
   inkscape:version="1.3.2 (091e20ef0f, 2023-11-25)"
   xmlns:inkscape="http://www.inkscape.org/namespaces/inkscape"
   xmlns:sodipodi="http://sodipodi.sourceforge.net/DTD/sodipodi-0.dtd"
   xmlns:xlink="http://www.w3.org/1999/xlink"
   xmlns="http://www.w3.org/2000/svg"
   xmlns:svg="http://www.w3.org/2000/svg"><defs
   id="defs48"><linearGradient
     id="linearGradient3"
     inkscape:collect="always"><stop
       style="stop-color:#64b5f6;stop-opacity:1;"
       offset="0"
       id="stop3" /><stop
       style="stop-color:#0a5ac1;stop-opacity:1;"
       offset="0.71666759"
       id="stop4" /></linearGradient><linearGradient
     inkscape:collect="always"
     xlink:href="#linearGradient3"
     id="linearGradient4"
     x1="444.26062"
     y1="89.199318"
     x2="444.26062"
     y2="786.52948"
     gradientUnits="userSpaceOnUse"
     spreadMethod="pad"
     gradientTransform="matrix(1.0003743,0,0,1.0003743,-91.565419,-85.771718)" /></defs>
<sodipodi:namedview
   pagecolor="#a9a9a9"
   bordercolor="#292929"
   borderopacity="1"
   inkscape:showpageshadow="2"
   inkscape:pageopacity="0.0"
   inkscape:pagecheckerboard="0"
   inkscape:deskcolor="#232323"
   id="namedview1"
   inkscape:zoom="0.90111111"
   inkscape:cx="255.79531"
   inkscape:cy="243.58816"
   inkscape:window-width="1874"
   inkscape:window-height="1011"
   inkscape:window-x="0"
   inkscape:window-y="0"
   inkscape:window-maximized="1"
   inkscape:current-layer="SVGRoot" />
<style
   type="text/css"
   id="style1">
g.prefab path {
  vector-effect:non-scaling-stroke;
  -inkscape-stroke:hairline;
  fill: none;
  fill-opacity: 1;
  stroke-opacity: 1;
  stroke: #00349c;
}
</style>

<rect
   style="display:inline;fill:url(#linearGradient4);fill-opacity:1;stroke:none;stroke-width:0;stroke-linejoin:round;stroke-dasharray:none;stroke-opacity:1;paint-order:normal"
   id="rect49"
   width="700.26202"
   height="700.26202"
   x="2.4211659"
   y="3.151669"
   rx="60"
   ry="60" /><path
   style="font-weight:600;font-stretch:semi-condensed;font-size:186.667px;font-family:'Myriad Pro';-inkscape-font-specification:'Myriad Pro Semi-Bold Semi-Condensed';letter-spacing:-5px;fill:#e3f2fd"
   d="m 244.72268,374.31318 c -32.48006,0 -53.7601,27.06671 -53.7601,65.33345 0,37.14673 19.41337,64.21345 51.89343,64.21345 30.98672,0 53.76009,-22.40004 53.76009,-66.08012 0,-35.46673 -18.29336,-63.46678 -51.89342,-63.46678 z m -0.74667,18.10669 c 20.16003,0 29.49339,22.77338 29.49339,46.10676 0,25.94671 -10.08002,47.22675 -29.49339,47.22675 -19.2267,0 -29.86672,-20.16004 -29.86672,-46.29342 0,-25.94671 10.08002,-47.04009 29.86672,-47.04009 z m 65.37335,84.37349 c 0,8.77335 -0.37333,18.85337 -0.74666,25.20005 h 18.85336 l 1.12001,-12.88003 h 0.37333 c 5.97334,10.26669 14.74669,14.7467 25.38671,14.7467 19.22671,0 37.52007,-16.4267 37.52007,-48.72009 0.18667,-27.44005 -13.81336,-45.73342 -33.97339,-45.73342 -12.13336,0 -20.90671,5.04001 -26.13338,13.62669 h -0.37334 v -52.64009 h -22.02671 z m 22.02671,-28.74672 c 0,-2.05333 0.37334,-4.10667 0.74667,-5.78667 2.05334,-8.96002 9.33335,-15.3067 17.36003,-15.3067 13.62669,0 20.16004,13.06669 20.16004,29.12005 0,18.29337 -7.28002,30.05339 -20.16004,30.05339 -8.02668,0 -14.93336,-5.22667 -17.5467,-14.74669 -0.37333,-1.49334 -0.56,-3.36001 -0.56,-5.41334 z m 56.60024,92.96017 c 10.26669,0 22.21338,-2.98667 29.49339,-9.89335 8.02668,-7.65335 11.57335,-18.6667 11.57335,-37.70673 v -82.32015 h -22.0267 v 76.3468 c 0,18.48004 -1.49334,25.38671 -5.41335,30.05339 -3.54667,3.92001 -9.14668,5.60001 -15.68003,6.16001 z M 418.0297,373.93984 c -7.28001,0 -12.32002,5.22668 -12.32002,12.13336 0,6.90668 4.85334,12.13335 11.94669,12.13335 7.65334,0 12.50669,-5.22667 12.50669,-12.13335 0,-6.90668 -4.85335,-12.13336 -12.13336,-12.13336 z m 99.90674,88.66683 c 0.37333,-2.05334 0.74667,-5.41334 0.74667,-9.89335 0,-21.28004 -9.70669,-43.49341 -36.02673,-43.49341 -26.32005,0 -41.25341,22.21337 -41.25341,48.72008 0,27.81339 15.86669,45.73342 43.49341,45.73342 11.76002,0 22.02671,-2.24 29.12005,-5.41334 l -3.17334,-15.3067 c -6.16001,2.24001 -13.06669,3.92001 -22.5867,3.92001 -13.44003,0 -25.20005,-6.72001 -25.57338,-24.26671 z m -55.25343,-15.49336 c 0.74666,-9.70669 6.16001,-22.40004 18.48003,-22.40004 12.88002,0 16.9867,12.13335 16.80003,22.40004 z m 126.41359,35.84006 c -3.92001,1.86667 -8.77335,3.17334 -15.49336,3.17334 -14.56003,0 -25.38672,-10.82668 -25.38672,-29.49338 0,-16.61337 9.14669,-29.86673 25.38672,-29.86673 7.09334,0 11.94668,1.68001 15.12002,3.17334 l 3.73334,-16.80003 c -4.48001,-2.05333 -11.94669,-3.73334 -19.41337,-3.73334 -29.68005,0 -47.22675,20.90671 -47.22675,47.97342 0,28.74672 17.17337,46.29342 43.49341,46.29342 10.08002,0 18.48004,-2.24 22.58671,-4.10667 z m 19.82669,-88.48016 v 16.61337 h -12.32003 v 16.24003 h 12.32003 v 44.24008 c 0,12.32002 2.24,20.16003 7.09334,25.20004 4.10668,4.48001 10.64002,6.90668 18.48004,6.90668 6.72001,0 12.32002,-0.93333 15.68003,-2.05334 l -0.56001,-16.98669 c -2.42667,0.74666 -4.48,0.93333 -8.02668,0.93333 -7.65334,0 -11.01335,-4.85334 -11.01335,-15.86669 v -42.37341 h 20.53337 v -16.24003 h -20.53337 v -23.14671 z"
   id="text2"
   aria-label="Object" /><path
   d="m 64.398436,654.57202 h 21.840001 v -47.97333 c 2.8,0.56 5.973334,0.74666 9.52,0.74666 14.746663,0 28.373333,-4.29333 37.146663,-13.44 6.53334,-6.72 10.26667,-16.24 10.26667,-28.37333 0,-11.57333 -4.48,-21.46667 -11.76,-27.62667 -7.84,-6.90667 -19.6,-10.08 -35.466666,-10.08 -13.44,0 -23.893334,1.12 -31.546668,2.61333 z M 86.238437,546.11869 c 2.24,-0.56 6.16,-1.12 11.386667,-1.12 15.306666,0 23.519996,8.21333 23.519996,21.46666 0,14.74667 -9.52,23.52 -25.573329,23.52 -3.920001,0 -6.906667,-0.18666 -9.333334,-0.74666 z m 131.080113,53.2 c 0,-19.6 -7.65334,-37.33334 -34.90667,-37.33334 -13.44,0 -24.45334,3.92 -30.61334,7.65334 l 4.29334,14.37333 c 5.78666,-3.54667 14,-6.16 22.21333,-6.16 14.18667,0 16.98667,8.77333 16.98667,15.86667 v 1.68 c -29.68,0 -49.84,11.01333 -49.84,33.97333 0,14.56 10.08,27.06667 26.88,27.06667 10.64,0 19.41333,-4.66667 24.64,-11.76 h 0.37333 l 1.49334,9.89333 h 19.78666 c -0.93333,-5.78667 -1.30666,-13.62667 -1.30666,-21.46667 z m -21.46667,24.26666 c 0,1.68 -0.18667,3.36 -0.56,5.04 -2.05333,6.72 -8.21334,11.76 -16.05334,11.76 -6.34666,0 -12.13333,-3.92 -12.13333,-13.25333 0,-14.37333 15.12,-17.54667 28.74667,-17.36 z m 33.64018,26.69334 c 5.78666,3.54666 15.30666,5.97333 25.01333,5.97333 22.02667,0 34.90667,-11.2 34.90667,-28.18667 0,-12.88 -7.28,-21.46666 -22.58667,-27.62666 -10.64,-4.66667 -14.37333,-7.46667 -14.37333,-12.88 0,-5.41334 4.10666,-9.52 11.94666,-9.52 7.09334,0 13.44,2.61333 17.17334,4.85333 l 4.48,-15.86667 c -5.04,-2.61333 -12.88,-5.04 -22.02667,-5.04 -19.78667,0 -32.48,12.13334 -32.48,28 0,10.26667 6.53333,19.6 22.96,26.32 10.45333,4.29334 13.81333,7.65334 13.81333,13.62667 0,6.16 -4.48,10.26667 -13.62666,10.26667 -7.65334,0 -16.24,-3.17334 -20.90667,-5.97334 z m 130.52005,-14.74667 c -3.92,1.86667 -8.77334,3.17333 -15.49334,3.17333 -14.56,0 -25.38667,-10.82666 -25.38667,-29.49333 0,-16.61333 9.14667,-29.86667 25.38667,-29.86667 7.09334,0 11.94667,1.68 15.12,3.17334 l 3.73334,-16.8 c -4.48,-2.05334 -11.94667,-3.73334 -19.41334,-3.73334 -29.68,0 -47.22667,20.90667 -47.22667,47.97334 0,28.74666 17.17334,46.29333 43.49334,46.29333 10.08,0 18.48,-2.24 22.58667,-4.10667 z m 79.7467,-36.21333 c 0,-19.6 -7.65334,-37.33334 -34.90667,-37.33334 -13.44,0 -24.45333,3.92 -30.61333,7.65334 l 4.29333,14.37333 c 5.78667,-3.54667 14,-6.16 22.21333,-6.16 14.18667,0 16.98667,8.77333 16.98667,15.86667 v 1.68 c -29.68,0 -49.84,11.01333 -49.84,33.97333 0,14.56 10.08,27.06667 26.88,27.06667 10.64,0 19.41333,-4.66667 24.64,-11.76 h 0.37333 l 1.49334,9.89333 h 19.78666 c -0.93333,-5.78667 -1.30666,-13.62667 -1.30666,-21.46667 z m -21.46667,24.26666 c 0,1.68 -0.18667,3.36 -0.56,5.04 -2.05333,6.72 -8.21333,11.76 -16.05333,11.76 -6.34667,0 -12.13334,-3.92 -12.13334,-13.25333 0,-14.37333 15.12,-17.54667 28.74667,-17.36 z m 39.0535,30.98667 h 22.02666 v -131.6 h -22.02666 z"
   id="text3"
   style="font-weight:600;font-stretch:semi-condensed;font-size:186.667px;font-family:'Myriad Pro';-inkscape-font-specification:'Myriad Pro Semi-Bold Semi-Condensed';letter-spacing:-5px;fill:#e3f2fd"
   aria-label="Pascal" /></svg>
