<?xml version="1.0" encoding="UTF-8" standalone="no"?>
<svg
   version="1.1"
   width="1269"
   height="1401"
   id="svg6"
   sodipodi:docname="lazdelphi.svg"
   inkscape:version="1.3.2 (091e20e, 2023-11-25, custom)"
   inkscape:export-filename="lazdelphi.png"
   inkscape:export-xdpi="90"
   inkscape:export-ydpi="90"
   xmlns:inkscape="http://www.inkscape.org/namespaces/inkscape"
   xmlns:sodipodi="http://sodipodi.sourceforge.net/DTD/sodipodi-0.dtd"
   xmlns="http://www.w3.org/2000/svg"
   xmlns:svg="http://www.w3.org/2000/svg">
  <defs
     id="defs6">
    <radialGradient
       id="a"
       cx="7.999824"
       cy="7.9998589"
       gradientUnits="userSpaceOnUse"
       r="9.0002432"
       gradientTransform="matrix(62.991206,0,0,62.991206,-784.56588,1012.6833)">
      <stop
         offset="0"
         stop-color="#b3c9ec"
         id="stop2" />
      <stop
         offset="1"
         stop-color="#fff"
         id="stop4" />
    </radialGradient>
    <radialGradient
       id="b"
       cx="7.9994907"
       cy="7.9995255"
       gradientUnits="userSpaceOnUse"
       r="7.6662569"
       gradientTransform="matrix(62.991206,0,0,62.991206,-784.56588,1012.6833)">
      <stop
         offset="0"
         stop-color="#598bd4"
         id="stop7" />
      <stop
         offset=".56522"
         stop-color="#9ab8e5"
         id="stop9" />
      <stop
         offset="1"
         stop-color="#fff"
         id="stop11" />
    </radialGradient>
    <clipPath
       clipPathUnits="userSpaceOnUse"
       id="clipPath68">
      <path
         d="m 313.20499,1089.3141 c 5.1204,4.8379 8.7259,12.7521 11.4772,22.4585 4.4891,15.8371 5.2762,37.8678 5.279,39.4967 0.01,5.7007 0.01,11.4013 0.01,17.102 0,8.4774 8e-4,16.9547 0.01,25.4321 0.015,16.0235 0.017,32.0469 0.014,48.0703 0,12.3752 -10e-5,24.7503 0,37.1254 6e-4,1.7793 0,3.5586 0,5.3379 9e-4,2.6815 0,5.3629 0,8.0443 0.01,24.9232 0.013,49.8464 0.01,74.7696 l -5e-4,2.8459 c -8e-4,4.7596 0,9.5192 0,14.2787 l -5e-4,2.8644 c -3e-4,1.9115 -7e-4,3.823 0,5.7344 0,29.742 0,59.4839 0.021,89.2258 0.021,33.4326 0.031,66.8653 0.027,100.298 -4e-4,3.5663 -8e-4,7.1326 0,10.6989 l -3e-4,2.6609 c -0.001,13.2422 0.01,26.4845 0.016,39.7267 0.012,15.064 0.014,30.128 0.001,45.192 -0.01,8.4239 0,16.8478 0.01,25.2718 0.01,5.6351 0.01,11.2702 -0.01,16.9053 -0.01,3.2053 -0.01,6.4103 0,9.6155 0.076,25.7993 -2.5846,48.5075 -21.386,67.9045 -5.9639,5.8853 -12.332,10.1132 -19.6631,14.0996 -2.6709,1.4577 -5.3203,2.9508 -7.9697,4.4473 -5.3503,3.0173 -10.7138,6.0104 -16.081,8.9975 -5.2673,2.9342 -10.5265,5.8829 -15.7862,8.8306 -6.2725,3.5134 -12.5455,7.0258 -18.8203,10.5352 -10.0717,5.6341 -20.1363,11.2802 -30.1797,16.9648 -11.0947,6.2796 -22.2161,12.511 -33.3427,18.7339 -5.2202,2.9201 -10.4387,5.8432 -15.6573,8.7661 -6.2726,3.5132 -12.5455,7.0258 -18.8203,10.5352 -10.0717,5.6341 -20.1363,11.2802 -30.1797,16.9648 -13.1964,7.4692 -26.4313,14.8694 -39.666,22.2705 -11.12367,6.2214 -22.24207,12.4515 -33.33397,18.7295 -11.0947,6.2796 -22.2161,12.511 -33.3427,18.7339 -5.2202,2.9201 -10.4387,5.8432 -15.6573,8.7661 -6.2726,3.5132 -12.5455,7.0258 -18.8203,10.5352 -10.0717,5.6341 -20.1363,11.2802 -30.1797,16.9648 -13.1964,7.4692 -26.4313,14.8694 -39.666,22.2705 -11.1237,6.2214 -22.2421,12.4515 -33.334,18.7295 -11.0947,6.2796 -22.2161,12.511 -33.3428,18.734 -5.2201,2.92 -10.4386,5.8431 -15.6572,8.766 -6.2726,3.5133 -12.5455,7.0258 -18.8203,10.5353 -2.1016,1.1756 -4.2032,2.3513 -6.3047,3.5272 l -3.134,1.7534 c -6.0287,3.3759 -12.0466,6.77 -18.0559,10.1803 -4.7227,2.678 -9.4525,5.3435 -14.1851,8.0038 l -2.9614,1.6675 c -2.9244,1.6412 -5.8554,3.2698 -8.7886,4.895 l -2.6316,1.481 c -17.721,9.7521 -37.623,13.2339 -57.4934,8.4565 -8.189,-2.5752 -15.6086,-6.4328 -23.125,-10.5 -1.8462,-0.9847 -3.6925,-1.9691 -5.5391,-2.953 -11.9666,-6.4086 -23.8113,-13.0246 -35.6132,-19.7305 -6.1009,-3.4658 -12.223,-6.8931 -18.3477,-10.3165 -8.0113,-4.48 -16.0122,-8.978 -24,-13.5 -11.0947,-6.2797 -22.2161,-12.5109 -33.3428,-18.7338 -6.2605,-3.502 -12.5187,-7.0082 -18.7773,-10.5137 -5.2326,-2.9305 -10.4658,-5.8601 -15.7002,-8.7876 -11.0214,-6.1655 -22.03015,-12.3522 -33.02052,-18.5727 -10.14911,-5.7412 -20.32504,-11.4343 -30.50195,-17.126 -6.26052,-3.502 -12.51872,-7.0082 -18.77735,-10.5137 -5.23263,-2.9305 -10.46582,-5.8601 -15.70019,-8.7876 -11.0214,-6.1655 -22.03014,-12.3522 -33.02051,-18.5727 -11.19868,-6.3349 -22.42956,-12.6122 -33.65918,-18.8921 -13.12913,-7.3421 -26.24966,-14.6983 -39.34082,-22.1079 -10.14911,-5.7412 -20.32504,-11.4343 -30.50195,-17.126 -6.26052,-3.502 -12.51872,-7.0082 -18.77735,-10.5137 -5.23263,-2.9305 -10.46582,-5.8601 -15.70019,-8.7876 -11.0214,-6.1655 -22.03014,-12.3522 -33.02051,-18.5727 -11.19868,-6.3349 -22.42956,-12.6122 -33.65918,-18.8921 -26.52301,-14.8323 -26.52301,-14.8323 -39.4463,-22.1628 -4.91664,-2.7883 -9.84302,-5.5566 -14.78808,-8.2943 l -3.11475,-1.7342 c -1.94747,-1.0837 -3.89809,-2.1618 -5.85254,-3.2329 -14.90241,-8.32 -36.60305,-16.3265 -22.8018,-23.9322 374.1093,-206.1642 623.79747,-348.1286 1199.92284,-685.3887 20.9049,-12.2376 30.4676,-20.7477 32.6027,-16.6896 z"
         fill="#3847A9"
         id="path68"
         style="fill:#b1c8ec;fill-opacity:1"
         sodipodi:nodetypes="cscscssssssssssssssscscccccccscscscscscscscssscccccccccccccscccsccsccsccsccccssc" />
    </clipPath>
  </defs>
  <sodipodi:namedview
     id="namedview6"
     pagecolor="#ffffff"
     bordercolor="#666666"
     borderopacity="1.0"
     inkscape:showpageshadow="2"
     inkscape:pageopacity="0.0"
     inkscape:pagecheckerboard="0"
     inkscape:deskcolor="#d1d1d1"
     inkscape:zoom="1.6574866"
     inkscape:cx="1256.7221"
     inkscape:cy="902.26975"
     inkscape:window-width="1920"
     inkscape:window-height="1017"
     inkscape:window-x="-8"
     inkscape:window-y="-8"
     inkscape:window-maximized="1"
     inkscape:current-layer="svg6" />
  <g
     id="g29"
     transform="translate(980.05257,682.48079)">
    <path
       d="m -301.79678,-655.48204 2.93457,1.60791 c 6.88668,3.77978 13.74813,7.60334 20.59912,11.44726 3.2932,1.8477 6.58836,3.69183 9.88428,5.53467 7.22501,4.04119 14.44551,8.09041 21.66601,12.13965 12.92808,7.24904 25.86961,14.47294 38.82959,21.66479 8.56802,4.75666 17.12066,9.54026 25.66797,14.33399 7.66962,4.29897 15.35433,8.57026 23.04346,12.83423 8.31202,4.61042 16.60627,9.24987 24.875,13.9375 11.64467,6.6004 23.34504,13.09882 35.051756,19.58838 15.36086,8.51568 30.71156,17.04884 46.03027,25.64014 7.66943,4.29894 15.354,8.5701 23.04297,12.83398 8.31202,4.61043 16.60627,9.24987 24.875,13.9375 11.64467,6.6004 23.34504,13.09882 35.05176,19.58838 15.36086,8.51568 30.71156,17.04884 46.03027,25.64014 7.66943,4.29894 15.35398,8.57014 23.04297,12.83398 8.271664,4.58746 16.523754,9.20661 24.750004,13.875 8.67215,4.92061 17.38888,9.75681 26.125,14.5625 9.67062,5.31976 19.30744,10.69427 28.90723,16.14111 7.26018,4.11562 14.54579,8.1839 21.84277,12.23389 l 3.396,1.8855 c 5.24461,2.91013 10.49141,5.81626 15.74235,8.71496 7.21718,3.98451 14.42252,7.98956 21.61165,12.02454 l 2.47119,1.38281 c 8.36504,4.71333 15.69459,9.82239 22.52881,16.61719 l 1.71875,1.67578 c 1.10861,1.09321 2.51847,2.95196 3.60121,4.07079 -1.2963,3.88889 -2.92032,3.42014 -6.48012,5.33546 l -3.30713,1.80298 -1.77325,0.95047 c -3.10617,1.66567 -6.19541,3.36227 -9.2868,5.05514 l -1.91272,1.04433 c -415.17086,245.871385 -780.04894,453.5887 -1211.97989,691.96375 -2.58,1.1013 -2.80625,1.62921 -4.59015,1.9115 -2.6909,-1.2661 -4.70086,-5.52224 -5.46979,-6.11695 l -1.52006,-2.69325 c -0.4866,-1.6645 -0.9638,-3.3318 -1.4375,-5 l -0.8086,-2.8125 c -1.7439,-7.3728 -1.8987,-14.5849 -1.8854,-22.12231 l -0.01,-3.28786 c -0.01,-3.64287 0,-7.2857 0,-10.92858 l -0.01,-7.90612 c -0.01,-6.48793 -0.01,-12.97586 -0.01,-19.4638 -9e-4,-7.7725 -0.01,-15.54499 -0.014,-23.31749 -0.016,-18.78461 -0.022,-37.56921 -0.027,-56.35382 0,-8.88876 -0.01,-17.77751 -0.01,-26.66627 -0.013,-30.43541 -0.024,-60.87081 -0.027,-91.30622 l -6e-4,-5.7302 -7e-4,-5.74392 c -4e-4,-3.84101 -9e-4,-7.68201 -0.001,-11.52302 l -3e-4,-2.88589 c 0,-30.87587 -0.019,-61.75171 -0.043,-92.62757 -0.025,-32.65443 -0.038,-65.30885 -0.039,-97.96329 -2e-4,-3.58604 -4e-4,-7.17208 -7e-4,-10.75813 l -10e-5,-2.67565 c 0,-14.19682 -0.012,-28.39362 -0.027,-42.59044 -0.014,-14.27523 -0.018,-28.55043 -0.01,-42.82567 0,-8.47505 6e-4,-16.94999 -0.015,-25.42502 -0.01,-5.66937 -0.01,-11.33866 10e-4,-17.00803 0,-3.22488 0,-6.44954 -0.01,-9.67441 -0.08,-25.09129 2.2798,-48.00737 20.2345,-67.32176 7.89395,-7.65949 17.33143,-13.16268 26.95829,-18.33203 1.18679,-0.6467 2.37298,-1.29451 3.55859,-1.94336 1.80626,-0.98838 3.61282,-1.97614 5.4213,-2.96045 5.60575,-3.05179 11.15987,-6.19057 16.70761,-9.34619 9.45287,-5.36199 18.94799,-10.64538 28.45313,-15.91406 7.20145,-3.99533 14.38292,-8.02378 21.54687,-12.08594 9.40708,-5.33319 18.85149,-10.59677 28.30811,-15.84155 10.71662,-5.94477 21.4099,-11.93069 32.09912,-17.92456 5.19648,-2.91328 10.39472,-5.82342 15.59277,-8.73389 2.08334,-1.16665 4.16667,-2.33332 6.25,-3.5 103.12616,-57.75 206.25116,-115.5 340.62933,-190.75171 2.07284,-1.16083 4.14559,-2.3218 6.21827,-3.48291 5.36836,-3.00712 10.73825,-6.01146 16.11059,-9.01148 l 3.35156,-1.87304 c 2.08934,-1.16758 4.17915,-2.33431 6.26954,-3.5 5.0256,-2.80962 10.00875,-5.67128 14.95703,-8.61524 4.22452,-2.47148 8.21226,-4.50029 12.83984,-6.07812 l 3.25781,-1.14453 c 24.42329,-7.04214 46.76044,-3.10677 68.61719,8.95703 z"
       fill="#5c6bbe"
       id="path3"
       sodipodi:nodetypes="ccsccccccccccccccsccccccccccccccccccccccccccssscsssssssccccccccccccccccsccscccccc"
       style="fill:#bf4040;fill-opacity:1" />
    <g
       id="g46"
       transform="matrix(45.323511,0,0,45.323511,-1067.2984,-712.88246)"
       style="fill:#ffffff;fill-opacity:1">
      <path
         d="m 15.732551,3.0960876 c 0.554,0 1.1,0.036 1.635,0.105 l -0.063,-0.007 -0.755,1.4 -1.395,2.5900003 -0.946,1.7670012 c -0.02,0.05 -0.068,0.085 -0.124,0.085 -0.006,0 -0.013,0 -0.019,-10e-4 h 0.001 c -0.141,-0.01 -0.306,-0.015 -0.471,-0.015 -0.794,0 -1.559,0.127 -2.274,0.362 l 0.051,-0.015 0.25,-0.9370002 1.268,-4.7090013 c 0.029,-0.106 0.059,-0.212 0.085,-0.32 0.826,-0.194 1.774,-0.305 2.748,-0.305 0.003,0 0.006,0 0.009,0 z"
         id="path45"
         style="fill:#ffffff;fill-opacity:1" />
      <path
         d="m 18.911551,3.5050876 c 1.561,0.417 2.927,1.076 4.133,1.943 l -0.037,-0.026 -2.246,1.8910003 -2.139,1.7930012 c -0.36,0.302 -0.72,0.607 -1.076,0.9149999 -0.025,0.026 -0.06,0.042 -0.099,0.042 -0.027,0 -0.052,-0.008 -0.073,-0.021 h 0.001 c -0.681,-0.4099999 -1.475,-0.7179999 -2.321,-0.8779999 l -0.045,-0.007 0.579,-0.8370012 2.287,-3.3130003 q 0.519,-0.75 1.037,-1.502 z"
         id="path44"
         style="fill:#ffffff;fill-opacity:1" />
      <path
         d="m 11.790551,3.7310876 c -0.02,0.13 -0.037,0.251 -0.059,0.372 q -0.36,2.079 -0.725,4.1580003 c -0.075,0.440001 -0.144,0.8060012 -0.212,1.2470012 -0.012,0.082 -0.064,0.095 -0.116,0.116 C 9.7915511,10.022089 9.0325511,10.541089 8.3805511,11.171089 l 0.002,-0.002 -0.066,-0.794 c -0.025,-0.284 -0.046,-0.5659999 -0.069,-0.8479999 -0.024,-0.294 -0.046,-0.587 -0.071,-0.8800002 l -0.075,-0.856001 -0.071,-0.847 -0.075,-0.8780003 c -0.006,-0.082 -0.019,-0.165 -0.018,-0.247 l 10e-4,-0.006 c 1.097,-0.875 2.3749999,-1.582 3.7629999,-2.054 l 0.089,-0.026 z"
         id="path43"
         style="fill:#ffffff;fill-opacity:1" />
      <path
         d="m 6.9745512,6.6640879 0.8299999,3.6930011 c 0.082,0.366 0.166,0.71 0.244,1.077 0.001,0.007 0.002,0.015 0.002,0.023 0,0.035 -0.012,0.068 -0.032,0.094 v 0 c -0.4559999,0.531 -0.8539999,1.133 -1.1709999,1.782 l -0.022,0.05 -0.346,-0.699 Q 5.673551,11.063089 4.867551,9.4440891 c -0.013,-0.023 -0.021,-0.05 -0.022,-0.078 v 0 l 0.156,-0.257 c 0.311,-0.4410002 0.614,-0.8910012 0.943,-1.3180012 0.2460002,-0.317 0.5410002,-0.596 0.8140002,-0.892 z"
         id="path42"
         style="fill:#ffffff;fill-opacity:1" />
      <path
         d="m 13.644551,9.3310891 c 0.146,0 0.292,0.004 0.439,0.014 1.054,0.082 2.021,0.385 2.877,0.8629999 l -0.036,-0.018 c 0.603,0.325 1.123,0.686 1.598,1.098 l -0.011,-0.009 c 0.084,0.071 0.162,0.147 0.252,0.23 l -1.728,1.187 -4.652,3.179 c -0.385,0.262 -0.769,0.531 -1.156,0.791 -0.06,0.027 -0.101,0.087 -0.101,0.155 0,0.021 0.004,0.042 0.011,0.061 v -0.001 c 0.1,0.432 0.184,0.867 0.275,1.3 0.007,0.025 0.014,0.045 0.023,0.065 l -0.002,-0.004 0.777,-0.154 1.551,3.257 c -0.185,-0.025 -0.352,-0.051 -0.521,-0.071 -0.356,-0.04 -0.712,-0.084 -1.07,-0.112 -0.261,-0.026 -0.564,-0.04 -0.87,-0.04 -0.027,0 -0.054,0 -0.081,0 h 0.004 c -0.029,-10e-4 -0.063,-10e-4 -0.097,-10e-4 -0.563,0 -1.106,0.088 -1.6149999,0.251 l 0.037,-0.01 c -0.318,0.098 -0.583,0.287 -0.775,0.536 l -0.003,0.004 c -0.136,-0.134 -0.274,-0.26 -0.4,-0.395 -0.504,-0.537 -0.9269999,-1.156 -1.2459999,-1.835 l -0.018,-0.043 c -0.268,-0.567 -0.473,-1.225 -0.582,-1.916 l -0.005,-0.041 c -0.054,-0.32 -0.085,-0.69 -0.085,-1.066 0,-0.188 0.008,-0.374 0.023,-0.558 l -0.002,0.024 c 0.106,-1.377 0.583,-2.625 1.3309999,-3.666 l -0.015,0.022 c 1.107,-1.559 2.7779999,-2.6549999 4.7099999,-2.9929999 l 0.044,-0.006 c 0.336,-0.061 0.723,-0.096 1.118,-0.096 v 0 z"
         id="path41"
         style="fill:#ffffff;fill-opacity:1" />
      <path
         d="m 11.907551,10.312089 c -0.033,0.014 -0.064,0.026 -0.095,0.041 -0.727,0.342 -1.353,0.739 -1.9229999,1.201 l 0.017,-0.014 c -0.69,0.544 -1.272,1.186 -1.735,1.912 l -0.018,0.031 c -0.5069999,0.8 -0.8219999,1.768 -0.8569999,2.806 v 0.009 c -10e-4,0.049 -0.002,0.106 -0.002,0.163 0,0.578 0.078,1.137 0.225,1.669 l -0.01,-0.044 c 0.2440002,0.905 0.5849999,1.697 1.0209999,2.426 l -0.024,-0.043 c 0.041,0.072 0.092,0.062 0.144,0.039 0.149,-0.07 0.294,-0.147 0.446,-0.225 l -0.05,-0.087 c -0.205,-0.359 -0.43,-0.707 -0.611,-1.077 -0.42,-0.797 -0.6669997,-1.742 -0.6669997,-2.744 0,-0.158 0.006,-0.314 0.018,-0.468 l -10e-4,0.02 c 0.038,-0.444 0.123,-0.855 0.251,-1.245 l -0.011,0.038 c 0.504,-1.395 1.362,-2.561 2.4679996,-3.424 l 0.017,-0.013 c 0.411,-0.342 0.868,-0.663 1.35,-0.946 l 0.048,-0.026 z"
         id="path40"
         style="fill:#ffffff;fill-opacity:1" />
      <path
         d="m 4.237551,10.544089 0.434,0.58 c 0.632,0.85 1.272,1.697 1.9040002,2.546 0.036,0.034 0.059,0.082 0.059,0.135 0,0.024 -0.005,0.047 -0.013,0.068 v -10e-4 c -0.175,0.434 -0.314,0.941 -0.393,1.468 l -0.005,0.038 c -0.1550002,-0.136 -0.3090002,-0.27 -0.4500002,-0.396 l -1.877,-1.655 c -0.145,-0.129 -0.291,-0.256 -0.432,-0.39 -0.017,-0.018 -0.029,-0.04 -0.035,-0.064 v -10e-4 c 0.21,-0.869 0.475,-1.622 0.804,-2.339 l -0.033,0.079 z"
         id="path39"
         style="fill:#ffffff;fill-opacity:1" />
      <path
         d="m 19.636551,11.287089 0.169,1.02 c 0.071,0.441 0.139,0.882 0.21,1.325 l 0.241,1.49 c 0.045,0.271 0.087,0.544 0.134,0.816 0.012,0.071 0.004,0.107 -0.084,0.124 -0.987,0.191 -1.976,0.389 -2.964,0.582 q -1.85,0.364 -3.701,0.722 c -0.645,0.126 -1.287,0.256 -1.932,0.384 -0.005,0 -0.01,0.001 -0.015,0.001 -0.009,0 -0.017,-0.001 -0.025,-0.002 h 10e-4 c -0.072,-0.259 -0.149,-0.517 -0.215,-0.779 0,-0.04 0.019,-0.076 0.047,-0.1 v 0 z"
         id="path38"
         style="fill:#ffffff;fill-opacity:1" />
      <path
         d="m 3.213551,14.005089 0.715,0.445 c 0.707,0.44 1.428,0.883 2.137,1.321 0.054,0.026 0.091,0.08 0.091,0.143 0,0.007 0,0.013 -0.001,0.02 v -10e-4 c -0.013,0.182 -0.02,0.395 -0.02,0.609 0,0.382 0.023,0.758 0.068,1.128 l -0.004,-0.044 -0.5250002,-0.184 c -0.846,-0.292 -1.691,-0.586 -2.537,-0.875 l -0.037,-0.017 c -0.012,-0.209 -0.019,-0.454 -0.019,-0.701 0,-0.651 0.048,-1.29 0.14,-1.916 l -0.009,0.071 z"
         id="path37"
         style="fill:#ffffff;fill-opacity:1" />
      <path
         d="m 3.191551,17.547089 c 0.146,0.027 0.287,0.054 0.427,0.084 0.87,0.181 1.733,0.359 2.6020002,0.544 0.037,0.009 0.094,0.052 0.097,0.086 0.075,0.35 0.311,1.023 0.321,1.062 h -0.501 c -0.3920002,0 -0.7850002,-0.003 -1.1770002,0 q -0.694,0.008 -1.39,0.023 h -0.009 c -0.149,-0.501 -0.279,-1.11 -0.364,-1.733 l -0.007,-0.066 z"
         id="path36"
         style="fill:#ffffff;fill-opacity:1" />
      <path
         d="m 13.492551,18.248089 c 0.033,0.006 0.062,0.022 0.084,0.045 v 0 c 0.38,0.377 0.746,0.769 1.138,1.131 0.33,0.305 0.69,0.576 1.037,0.862 0.492,0.406 0.919,0.863 1.284,1.369 l 0.015,0.022 c 0.622,0.849 1.098,1.849 1.368,2.93 l 0.012,0.059 c 0.004,0.025 0.006,0.053 0.006,0.082 0,0.083 -0.017,0.162 -0.047,0.234 l 10e-4,-0.004 c -0.131,0.322 -0.343,0.589 -0.612,0.781 l -0.005,0.004 c -0.353,0.28 -0.758,0.518 -1.194,0.695 l -0.033,0.012 c -0.091,0.038 -0.125,0.019 -0.165,-0.07 q -0.68,-1.488 -1.37,-2.972 l -1.858,-4.028 -0.434,-0.937 -0.025,-0.065 c 0.267,-0.051 0.53,-0.104 0.792,-0.15 h 0.005 z"
         id="path35"
         style="fill:#ffffff;fill-opacity:1" />
      <path
         d="m 6.7525512,19.754089 c 0.044,0 0.075,0.021 0.105,0.075 0.192,0.381 0.371,0.692 0.564,0.992 l -0.026,-0.042 -2.6430002,1.408 c -0.288,-0.494 -0.569,-1.075 -0.804,-1.679 l -0.03,-0.086 2.7770002,-0.662 c 0.017,-0.005 0.037,-0.007 0.057,-0.008 v 0 z"
         id="path34"
         style="fill:#ffffff;fill-opacity:1" />
      <path
         d="m 11.169551,21.518089 c 0.147,0 0.294,0.006 0.441,0.019 0.671,0.056 1.34,0.139 2.009,0.214 0.04,0.009 0.074,0.034 0.093,0.068 v 10e-4 q 0.407,0.879 0.807,1.762 c 0.006,0.013 0.009,0.028 0.009,0.044 0,0.016 -0.003,0.031 -0.01,0.044 v -0.001 l -0.746,1.347 c -0.521,-0.089 -1.03,-0.185 -1.542,-0.26 q -0.59,-0.087 -1.185,-0.135 c -0.405,-0.032 -0.811,-0.062 -1.2159999,-0.061 -0.044,-0.001 -0.096,-0.002 -0.148,-0.002 -0.662,0 -1.301,0.103 -1.899,0.295 l 0.044,-0.012 -0.056,0.017 0.381,-0.887 c 0.239,-0.557 0.485,-1.112 0.712,-1.675 0.075,-0.183 0.21,-0.328 0.379,-0.415 l 0.005,-0.002 c 0.276,-0.145 0.598,-0.247 0.9379999,-0.286 l 0.013,-10e-4 c 0.289,-0.045 0.625,-0.071 0.966,-0.074 h 0.002 z"
         id="path33"
         style="fill:#ffffff;fill-opacity:1" />
      <path
         d="m 11.194551,21.856089 c -0.596,0.016 -1.163,0.111 -1.6999999,0.274 l 0.045,-0.012 c -0.046,0.018 -0.082,0.052 -0.103,0.094 l -0.001,0.001 q -0.317,0.647 -0.625,1.298 c -0.064,0.13 -0.125,0.262 -0.187,0.394 l 0.029,0.025 c 0.005,-0.018 0.011,-0.035 0.019,-0.05 l -10e-4,10e-4 q 0.534,-0.75 1.071,-1.497 c 0.036,-0.046 0.084,-0.081 0.139,-0.099 l 0.002,-10e-4 c 0.5699999,-0.216 1.2289999,-0.342 1.9179999,-0.342 0.049,0 0.097,0.001 0.145,0.002 h -0.007 c -0.026,-0.009 -0.06,-0.018 -0.094,-0.026 l -0.007,-10e-4 c -0.188,-0.038 -0.405,-0.06 -0.627,-0.06 -0.006,0 -0.012,0 -0.018,0 h 10e-4 z"
         id="path1-6"
         style="fill:#ffffff;fill-opacity:1" />
    </g>
  </g>
  <path
     d="m 574.5161,341.56532 c 5.12037,4.83789 8.72592,12.7521 11.47723,22.45846 4.48909,15.83713 5.27612,37.86783 5.27897,39.49679 0.009,5.70065 0.0101,11.40126 0.006,17.10191 -0.005,8.4774 8e-4,16.95478 0.009,25.43218 0.0152,16.02343 0.0169,32.04685 0.0145,48.07029 -0.002,12.37513 -7e-5,24.75025 0.004,37.12538 6e-4,1.77931 10e-4,3.55863 0.002,5.33795 9.1e-4,2.68141 0.002,5.36283 0.003,8.04425 0.008,24.92321 0.0128,49.84643 0.009,74.76964 l -4.7e-4,2.84582 c -8.1e-4,4.7596 -0.002,9.51919 -0.003,14.27878 l -5.2e-4,2.86435 c -3.4e-4,1.91149 -6.9e-4,3.82297 -0.001,5.73446 -0.005,29.74193 0.003,59.48382 0.021,89.22574 0.0207,33.43266 0.0314,66.86531 0.0274,100.29799 -4e-4,3.5663 -7.6e-4,7.13261 -10e-4,10.69892 l -2.8e-4,2.66086 c -10e-4,13.24226 0.005,26.48451 0.0161,39.72677 0.0121,15.064 0.0136,30.12795 10e-4,45.19195 -0.007,8.42396 -0.005,16.84783 0.009,25.27179 0.008,5.63515 0.006,11.27022 -0.006,16.90536 -0.006,3.20525 -0.006,6.41027 0.004,9.61551 0.0756,25.79923 -2.58467,48.50753 -21.38601,67.90453 -5.96393,5.8853 -12.33201,10.1132 -19.66309,14.0996 -2.67091,1.4577 -5.32037,2.9508 -7.96972,4.4473 -5.35033,3.0173 -10.71383,6.0104 -16.08106,8.9975 -5.26728,2.9342 -10.52642,5.8829 -15.78613,8.8306 -6.27249,3.5134 -12.54554,7.0258 -18.82031,10.5352 -10.07173,5.6341 -20.1363,11.2802 -30.17969,16.9648 -11.09473,6.2796 -22.21613,12.511 -33.34277,18.7339 -5.22017,2.9201 -10.43864,5.8432 -15.65723,8.7661 -6.27259,3.5132 -12.54554,7.0258 -18.82031,10.5352 -10.07173,5.6341 -20.1363,11.2802 -30.17969,16.9648 -13.19644,7.4692 -26.43132,14.8694 -39.66602,22.2705 -11.12369,6.2214 -22.2421,12.4515 -33.33398,18.7295 -11.09473,6.2796 -22.21613,12.511 -33.34277,18.7339 -5.22017,2.9201 -10.43864,5.8432 -15.65723,8.7661 -6.27259,3.5132 -12.54554,7.0258 -18.82031,10.5352 -10.07173,5.6341 -20.1363,11.2802 -30.17969,16.9648 -13.19644,7.4692 -26.43132,14.8694 -39.66602,22.2705 -11.12369,6.2214 -22.2421,12.4515 -33.33398,18.7295 -11.09473,6.2796 -22.216134,12.511 -33.342773,18.7339 -5.220164,2.9201 -10.438635,5.8432 -15.657227,8.7661 -6.272588,3.5132 -12.545541,7.0258 -18.820313,10.5352 -2.101606,1.1757 -4.203168,2.3514 -6.304687,3.5273 l -3.134033,1.7534 c -6.028661,3.3759 -12.046603,6.77 -18.055908,10.1802 C 19.462361,1364.6741 14.732635,1367.3396 10,1370 l -2.9614258,1.6675 c -2.9243585,1.6411 -5.8553312,3.2698 -8.7885742,4.895 l -2.6315918,1.481 c -17.7209682,9.752 -37.6229812,13.2339 -57.4934082,8.4565 -8.189032,-2.5752 -15.608636,-6.4329 -23.125,-10.5 -1.846173,-0.9847 -3.692539,-1.9691 -5.539062,-2.9531 -11.966678,-6.4085 -23.811338,-13.0245 -35.613278,-19.7305 -6.10086,-3.4658 -12.22296,-6.893 -18.34766,-10.3164 -8.01134,-4.4801 -16.01218,-8.9781 -24,-13.5 -11.09467,-6.2797 -22.21613,-12.511 -33.34277,-18.7339 -6.26052,-3.502 -12.51872,-7.0082 -18.77735,-10.5137 -5.23263,-2.9305 -10.46582,-5.8601 -15.70019,-8.7876 -11.0214,-6.1654 -22.03014,-12.3521 -33.02051,-18.5727 -10.14911,-5.7412 -20.32504,-11.4343 -30.50195,-17.126 -6.26052,-3.502 -12.51872,-7.0082 -18.77735,-10.5137 -5.23263,-2.9305 -10.46582,-5.8601 -15.70019,-8.7876 -11.0214,-6.1654 -22.03014,-12.3521 -33.02051,-18.5727 C -378.5395,1211.5572 -389.77038,1205.2799 -401,1199 c -13.12913,-7.3421 -26.24966,-14.6983 -39.34082,-22.1079 -10.14911,-5.7412 -20.32504,-11.4343 -30.50195,-17.126 -6.26052,-3.502 -12.51872,-7.0082 -18.77735,-10.5137 -5.23263,-2.9305 -10.46582,-5.8601 -15.70019,-8.7876 -11.0214,-6.1654 -22.03014,-12.3521 -33.02051,-18.5727 C -549.5395,1115.5572 -560.77038,1109.2799 -572,1103 c -26.523,-14.8323 -26.523,-14.8323 -39.44629,-22.1628 -4.91664,-2.7883 -9.84302,-5.5566 -14.78808,-8.2942 l -3.11475,-1.7342 c -1.94747,-1.0837 -3.89809,-2.1618 -5.85254,-3.2329 -14.90241,-8.32 -36.60305,-16.3265 -22.8018,-23.9322 374.10329,-206.16423 623.791439,-348.12868 1199.91685,-685.38878 20.90489,-12.23759 30.46757,-20.7477 32.60271,-16.6896 z"
     fill="#3847A9"
     id="path1"
     transform="translate(678,13)"
     style="fill:#b1c8ec;fill-opacity:1"
     sodipodi:nodetypes="cscscssssssssssssssscscccccccscscscscscscscssscccccccccccccscccsccsccsccsccccssc" />
  <path
     d="m 417.49704,-218.95474 c 414.86517,228.975047 446.9654,248.829466 583.88236,327.29263 9.5701,5.16643 19.1,10.40502 28.6206,15.66211 l 3,-2 c -5.6266,15.50016 -20.2128,25.3486 -34,33 -1.88205,1.06024 -3.76352,2.12151 -5.64453,3.18359 -5.34734,3.01175 -10.70679,6.0013 -16.06934,8.98584 -5.26728,2.93418 -10.52642,5.88285 -15.78613,8.83057 -6.27249,3.51342 -12.54554,7.02582 -18.82031,10.53516 -10.07173,5.63418 -20.1363,11.28026 -30.17969,16.96484 -11.09473,6.27964 -22.21613,12.51101 -33.34277,18.73389 -5.22017,2.92009 -10.43864,5.84321 -15.65723,8.76611 -6.27259,3.51324 -12.54554,7.02582 -18.82031,10.53516 -10.07173,5.63418 -20.1363,11.28026 -30.17969,16.96484 -13.19644,7.46921 -26.43132,14.86936 -39.66602,22.27051 -11.12369,6.22143 -22.2421,12.45147 -33.33398,18.72949 -11.09473,6.27964 -22.21613,12.51101 -33.34277,18.73389 -5.22017,2.92009 -10.43864,5.84321 -15.65723,8.76611 -6.27259,3.51324 -12.54554,7.02582 -18.82031,10.53516 -10.07173,5.63418 -20.1363,11.28026 -30.17969,16.96484 -13.19644,7.46921 -26.43132,14.86936 -39.66602,22.27051 -11.12369,6.22143 -22.2421,12.45147 -33.33398,18.72949 -11.09473,6.27964 -22.21613,12.51101 -33.34277,18.73389 -5.22017,2.92009 -10.43864,5.84321 -15.65723,8.76611 -6.27259,3.51324 -12.54554,7.02582 -18.82031,10.53516 -2.10161,1.1757 -4.20317,2.35148 -6.30469,3.52734 l -3.13403,1.75342 c -6.02866,3.3759 -12.04661,6.76995 -18.05591,10.18017 C 470.46236,451.67414 465.73263,454.33957 461,457 l -2.96143,1.66748 c -2.92435,1.64115 -5.85533,3.26981 -8.78857,4.89502 l -2.63159,1.48096 C 428.89744,474.79552 408.99543,478.27736 389.125,473.5 380.93597,470.92478 373.51636,467.06709 366,463 c -1.84617,-0.98472 -3.69254,-1.96907 -5.53906,-2.95313 C 348.49426,453.6384 336.6496,447.02235 324.84766,440.31641 318.7468,436.85064 312.6247,433.42342 306.5,430 c -8.01134,-4.48014 -16.01218,-8.97806 -24,-13.5 -11.09467,-6.27973 -22.21613,-12.51101 -33.34277,-18.73389 -6.26052,-3.50205 -12.51872,-7.00825 -18.77735,-10.51367 -5.23263,-2.93057 -10.46582,-5.86013 -15.70019,-8.7876 -11.0214,-6.16543 -22.03014,-12.35218 -33.02051,-18.57275 -10.14911,-5.74121 -20.32504,-11.43426 -30.50195,-17.12598 -6.26052,-3.50205 -12.51872,-7.00825 -18.77735,-10.51367 -5.23263,-2.93057 -10.46582,-5.86013 -15.70019,-8.7876 C 105.65829,317.29941 94.649547,311.11266 83.65918,304.89209 72.460505,298.55716 61.22962,292.27986 50,286 36.87087,278.65789 23.750341,271.30171 10.65918,263.89209 0.51007325,258.15088 -9.6658576,252.45783 -19.842773,246.76611 c -6.260516,-3.50205 -12.518713,-7.00825 -18.777344,-10.51367 -5.232633,-2.93057 -10.465825,-5.86013 -15.700195,-8.7876 C -65.341705,221.29941 -76.350453,215.11266 -87.34082,208.89209 -98.539495,202.55716 -109.77038,196.27986 -121,190 c -26.523,-14.83226 -26.523,-14.83226 -39.44629,-22.16284 -4.91664,-2.78828 -9.84302,-5.55658 -14.78808,-8.29419 l -3.11475,-1.73413 c -1.94747,-1.08373 -3.89809,-2.16183 -5.85254,-3.23291 -14.22899,-7.94407 -19.27859,-10.0202 -30.98302,-18.53167 7.21541,-4.12246 11.13296,-6.46417 21.57839,-12.53788 266.573734,-153.774529 -22.34406,18.23351 611.10333,-342.46112 z"
     fill="#283593"
     transform="translate(227,926)"
     id="path4"
     sodipodi:nodetypes="cccccccccscscscscscscscssscccccccccccccscccsccsccsccsccccccc"
     style="fill:#688cc5;fill-opacity:1" />
  <g
     id="g10"
     transform="translate(938.77081,-733.64095)"
     clip-path="url(#clipPath68)">
    <g
       id="g6"
       transform="matrix(62.991206,0,0,62.991206,-784.56588,1012.6833)"
       style="stroke:#ffffff;stroke-opacity:1">
      <path
         d="m 13.082,12.848 c 0.22803,0.07379 0.6527,0.0173 0.89027,-0.17283 0.23756,-0.19014 0.46448,-0.57609 0.63024,-0.86316 0.16574,-0.28708 0.38654,-0.67657 0.43241,-0.97739 0.04587,-0.30082 -0.11756,-0.69684 -0.29547,-0.85743 -0.7186,-0.64865 -0.96026,-0.80235 -0.96008,-1.9774 -1.85e-4,-1.175 0.24146,-1.3287 0.96006,-1.9774 C 14.91735,5.8618 15.08077,5.46579 15.03488,5.16497 14.98901,4.86415 14.76823,4.47465 14.60247,4.18758 14.43673,3.9005 14.20984,3.51455 13.97223,3.32442 13.73467,3.13428 13.30999,3.0778 13.08196,3.15158 12.16092,3.44961 11.90696,3.58201 10.88946,2.99434 9.87176,2.407 9.85946,2.12087 9.65706,1.17424 9.606954,0.93987 9.3457,0.60032 9.06224,0.48963 8.77881,0.37895 8.33111,0.37541 7.99954,0.37541 c -0.3315,0 -0.7792,0.003543 -1.0627,0.11422 C 6.65341,0.60031 6.39215,0.93985 6.34202,1.17424 6.1396,2.12089 6.12729,2.40704 5.10962,2.99434 4.09212,3.58201 3.83822,3.44961 2.91712,3.15158 2.68907,3.077794 2.26439,3.134282 2.02683,3.32441 1.78926,3.51455 1.56235,3.9005 1.39659,4.18757 1.23085,4.47465 1.01007,4.86414 0.96418,5.16496 0.918311,5.46578 1.08174,5.86181 1.25965,6.02238 c 0.7186,0.64865 0.96026,0.80235 0.96003,1.9774 2.083e-4,1.175 -0.24143,1.3287 -0.96003,1.9774 -0.17792,0.16059 -0.34134,0.5566 -0.29547,0.85742 0.045892,0.30082 0.26667,0.69032 0.43241,0.97739 0.16576,0.28708 0.39265,0.67303 0.63024,0.86316 0.23759,0.19013 0.66226,0.24662 0.89029,0.17283 0.92104,-0.29803 1.175,-0.43043 2.1925,0.15724 1.0177,0.58734 1.03,0.87347 1.2324,1.8201 0.05013,0.23437 0.31138,0.57392 0.59482,0.68461 0.28346,0.11068 0.73115,0.11422 1.0627,0.11422 0.33153,2e-6 0.77922,-0.0035 1.0627,-0.11422 0.28346,-0.11068 0.54471,-0.45022 0.59482,-0.68461 0.20244,-0.94665 0.21473,-1.2328 1.2324,-1.8201 1.0175,-0.58767 1.2714,-0.45527 2.1925,-0.15725 z"
         fill="none"
         stroke="#223a54"
         stroke-linejoin="round"
         stroke-width="0.75"
         id="path18"
         style="stroke:#ffffff;stroke-opacity:1" />
    </g>
    <path
       id="path22"
       style="fill:#ffffff;fill-opacity:1;stroke-width:19.6186"
       d="m -460.70898,1313.7188 0.002,0.01 c -41.88907,0 -118.88768,12.059 -133.9375,37.8086 17.61986,-4.4023 43.0762,-12.6703 54.58594,-6.2988 10.67069,30.3811 35.84242,65.8654 82.10937,63.6152 46.26706,-2.2501 43.55343,-3.4711 49.01172,12.6816 16.52445,48.8937 2.94632,96.8824 -48.55078,151.9668 -26.63451,28.4909 -34.83115,61.174 -32.05078,91.9922 3.1867,35.3223 9.55123,80.7546 35.08594,90.6934 10.47823,-8.6613 12.8766,-9.7756 15.0996,-21.6992 -21.33141,-6.289 -23.61819,-42.9082 -27.28906,-69.2266 -4.20905,-30.1772 8.10118,-52.5232 26.1582,-73.7695 28.8071,-33.8981 44.59331,-71.5036 50.12696,-87.834 11.05928,-32.6358 7.12511,-75.0364 1.49023,-140.8242 -3.33222,-38.8895 -33.00779,-49.1114 -71.84179,-49.1113 z m -14.59961,18.3496 a 53.783088,36.430986 10.156549 0 1 0.91797,0.049 27.696604,20.771978 0 0 0 -13.35938,17.7461 27.696604,20.771978 0 0 0 27.69531,20.7715 27.696604,20.771978 0 0 0 27.69727,-20.7715 27.696604,20.771978 0 0 0 -1.91992,-7.5957 53.783088,36.430986 10.156549 0 1 22.27539,34.5312 53.783088,36.430986 10.156549 0 1 -56.97852,28.5977 53.783088,36.430986 10.156549 0 1 -49.41015,-43.9766 53.783088,36.430986 10.156549 0 1 43.08203,-29.3515 z m 2.78906,3.9414 a 8.30917,8.30917 0 0 1 8.30859,8.3105 8.30917,8.30917 0 0 1 -8.30859,8.3086 8.30917,8.30917 0 0 1 -8.31055,-8.3086 8.30917,8.30917 0 0 1 8.31055,-8.3105 z" />
    <path
       d="m -280.63623,1225.3416 -9.80836,88.2822 9.80836,68.6667 9.81025,-68.6667 z"
       id="path24"
       style="fill:#ffffff;fill-opacity:1;stroke:none;stroke-width:19.6186;stroke-opacity:1" />
    <path
       id="path26"
       style="fill:#ffffff;fill-opacity:1;stroke-width:19.6186"
       d="m -100.54492,1313.7188 c -38.834,0 -68.50957,10.2218 -71.8418,49.1113 -5.63505,65.7878 -9.56892,108.1884 1.49024,140.8242 5.53388,16.3304 21.31987,53.9359 50.12695,87.834 18.05702,21.2463 30.367266,43.5923 26.158202,73.7695 -3.67049,26.3184 -5.957762,62.9376 -27.289062,69.2266 2.22296,11.9236 4.62167,13.0379 15.09961,21.6992 25.534691,-9.9388 31.899217,-55.3711 35.085936,-90.6934 2.780426,-30.8182 -5.416272,-63.5013 -32.050776,-91.9922 -51.4971,-55.0844 -65.07523,-103.0731 -48.55079,-151.9668 5.45819,-16.1527 2.74478,-14.9317 49.01172,-12.6816 46.266955,2.2502 71.438688,-33.2341 82.109378,-63.6152 11.5097294,-6.3715 36.968025,1.8965 54.58789,6.2988 -15.049829,-25.7496 -92.050383,-37.8086 -133.939458,-37.8086 z m 14.556639,18.3359 a 36.430986,53.783088 79.843451 0 1 43.082031,29.3515 36.430986,53.783088 79.843451 0 1 -49.410156,43.9766 36.430986,53.783088 79.843451 0 1 -56.978514,-28.5976 36.430986,53.783088 79.843451 0 1 22.33008,-34.5704 27.696604,20.771978 0 0 0 -1.96875,7.6407 27.696604,20.771978 0 0 0 27.69726,20.7734 27.696604,20.771978 0 0 0 27.695314,-20.7734 27.696604,20.771978 0 0 0 -13.373046,-17.75 36.430986,53.783088 79.843451 0 1 0.925781,-0.051 z m -27.472659,3.9648 a 8.30917,8.30917 0 0 1 8.06055,8.3008 8.30917,8.30917 0 0 1 -8.30859,8.3086 8.30917,8.30917 0 0 1 -8.31055,-8.3086 8.30917,8.30917 0 0 1 2.10156,-5.4707 36.430986,53.783088 79.843451 0 1 6.45703,-2.8301 z" />
    <path
       id="path25"
       style="fill:#ffffff;fill-opacity:1;stroke-width:19.6105"
       d="m -351.1371,1619.5958 c -31.14285,-0.5291 -36.41458,51.9378 -6.17944,65.3664 43.98046,19.5316 56.00234,43.4579 67.35587,57.8976 l 1.86454,28.0153 c -13.67476,4.4591 -86.33827,21.7103 -78.44421,35.484 33.0855,-2.7458 51.38508,-11.202 85.90615,-11.2033 v 0.063 c 34.52044,0 52.82001,8.4576 85.90552,11.2032 7.89405,-13.7737 -64.76882,-31.0247 -78.44421,-35.484 l 1.86454,-28.0152 c 11.35353,-14.4397 23.3754,-38.3661 67.35586,-57.8976 30.2383,-13.4286 24.96657,-65.8969 -6.17943,-65.3665 -31.13908,0.5292 -48.10009,3.7335 -70.50795,3.7342 v -0.063 c -22.40849,-8e-4 -39.36887,-3.2044 -70.50858,-3.7341 z" />
  </g>
</svg>
